<svg width="2708" height="1570" viewBox="0 0 2708 1570" fill="none" xmlns="http://www.w3.org/2000/svg">
<g clip-path="url(#clip0_392_1096)">
<path d="M1631.02 177.816C1618.75 181.201 1608.5 188.635 1601.03 198.441V198.364C1587.6 209.844 1579.95 208.637 1576.67 207.003L1548.05 86.7517C1545.88 77.6452 1537.26 72.1191 1528.81 74.493L1218.85 160.303C1210.41 162.638 1205.28 171.939 1207.48 181.046L1236.29 302.037C1228.56 311.688 1210.98 305.15 1210.98 305.15C1200.48 301.064 1188.82 300.246 1177.2 303.438C1146.42 311.96 1127.86 345.779 1135.77 378.974C1143.67 412.17 1175.04 432.173 1205.82 423.65C1218.09 420.264 1228.34 412.831 1235.82 403.024V403.102C1246.93 393.607 1254.08 392.828 1258.08 393.723L1286.99 515.22C1289.16 524.326 1297.79 529.853 1306.23 527.479L1616.19 441.668C1624.63 439.333 1629.76 430.032 1627.56 420.926L1599.15 301.57C1605.87 288.883 1625.86 296.316 1625.86 296.316C1636.36 300.402 1648.02 301.219 1659.64 298.028C1690.43 289.506 1708.98 255.687 1701.08 222.492C1693.17 189.296 1661.81 169.293 1631.02 177.816Z" fill="#BFBFBF"/>
<path d="M1235.85 155.556C1234.01 156.062 1242.24 207.821 1305.9 217.939C1369.57 228.057 1521.95 333.637 1502.1 473.269C1502.1 473.269 1546.17 461.049 1544.22 461.594C1542.27 462.139 1542.45 279.621 1374.77 226.929C1207.09 174.236 1345.93 125.046 1345.93 125.046L1235.85 155.517V155.556Z" fill="#E6E6E6"/>
<path d="M1986.47 993.069C1995.53 1004.86 2007.44 1012.53 2020.22 1016.03H2020.18C2037.36 1025.25 2039.89 1034.2 2039.96 1038.56L1940.57 1127.41C1933.02 1134.14 1931.98 1146.2 1938.22 1154.34L2167.19 1452.16C2173.43 1460.3 2184.62 1461.43 2192.16 1454.69L2292.17 1365.3C2304.95 1369.16 2307.19 1391.45 2307.19 1391.45C2308.38 1404.84 2313.18 1418.03 2321.73 1429.2C2344.47 1458.78 2385.15 1462.91 2412.58 1438.35C2440.01 1413.83 2443.83 1369.97 2421.06 1340.4C2412 1328.61 2400.09 1320.94 2387.31 1317.44H2387.35C2373.13 1309.81 2368.94 1302.38 2367.89 1297.55L2468.3 1207.81C2475.85 1201.08 2476.89 1189.01 2470.65 1180.88L2275.1 926.522L2241.68 883.014C2235.44 874.88 2224.25 873.752 2216.71 880.484L2118.07 968.668C2102.91 967.384 2100.34 942.011 2100.34 942.011C2099.15 928.623 2094.35 915.431 2085.8 904.262C2063.06 874.685 2022.39 870.56 1994.96 895.117C1967.53 919.634 1963.7 963.492 1986.47 993.069Z" fill="#BFBFBF"/>
<path d="M741.482 1406.82C749.783 1405.07 756.893 1400.52 762.235 1394.29C772.196 1386.74 777.321 1388.53 779.198 1389.82L794.032 1470.96C795.151 1477.15 800.709 1481.15 806.447 1479.95L1016.39 1435.27C1022.13 1434.07 1025.85 1428.07 1024.73 1421.88L1009.9 1340.86C1008.17 1339.58 1003.04 1337.48 992.79 1345.3C987.449 1351.49 980.338 1356.04 972.037 1357.79C951.176 1362.23 930.929 1347.59 926.814 1325.1C922.7 1302.61 936.27 1280.77 957.131 1276.34C964.999 1274.66 972.759 1275.71 979.617 1278.87C979.617 1278.87 993.368 1284.9 997.987 1275.71L983.298 1195.47C982.179 1189.28 976.621 1185.27 970.882 1186.48L880.255 1205.74C871.666 1200.8 877.332 1185.9 877.332 1185.9C880.255 1178.5 881.23 1170.14 879.678 1161.65C875.563 1139.16 855.316 1124.53 834.455 1128.96C813.594 1133.4 800.023 1155.23 804.137 1177.72C805.762 1186.67 809.984 1194.38 815.723 1200.1C823.05 1211.31 820.956 1216.83 819.801 1218.62L760.935 1231.16C755.197 1232.36 751.479 1238.36 752.598 1244.54L767.324 1324.94C762.632 1333.86 749.061 1327.9 749.061 1327.9C742.204 1324.75 734.444 1323.7 726.576 1325.37C705.715 1329.81 692.144 1351.64 696.259 1374.13C700.373 1396.63 720.621 1411.26 741.482 1406.82Z" fill="#BFBFBF"/>
<path d="M898.41 1201.89C898.41 1201.89 904.293 1253.18 877.549 1290.58C850.805 1327.98 799.374 1443.64 816.409 1477.77L838.678 1473.02C838.678 1473.02 814.677 1443.33 847.918 1371.6C881.158 1299.88 929.305 1266.8 922.592 1196.71L898.41 1201.85V1201.89Z" fill="#E6E6E6"/>
<path d="M2545.03 429.402C2540.05 425.432 2534.2 423.487 2528.43 423.448C2519.66 421.346 2518.04 417.455 2517.75 415.742L2551.28 366.902C2553.84 363.166 2553.12 357.952 2549.65 355.189L2423.29 254.356C2419.83 251.593 2414.99 252.372 2412.43 256.108L2378.97 304.87C2379.19 306.504 2380.67 310.552 2389.66 312.692C2395.43 312.77 2401.24 314.677 2406.26 318.685C2418.82 328.687 2421.45 347.794 2412.18 361.337C2402.9 374.88 2385.18 377.721 2372.62 367.72C2367.89 363.945 2364.57 358.886 2362.77 353.321C2362.77 353.321 2359.01 342.268 2352.12 344.136L2318.99 392.431C2316.43 396.167 2317.15 401.382 2320.61 404.145L2375.15 447.654C2376.92 455.126 2366.59 459.173 2366.59 459.173C2361.43 461.119 2356.74 464.699 2353.24 469.797C2343.96 483.34 2346.6 502.409 2359.16 512.449C2371.72 522.451 2389.4 519.61 2398.72 506.067C2402.4 500.697 2404.2 494.431 2404.27 488.204C2406.29 478.359 2410.12 476.88 2411.6 476.646L2447.04 504.9C2450.51 507.663 2455.34 506.884 2457.91 503.148L2491.11 454.736C2497.93 453.063 2501.65 463.96 2501.65 463.96C2503.45 469.525 2506.77 474.584 2511.5 478.359C2524.06 488.36 2541.75 485.519 2551.06 471.976C2560.34 458.433 2557.7 439.364 2545.14 429.324L2545.03 429.402Z" fill="#BFBFBF"/>
<path d="M2349.49 427.144C2349.49 427.144 2443.22 439.013 2455.09 398.969C2466.97 358.924 2418.93 345.731 2463.75 286.617L2476.42 296.735C2476.42 296.735 2450.62 291.598 2455.09 331.682C2459.57 371.727 2484.07 391.652 2462.53 418.543C2440.98 445.435 2375.11 447.614 2375.11 447.614L2349.49 427.183V427.144Z" fill="#E6E6E6"/>
<path d="M782.532 594.111C774.953 584.226 764.956 577.766 754.236 574.809H754.272C738.861 566.558 737.49 558.542 737.706 555.195L820.862 480.981C827.178 475.339 828.081 465.22 822.847 458.371L630.802 208.178C625.569 201.368 616.185 200.395 609.832 206.038L526.785 280.134C526.496 283.287 527.507 291.537 543.351 299.982H543.315C554.034 302.978 564.032 309.399 571.611 319.323C590.704 344.191 587.455 381.005 564.429 401.553C541.402 422.101 507.223 418.637 488.167 393.809C480.984 384.43 476.942 373.378 475.967 362.092C475.967 362.092 473.694 339.676 460.051 339.676L377.797 413.15C371.481 418.793 370.579 428.911 375.812 435.761L458.715 543.753C458.824 558.542 437.89 560.954 437.89 560.954C427.46 562.005 417.174 566.364 408.475 574.108C385.413 594.695 382.201 631.51 401.293 656.338C420.386 681.206 454.529 684.669 477.555 664.083C486.723 655.91 492.75 645.13 495.493 633.611C503.433 616.332 511.157 615.398 514.008 615.787L567.858 685.915C573.091 692.725 582.475 693.698 588.827 688.055L671.225 614.503C684.615 614.776 686.853 636.919 686.853 636.919C687.827 648.166 691.87 659.257 699.052 668.636C718.144 693.503 752.287 696.967 775.314 676.38C798.377 655.793 801.589 618.979 782.496 594.15L782.532 594.111Z" fill="#BFBFBF"/>
<path d="M568.649 242.814C568.649 242.814 666.459 301.578 666.386 356.333C666.35 411.088 520.503 575.159 588.825 688.055L619.936 660.931C619.936 660.931 573.666 653.264 592.326 578.623C610.985 503.981 691.903 372.95 686.345 323.137C680.787 273.363 609.794 206.038 609.794 206.038L568.613 242.775L568.649 242.814Z" fill="#E6E6E6"/>
<path d="M1653.34 1412.39C1648.69 1408.65 1643.28 1406.9 1637.86 1406.83C1629.7 1404.84 1628.15 1401.22 1627.9 1399.63L1659.16 1354.06C1661.54 1350.59 1660.85 1345.69 1657.64 1343.12L1539.76 1249.06C1536.55 1246.49 1532 1247.23 1529.62 1250.69L1498.4 1296.19C1498.62 1297.7 1499.99 1301.48 1508.36 1303.5C1513.74 1303.58 1519.16 1305.37 1523.85 1309.07C1535.54 1318.41 1538.03 1336.23 1529.37 1348.84C1520.71 1361.45 1504.18 1364.13 1492.48 1354.79C1488.08 1351.25 1484.98 1346.54 1483.28 1341.33C1483.28 1341.33 1479.78 1331.02 1473.32 1332.77L1442.39 1377.83C1440.01 1381.3 1440.69 1386.2 1443.9 1388.77L1494.79 1429.36C1496.45 1436.32 1486.82 1440.14 1486.82 1440.14C1481.98 1441.97 1477.61 1445.31 1474.33 1450.06C1465.67 1462.67 1468.12 1480.49 1479.85 1489.83C1491.54 1499.17 1508.07 1496.53 1516.74 1483.88C1520.17 1478.86 1521.86 1473.02 1521.9 1467.22C1523.77 1458.04 1527.35 1456.64 1528.72 1456.44L1561.78 1482.83C1564.99 1485.4 1569.54 1484.66 1571.92 1481.19L1602.89 1436.05C1609.24 1434.5 1612.71 1444.65 1612.71 1444.65C1614.4 1449.83 1617.51 1454.58 1621.91 1458.08C1633.6 1467.42 1650.13 1464.77 1658.79 1452.12C1667.46 1439.52 1665 1421.69 1653.27 1412.35L1653.34 1412.39Z" fill="#BFBFBF"/>
<path d="M1454.77 1397.37C1454.77 1397.37 1456.72 1374.37 1505.84 1384.14C1554.96 1393.91 1601.19 1383.13 1604.55 1360.98C1607.87 1338.88 1583.58 1284.01 1583.58 1284.01L1624.44 1316.62C1624.44 1316.62 1642.23 1357.4 1615.52 1377.44C1588.81 1397.49 1518.25 1386.98 1496.31 1397.37C1474.36 1407.76 1481.47 1418.66 1481.47 1418.66L1452.46 1398.5" fill="#E6E6E6"/>
</g>
<g clip-path="url(#clip1_392_1096)">
<path d="M2376.41 578.413H1928.79C1916.6 578.413 1906.67 589.076 1906.67 602.269V774.979C1909.74 778.326 1919.45 784.903 1943.45 773.345V773.423C1956.73 762.993 1973.04 756.766 1990.76 756.766C2035.23 756.766 2071.25 795.644 2071.25 843.55C2071.25 891.456 2035.19 930.333 1990.76 930.333C1973.98 930.333 1958.43 924.807 1945.54 915.35C1945.54 915.35 1919.59 896.943 1906.67 913.794V1084.87C1906.67 1098.02 1916.56 1108.73 1928.79 1108.73H2376.41C2388.61 1108.73 2398.53 1098.06 2398.53 1084.87V602.23C2398.53 589.076 2388.64 578.374 2376.41 578.374V578.413Z" fill="#60C4F0"/>
<path opacity="0.4" d="M2376.41 578.413H1928.79C1916.6 578.413 1906.67 589.076 1906.67 602.269V774.979C1909.74 778.326 1919.45 784.903 1943.45 773.345V773.423C1956.73 762.993 1973.04 756.766 1990.76 756.766C2035.23 756.766 2071.25 795.644 2071.25 843.55C2071.25 891.456 2035.19 930.333 1990.76 930.333C1973.98 930.333 1958.43 924.807 1945.54 915.35C1945.54 915.35 1919.59 896.943 1906.67 913.794V1084.87C1906.67 1098.02 1916.56 1108.73 1928.79 1108.73H2376.41C2388.61 1108.73 2398.53 1098.06 2398.53 1084.87V602.23C2398.53 589.076 2388.64 578.374 2376.41 578.374V578.413Z" fill="#60C4F0"/>
<path opacity="0.4" d="M2227.35 1108.76L2220.74 1024.66C2218.04 995.399 2213.27 976.369 2231.61 977.809C2249.94 979.249 2265.57 1001.24 2272.35 1029.06L2280.58 1108.76" fill="black"/>
<path opacity="0.4" d="M2307.29 1108.77C2306.39 1084.79 2310.4 956.564 2310.4 956.564C2310.4 925.081 2294.77 834.328 2298.16 790.392C2301.55 746.455 2312.42 723.767 2328.05 725.246C2343.67 726.725 2350.46 761.827 2350.46 761.827C2350.46 761.827 2359.95 758.908 2368.11 777.199C2376.26 795.49 2393.91 840.866 2393.91 840.866C2393.91 840.866 2421.99 977.229 2418.74 1108.73H2307.33L2307.29 1108.77Z" fill="black"/>
<path d="M2381.93 1553.97C2381.93 1553.97 2370.13 1360.63 2347.35 1346.08C2343.38 1343.55 2273.72 1277.9 2254.05 1207.61C2234.38 1137.33 2242.5 1053.89 2239.8 1024.59C2237.09 995.286 2232.33 976.295 2250.66 977.734C2269 979.174 2284.62 1001.16 2291.41 1028.99C2298.19 1056.81 2293.43 1118.3 2302.27 1130.01C2311.12 1141.73 2317.21 1134.41 2317.21 1132.19C2317.21 1129.97 2329.45 987.969 2329.45 956.525C2329.45 925.081 2313.82 834.289 2317.21 790.352C2320.61 746.416 2331.47 723.728 2347.1 725.207C2362.73 726.685 2369.51 761.788 2369.51 761.788C2369.51 761.788 2379 758.869 2387.16 777.16C2395.32 795.451 2412.97 840.827 2412.97 840.827C2412.97 840.827 2414.99 805.686 2429.24 804.246C2443.5 802.767 2450.97 820.357 2456.39 841.566C2461.8 862.776 2470.64 895.738 2475.41 921.345C2480.17 946.952 2484.9 988.709 2484.9 988.709C2484.9 988.709 2489.66 919.165 2494.39 907.452C2499.15 895.738 2516.12 885.503 2520.88 895.738C2525.65 905.973 2516.12 1022.37 2516.12 1044.32C2516.12 1066.27 2494.39 1236.1 2502.55 1274.16C2510.7 1312.22 2588.73 1553.89 2588.73 1553.89H2381.96L2381.93 1553.97Z" fill="#B97964"/>
<path d="M2396.72 1029.45C2399.18 991.977 2401.6 954.189 2397.01 916.791C2392.97 883.984 2384.42 851.995 2378.86 819.5C2375.43 799.536 2373.12 779.416 2372.33 759.141C2372.18 755.405 2366.77 755.366 2366.91 759.141C2368.25 792.959 2374.17 825.999 2380.95 859C2384.31 875.345 2387.77 891.729 2390.37 908.229C2393.33 926.948 2394.27 945.978 2394.2 964.93C2394.13 986.451 2392.72 1007.97 2391.31 1029.45C2391.06 1033.19 2396.47 1033.19 2396.72 1029.45Z" fill="#942E38"/>
<path d="M2411.45 839.504C2421.67 863.009 2431.81 887.293 2438.34 912.316C2441.45 924.224 2441.59 936.366 2441.84 948.664C2442.17 965.398 2442.1 982.171 2441.99 998.905C2441.91 1009.1 2441.81 1019.26 2441.63 1029.45C2441.55 1033.23 2446.97 1033.23 2447.04 1029.45C2447.51 1003.92 2447.73 978.357 2447.36 952.789C2447.18 940.297 2447.44 927.338 2444.69 915.157C2441.08 899.162 2435.09 883.674 2429.25 868.496C2425.1 857.755 2420.76 847.092 2416.18 836.546C2414.7 833.16 2410.05 836.118 2411.49 839.504H2411.45Z" fill="#942E38"/>
<path d="M2482.59 978.825C2480.6 1003.07 2482.34 1027.59 2482.37 1051.87C2482.37 1055.65 2487.79 1055.65 2487.79 1051.87C2487.79 1027.59 2486.02 1003.07 2488 978.825C2488.33 975.089 2482.88 975.089 2482.59 978.825Z" fill="#942E38"/>
<path opacity="0.2" d="M1996.72 578.18C1996.72 578.18 1998.34 693.099 2093.37 733.728C2188.37 774.357 2173.64 844.99 2149.06 903.286C2124.48 961.583 1970.52 1108.65 1977.08 1108.65H2072.15C2072.15 1108.65 2062.26 1061.36 2134.3 966.448C2206.38 871.531 2229.8 793.815 2190.24 749.645C2150.69 705.475 2036.02 687.807 2075.33 578.296H1986.87" fill="#E6E6E6"/>
<path d="M1942.47 756.378C1924.79 756.378 1908.48 762.604 1895.16 773.034V772.956C1871.84 784.164 1861.99 778.288 1858.63 774.863V601.88C1858.63 588.726 1848.74 578.024 1836.51 578.024H1388.9C1376.7 578.024 1366.77 588.687 1366.77 601.88V774.591C1369.84 777.937 1379.55 784.514 1403.55 772.956V773.034C1416.83 762.604 1433.14 756.378 1450.87 756.378C1495.33 756.378 1531.35 795.255 1531.35 843.161C1531.35 891.067 1495.29 929.944 1450.87 929.944C1434.08 929.944 1418.53 924.418 1405.64 914.962C1405.64 914.962 1379.69 896.554 1366.77 913.405V1084.48C1366.77 1097.63 1376.66 1108.34 1388.9 1108.34H1582.13C1597.94 1122.23 1580.65 1150.37 1580.65 1150.37C1571.88 1164.26 1566.76 1181.03 1566.76 1199.13C1566.76 1247.07 1602.81 1285.91 1647.24 1285.91C1691.67 1285.91 1727.73 1247.03 1727.73 1199.13C1727.73 1180.06 1722.02 1162.43 1712.35 1148.11C1701.52 1121.92 1707.88 1111.53 1710.98 1108.34H1836.47C1848.67 1108.34 1858.6 1097.67 1858.6 1084.48V913.055C1871.59 896.788 1897.21 915.001 1897.21 915.001C1910.1 924.457 1925.66 929.983 1942.44 929.983C1986.9 929.983 2022.92 891.106 2022.92 843.2C2022.92 795.294 1986.87 756.417 1942.44 756.417L1942.47 756.378Z" fill="#4008E2"/>
<path opacity="0.2" d="M1453.1 1107.33C1453.1 1107.33 1468.95 1016.88 1604.4 932.435C1739.82 847.987 1592.38 578.063 1592.38 578.063H1633.24C1633.24 578.063 1730.07 686.173 1725.45 842.733C1720.4 1014 1572.1 928.349 1527.02 1014C1481.94 1099.66 1516.52 1107.4 1516.52 1107.4L1453.14 1107.29L1453.1 1107.33Z" fill="#E6E6E6"/>
<path opacity="0.2" d="M1745.12 1107.44C1745.12 1107.44 1745.12 1058.41 1797.82 1010.54C1850.51 962.673 1858.63 958.587 1858.63 958.587V997.075C1858.63 997.075 1801.97 1020.04 1792.26 1051.17C1782.55 1082.3 1801.86 1107.4 1801.86 1107.4H1745.09L1745.12 1107.44Z" fill="#E6E6E6"/>
<path opacity="0.4" d="M1421.56 694.424C1421.56 694.424 1441.19 712.17 1457.36 692.673C1457.36 692.673 1499.95 726.374 1525.72 712.403C1525.72 712.403 1576.94 728.631 1597.15 707.811L1604.73 692.673C1604.73 692.673 1637.28 697.42 1644.57 664.964C1648.65 646.829 1628.69 615.696 1616.64 602.854C1616.64 602.854 1624.76 582.656 1623.64 582.656C1621.11 582.656 1415.21 585.303 1415.21 585.303L1421.52 694.463L1421.56 694.424Z" fill="black"/>
<path d="M1721.48 398.697C1716.18 401.577 1517.89 371.145 1480.64 391.225C1443.39 411.306 1380.09 521.478 1378.79 555.88C1377.45 590.282 1408.85 686.6 1410.19 692.321C1411.52 698.042 1437.73 698.781 1444.77 660.76C1446.1 653.599 1447.44 633.518 1447.44 633.518C1447.44 633.518 1493.99 729.603 1537.85 686.561C1537.85 686.561 1559.07 713.024 1575.71 697.652C1592.35 682.281 1588.38 675.081 1588.38 675.081C1588.38 675.081 1620.28 685.121 1621.62 656.44C1622.95 627.759 1600.32 606.238 1600.32 606.238L1624.25 567.516C1624.25 567.516 1749.92 591.411 1783.81 566.076C1808.75 547.436 1809.08 537.395 1809.08 537.395L2072.4 0H1851.74L1721.52 398.697H1721.48Z" fill="#FCC8CD"/>
<path d="M1587.72 671.462C1577.91 664.729 1567.98 657.88 1559.75 648.968C1551.52 640.056 1538.93 619.081 1537.59 606.627C1535.21 584.406 1559.83 550.471 1569.35 534.204" stroke="#F64C5D" stroke-linecap="round" stroke-linejoin="round"/>
<path d="M1543.84 692.671C1530.38 680.918 1523.19 672.201 1510.85 656.401C1503.2 646.633 1494.61 633.79 1487.72 621.454C1479.31 606.393 1474.33 589.076 1480.75 572.925C1487.17 556.775 1520.45 493.536 1520.45 493.536" stroke="#F64C5D" stroke-linecap="round" stroke-linejoin="round"/>
<path d="M1466.89 664.962C1452.2 646.204 1437.22 612.542 1429.54 586.74C1424.16 568.605 1457.11 501.592 1472.02 474.739" stroke="#F64C5D" stroke-linecap="round" stroke-linejoin="round"/>
<path d="M1623.67 570.277C1632.48 563.856 1639.73 555.022 1644.61 544.826" stroke="#F64C5D" stroke-linecap="round" stroke-linejoin="round"/>
<path d="M801.716 773.074V601.998C801.716 588.844 791.827 578.142 779.591 578.142H607.577C596.786 563.587 611.8 539.07 611.8 539.07C620.57 525.177 625.695 508.404 625.695 490.308C625.695 442.363 589.639 403.524 545.21 403.524C500.781 403.524 464.725 442.402 464.725 490.308C464.725 509.377 470.428 527.006 480.1 541.327C488.69 562.069 486.452 572.927 483.637 578.142H332.015C319.816 578.142 309.891 588.805 309.891 601.998V1084.64C309.891 1097.79 319.78 1108.49 332.015 1108.49H779.627C791.826 1108.49 801.752 1097.83 801.752 1084.64V911.927C798.684 908.58 788.975 902.003 764.974 913.561V913.484C751.692 923.913 735.379 930.179 717.658 930.179C673.192 930.179 637.172 891.301 637.172 843.395C637.172 795.489 673.228 756.612 717.658 756.612C734.44 756.612 749.996 762.138 762.881 771.595C762.881 771.595 788.831 790.002 801.752 773.151L801.716 773.074Z" fill="#16034F"/>
<path opacity="0.2" d="M650.132 578.141C650.132 578.141 674.494 625.035 618.985 666.014C563.475 706.954 499.195 801.481 486.527 865.538C473.859 929.594 310.254 944.304 310.254 944.304V1052.26C310.254 1052.26 473.859 1029.8 505.042 948.741C536.19 867.678 540.521 787.861 592.421 732.21C644.321 676.56 750.467 578.18 750.467 578.18H650.168" fill="#E6E6E6"/>
<path opacity="0.4" d="M314.872 744.858C314.872 744.858 331.258 743.924 337.358 773.072C343.457 802.22 309.855 900.912 309.855 900.912V811.249L314.872 744.858Z" fill="black"/>
<path opacity="0.4" d="M404.96 937.301C404.96 937.301 435.493 939.441 445.31 973.454L448.631 989.137C448.631 989.137 479.562 1012.18 470.467 1055.3C468.373 1065.18 457.293 1082.93 457.293 1082.93L468.698 1108.49L410.879 1107.52L389.188 983.222L404.96 937.34V937.301Z" fill="black"/>
<path d="M235.079 1208.98C235.079 1208.98 235.079 1208.98 234.821 1208.84L235.14 1208.82V1208.74L235.134 1208.74L235.13 1208.71L235.114 1208.59L235.051 1208.11L234.958 1207.39L234.804 1206.21C234.587 1204.54 234.269 1202.08 233.862 1198.94C233.049 1192.66 231.884 1183.62 230.475 1172.59C227.657 1150.55 223.864 1120.57 219.964 1088.84C212.163 1025.39 203.936 954.979 202.223 927.075L202.223 927.075C201.364 913.236 206.572 894.745 215.108 874.679C223.636 854.631 235.455 833.078 247.747 813.144C260.039 793.211 272.798 774.906 283.201 761.355C288.402 754.579 293.01 748.997 296.673 744.996C298.505 742.995 300.094 741.396 301.398 740.243C302.723 739.072 303.697 738.413 304.307 738.215C309.808 736.43 316.502 738.775 321.299 745.317C326.092 751.852 328.963 762.566 326.685 777.358C325.539 784.743 322.101 795.292 317.569 806.991C313.04 818.68 307.432 831.481 301.966 843.358C296.501 855.234 291.18 866.181 287.225 874.159C285.247 878.148 283.611 881.394 282.47 883.643C281.899 884.768 281.452 885.643 281.148 886.237C280.996 886.534 280.879 886.76 280.801 886.913L280.712 887.085L280.69 887.128L280.684 887.139L280.683 887.142C280.682 887.142 280.682 887.143 281.126 887.372L280.682 887.143L280.61 887.282L280.631 887.438L287.524 939.547L287.62 940.273L288.262 939.919L288.02 939.481C288.262 939.919 288.262 939.919 288.262 939.919L288.263 939.918L288.269 939.915L288.294 939.901C288.316 939.889 288.35 939.871 288.394 939.846C288.484 939.798 288.617 939.726 288.794 939.633C289.147 939.446 289.671 939.173 290.353 938.829C291.717 938.141 293.715 937.169 296.242 936.038C301.297 933.775 308.468 930.873 316.93 928.319C333.865 923.208 355.91 919.51 376.495 925.059C397.134 930.622 409.959 939.567 417.208 950.604C424.458 961.642 426.18 974.849 424.456 989.039L424.426 989.286L424.605 989.458L424.724 989.335C424.605 989.458 424.605 989.458 424.605 989.458L424.605 989.459L424.608 989.462L424.62 989.473L424.668 989.52C424.687 989.539 424.709 989.561 424.736 989.588C424.77 989.622 424.811 989.662 424.858 989.709C425.025 989.876 425.271 990.125 425.585 990.45C426.212 991.1 427.112 992.055 428.195 993.271C430.363 995.704 433.265 999.179 436.202 1003.35C442.087 1011.7 448.065 1022.78 448.635 1033.8C449.208 1044.88 446.639 1054.73 443.921 1061.82C442.563 1065.36 441.169 1068.21 440.116 1070.17C439.59 1071.15 439.149 1071.91 438.84 1072.42C438.686 1072.68 438.565 1072.87 438.483 1073C438.442 1073.07 438.41 1073.12 438.39 1073.15L438.366 1073.18L438.361 1073.19L438.359 1073.19L438.359 1073.19L438.235 1073.38L438.293 1073.6L438.776 1073.47C438.293 1073.6 438.293 1073.6 438.293 1073.6L438.293 1073.6L438.294 1073.6L438.299 1073.62L438.318 1073.7C438.335 1073.76 438.36 1073.86 438.393 1073.99C438.458 1074.24 438.552 1074.62 438.67 1075.11C438.905 1076.08 439.232 1077.49 439.599 1079.22C440.334 1082.68 441.23 1087.44 441.875 1092.62C442.521 1097.8 442.913 1103.39 442.647 1108.53C442.379 1113.68 441.451 1118.32 439.5 1121.63C437.551 1124.94 433.037 1128.76 427.266 1132.66C421.518 1136.54 414.597 1140.45 407.916 1143.94C401.237 1147.42 394.809 1150.48 390.049 1152.67C387.669 1153.76 385.707 1154.64 384.341 1155.24C383.657 1155.54 383.123 1155.78 382.759 1155.94C382.578 1156.01 382.439 1156.07 382.345 1156.11L382.24 1156.16L382.213 1156.17L382.206 1156.17L382.205 1156.17C382.204 1156.17 382.204 1156.17 382.4 1156.63L382.204 1156.17L381.835 1156.33L381.909 1156.73L381.992 1156.71C381.909 1156.73 381.909 1156.73 381.909 1156.73L381.91 1156.73L381.912 1156.74L381.921 1156.79C381.93 1156.84 381.942 1156.91 381.958 1157C381.968 1157.05 381.979 1157.12 381.992 1157.19C382.021 1157.35 382.057 1157.56 382.099 1157.81C382.219 1158.52 382.39 1159.57 382.592 1160.92C382.995 1163.61 383.521 1167.5 384.012 1172.27C384.993 1181.81 385.831 1194.87 385.262 1208.95C384.692 1223.03 382.715 1238.12 378.075 1251.71C373.435 1265.31 366.143 1277.39 354.965 1285.51L354.819 1285.62L354.775 1285.79L355.259 1285.91C354.775 1285.79 354.774 1285.79 354.774 1285.79L354.772 1285.8L354.762 1285.84L354.725 1285.98L354.578 1286.56L354.007 1288.8C353.506 1290.77 352.771 1293.65 351.837 1297.32C349.969 1304.65 347.302 1315.13 344.106 1327.71C337.714 1352.85 329.208 1386.38 320.749 1419.9C312.29 1453.42 303.878 1486.93 297.675 1512.05C294.574 1524.61 292.025 1535.06 290.298 1542.38C289.435 1546.03 288.777 1548.91 288.357 1550.86C288.148 1551.84 287.997 1552.59 287.91 1553.1C287.89 1553.22 287.872 1553.33 287.858 1553.43H70.0211L70.0585 1553.35L71.1566 1551.04L75.3328 1542.24C78.9351 1534.64 84.0916 1523.77 90.3082 1510.67C102.741 1484.46 119.415 1449.3 136.376 1413.53C170.297 1341.98 205.371 1267.95 209.973 1258.03C214.57 1248.11 220.845 1235.86 225.974 1226.07C228.538 1221.18 230.814 1216.91 232.45 1213.86C233.267 1212.33 233.925 1211.11 234.378 1210.28C234.604 1209.86 234.78 1209.53 234.898 1209.31L235.033 1209.07L235.068 1209L235.076 1208.99L235.078 1208.98L235.079 1208.98ZM288.362 1553.44C288.358 1553.47 288.355 1553.49 288.352 1553.51L288.346 1553.44C288.351 1553.44 288.356 1553.44 288.362 1553.44Z" fill="#FEE4E7" stroke="#FCC8CD"/>
<g opacity="0.2">
<path d="M386.248 1117.86L386.249 1117.86C386.453 1118.56 386.661 1119.26 386.87 1119.97C388.143 1124.26 389.403 1128.5 389.586 1132.92C389.884 1140.35 387.087 1147.44 384.093 1154.28L372.359 1095.78C376.29 1096.87 379.521 1100.28 381.595 1104.21C383.428 1107.69 384.498 1111.56 385.579 1115.46C385.8 1116.26 386.021 1117.06 386.248 1117.86Z" fill="black" stroke="#FCC8CD"/>
</g>
<path d="M383.915 1168.78C380.559 1147.37 377.166 1125.97 373.81 1104.52C373.485 1102.38 373.124 1100.21 372.041 1098.42C370.958 1096.62 368.901 1095.26 366.988 1095.77" stroke="#FCC8CD" stroke-linecap="round" stroke-linejoin="round"/>
<path d="M304.441 985.284C346.922 957.07 398.461 957.342 424.952 989.137" stroke="#FCC8CD" stroke-linecap="round" stroke-linejoin="round"/>
<path d="M438.776 1073.51C431.918 1055.3 425.927 1039.46 408.603 1033.39C391.279 1027.32 361.358 1033.15 345.875 1043.54" stroke="#FCC8CD" stroke-linecap="round" stroke-linejoin="round"/>
<path d="M377.273 1114.02C384.492 1106.78 393.912 1102.15 403.729 1101.02" stroke="#FCC8CD" stroke-linecap="round" stroke-linejoin="round"/>
<path d="M277.227 948.706C296.391 930.571 337.5 923.566 352.55 921.854" stroke="#FCC8CD" stroke-linecap="round" stroke-linejoin="round"/>
<path opacity="0.2" d="M698.279 927.647C698.279 927.647 567.265 1036.03 573.906 1108.45H645.874C645.874 1108.45 587.188 1104.95 617.072 1052.22C646.956 999.448 725.565 927.453 725.637 929.671C725.637 930.255 702.682 928.659 698.279 927.647Z" fill="#E6E6E6"/>
<path d="M1049.05 1128.3C1049.05 1128.3 1073.23 1093.27 1112.65 1075.61C1152.06 1057.9 1162.16 1060.9 1167.9 1072.65C1173.68 1084.4 1146.79 1121.18 1135.24 1131.37C1123.69 1141.57 1052.08 1193.56 1052.08 1193.56L1049.05 1128.34V1128.3Z" fill="#E97F3F"/>
<path d="M1425.38 756.495C1407.7 756.495 1391.39 762.722 1378.07 773.19V773.112C1356.23 783.62 1346.23 779.105 1342.3 775.681V601.997C1342.3 588.844 1332.41 578.142 1320.18 578.142H872.563C860.364 578.142 850.439 588.805 850.439 601.997V776.731C836.832 786.889 815.177 771.478 815.177 771.478C802.292 762.021 786.737 756.495 769.954 756.495C725.488 756.495 689.469 795.372 689.469 843.278C689.469 891.184 725.525 930.062 769.954 930.062C787.639 930.062 803.952 923.835 817.27 913.367V913.444C835.352 904.727 845.314 906.362 850.439 909.125V1084.56C850.439 1097.71 860.328 1108.42 872.563 1108.42H1320.18C1332.37 1108.42 1342.3 1097.75 1342.3 1084.56V912.199C1355.51 897.528 1380.16 915.079 1380.16 915.079C1393.05 924.536 1408.6 930.062 1425.38 930.062C1469.85 930.062 1505.87 891.184 1505.87 843.278C1505.87 795.372 1469.81 756.495 1425.38 756.495Z" fill="#F64C5D"/>
<path opacity="0.4" d="M910.638 1093.63C910.638 1093.63 978.238 1080.59 1010.68 1077.79H1023.57C1023.57 1077.79 1029.78 967.965 1081.82 963.84L1063.02 1121.18L1121.78 1108.45C1121.78 1108.45 1141.45 982.325 1185.15 966.252L1202.3 1007.46C1202.3 1007.46 1229.83 959.52 1271.7 959.598L1223.77 1112.42L1110.15 1164.57L1010.65 1157.64L910.602 1093.63H910.638Z" fill="black"/>
<path opacity="0.2" d="M1273.62 578.024C1275.85 580.982 1276.29 585.068 1276.43 588.921C1277.59 620.404 1265.89 652.199 1245.03 674.264C1207.75 713.687 1149.82 717.928 1103.95 744.82C1063.81 768.364 1033.39 810.355 1021.95 858.027C1018.23 873.516 1016.39 889.627 1010.43 904.26C998.451 933.797 971.021 953.372 942.255 962.128C913.49 970.884 880.322 966.876 850.438 966.253V1018.05C880.322 1018.67 924.606 1004.82 953.372 996.063C982.137 987.307 1009.57 967.732 1021.55 938.195C1027.5 923.562 1029.35 907.412 1033.06 891.962C1044.5 844.29 1062.44 797.59 1102.58 774.046C1148.45 747.155 1218.86 747.622 1256.15 708.199C1277.01 686.134 1323.17 609.741 1322.01 578.258L1273.62 578.063V578.024Z" fill="#E6E6E6"/>
<path d="M874.188 1568.29C874.621 1558.17 939.84 1261.71 939.84 1261.71C976.653 1223.84 1047.14 1227.54 1080.06 1222.48C1158.38 1210.45 1156.9 1185.59 1156.9 1185.59C1156.9 1185.59 1200.71 1189.36 1219.91 1159.36C1229.84 1143.83 1294.08 959.91 1294.08 959.91C1294.08 959.91 1282.03 944.421 1252.14 975.36C1222.26 1006.34 1201.79 1081.6 1201.79 1081.6C1201.79 1081.6 1223.49 977.967 1223.88 959.638C1224.28 941.308 1190.75 946.717 1180.1 976.644C1169.46 1006.57 1133.94 1103.63 1133.94 1103.63C1124.52 1119.82 1112.97 1130.75 1097.78 1132.66C1097.78 1132.66 1110.34 982.637 1110.3 966.253C1110.27 949.87 1081.18 952.36 1068.76 981.82C1056.34 1011.28 1039.42 1092.69 1039.42 1092.69C1039.42 1092.69 901.582 1085.3 877.87 1101.68C832.249 1133.24 679.941 1568.29 679.941 1568.29H874.297H874.188Z" fill="#FDAD6A"/>
<path d="M1189.56 1169.83C1191.37 1171.46 1211.04 1190.18 1235.9 1179.09C1260.81 1168 1290.76 1149.59 1323.93 1133.4C1357.1 1117.21 1360.02 1115.85 1339.56 1103.71C1319.13 1091.56 1286.47 1106.28 1264.34 1114.21C1242.22 1122.11 1221.32 1128.85 1221.32 1128.85L1189.53 1169.86L1189.56 1169.83Z" fill="#FDAD6A"/>
<path d="M1157.4 1186.21C1179.78 1165.54 1204.03 1093.43 1223.81 959.638" stroke="#E97F3F" stroke-width="0.75" stroke-linecap="round" stroke-linejoin="round"/>
<path d="M1053.49 1175.35C1068.9 1173.76 1079.19 1170.53 1086.84 1163.6C1100.56 1151.26 1110.19 966.254 1110.19 966.254" stroke="#E97F3F" stroke-width="0.75" stroke-linecap="round" stroke-linejoin="round"/>
<path d="M1194.11 1179.86C1208.44 1174.45 1221.75 1154.33 1228.94 1139.9C1236.12 1125.46 1289.14 978.356 1294.05 959.909" stroke="#E97F3F" stroke-width="0.75" stroke-linecap="round" stroke-linejoin="round"/>
<path d="M170.288 734.52H153.242V713.17H170.288H171.288V712.17V693.712H190.943V712.17V713.17H191.943H208.989V734.52H191.943H190.943V735.52V753.978H171.288V735.52V734.52H170.288ZM159.461 728.737H176.507V747.195V748.195H177.507H184.725H185.725V747.195V728.737H202.771H203.771V727.737V719.953V718.953H202.771H185.725V700.495V699.495H184.725H177.507H176.507V700.495V718.953H159.461H158.461V719.953V727.737V728.737H159.461Z" fill="#BFBFBF" stroke="#BFBFBF" stroke-width="2"/>
<path d="M2261.36 1480.25H2246.57V1461.82H2261.36H2262.36V1460.82V1444.79H2279.31V1460.82V1461.82H2280.31H2295.1V1480.25H2280.31H2279.31V1481.25V1497.28H2262.36V1481.25V1480.25H2261.36ZM2251.89 1475.44H2266.68V1491.47V1492.47H2267.68H2274H2275V1491.47V1475.44H2289.79H2290.79V1474.44V1467.63V1466.63H2289.79H2275V1450.61V1449.61H2274H2267.68H2266.68V1450.61V1466.63H2251.89H2250.89V1467.63V1474.44V1475.44H2251.89Z" fill="#BFBFBF" stroke="#BFBFBF" stroke-width="2"/>
<path d="M1747.05 166.676V167.176H1747.55H1751.16C1751.97 167.176 1752.76 167.523 1753.34 168.156C1753.93 168.789 1754.27 169.656 1754.27 170.567C1754.27 171.479 1753.93 172.346 1753.34 172.979C1752.76 173.612 1751.97 173.959 1751.16 173.959H1747.55H1747.05V174.459V178.351C1747.05 179.262 1746.71 180.129 1746.13 180.763C1745.54 181.395 1744.75 181.742 1743.94 181.742C1743.13 181.742 1742.34 181.395 1741.75 180.763C1741.17 180.129 1740.83 179.262 1740.83 178.351V174.459V173.959H1740.33H1736.72C1735.91 173.959 1735.12 173.612 1734.54 172.979C1733.95 172.346 1733.61 171.479 1733.61 170.567C1733.61 169.656 1733.95 168.789 1734.54 168.156C1735.12 167.523 1735.91 167.176 1736.72 167.176H1740.33H1740.83V166.676V162.784C1740.83 161.873 1741.17 161.006 1741.75 160.372C1742.34 159.74 1743.13 159.393 1743.94 159.393C1744.75 159.393 1745.54 159.74 1746.13 160.372C1746.71 161.006 1747.05 161.873 1747.05 162.784V166.676ZM1743.63 141.42L1743.94 141.67L1744.25 141.421C1748.51 138.03 1753.75 136.397 1759.02 136.808C1764.29 137.219 1769.26 139.647 1773.02 143.666C1775.07 145.905 1776.7 148.561 1777.79 151.481C1778.89 154.403 1779.44 157.531 1779.42 160.685C1779.39 163.839 1778.79 166.956 1777.64 169.855C1776.49 172.755 1774.83 175.379 1772.74 177.578L1772.74 177.578L1772.73 177.584L1751.08 201.127C1751.08 201.127 1751.08 201.127 1751.08 201.128C1749.14 203.216 1746.52 204.381 1743.8 204.381C1741.07 204.381 1738.45 203.216 1736.51 201.128C1736.51 201.127 1736.51 201.127 1736.51 201.127L1714.86 177.584L1714.85 177.581C1710.88 173.325 1708.54 167.595 1708.32 161.544C1708.1 155.493 1710.02 149.583 1713.67 145.002C1717.33 140.423 1722.45 137.516 1728 136.853C1733.55 136.19 1739.14 137.819 1743.63 141.42ZM1767.8 173.632V173.724L1768.67 172.773C1771.61 169.554 1773.25 165.225 1773.25 160.722C1773.25 156.219 1771.61 151.89 1768.67 148.671L1768.67 148.671L1768.67 148.666C1765.69 145.499 1761.67 143.716 1757.47 143.716C1753.28 143.716 1749.26 145.499 1746.28 148.666L1746.28 148.669C1745.99 148.986 1745.64 149.235 1745.27 149.404C1744.89 149.573 1744.49 149.659 1744.08 149.659C1743.68 149.659 1743.28 149.573 1742.9 149.404C1742.52 149.235 1742.18 148.986 1741.89 148.669L1741.89 148.666C1738.91 145.499 1734.89 143.716 1730.69 143.716C1726.5 143.716 1722.48 145.499 1719.5 148.666L1719.5 148.665L1719.5 148.672C1716.58 151.887 1714.95 156.199 1714.95 160.683C1714.95 165.166 1716.58 169.478 1719.5 172.694L1719.5 172.694L1719.5 172.698L1741.15 196.046C1741.15 196.046 1741.15 196.046 1741.15 196.047C1741.53 196.459 1741.99 196.789 1742.49 197.015C1742.99 197.242 1743.54 197.359 1744.08 197.359C1744.63 197.359 1745.17 197.242 1745.68 197.015C1746.18 196.789 1746.63 196.459 1747.01 196.047C1747.01 196.046 1747.01 196.046 1747.01 196.046L1767.8 173.632Z" fill="#BFBFBF" stroke="#BFBFBF"/>
<path d="M451.532 1439.33L451.122 1439.4V1439.82V1441.75C451.122 1445.82 452.621 1449.73 455.299 1452.62C457.978 1455.5 461.62 1457.14 465.427 1457.14C469.233 1457.14 472.875 1455.5 475.554 1452.62C478.232 1449.73 479.731 1445.82 479.731 1441.75V1436.23V1435.88L479.409 1435.76C477.479 1435.02 475.843 1433.57 474.798 1431.65C473.752 1429.73 473.369 1427.47 473.719 1425.27C474.069 1423.07 475.128 1421.08 476.701 1419.65C478.273 1418.22 480.256 1417.44 482.299 1417.44C484.342 1417.44 486.325 1418.22 487.896 1419.65C489.469 1421.08 490.528 1423.07 490.878 1425.27C491.229 1427.47 490.845 1429.73 489.8 1431.65C488.755 1433.57 487.119 1435.02 485.188 1435.76L484.866 1435.88V1436.23V1441.75C484.866 1447.33 482.81 1452.68 479.159 1456.61C475.51 1460.55 470.57 1462.75 465.427 1462.75C460.283 1462.75 455.343 1460.55 451.694 1456.61C448.043 1452.68 445.987 1447.33 445.987 1441.75V1439.82V1439.4L445.577 1439.33C441.414 1438.57 437.626 1436.24 434.891 1432.75C432.154 1429.26 430.649 1424.83 430.648 1420.25C430.648 1420.25 430.648 1420.25 430.648 1420.25V1403.71C430.648 1402.08 431.251 1400.52 432.312 1399.37C433.372 1398.23 434.802 1397.59 436.284 1397.59H439.351C440.02 1397.59 440.669 1397.88 441.154 1398.4C441.64 1398.93 441.919 1399.65 441.919 1400.4C441.919 1401.16 441.64 1401.88 441.154 1402.4C440.669 1402.92 440.02 1403.21 439.351 1403.21H436.284H435.784V1403.71V1420.25C435.784 1423.88 437.121 1427.37 439.511 1429.95C441.903 1432.52 445.155 1433.98 448.554 1433.98C451.954 1433.98 455.206 1432.52 457.598 1429.95C459.988 1427.37 461.325 1423.88 461.325 1420.25V1403.71V1403.21H460.825H457.757C457.089 1403.21 456.44 1402.92 455.955 1402.4C455.469 1401.88 455.19 1401.16 455.19 1400.4C455.19 1399.65 455.469 1398.93 455.955 1398.4C456.44 1397.88 457.089 1397.59 457.757 1397.59H460.825C462.307 1397.59 463.737 1398.23 464.797 1399.37C465.858 1400.52 466.46 1402.08 466.46 1403.71V1420.25C466.46 1424.83 464.954 1429.26 462.218 1432.75C459.482 1436.24 455.695 1438.57 451.532 1439.33ZM482.299 1430.67C483.258 1430.67 484.169 1430.26 484.834 1429.54C485.499 1428.83 485.866 1427.86 485.866 1426.86C485.866 1425.87 485.499 1424.9 484.834 1424.19C484.169 1423.47 483.258 1423.06 482.299 1423.06C481.34 1423.06 480.429 1423.47 479.763 1424.19C479.098 1424.9 478.731 1425.87 478.731 1426.86C478.731 1427.86 479.098 1428.83 479.763 1429.54C480.429 1430.26 481.34 1430.67 482.299 1430.67Z" fill="#BFBFBF" stroke="#BFBFBF"/>
<path d="M2506.43 694.652L2506.02 694.727V695.144V697.186C2506.02 701.487 2507.6 705.618 2510.43 708.67C2513.26 711.724 2517.11 713.447 2521.13 713.447C2525.16 713.447 2529.01 711.724 2531.84 708.67C2534.67 705.618 2536.25 701.487 2536.25 697.186V691.337V690.992L2535.93 690.869C2533.88 690.088 2532.14 688.546 2531.03 686.506C2529.92 684.466 2529.51 682.065 2529.89 679.728C2530.26 677.391 2531.38 675.279 2533.05 673.76C2534.72 672.243 2536.83 671.415 2539 671.415C2541.17 671.415 2543.28 672.243 2544.95 673.76C2546.62 675.279 2547.74 677.391 2548.11 679.728C2548.48 682.065 2548.08 684.466 2546.97 686.506C2545.86 688.546 2544.12 690.088 2542.07 690.869L2541.75 690.992V691.337V697.186C2541.75 703.103 2539.57 708.77 2535.7 712.944C2531.83 717.116 2526.59 719.452 2521.13 719.452C2515.68 719.452 2510.44 717.116 2506.57 712.944C2502.7 708.77 2500.52 703.103 2500.52 697.186V695.144V694.727L2500.11 694.652C2495.7 693.846 2491.68 691.379 2488.78 687.677C2485.88 683.974 2484.28 679.278 2484.28 674.42C2484.28 674.42 2484.28 674.42 2484.28 674.42V656.907C2484.28 655.17 2484.92 653.512 2486.05 652.294C2487.18 651.078 2488.7 650.402 2490.28 650.402H2493.53C2494.24 650.402 2494.94 650.709 2495.46 651.268C2495.98 651.829 2496.27 652.597 2496.27 653.405C2496.27 654.213 2495.98 654.981 2495.46 655.541C2494.94 656.101 2494.24 656.407 2493.53 656.407H2490.28H2489.78V656.907V674.42C2489.78 678.256 2491.19 681.943 2493.72 684.666C2496.24 687.391 2499.68 688.929 2503.27 688.929C2506.86 688.929 2510.3 687.391 2512.82 684.666C2515.35 681.943 2516.76 678.256 2516.76 674.42V656.907V656.407H2516.26H2513.01C2512.3 656.407 2511.6 656.101 2511.08 655.541C2510.56 654.981 2510.27 654.213 2510.27 653.405C2510.27 652.597 2510.56 651.829 2511.08 651.268C2511.6 650.709 2512.3 650.402 2513.01 650.402H2516.26C2517.84 650.402 2519.36 651.078 2520.49 652.294C2521.62 653.512 2522.26 655.17 2522.26 656.907V674.42C2522.26 679.278 2520.66 683.974 2517.76 687.677C2514.86 691.379 2510.84 693.846 2506.43 694.652ZM2539 685.427C2540.01 685.427 2540.96 684.995 2541.66 684.241C2542.36 683.488 2542.75 682.474 2542.75 681.425C2542.75 680.375 2542.36 679.361 2541.66 678.608C2540.96 677.854 2540.01 677.422 2539 677.422C2537.99 677.422 2537.04 677.854 2536.34 678.608C2535.64 679.361 2535.25 680.375 2535.25 681.425C2535.25 682.474 2535.64 683.488 2536.34 684.241C2537.04 684.995 2537.99 685.427 2539 685.427Z" fill="#BFBFBF" stroke="#BFBFBF"/>
<path d="M152.531 1182.32C154.372 1172.75 165.308 1165.55 175.702 1178.27C190.536 1159.94 206.38 1182.67 195.625 1194.39L175.702 1214.19L164.045 1202.52" stroke="#BFBFBF" stroke-width="3" stroke-linecap="round" stroke-linejoin="round"/>
<path d="M152.242 1192.79H161.265L166.679 1185.01L173.897 1198.63L179.311 1190.84H184.725" stroke="#BFBFBF" stroke-width="3" stroke-linecap="round" stroke-linejoin="round"/>
<path d="M1540.88 1158.91H1527.85V1145.04V1144.54H1527.35H1504.79H1504.29V1145.04V1162.72L1503.01 1166.09H1500.78V1140.75H1530.32L1530.87 1141.27L1544.38 1155.62L1544.89 1156.22V1202.01H1500.78V1181.46H1501.77L1504.29 1184.14V1197.72V1198.22H1504.79H1540.88H1541.38V1197.72V1159.41V1158.91H1540.88ZM1531.36 1148.68V1154.62V1155.12H1531.86H1537.64H1538.8L1538 1154.27L1532.22 1148.14L1531.86 1148.48H1531.86H1531.36V1148.48V1148.68ZM1518.72 1174.88L1522.66 1164.43L1526.03 1171.59L1526.16 1171.88H1526.48H1527.95H1528.25L1528.39 1171.62C1528.84 1170.8 1529.52 1170.17 1530.34 1169.81C1531.15 1169.45 1532.05 1169.39 1532.89 1169.63C1533.74 1169.87 1534.49 1170.4 1535.04 1171.15C1535.58 1171.9 1535.87 1172.82 1535.87 1173.78C1535.87 1174.73 1535.58 1175.65 1535.04 1176.4C1534.49 1177.15 1533.74 1177.68 1532.89 1177.92C1532.05 1178.16 1531.15 1178.1 1530.34 1177.74C1529.52 1177.39 1528.84 1176.75 1528.39 1175.93L1528.25 1175.67H1527.95H1524.02L1523.51 1174.61L1523.01 1173.54L1522.59 1174.65L1518.38 1185.84L1512.09 1170.27L1511.61 1169.08L1511.16 1170.28L1507.68 1179.51L1504.22 1175.83L1504.07 1175.67H1503.85H1491.75V1171.88H1505.51L1505.85 1172.25L1506.4 1172.83L1506.68 1172.08L1511.5 1159.31L1517.79 1174.89L1518.27 1176.08L1518.72 1174.88Z" fill="#BFBFBF" stroke="#BFBFBF"/>
<path d="M306.838 180.912H294.705V167.941V167.441H294.205H273.152H272.652V167.941V184.509L271.473 187.647H269.441V163.95H296.965L297.469 164.433L310.083 177.884L310.548 178.437V221.325H269.441V202.118H270.316L272.652 204.613V217.334V217.834H273.152H306.838H307.338V217.334V181.412V180.912H306.838ZM297.916 171.367V176.921V177.421H298.416H303.812H304.967L304.177 176.579L298.781 170.827L298.418 171.167H298.416H297.916V171.169V171.367ZM286.185 195.927L289.831 186.206L292.946 192.85L293.081 193.137H293.399H294.774H295.072L295.214 192.875C295.626 192.113 296.26 191.523 297.011 191.191C297.761 190.86 298.591 190.802 299.373 191.026C300.156 191.25 300.854 191.744 301.355 192.441C301.857 193.138 302.131 193.996 302.131 194.883C302.131 195.769 301.857 196.627 301.355 197.324C300.854 198.021 300.156 198.515 299.373 198.739C298.591 198.963 297.761 198.905 297.011 198.574C296.26 198.242 295.626 197.653 295.214 196.89L295.072 196.628H294.774H291.118L290.66 195.653L290.155 194.581L289.739 195.69L285.833 206.104L279.997 191.582L279.517 190.388L279.065 191.593L275.836 200.197L272.645 196.786L272.497 196.628H272.28H261.02V193.137H273.807L274.12 193.471L274.67 194.058L274.952 193.305L279.418 181.416L285.253 195.938L285.733 197.133L286.185 195.927Z" fill="#BFBFBF" stroke="#BFBFBF"/>
<path d="M759.537 188.198L759.222 188.538L759.537 188.878L769.744 199.888L770.11 200.283L770.477 199.888L780.868 188.684C782.311 187.128 783.116 185.025 783.116 182.839C783.116 180.653 782.311 178.551 780.868 176.994C779.424 175.437 777.456 174.554 775.396 174.554C773.336 174.554 771.369 175.437 769.924 176.994L769.924 176.994L759.537 188.198ZM785.282 205.409V204.81L784.693 204.917C782.041 205.397 779.642 206.874 777.917 209.073C776.192 211.272 775.249 214.053 775.249 216.922C775.249 219.791 776.192 222.572 777.917 224.771C779.642 226.97 782.041 228.447 784.693 228.927L785.282 229.034V228.435V205.409ZM787.891 228.435V229.034L788.48 228.927C791.131 228.447 793.531 226.97 795.256 224.771C796.981 222.572 797.924 219.791 797.924 216.922C797.924 214.053 796.981 211.272 795.256 209.073C793.531 206.874 791.131 205.397 788.48 204.917L787.891 204.81V205.409V228.435ZM785.659 182.862C785.67 185.821 784.596 188.658 782.681 190.757C782.681 190.757 782.681 190.758 782.68 190.758L762.269 212.77C760.329 214.862 757.706 216.03 754.979 216.03C752.252 216.03 749.629 214.862 747.689 212.77C745.747 210.677 744.65 207.83 744.65 204.854C744.65 201.878 745.747 199.031 747.689 196.938L768.103 174.926C768.103 174.926 768.104 174.925 768.104 174.925C770.05 172.862 772.664 171.719 775.375 171.732C778.087 171.744 780.693 172.911 782.622 174.992C784.553 177.074 785.649 179.902 785.659 182.862ZM786.586 201.854C790.27 201.854 793.811 203.431 796.428 206.253C799.046 209.076 800.523 212.913 800.523 216.92C800.523 220.928 799.046 224.764 796.428 227.587C793.811 230.409 790.27 231.987 786.586 231.987C782.903 231.987 779.362 230.409 776.745 227.587C774.126 224.764 772.65 220.928 772.65 216.92C772.65 212.913 774.126 209.076 776.745 206.253C779.362 203.431 782.903 201.854 786.586 201.854Z" fill="#BFBFBF" stroke="#BFBFBF"/>
<path d="M1874.41 1304.79L1874.09 1305.13L1874.41 1305.47L1886.72 1318.76L1887.08 1319.16L1887.45 1318.76L1899.98 1305.24C1901.7 1303.38 1902.66 1300.86 1902.66 1298.25C1902.66 1295.64 1901.7 1293.12 1899.98 1291.27C1898.26 1289.41 1895.91 1288.35 1893.46 1288.35C1891 1288.35 1888.66 1289.41 1886.93 1291.27L1886.93 1291.27L1874.41 1304.79ZM1905.27 1325.49V1324.9L1904.68 1325C1901.51 1325.58 1898.64 1327.35 1896.58 1329.98C1894.51 1332.62 1893.38 1335.95 1893.38 1339.39C1893.38 1342.83 1894.51 1346.17 1896.58 1348.8C1898.64 1351.44 1901.51 1353.21 1904.68 1353.78L1905.27 1353.89V1353.29V1325.49ZM1908.62 1353.29V1353.89L1909.21 1353.78C1912.38 1353.21 1915.26 1351.44 1917.32 1348.8C1919.39 1346.17 1920.52 1342.83 1920.52 1339.39C1920.52 1335.95 1919.39 1332.62 1917.32 1329.98C1915.26 1327.35 1912.38 1325.58 1909.21 1325L1908.62 1324.9V1325.49V1353.29ZM1905.93 1298.28C1905.95 1301.87 1904.64 1305.32 1902.32 1307.88C1902.32 1307.88 1902.31 1307.88 1902.31 1307.88L1877.7 1334.45C1875.35 1337 1872.16 1338.42 1868.84 1338.42C1865.52 1338.42 1862.33 1337 1859.97 1334.45C1857.61 1331.9 1856.28 1328.44 1856.28 1324.83C1856.28 1321.21 1857.61 1317.75 1859.97 1315.2L1884.59 1288.63C1884.59 1288.63 1884.59 1288.63 1884.59 1288.63C1886.95 1286.12 1890.13 1284.72 1893.43 1284.74C1896.73 1284.75 1899.9 1286.18 1902.24 1288.71C1904.59 1291.24 1905.92 1294.68 1905.93 1298.28ZM1906.95 1321.1C1911.42 1321.1 1915.72 1323.02 1918.89 1326.44C1922.07 1329.87 1923.86 1334.53 1923.86 1339.39C1923.86 1344.25 1922.07 1348.91 1918.89 1352.34C1915.72 1355.76 1911.42 1357.68 1906.95 1357.68C1902.48 1357.68 1898.18 1355.76 1895.01 1352.34C1891.83 1348.91 1890.04 1344.25 1890.04 1339.39C1890.04 1334.53 1891.83 1329.87 1895.01 1326.44C1898.18 1323.02 1902.48 1321.1 1906.95 1321.1Z" fill="#BFBFBF" stroke="#BFBFBF"/>
<path d="M1983.91 439.754C1976.33 439.754 1971.28 447.926 1971.28 456.099C1971.28 461.847 1973.8 469.719 1976.33 472.444C1978.86 475.168 1981.38 494.237 1986.44 494.237C1997.91 494.237 1991.49 475.168 1996.54 475.168C2001.59 475.168 1995.18 494.237 2006.65 494.237C2011.7 494.237 2014.23 475.168 2016.75 472.444C2019.28 469.719 2021.81 461.847 2021.81 456.099C2021.81 447.926 2016.75 439.754 2009.17 439.754C2001.59 439.754 2001.59 442.478 1996.54 442.478C1991.49 442.478 1991.49 439.754 1983.91 439.754ZM1983.91 445.202C1988.96 445.202 1991.49 447.926 1996.54 447.926C2001.59 447.926 2004.12 445.202 2009.17 445.202C2013.39 445.202 2016.75 450.65 2016.75 456.099C2016.75 460.866 2014.58 467.295 2012.18 469.883C2010.01 472.226 2006.8 488.625 2005.38 488.625C2004.85 488.625 2004.12 485.737 2004.12 482.223C2004.12 476.666 2002.68 469.719 1996.54 469.719C1990.4 469.719 1988.96 476.666 1988.96 482.223C1988.96 485.737 1988.23 488.625 1987.7 488.625C1986.28 488.625 1983.08 472.226 1980.9 469.883C1978.5 467.295 1976.33 460.866 1976.33 456.099C1976.33 450.65 1979.69 445.202 1983.91 445.202Z" fill="#BFBFBF"/>
<path d="M1063.2 1308.76V1300.58C1074.72 1299 1083.41 1292.14 1083.41 1284.24H1032.88C1032.88 1292.14 1041.58 1299 1053.1 1300.58V1308.76C1043.8 1310.75 1032.88 1318.59 1032.88 1338.72H1048.04V1333.27H1038.27C1040.62 1314.67 1055.07 1313.66 1058.15 1313.66C1061.23 1313.66 1075.68 1314.67 1078.03 1333.27H1068.25V1338.72H1083.41C1083.41 1318.59 1072.5 1310.75 1063.2 1308.76ZM1075.51 1289.69C1072.04 1292.93 1065.73 1295.46 1058.15 1295.46C1050.57 1295.46 1044.25 1292.93 1040.79 1289.69H1075.51ZM1058.15 1338.72C1055.37 1338.72 1053.1 1336.27 1053.1 1333.27C1053.1 1331.78 1053.65 1330.41 1054.59 1329.43C1056.61 1327.25 1068.25 1322.38 1068.25 1322.38C1068.25 1322.38 1063.73 1334.94 1061.71 1337.11C1060.8 1338.12 1059.54 1338.72 1058.15 1338.72Z" fill="#BFBFBF"/>
<path d="M2216.95 207.929L2211.83 202.441L2216.95 196.915L2222.04 202.441L2227.13 196.915L2222.04 191.428L2227.13 185.941L2232.26 191.428L2237.35 185.941L2227.13 174.928L2201.62 202.441L2211.83 213.455L2216.95 207.929ZM2187.83 222.795L2199.09 210.692L2191.44 202.441L2227.13 163.914L2234.82 172.203L2239.87 166.677L2234.82 161.151L2239.87 155.664L2255.21 172.203L2250.12 177.652L2245 172.203L2239.87 177.652L2247.56 185.941L2211.83 224.429L2204.18 216.179L2187.83 233.847V222.795Z" fill="#BFBFBF"/>
<path d="M997.653 450.331L990.516 442.683L997.653 434.981L1004.74 442.683L1011.83 434.981L1004.74 427.334L1011.83 419.686L1018.96 427.334L1026.05 419.686L1011.83 404.336L976.292 442.683L990.516 458.033L997.653 450.331ZM957.092 471.05L972.774 454.182L962.118 442.683L1011.83 388.987L1022.53 400.54L1029.57 392.838L1022.53 385.136L1029.57 377.488L1050.93 400.54L1043.84 408.133L1036.71 400.54L1029.57 408.133L1040.28 419.686L990.516 473.328L979.86 461.83L957.092 486.454V471.05Z" fill="#BFBFBF"/>
</g>
<defs>
<clipPath id="clip0_392_1096">
<rect width="2184.07" height="1421.46" fill="white" transform="translate(372.406 73.9424)"/>
</clipPath>
<clipPath id="clip1_392_1096">
<rect width="2519.47" height="1568.29" fill="white" transform="translate(69.2305)"/>
</clipPath>
</defs>
</svg>
