<svg width="48" height="48" viewBox="0 0 48 48" fill="none" xmlns="http://www.w3.org/2000/svg">
<path d="M32.5878 29.1572H30.781L30.1407 28.5397C32.4594 25.8503 33.7338 22.4167 33.7313 18.8656C33.7313 15.9255 32.8594 13.0514 31.226 10.6067C29.5925 8.1621 27.2708 6.25673 24.5545 5.13159C21.8381 4.00644 18.8491 3.71205 15.9655 4.28565C13.0818 4.85924 10.433 6.27505 8.35405 8.35405C6.27505 10.433 4.85924 13.0818 4.28565 15.9655C3.71205 18.8491 4.00644 21.8381 5.13159 24.5545C6.25673 27.2708 8.1621 29.5925 10.6067 31.226C13.0514 32.8594 15.9255 33.7313 18.8656 33.7313C22.5477 33.7313 25.9325 32.3819 28.5397 30.1407L29.1572 30.781V32.5878L40.5923 44L44 40.5923L32.5878 29.1572ZM18.8656 29.1572C13.171 29.1572 8.57405 24.5603 8.57405 18.8656C8.57405 13.171 13.171 8.57405 18.8656 8.57405C24.5603 8.57405 29.1572 13.171 29.1572 18.8656C29.1572 24.5603 24.5603 29.1572 18.8656 29.1572Z" fill="url(#paint0_linear_708_54)"/>
<defs>
<linearGradient id="paint0_linear_708_54" x1="24" y1="4" x2="24" y2="44" gradientUnits="userSpaceOnUse">
<stop stop-color="#60C4F0"/>
<stop offset="1" stop-color="#4008E2"/>
</linearGradient>
</defs>
</svg>
