<svg width="20" height="20" viewBox="0 0 20 20" fill="none" xmlns="http://www.w3.org/2000/svg">
<path d="M10 1.875C12.1549 1.875 14.2215 2.73102 15.7452 4.25476C17.269 5.77849 18.125 7.84512 18.125 10C18.125 12.1549 17.269 14.2215 15.7452 15.7452C14.2215 17.269 12.1549 18.125 10 18.125C7.84512 18.125 5.77849 17.269 4.25476 15.7452C2.73102 14.2215 1.875 12.1549 1.875 10C1.875 7.84512 2.73102 5.77849 4.25476 4.25476C5.77849 2.73102 7.84512 1.875 10 1.875ZM10 20C12.6522 20 15.1957 18.9464 17.0711 17.0711C18.9464 15.1957 20 12.6522 20 10C20 7.34784 18.9464 4.8043 17.0711 2.92893C15.1957 1.05357 12.6522 0 10 0C7.34784 0 4.8043 1.05357 2.92893 2.92893C1.05357 4.8043 0 7.34784 0 10C0 12.6522 1.05357 15.1957 2.92893 17.0711C4.8043 18.9464 7.34784 20 10 20ZM7.78906 12.2109C6.57031 10.9922 6.57031 9.01172 7.78906 7.79297C9.00781 6.57422 10.9883 6.57422 12.207 7.79297C12.5742 8.16016 13.168 8.16016 13.5312 7.79297C13.8945 7.42578 13.8984 6.83203 13.5312 6.46875C11.5781 4.51563 8.41406 4.51563 6.46094 6.46875C4.50781 8.42188 4.50781 11.5859 6.46094 13.5391C8.41406 15.4922 11.5781 15.4922 13.5312 13.5391C13.8984 13.1719 13.8984 12.5781 13.5312 12.2148C13.1641 11.8516 12.5703 11.8477 12.207 12.2148C10.9883 13.4336 9.00781 13.4336 7.78906 12.2148V12.2109Z" fill="#4008E2"/>
</svg>
