<svg width="234" height="393" viewBox="0 0 234 393" fill="none" xmlns="http://www.w3.org/2000/svg">
<path d="M35.5193 266.369C35.5193 266.369 1.64851 258.292 0.537613 256.869L28.391 185.135C32.2791 175.114 38.8403 166.227 47.6928 160.117C51.7314 157.328 56.1518 155.083 60.8731 153.475C78.9715 147.318 93.7718 148.395 93.7718 148.395L140.788 145.895C155.392 146.751 167.878 151.033 177.876 156.159C193.729 164.283 205.949 178.065 212.707 194.543L233.779 247.218L180.595 258.338L178.57 314.925L186.589 393H39.7314L40.7613 269.239L35.5193 266.358V266.369Z" fill="#60C4F0"/>
<g opacity="0.3">
<path d="M6.33535 247.509C6.28906 247.671 15.0721 250.529 25.9612 253.908C36.8503 257.287 45.7143 259.891 45.7606 259.729C45.8068 259.567 37.0239 256.709 26.1348 253.33C15.2457 249.951 6.38163 247.347 6.33535 247.509Z" fill="white"/>
</g>
<path d="M159.977 197.078C159.977 197.078 160.336 196.661 160.879 195.84C161.412 195.018 162.245 193.861 163.298 192.472C164.351 191.072 165.705 189.487 167.279 187.809C168.887 186.142 170.727 184.407 172.798 182.717C174.881 181.051 176.976 179.616 178.943 178.401C180.922 177.209 182.762 176.225 184.347 175.485C185.932 174.744 187.228 174.177 188.143 173.83C189.057 173.471 189.554 173.24 189.543 173.205C189.531 173.17 189.01 173.309 188.062 173.61C187.124 173.899 185.782 174.397 184.162 175.103C182.542 175.797 180.667 176.746 178.654 177.926C176.652 179.13 174.523 180.565 172.416 182.254C170.322 183.955 168.47 185.737 166.874 187.438C165.3 189.163 163.969 190.794 162.951 192.229C161.921 193.664 161.146 194.856 160.671 195.724C160.185 196.58 159.93 197.066 159.965 197.078H159.977Z" fill="#020101"/>
<path d="M166.907 214.193C166.745 214.205 168.376 231.493 170.563 252.773C172.751 274.077 174.66 291.319 174.822 291.296C174.984 291.284 173.352 274.008 171.154 252.704C168.967 231.412 167.057 214.158 166.895 214.181L166.907 214.193Z" fill="#020101"/>
<path d="M51.2911 182.172C51.3837 182.172 51.5919 180.83 52.0432 178.666C52.4945 176.502 53.2467 173.551 54.3808 170.381C55.5148 167.21 56.8224 164.456 57.8407 162.5C58.8591 160.545 59.5649 159.364 59.4839 159.318C59.4492 159.295 59.2294 159.561 58.8706 160.07C58.5119 160.579 58.0259 161.332 57.4588 162.292C56.3364 164.213 54.9478 166.979 53.8022 170.172C52.6566 173.378 51.9622 176.386 51.6151 178.585C51.4415 179.684 51.3258 180.575 51.2911 181.2C51.2448 181.825 51.2333 182.161 51.2911 182.172Z" fill="#020101"/>
<path d="M48.3534 242.589C48.3534 242.589 48.4922 241.988 48.6427 240.888C48.7931 239.789 48.9667 238.204 49.1518 236.225C49.5337 232.291 49.9388 226.829 50.1471 220.8C50.3554 214.759 50.3437 209.297 50.2396 205.34C50.1817 203.361 50.1239 201.764 50.0545 200.653C49.985 199.554 49.9272 198.941 49.8925 198.941C49.8462 198.941 49.823 199.554 49.823 200.665C49.823 201.88 49.823 203.454 49.823 205.351C49.823 209.309 49.7652 214.759 49.5569 220.788C49.3486 226.817 49.013 232.256 48.7353 236.202C48.608 238.088 48.4923 239.662 48.4113 240.877C48.3419 241.976 48.3187 242.589 48.365 242.601L48.3534 242.589Z" fill="#020101"/>
<path d="M119.451 232.487C131.786 233.204 144.18 232.973 156.492 231.792V236.606H119.451V232.487Z" fill="white"/>
<g opacity="0.3">
<path d="M82.6048 152.468C82.6048 152.468 82.5353 152.711 82.4659 153.197C82.3849 153.717 82.2807 154.435 82.1419 155.326C81.9104 157.201 81.5864 159.943 81.3202 163.415C80.7648 170.369 80.2788 180.252 80.1168 191.928V192.379L80.5103 192.182C87.8931 188.595 96.1785 184.684 104.788 180.367C121.208 172.151 136.067 164.711 146.875 159.307C152.221 156.599 156.549 154.4 159.592 152.861C161.062 152.109 162.207 151.507 163.04 151.079C163.411 150.882 163.7 150.732 163.932 150.605C164.128 150.489 164.232 150.431 164.221 150.419C164.221 150.419 164.105 150.454 163.897 150.547C163.665 150.651 163.353 150.801 162.983 150.975C162.149 151.38 160.969 151.935 159.488 152.653C156.421 154.157 152.059 156.286 146.678 158.925C135.858 164.294 120.965 171.677 104.522 179.823C95.9124 184.128 87.6501 188.051 80.2788 191.673L80.6722 191.928C80.7995 180.275 81.2046 170.392 81.6559 163.438C81.8757 159.955 82.1419 157.224 82.3271 155.337C82.4312 154.435 82.5006 153.717 82.5584 153.197C82.6047 152.711 82.6279 152.456 82.6164 152.456L82.6048 152.468Z" fill="white"/>
</g>
<g opacity="0.3">
<path d="M171.024 252.436C171.024 252.436 171.244 252.425 171.637 252.332C172.1 252.217 172.667 252.089 173.361 251.916C174.947 251.511 177.088 250.967 179.691 250.307C185.037 248.942 192.42 247.067 200.59 245.088C208.771 243.11 216.189 241.408 221.57 240.182C224.197 239.58 226.349 239.083 227.934 238.724C228.629 238.55 229.196 238.411 229.658 238.307C230.052 238.203 230.26 238.145 230.249 238.122C230.249 238.099 230.029 238.122 229.635 238.192C229.172 238.273 228.594 238.377 227.888 238.504C226.372 238.782 224.185 239.221 221.477 239.777C216.073 240.899 208.632 242.543 200.451 244.521C192.27 246.5 184.899 248.444 179.587 249.914C176.926 250.654 174.785 251.268 173.304 251.707C172.621 251.916 172.054 252.089 171.603 252.228C171.221 252.355 171.012 252.425 171.024 252.448V252.436Z" fill="white"/>
</g>
<path d="M89.071 143.708C89.0132 143.534 85.8888 145.212 82.8223 149.748C79.802 154.273 76.9785 161.309 75.3816 169.386C74.5947 173.436 74.2012 177.347 74.0277 180.9C74.0045 182.682 73.9467 184.371 74.0046 185.957C74.0856 187.542 74.1087 189.012 74.2475 190.354C74.3864 191.673 74.5253 192.888 74.641 193.964C74.7914 195.017 74.965 195.92 75.1038 196.661C75.3816 198.142 75.5667 198.94 75.6477 198.929C75.7287 198.917 75.694 198.084 75.5667 196.591C75.4973 195.816 75.4163 194.913 75.3122 193.883C75.2543 192.807 75.1848 191.615 75.1038 190.296C75.0228 188.965 75.046 187.507 75.0113 185.945C75.0113 184.383 75.0923 182.705 75.1386 180.958C75.37 177.451 75.7866 173.598 76.5619 169.617C78.1241 161.667 80.7972 154.713 83.5397 150.211C84.9168 147.966 86.3632 146.346 87.3931 145.305C88.4346 144.263 89.1173 143.789 89.071 143.708Z" fill="#020101"/>
<path d="M141.691 144.045C141.575 144.149 142.547 145.329 144.132 147.563C145.718 149.796 147.777 153.21 149.583 157.734C151.423 162.259 152.765 167.952 153.633 174.363C154.478 180.786 154.836 187.96 155.311 195.459C155.704 202.946 155.716 210.12 155.727 216.647C155.727 223.162 155.727 229.04 155.727 233.993C155.762 238.934 155.855 242.938 156.005 245.692C156.144 248.458 156.306 249.974 156.433 249.974C156.56 249.974 156.63 248.446 156.711 245.68C156.78 242.868 156.884 238.888 157.012 233.993C157.139 229.063 157.301 223.185 157.394 216.647C157.475 210.109 157.509 202.922 157.116 195.354C156.641 187.821 156.236 180.647 155.288 174.132C154.327 167.628 152.811 161.819 150.775 157.248C148.761 152.666 146.493 149.275 144.711 147.135C142.917 145.005 141.772 143.976 141.702 144.033L141.691 144.045Z" fill="#020101"/>
<path d="M63.8812 240.785C63.9622 240.785 64.0432 239.419 64.1126 236.966C64.182 234.501 64.2399 230.949 64.2862 226.54C64.3093 224.329 64.3209 221.922 64.344 219.342C64.3903 216.761 64.2978 213.973 64.4945 211.126C64.7143 208.302 65.4434 205.317 67.4453 203.049C69.4009 200.769 72.4097 199.23 75.6035 199.195C78.7973 199.138 81.8638 200.503 84.1319 202.505C86.4347 204.507 87.7191 207.273 88.4366 210.015C89.154 212.769 89.4549 215.535 89.8831 218.081C90.2881 220.626 90.67 223.01 91.0056 225.186C91.6999 229.525 92.29 233.043 92.7182 235.461C93.1463 237.88 93.4241 239.222 93.5051 239.211C93.5861 239.199 93.4703 237.845 93.181 235.392C92.8917 232.95 92.4405 229.421 91.8503 225.058C91.5494 222.871 91.2254 220.488 90.8666 217.93C90.4848 215.373 90.2186 212.619 89.5012 209.726C88.7837 206.868 87.4183 203.813 84.9072 201.614C82.4655 199.427 79.1329 197.923 75.5803 197.98C72.0278 198.027 68.6951 199.751 66.5543 202.274C64.3209 204.819 63.5803 208.117 63.3836 211.045C63.21 214.007 63.3373 216.75 63.3373 219.342C63.372 221.922 63.3952 224.329 63.4183 226.54C63.4762 230.937 63.5456 234.501 63.6266 236.966C63.7076 239.431 63.7886 240.785 63.8696 240.785H63.8812Z" fill="#020101"/>
<path d="M75.0492 187.866C75.4195 191.916 76.7271 196.464 79.5391 199.403C77.0858 198.871 74.5053 198.917 72.0752 199.542C73.8341 196.024 74.1119 191.789 74.0656 187.855" fill="#020101"/>
<path d="M63.8464 214.192C64.0663 214.227 64.1936 212.248 65.6864 209.598C66.427 208.279 67.5147 206.832 69.0538 205.571C70.5581 204.298 72.5369 203.268 74.7471 202.863C76.9689 202.481 79.1676 202.794 81.0191 203.488C82.8706 204.171 84.3865 205.178 85.4973 206.196C87.7539 208.233 88.4829 210.084 88.6796 209.98C88.7837 209.968 88.3325 207.932 86.0875 205.583C84.9766 204.425 83.4028 203.257 81.4125 202.458C79.4337 201.648 77.0152 201.255 74.5388 201.683C72.074 202.134 69.9217 203.315 68.3363 204.738C66.7163 206.15 65.6169 207.77 64.9342 209.216C63.5572 212.144 63.7423 214.215 63.858 214.204L63.8464 214.192Z" fill="#020101"/>
<path d="M32.8807 345.291C25.9839 345.268 19.8278 340.326 16.5877 334.251C13.336 328.176 12.5259 321.106 12.2019 314.22C11.3571 296.006 13.6021 277.642 18.821 260.18L49.0234 265.457L40.7959 346.795L32.8807 345.302V345.291Z" fill="#FCC8CD"/>
<path d="M155.034 355.416L56.6968 351.829L32.8473 236.608L136.427 242.36L155.034 355.416Z" fill="#020101"/>
<path d="M104.419 240.381L102.938 237.442L95.0922 236.863C95.0922 236.863 93.1019 231.714 81.8888 231.193C71.8329 230.719 71.4278 235.776 71.4278 235.776H66.0122V238.24L104.431 240.37L104.419 240.381Z" fill="#595959"/>
<path d="M49.5913 318.284L42.1391 316.109C40.7389 315.703 39.2577 315.634 37.8228 315.923C36.0755 316.271 34.467 317.115 33.2057 318.365C30.7409 320.795 26.7602 324.811 26.1931 326.002C25.36 327.75 25.36 330.782 26.1931 331.904C27.0263 333.027 24.3647 338.755 24.7003 340.664C25.0359 342.573 25.5335 344.494 26.1931 345.281C26.8643 346.08 26.1931 348.799 27.8595 350.87C29.5258 352.93 31.0186 354.203 31.0186 354.203C31.0186 354.203 51.4891 355.163 53.491 354.203C55.4929 353.243 58.9876 349.586 58.9876 349.586C58.9876 349.586 60.816 346.242 57.9925 345.918L69.6453 341.451C71.0455 340.918 71.8787 339.356 71.3348 337.956C71.1497 337.47 70.8256 337.054 70.3049 336.834C70.3049 336.834 75.5354 335.179 76.7504 334.647C79.1689 333.582 80.0831 327.946 75.0841 328.676C72.4341 329.057 68.87 329.833 68.87 329.833C68.87 329.833 70.7793 326.72 68.1062 324.88C66.4862 323.757 59.1959 325.123 59.1959 325.123L49.6145 318.284H49.5913Z" fill="#FCC8CD"/>
<path d="M46.9976 349.019C46.9976 349.181 49.7864 349.053 53.0496 348.116C56.336 347.213 58.7199 345.744 58.6273 345.593C58.5463 345.454 56.1162 346.646 52.8877 347.537C49.6707 348.463 46.9745 348.845 46.9976 349.019Z" fill="#595959"/>
<path d="M51.4421 341.739C51.4884 341.901 55.7352 340.952 60.9425 339.621C66.1499 338.291 70.3389 337.087 70.2926 336.925C70.2463 336.763 65.9994 337.712 60.7921 339.043C55.5848 340.374 51.3958 341.577 51.4421 341.739Z" fill="#595959"/>
<path d="M49.0233 334.496C49.058 334.658 53.6405 333.721 59.2528 332.413C64.8651 331.106 69.3897 329.902 69.3434 329.74C69.3087 329.578 64.7263 330.516 59.1139 331.823C53.5016 333.131 48.9886 334.334 49.0233 334.496Z" fill="#595959"/>
<path d="M41.4425 325.17C41.4194 325.251 42.4262 325.563 44.0694 326.003C44.9604 326.234 45.9324 326.477 46.9623 326.743C47.5178 326.882 48.0848 327.021 48.6749 327.171C49.2998 327.333 49.971 327.403 50.6422 327.357C51.3133 327.322 51.9613 327.183 52.563 327.044C53.1532 326.905 53.7202 326.778 54.2872 326.651C55.3171 326.408 56.2892 326.165 57.1918 325.956C58.8465 325.54 59.8533 325.251 59.8417 325.158C59.8301 325.065 58.7771 325.227 57.1108 325.54C56.2082 325.713 55.2246 325.91 54.1715 326.107C53.0607 326.304 51.8572 326.662 50.619 326.755C49.3808 326.859 48.2352 326.419 47.1127 326.211C46.0712 325.991 45.0877 325.783 44.1851 325.586C42.5187 325.251 41.4773 325.077 41.4541 325.158L41.4425 325.17Z" fill="#595959"/>
<path d="M40.1398 329.092C40.0819 329.046 39.8042 329.3 39.5727 329.856C39.3529 330.4 39.214 331.256 39.4917 332.147C39.7695 333.038 40.3712 333.663 40.8572 333.975C41.3548 334.299 41.7251 334.346 41.7483 334.276C41.8408 334.137 40.5332 333.489 40.0587 331.962C39.5843 330.434 40.2786 329.161 40.1282 329.092H40.1398Z" fill="#595959"/>
<path d="M40.5513 336.994C40.4009 336.925 39.9381 337.747 40.0075 338.869C40.0654 339.992 40.6208 340.755 40.7596 340.674C40.9101 340.593 40.6555 339.818 40.6092 338.834C40.5513 337.851 40.7133 337.052 40.5513 336.983V336.994Z" fill="#595959"/>
<path d="M40.4359 345.593C40.2855 345.535 39.973 346.091 40.1235 346.82C40.2623 347.549 40.7715 347.942 40.8872 347.827C41.0145 347.722 40.8178 347.26 40.7136 346.693C40.5979 346.126 40.5979 345.628 40.4359 345.582V345.593Z" fill="#595959"/>
<path d="M38.2035 324.695C38.2151 324.776 38.9672 324.73 40.1707 324.591C40.8534 324.498 41.5593 324.417 42.2767 324.313C43.0752 324.186 43.8969 324.059 44.7879 324.186C45.5863 324.302 46.3732 324.788 47.0097 325.193C47.6461 325.621 48.2131 326.107 48.7454 326.419C49.8216 327.067 50.6201 327.125 50.6316 327.067C50.6664 326.963 49.9258 326.767 48.9769 326.072C48.0396 325.413 46.8708 324.024 44.8573 323.596C44.3713 323.538 43.9084 323.526 43.4571 323.561C42.9826 323.607 42.6007 323.7 42.1957 323.769C41.4783 323.908 40.784 324.036 40.1012 324.174C38.9093 324.417 38.1919 324.614 38.2035 324.695Z" fill="#595959"/>
<path d="M26.3787 345.672C26.3787 345.672 26.2051 345.14 25.8579 344.202C25.5339 343.265 25.0132 341.888 25.0364 340.118C25.0364 339.238 25.21 338.289 25.4761 337.271C25.7191 336.253 26.1819 335.246 26.4365 334.019C26.7374 332.769 26.3556 331.45 26.182 330.235C26.0084 329.009 26.2861 327.713 26.8532 326.509C27.4202 325.306 28.1955 324.229 28.9823 323.211C29.7808 322.204 30.5561 321.221 31.3315 320.341C32.8705 318.571 34.5368 317.217 36.1685 316.557C37.7885 315.875 39.2697 315.805 40.2417 315.944C41.2253 316.071 41.723 316.337 41.7461 316.28C41.7461 316.256 41.6303 316.187 41.3989 316.071C41.1559 315.956 40.7856 315.817 40.2764 315.713C39.2813 315.493 37.7306 315.493 36.0064 316.164C34.2707 316.812 32.5002 318.189 30.9148 319.983C30.1048 320.874 29.318 321.846 28.5079 322.852C27.7095 323.871 26.8994 324.982 26.2977 326.255C25.6959 327.527 25.3951 328.962 25.5918 330.305C25.7885 331.624 26.1357 332.793 25.8811 333.904C25.6612 335.014 25.1984 336.091 24.9785 337.132C24.724 338.174 24.5735 339.169 24.5966 340.094C24.6314 341.946 25.2331 343.346 25.6266 344.26C26.0431 345.186 26.3324 345.66 26.3671 345.649L26.3787 345.672Z" fill="#595959"/>
<path d="M95.2201 288.67L175.957 301.492L172.369 259.347L217.268 250.668L222.73 313.052L223.679 327.355C224.315 337.04 219.883 346.367 211.957 351.98C204.759 357.083 195.571 358.471 187.17 355.74L169.824 350.082L85.2105 319.983" fill="#FCC8CD"/>
<path d="M46.3644 279.979C46.0404 278.579 47.2322 277.283 48.6671 277.283C53.2149 277.26 65.5041 277.329 69.8436 278.567C75.2129 280.095 95.209 288.67 95.209 288.67L86.7269 319.983L56.0268 320.307C56.0268 320.307 44.8137 315.157 44.6749 312.924C44.6054 311.778 44.9526 308.747 44.9526 308.747L41.5736 306.93C36.5283 303.725 39.7568 297.591 39.7568 297.591C39.7568 297.591 36.2853 295.647 36.1002 292.13C35.9034 288.415 38.8079 286.957 38.8079 286.957C38.8079 286.957 37.4193 282.004 39.9999 280.673C42.5804 279.343 46.9661 281.055 46.9661 281.055C46.6653 280.812 46.4569 280.442 46.3528 279.991L46.3644 279.979Z" fill="#FCC8CD"/>
<path d="M44.5937 280.5C44.5937 280.5 44.9177 280.65 45.531 280.835C46.1443 281.009 47.0585 281.217 48.181 281.402C50.4375 281.807 53.5734 282.143 57.0334 282.513C60.4933 282.884 63.6062 283.312 65.8048 283.844C68.015 284.365 69.2533 285.048 69.2995 284.955C69.3227 284.92 69.0218 284.723 68.4547 284.411C67.8762 284.122 67.0199 283.763 65.909 283.427C63.6988 282.768 60.5628 282.282 57.0913 281.9C53.6313 281.53 50.4953 281.252 48.2388 280.963C45.9823 280.685 44.6052 280.396 44.5821 280.488L44.5937 280.5Z" fill="#595959"/>
<path d="M38.8177 286.76C38.783 286.83 39.5814 287.304 40.9701 287.859C42.3587 288.426 44.3375 289.017 46.5709 289.491C48.7926 289.954 50.8293 290.255 52.2989 290.452C53.7685 290.637 54.6827 290.718 54.7058 290.637C54.7405 290.44 51.1186 289.804 46.6981 288.901C44.4879 288.438 42.5207 287.917 41.1205 287.466C39.7203 287.015 38.864 286.679 38.8177 286.76Z" fill="#595959"/>
<path d="M39.6973 297.638C39.6395 297.777 42.5093 299.026 46.2701 299.871C50.031 300.728 53.1554 300.843 53.167 300.693C53.1785 300.519 50.112 300.137 46.3974 299.293C42.6828 298.459 39.7552 297.476 39.6858 297.649L39.6973 297.638Z" fill="#595959"/>
<path d="M41.573 306.93C41.5151 307.08 43.7138 308.087 46.6183 308.793C49.5228 309.499 51.9414 309.603 51.953 309.441C51.9761 309.267 49.6154 308.897 46.7571 308.203C43.8989 307.52 41.6309 306.768 41.573 306.93Z" fill="#595959"/>
<path d="M57.5891 301.375C57.566 301.444 57.9016 301.652 58.5264 301.71C59.1398 301.768 60.0424 301.629 60.8524 301.062C61.6508 300.495 62.0789 299.685 62.2294 299.083C62.3798 298.482 62.2988 298.088 62.2294 298.088C62.0674 298.042 61.8938 299.593 60.5168 300.576C59.1281 301.56 57.6238 301.213 57.6122 301.375H57.5891Z" fill="#595959"/>
<path d="M58.2253 311.072C58.2022 311.234 59.4288 311.315 60.4702 310.366C61.5233 309.429 61.5927 308.202 61.4307 308.214C61.2571 308.179 60.9678 309.14 60.0652 309.915C59.1973 310.713 58.2021 310.898 58.2137 311.072H58.2253Z" fill="#595959"/>
<path d="M61.7927 291.377C61.7233 291.539 62.5796 291.805 63.3665 291.203C64.1534 290.613 64.1302 289.722 63.9567 289.745C63.7831 289.722 63.5864 290.312 63.0078 290.729C62.4523 291.169 61.8274 291.215 61.8043 291.377H61.7927Z" fill="#595959"/>
<path d="M95.22 288.669C95.22 288.669 95.139 288.612 94.977 288.542C94.7919 288.45 94.5489 288.345 94.248 288.207C93.5653 287.906 92.6164 287.489 91.4013 286.945C88.9134 285.857 85.2798 284.307 80.6974 282.421C78.4062 281.483 75.8719 280.465 73.1063 279.435C71.7176 278.949 70.2943 278.359 68.6974 278.07C67.1236 277.769 65.492 277.607 63.8141 277.468C60.4583 277.202 56.9057 277.086 53.1911 277.04C52.2654 277.04 51.3281 277.028 50.3792 277.017C49.9047 277.017 49.4303 277.017 48.9443 277.017C48.4814 276.993 47.8797 277.063 47.4168 277.329C46.4679 277.815 45.7852 278.949 46.1092 280.118C46.2249 280.372 46.3522 280.419 46.4679 280.523C46.5836 280.604 46.6994 280.673 46.8151 280.731C47.0465 280.858 47.278 280.963 47.5094 281.055C47.9838 281.252 48.4467 281.425 48.9674 281.564C49.1179 281.611 49.2799 281.506 49.3262 281.356C49.3609 281.206 49.2683 281.044 49.1179 280.997C47.8681 280.639 46.6068 280.349 45.2876 280.141C43.98 279.944 42.6261 279.805 41.2375 280.002C40.5547 280.118 39.8141 280.326 39.2587 280.858C38.7032 281.379 38.414 282.108 38.2751 282.803C38.0205 284.226 38.1941 285.638 38.5296 287.026L38.6801 286.679C38.0205 287.049 37.4535 287.559 36.9791 288.172C35.7756 289.734 35.5094 291.84 36.0996 293.645C36.7129 295.462 38.0552 296.874 39.6174 297.834L39.5017 297.441C38.7033 299.13 38.2866 300.959 38.5296 302.787C38.7379 304.627 39.9414 306.235 41.4226 307.161H41.4458C42.5914 307.786 43.7138 308.388 44.8363 308.978L44.6859 308.7C44.5933 309.51 44.5239 310.309 44.466 311.107C44.4428 311.512 44.4197 311.906 44.4081 312.311C44.4081 312.507 44.4081 312.716 44.4081 312.924C44.4429 313.19 44.5354 313.41 44.6627 313.595C45.1487 314.313 45.7852 314.787 46.41 315.261C47.0349 315.724 47.683 316.129 48.3194 316.534C50.8999 318.097 53.4689 319.369 55.9452 320.527C55.9799 320.538 56.0147 320.55 56.0494 320.55C65.3416 320.411 73.0137 320.295 78.3946 320.203C81.033 320.145 83.1159 320.098 84.574 320.075C85.2567 320.052 85.789 320.041 86.194 320.018C86.5643 320.006 86.7494 319.983 86.7494 319.971C86.7494 319.96 86.5643 319.948 86.194 319.936C85.789 319.936 85.2567 319.937 84.574 319.913C83.1159 319.913 81.033 319.913 78.3946 319.913C73.0137 319.948 65.3416 319.994 56.0494 320.041L56.1535 320.064C53.7119 318.907 51.1545 317.611 48.6087 316.06C47.9723 315.666 47.3474 315.261 46.7457 314.81C46.1555 314.359 45.5306 313.873 45.1488 313.294C45.0446 313.155 45.0099 313.005 44.9867 312.878C44.9867 312.693 44.9867 312.507 44.9867 312.311C44.9867 311.929 45.0214 311.535 45.0446 311.142C45.1024 310.355 45.1835 309.557 45.276 308.758C45.2876 308.642 45.2297 308.527 45.1256 308.48C44.0147 307.879 42.8923 307.277 41.7466 306.664H41.7697C40.4043 305.796 39.3397 304.384 39.143 302.706C38.9231 301.051 39.3281 299.269 40.0571 297.719C40.1266 297.568 40.0687 297.406 39.9414 297.325C38.5181 296.446 37.2336 295.092 36.7013 293.46C36.169 291.84 36.4236 289.908 37.4882 288.531C37.9048 287.987 38.4487 287.501 38.981 287.2C39.1082 287.13 39.1661 286.98 39.1314 286.853C38.819 285.568 38.6453 284.18 38.8768 282.907C39.0041 282.282 39.2471 281.68 39.6868 281.275C40.115 280.87 40.7283 280.673 41.3532 280.569C42.6261 280.384 43.9453 280.511 45.2182 280.708C46.4911 280.905 47.764 281.194 48.9674 281.541L49.1179 280.974C48.6666 280.858 48.1922 280.685 47.7524 280.5C47.5326 280.407 47.3127 280.303 47.1044 280.199C46.9077 280.118 46.7109 279.898 46.6299 279.921C46.6299 279.539 46.6068 279.076 46.8266 278.706C47.0118 278.324 47.3358 278.012 47.7177 277.815C48.1111 277.607 48.493 277.549 48.979 277.56C49.4535 277.56 49.9279 277.56 50.4023 277.56C51.3512 277.56 52.2885 277.56 53.2143 277.572C56.9173 277.618 60.4699 277.711 63.8025 277.954C65.4689 278.081 67.0889 278.243 68.628 278.521C70.1554 278.787 71.5904 279.366 72.9674 279.84C75.7331 280.847 78.2673 281.842 80.5701 282.756C85.1294 284.608 88.7861 286.089 91.3435 287.119C92.5701 287.616 93.5421 288.01 94.2248 288.288C94.5373 288.403 94.7803 288.507 94.977 288.577C95.1506 288.635 95.2316 288.669 95.2432 288.658L95.22 288.669Z" fill="#595959"/>
<path d="M175.634 301.422C175.53 301.584 178.816 303.181 181.605 306.571C184.44 309.927 185.401 313.456 185.586 313.375C185.655 313.364 185.505 312.461 184.984 311.096C184.463 309.73 183.503 307.914 182.068 306.189C180.633 304.465 179.024 303.192 177.775 302.44C176.525 301.676 175.669 301.375 175.634 301.433V301.422Z" fill="#595959"/>
<path d="M70.2029 51.7723C71.8693 30.5843 89.5279 14.2333 110.785 14.187H112.903C135.676 15.4715 147.318 35.5255 145.397 58.2525L141.462 149.381C141.393 150.908 140.49 152.274 139.102 152.922L87.9888 176.91L89.5626 129.084C89.5626 129.084 67.6687 125.728 67.3447 103.834C67.1943 93.2573 68.6523 71.4675 70.2029 51.7607V51.7723Z" fill="#FCC8CD"/>
<path opacity="0.2" d="M89.3766 129.06C89.3766 129.06 103.355 129.87 118.04 120.613C118.04 120.613 111.328 136.374 89.4808 134.453L89.3766 129.06Z" fill="#F64C5D"/>
<path d="M77.9573 65.3668C77.8994 67.0216 79.2533 68.4218 80.9775 68.5144C82.7017 68.607 84.1366 67.3456 84.1945 65.6909C84.2524 64.0361 82.8985 62.6359 81.1743 62.5433C79.4501 62.4507 78.0151 63.7236 77.9573 65.3668Z" fill="#020101"/>
<path d="M74.9245 62.4734C75.3179 62.8784 77.6786 61.1195 81.046 61.1195C84.4018 61.0732 86.8782 62.7974 87.2369 62.3808C87.4105 62.1957 87.0171 61.4666 85.9409 60.6797C84.8763 59.9044 83.071 59.1523 80.9765 59.1638C78.882 59.1754 77.1232 59.9507 76.1048 60.7492C75.0749 61.5476 74.7278 62.2882 74.9129 62.4618L74.9245 62.4734Z" fill="#020101"/>
<path d="M111.027 66.3869C110.969 68.0416 112.323 69.4418 114.047 69.5344C115.771 69.627 117.206 68.3656 117.264 66.7109C117.322 65.0561 115.968 63.6559 114.244 63.5633C112.519 63.4708 111.084 64.7437 111.027 66.3869Z" fill="#020101"/>
<path d="M107.998 63.0297C108.392 63.4347 110.752 61.6758 114.12 61.6873C117.475 61.641 119.952 63.3653 120.31 62.9487C120.484 62.7635 120.102 62.0345 119.014 61.2476C117.95 60.4723 116.145 59.7201 114.05 59.7317C111.956 59.7433 110.197 60.5186 109.178 61.317C108.148 62.1155 107.801 62.8561 107.987 63.0297H107.998Z" fill="#020101"/>
<path d="M95.8325 88.0009C95.8441 87.8042 93.7611 87.457 90.3706 87.0289C89.5143 86.9479 88.6927 86.7743 88.5538 86.1841C88.3455 85.5593 88.7043 84.6335 89.1209 83.6383C89.9193 81.5554 90.7641 79.3799 91.6435 77.0887C95.1498 67.7734 97.684 60.1128 97.3137 59.974C96.9318 59.8351 93.7843 67.2758 90.2781 76.6027C89.4333 78.9055 88.6233 81.0925 87.8595 83.187C87.5355 84.1591 86.9801 85.27 87.4198 86.5544C87.6512 87.1909 88.2877 87.6653 88.8316 87.8042C89.387 87.9662 89.8614 87.9778 90.2896 88.0009C93.7033 88.1745 95.8094 88.1861 95.8325 88.0009Z" fill="#020101"/>
<path d="M105.741 90.3046C105.197 90.2699 105.197 93.9266 102.072 96.5187C98.9594 99.1224 95.0597 98.7289 95.0366 99.2381C94.9903 99.4695 95.9044 99.944 97.5476 99.9903C99.1561 100.037 101.505 99.5158 103.415 97.9305C105.312 96.3336 106.134 94.2159 106.25 92.7116C106.389 91.1841 105.972 90.2815 105.729 90.3046H105.741Z" fill="#020101"/>
<path d="M107.094 49.8507C107.43 50.7648 110.786 50.3251 114.732 50.788C118.689 51.1814 121.871 52.327 122.392 51.5054C122.624 51.112 122.068 50.2557 120.784 49.3647C119.511 48.4852 117.474 47.652 115.102 47.3859C112.73 47.1313 110.566 47.5132 109.131 48.1033C107.684 48.6935 106.955 49.4109 107.094 49.8391V49.8507Z" fill="#020101"/>
<path d="M76.1397 52.7312C76.7299 53.4949 79.0442 52.6965 81.833 52.6502C84.6218 52.5113 86.9825 53.1478 87.5264 52.3493C87.7579 51.9559 87.3875 51.1922 86.3577 50.4747C85.3393 49.7573 83.6383 49.1671 81.7289 49.2365C79.8196 49.3059 78.1533 50.0003 77.1928 50.7871C76.2092 51.574 75.8851 52.3609 76.1513 52.7312H76.1397Z" fill="#020101"/>
<path d="M142.11 74.4637C142.481 74.3017 157.142 69.9854 156.691 84.9478C156.24 99.9101 141.312 96.3807 141.3 95.9526C141.289 95.5244 142.11 74.4637 142.11 74.4637Z" fill="#FCC8CD"/>
<path d="M144.726 90.4225C144.795 90.3762 144.981 90.6077 145.42 90.8275C145.848 91.0358 146.577 91.1978 147.364 90.9201C148.961 90.3878 150.373 87.9114 150.523 85.2268C150.604 83.8613 150.35 82.5653 149.91 81.4775C149.482 80.3666 148.799 79.5797 148.012 79.4177C147.225 79.2094 146.647 79.6723 146.45 80.0889C146.242 80.5055 146.323 80.8063 146.242 80.8295C146.196 80.8642 145.929 80.5633 146.068 79.95C146.138 79.6491 146.323 79.302 146.682 79.0243C147.052 78.7465 147.584 78.6077 148.14 78.6887C149.297 78.8044 150.304 79.8922 150.79 81.0956C151.345 82.2991 151.658 83.7687 151.565 85.2962C151.38 88.3049 149.748 91.0821 147.573 91.6491C146.508 91.8921 145.64 91.545 145.2 91.1863C144.749 90.8044 144.68 90.4688 144.738 90.4457L144.726 90.4225Z" fill="#F64C5D"/>
<path d="M132.297 29.9821L69.8906 31.3592C71.8347 27.0544 75.2946 23.606 79.0555 20.7594C87.1673 14.6147 97.1307 10.7729 107.314 10.5877C117.485 10.4142 138.211 22.8076 145.582 29.8201C151.484 35.4324 151.449 40.2926 151.449 40.2926C152.386 48.3813 147.862 57.5809 146.056 65.5308C145.131 69.6272 143.337 82.0206 143.337 82.0206C139.9 82.009 138.627 79.2665 139.148 75.876L139.796 62.5337C139.796 62.5337 128.097 54.2251 133.64 39.0081C134.531 37.7931 136.429 32.2386 132.309 29.9821H132.297Z" fill="#020101"/>
<path d="M119.195 77.3104C119.392 77.3451 119.589 77.2062 119.635 76.9863C119.681 76.7665 119.554 76.5582 119.346 76.5119C119.149 76.4772 118.952 76.616 118.906 76.8359C118.86 77.0558 118.987 77.2641 119.195 77.3104Z" fill="#F64C5D"/>
<path d="M112.763 75.8652C112.96 75.9 113.168 75.738 113.214 75.4834C113.261 75.2288 113.145 74.9974 112.937 74.9511C112.74 74.9164 112.532 75.0784 112.485 75.333C112.439 75.5875 112.555 75.819 112.763 75.8652Z" fill="#F64C5D"/>
<path d="M108.434 75.7604C108.642 75.7835 108.839 75.5405 108.874 75.205C108.92 74.8694 108.781 74.5801 108.585 74.5569C108.376 74.5338 108.18 74.7768 108.145 75.1124C108.099 75.448 108.237 75.7373 108.434 75.7604Z" fill="#F64C5D"/>
<path d="M116.05 81.3482C116.258 81.3482 116.42 81.2441 116.42 81.1052C116.42 80.9779 116.258 80.8738 116.05 80.8738C115.841 80.8738 115.679 80.9779 115.679 81.1168C115.679 81.2441 115.841 81.3482 116.05 81.3482Z" fill="#F64C5D"/>
<path d="M110.147 79.9953C110.356 80.0185 110.529 79.8333 110.552 79.6019C110.575 79.3704 110.425 79.1737 110.217 79.1506C110.008 79.139 109.835 79.3126 109.812 79.544C109.789 79.7755 109.939 79.9722 110.147 79.9953Z" fill="#F64C5D"/>
<path d="M79.4697 76.3962C79.6664 76.4309 79.8747 76.2804 79.9094 76.0606C79.9557 75.8291 79.8284 75.6208 79.6317 75.5746C79.435 75.5398 79.2267 75.6903 79.192 75.9102C79.1457 76.1416 79.273 76.3499 79.4697 76.3962Z" fill="#F64C5D"/>
<path d="M75.0848 76.0028C75.2931 76.0259 75.4782 75.8292 75.5014 75.5746C75.5245 75.32 75.3856 75.0886 75.1773 75.077C74.9691 75.0539 74.7839 75.2506 74.7608 75.5052C74.7376 75.7598 74.8765 75.9912 75.0848 76.0028Z" fill="#F64C5D"/>
<path d="M83.3341 76.4891C83.5308 76.5238 83.7275 76.4196 83.7622 76.246C83.797 76.0725 83.6581 75.8989 83.4614 75.8526C83.2646 75.8179 83.0679 75.922 83.0332 76.0956C82.9985 76.2692 83.1374 76.4428 83.3341 76.4891Z" fill="#F64C5D"/>
<path d="M80.0936 80.8865C80.2787 80.9675 80.5101 80.8634 80.6027 80.6435C80.6953 80.4236 80.6259 80.1806 80.4408 80.0996C80.2556 80.0186 80.0242 80.1228 79.9316 80.3426C79.839 80.5625 79.9084 80.8055 80.0936 80.8865Z" fill="#F64C5D"/>
<path d="M76.3573 80.146C76.554 80.0881 76.6813 79.9145 76.635 79.741C76.5887 79.579 76.392 79.4864 76.1953 79.5327C75.9986 79.5905 75.8713 79.7641 75.9176 79.9261C75.9639 80.0881 76.1606 80.1807 76.3573 80.1344V80.146Z" fill="#F64C5D"/>
<path d="M145.994 30.6641C147.591 25.2022 145.994 19.1154 142.487 14.6256C138.981 10.1473 133.242 7.49731 127.56 7.72874C124.644 7.84446 121.751 8.67763 118.846 8.35362C113.442 7.76346 109.288 3.4356 104.277 1.32952C96.4778 -1.9453 86.5492 1.02866 81.8395 8.06433C79.9417 10.8994 78.6919 14.4057 75.7874 16.1877C73.2763 17.7268 70.1057 17.5995 67.2822 18.4558C61.5657 20.18 57.6544 26.2437 57.9553 32.2032C58.2561 38.1626 62.422 43.613 67.9186 45.9505C73.4152 48.288 79.9532 47.6284 85.1606 44.7354C89.8703 42.1202 94.0824 37.6419 99.4749 37.8039C105.053 37.9659 109.924 43.2311 115.398 42.1318C118.268 41.5648 120.478 39.3545 122.584 37.3179C124.69 35.2813 127.108 33.2099 130.025 33.0363C132.941 32.8628 134.468 36.8782 133.427 39.6091L146.005 30.6641" fill="#020101"/>
<path d="M71.1033 23.4315C71.1033 23.4315 71.1264 23.5125 71.2074 23.6513C71.2884 23.7902 71.3926 23.9985 71.5662 24.2531C71.9017 24.7738 72.4688 25.5028 73.3598 26.2897C74.2393 27.065 75.4774 27.8866 77.0744 28.4421C78.6597 28.9975 80.6501 29.229 82.733 28.7777C84.8043 28.3379 87.003 27.2502 88.704 25.3755C90.4051 23.5009 91.4234 21.0014 93.0088 18.8027C93.7957 17.7034 94.7908 16.7082 96.029 16.0718C97.2788 15.4469 98.7137 15.1345 100.172 15.1576C101.63 15.1923 103.099 15.5858 104.419 16.3032C105.738 17.0438 106.814 18.1432 107.555 19.5202C108.307 20.8857 108.851 22.4016 109.753 23.7323C110.621 25.0862 112.137 26.1046 113.745 26.1624C115.354 26.255 116.835 25.6533 118.096 24.9011C119.381 24.1489 120.446 23.1422 121.406 22.1586C123.327 20.2145 125.236 18.282 127.597 17.7497C129.934 17.1943 132.226 18.0506 133.869 19.2193C135.547 20.4228 136.623 22.0081 137.317 23.4778C138.012 24.9705 138.37 26.3476 138.602 27.4932C138.833 28.6388 138.937 29.5298 139.018 30.1431C139.088 30.7564 139.122 31.0805 139.146 31.0689C139.146 31.0689 139.157 30.9879 139.157 30.8259C139.157 30.6639 139.157 30.4324 139.134 30.12C139.099 29.5067 139.03 28.5925 138.833 27.4353C138.636 26.2781 138.301 24.8664 137.618 23.3273C136.935 21.7999 135.848 20.1335 134.123 18.8606C132.434 17.6224 130.027 16.6735 127.493 17.2406C124.935 17.796 122.945 19.8211 121.024 21.742C120.052 22.714 119.034 23.6745 117.807 24.3804C116.604 25.0862 115.204 25.6301 113.78 25.5375C112.357 25.4681 111.049 24.6118 110.239 23.3505C109.395 22.1123 108.851 20.6195 108.075 19.1846C107.312 17.7381 106.108 16.5115 104.708 15.7362C103.296 14.9725 101.734 14.5559 100.183 14.5212C98.6327 14.498 97.1052 14.822 95.7629 15.5164C94.4205 16.2107 93.3675 17.2984 92.5575 18.4324C90.9258 20.7237 89.9538 23.2 88.3338 25.0052C86.7369 26.7989 84.6423 27.8751 82.6404 28.3148C80.6385 28.7777 78.7176 28.5809 77.1785 28.0718C75.6163 27.5626 74.4012 26.7989 73.5102 26.0699C71.7281 24.5655 71.1728 23.3389 71.1033 23.3968V23.4315Z" fill="#595959"/>
<path d="M59.798 23.6511C59.798 23.6511 59.6245 24.0677 59.5435 24.8546C59.4625 25.6415 59.4971 26.8102 59.8559 28.1989C60.2262 29.5759 60.9668 31.1497 62.1934 32.6077C63.42 34.0658 65.1327 35.3271 67.123 36.195C71.1616 37.9655 75.258 37.8035 78.0121 37.4216C79.4123 37.2249 80.5232 36.9703 81.2869 36.7736C82.0507 36.5768 82.4557 36.4264 82.4441 36.3917C82.421 36.2875 80.7315 36.7157 77.9658 37.005C75.2233 37.2712 71.2541 37.3522 67.3776 35.6511C65.4566 34.8064 63.8019 33.6145 62.6216 32.249C61.4297 30.8835 60.6775 29.3907 60.2725 28.0831C59.4509 25.4216 59.9369 23.6511 59.798 23.6511Z" fill="#595959"/>
<path d="M166.291 264.761C166.083 267.261 165.007 269.506 163.664 271.241C162.322 272.977 159.603 274.678 157.415 274.563C157.415 274.563 151.954 275.025 149.003 270.339C146.341 266.092 145.682 257.263 147.822 252.044C149.292 248.456 152.59 245.112 156.478 245.031C161.57 244.916 164.764 248.595 165.851 252.31" fill="#D9D9D9"/>
<path d="M165.85 252.309C165.85 252.309 165.734 251.337 164.912 249.81C164.496 249.058 163.894 248.167 163.003 247.31C162.124 246.454 160.909 245.656 159.404 245.193C158.652 244.973 157.842 244.822 156.986 244.811C156.141 244.765 155.215 244.869 154.336 245.158C152.565 245.725 150.922 246.952 149.615 248.549C148.295 250.134 147.312 252.147 146.837 254.334C146.34 256.522 146.189 258.836 146.317 261.197C146.548 264.819 147.265 268.429 149.267 271.183C150.286 272.537 151.674 273.509 153.109 274.076C154.556 274.655 156.037 274.874 157.46 274.805H157.425C158.594 274.851 159.636 274.469 160.538 274.03C161.441 273.567 162.228 273.011 162.887 272.398C164.195 271.137 164.924 269.748 165.445 268.591C165.942 267.422 166.151 266.45 166.255 265.779C166.301 265.443 166.324 265.189 166.324 265.015C166.324 264.842 166.324 264.749 166.324 264.749C166.232 264.726 166.243 266.207 165.19 268.475C164.646 269.575 163.894 270.94 162.621 272.097C161.985 272.676 161.221 273.197 160.353 273.625C159.485 274.03 158.49 274.365 157.46 274.307H157.437C154.833 274.4 151.663 273.393 149.742 270.824C147.879 268.244 147.161 264.703 146.93 261.15C146.687 256.568 147.451 251.962 150.054 248.896C151.292 247.357 152.855 246.188 154.509 245.632C155.331 245.355 156.176 245.251 156.986 245.274C157.807 245.274 158.583 245.413 159.3 245.609C160.735 246.014 161.915 246.755 162.795 247.565C163.686 248.363 164.299 249.22 164.727 249.937C165.595 251.395 165.804 252.344 165.873 252.321L165.85 252.309Z" fill="#020101"/>
<path d="M168.998 264.982C168.79 267.481 167.714 269.726 166.371 271.462C165.029 273.198 162.31 274.899 160.122 274.783C160.122 274.783 154.661 275.246 151.71 270.559C149.048 266.313 148.389 257.483 150.529 252.264C151.999 248.677 155.297 245.333 159.185 245.252C164.277 245.136 167.471 248.816 168.558 252.53" fill="#D9D9D9"/>
<path d="M168.559 252.542C168.559 252.542 168.443 251.57 167.621 250.042C167.205 249.29 166.603 248.399 165.712 247.543C164.833 246.686 163.618 245.888 162.113 245.425C161.361 245.205 160.551 245.055 159.695 245.043C158.85 244.997 157.924 245.101 157.045 245.39C155.274 245.957 153.631 247.184 152.323 248.781C151.004 250.366 150.021 252.38 149.546 254.567C149.049 256.754 148.898 259.068 149.026 261.429C149.257 265.051 149.974 268.661 151.976 271.415C152.995 272.769 154.383 273.741 155.818 274.308C157.265 274.887 158.746 275.107 160.169 275.037H160.134C161.303 275.083 162.345 274.702 163.247 274.262C164.15 273.799 164.937 273.244 165.596 272.63C166.904 271.38 167.633 269.98 168.154 268.823C168.651 267.654 168.86 266.682 168.964 266.011C169.01 265.676 169.033 265.421 169.033 265.247C169.033 265.074 169.033 264.981 169.033 264.981C168.941 264.958 168.952 266.439 167.899 268.707C167.355 269.807 166.603 271.172 165.33 272.329C164.694 272.908 163.93 273.429 163.062 273.857C162.194 274.262 161.199 274.597 160.169 274.54H160.146C157.542 274.632 154.372 273.625 152.451 271.056C150.588 268.476 149.87 264.935 149.639 261.382C149.396 256.8 150.16 252.194 152.763 249.128C154.001 247.589 155.564 246.42 157.218 245.865C158.04 245.587 158.885 245.483 159.695 245.506C160.516 245.506 161.292 245.645 162.009 245.841C163.444 246.247 164.624 246.987 165.504 247.797C166.395 248.596 167.008 249.452 167.436 250.169C168.304 251.627 168.512 252.576 168.582 252.553L168.559 252.542Z" fill="#020101"/>
<path d="M164.091 251.232C166.625 250.723 169.229 252.471 170.305 254.808C171.381 257.157 171.138 259.923 170.293 262.364C169.865 263.603 169.263 264.806 168.361 265.767C167.458 266.727 166.22 267.41 164.912 267.445C162.991 267.502 161.256 266.183 160.133 264.621C158.328 262.098 157.715 258.754 158.502 255.745C159.034 253.743 160.503 251.684 162.575 251.626" fill="#D9D9D9"/>
<path d="M162.575 251.639C162.575 251.639 162.413 251.604 162.113 251.627C161.812 251.662 161.36 251.766 160.863 252.056C159.844 252.623 158.687 254.011 158.213 256.036C157.727 258.027 157.773 260.619 158.93 263.118C159.509 264.356 160.33 265.583 161.522 266.52C162.68 267.458 164.369 268.059 165.989 267.585C167.586 267.134 168.801 265.953 169.553 264.669C170.317 263.373 170.757 262.007 171.034 260.677C171.59 258.015 171.139 255.377 169.877 253.687C168.639 251.986 166.973 251.269 165.839 251.118C165.272 251.026 164.82 251.072 164.519 251.118C164.219 251.176 164.068 251.222 164.08 251.246C164.08 251.315 164.716 251.13 165.804 251.35C166.869 251.558 168.419 252.299 169.53 253.93C170.664 255.527 171.046 258.015 170.491 260.561C170.213 261.834 169.762 263.165 169.044 264.368C168.327 265.56 167.227 266.613 165.816 267.006C164.415 267.411 162.957 266.914 161.87 266.057C160.77 265.201 159.972 264.044 159.416 262.887C158.294 260.526 158.19 258.05 158.618 256.129C159.011 254.196 160.053 252.831 160.967 252.252C161.893 251.651 162.575 251.708 162.564 251.639H162.575Z" fill="#020101"/>
<path d="M158.261 270.257C158.353 270.281 158.481 269.899 158.874 269.424C159.256 268.961 159.962 268.441 160.853 268.163C161.755 267.885 162.635 267.839 163.283 267.781C163.931 267.735 164.336 267.677 164.336 267.596C164.336 267.515 163.942 267.422 163.283 267.353C162.623 267.295 161.686 267.272 160.668 267.584C159.649 267.897 158.874 268.568 158.527 269.181C158.168 269.795 158.191 270.246 158.261 270.257Z" fill="#020101"/>
<path d="M157.346 249.66C157.346 249.66 157.52 250.077 158.064 250.505C158.596 250.933 159.464 251.384 160.506 251.569C161.547 251.754 162.519 251.639 163.167 251.419C163.815 251.211 164.162 250.944 164.128 250.887C164.07 250.713 162.531 251.338 160.61 250.979C158.689 250.655 157.462 249.533 157.346 249.672V249.66Z" fill="#020101"/>
</svg>
