<svg width="379" height="413" viewBox="0 0 379 413" fill="none" xmlns="http://www.w3.org/2000/svg">
<path d="M17.0139 407.993L361.237 407.993C370.618 407.993 378.251 399.793 378.251 389.647L378.251 256.829C375.892 254.256 368.426 249.198 349.968 258.086V258.026C339.754 266.047 327.209 270.835 313.581 270.835C279.386 270.835 251.686 240.938 251.686 204.097C251.686 167.257 279.414 137.359 313.581 137.359C326.487 137.359 338.45 141.609 348.358 148.881C348.358 148.881 368.315 163.037 378.251 150.078L378.251 18.5173C378.251 8.40189 370.646 0.171814 361.237 0.171814L17.0139 0.171814C7.63251 0.171814 -0.000244141 8.37195 -0.000244141 18.5173L-0.000244141 389.677C-0.000244141 399.793 7.60477 408.023 17.0139 408.023V407.993Z" fill="#60C4F0"/>
<path opacity="0.4" d="M17.0139 407.993L361.237 407.993C370.618 407.993 378.251 399.793 378.251 389.647L378.251 256.829C375.892 254.256 368.426 249.198 349.968 258.086V258.026C339.754 266.047 327.209 270.835 313.581 270.835C279.386 270.835 251.686 240.938 251.686 204.097C251.686 167.257 279.414 137.359 313.581 137.359C326.487 137.359 338.45 141.609 348.358 148.881C348.358 148.881 368.315 163.037 378.251 150.078L378.251 18.5173C378.251 8.40189 370.646 0.171814 361.237 0.171814L17.0139 0.171814C7.63251 0.171814 -0.000244141 8.37195 -0.000244141 18.5173L-0.000244141 389.677C-0.000244141 399.793 7.60477 408.023 17.0139 408.023V407.993Z" fill="#60C4F0"/>
<path opacity="0.2" d="M309.002 408.172C309.002 408.172 307.753 319.796 234.673 288.552C161.62 257.308 172.945 202.989 191.846 158.158C210.748 113.327 329.152 0.231171 324.101 0.231171H250.993C250.993 0.231171 258.598 36.593 203.198 109.586C147.77 182.579 129.757 242.344 160.177 276.312C190.597 310.279 278.776 323.866 248.55 408.082H316.579" fill="#E6E6E6"/>
<path d="M121.931 62.2134C121.792 57.1782 126.452 53.2979 131.158 51.4501C135.864 49.6023 141.08 48.9094 145.277 46.1031C148.986 43.6201 151.478 39.7398 154.62 36.5639C162.328 28.7801 174.36 25.5581 184.944 28.4337C195.527 31.3093 204.244 40.1786 206.922 50.7803C208.73 57.9404 207.49 66.4171 201.821 71.1751C195.237 76.6954 185.489 75.4712 177.061 73.7505C168.634 72.0297 159.094 70.3321 152.046 75.2633C147.804 78.2429 145.369 83.0817 142.773 87.5511C140.176 92.0319 136.919 96.6052 132.016 98.2797C127.112 99.9658 120.447 97.0556 120.25 91.8933" fill="#020101"/>
<path d="M122.268 64.9729C122.824 69.1881 119.764 72.9645 116.715 75.9441C113.667 78.9236 110.224 82.0764 109.679 86.3032C109.053 91.2344 112.658 96.0849 111.615 100.947C110.954 104.03 108.543 106.409 107.082 109.204C105.031 113.131 104.926 117.889 106.178 122.127C107.43 126.377 109.436 135.858 112.403 139.161C120.598 148.285 133.639 156.161 145.625 158.909C157.599 161.646 170.049 161.669 182.313 160.919C192.351 160.307 203.908 160.769 212.266 147.003C216.601 139.877 218.746 130.396 221.053 122.381C223.035 115.487 224.75 108.095 222.687 101.224C221.482 97.2166 219.07 93.6596 217.876 89.6407C216.393 84.6286 216.938 79.2701 216.346 74.0847C215.06 62.8479 208.058 52.4195 198.136 46.9224C188.213 41.4368 175.624 41.0441 165.366 45.8945" fill="#020101"/>
<path d="M211.547 82.2736C210.608 67.9187 201.022 50.3186 186.659 51.8661L141.846 63.253C137.487 63.7265 134.207 67.4336 134.299 71.8106L139.342 179.536C139.238 179.559 139.133 179.582 139.029 179.605C139.029 179.605 149.241 209.99 178.881 200.705C184.758 198.868 187.436 192.459 188.607 185.876L188.908 185.911C188.908 185.126 188.931 184.398 188.943 183.659C189.917 176.06 189.117 168.865 189.117 168.865C189.198 160.169 189.186 156.601 189.198 156.681C189.198 156.681 207.606 153.598 211.361 129.646C213.228 117.739 212.59 98.2222 211.547 82.2736Z" fill="#FCC8CD"/>
<path d="M204.325 96.6982C204.383 98.315 203.062 99.7124 201.358 99.8048C199.665 99.8972 198.24 98.6615 198.17 97.0447C198.112 95.4279 199.434 94.0305 201.126 93.9381C202.818 93.8457 204.256 95.0814 204.314 96.6982H204.325Z" fill="#020101"/>
<path d="M207.316 92.4255C206.934 92.8297 204.592 91.1089 201.277 91.132C197.962 91.0974 195.539 92.8066 195.18 92.4024C195.006 92.2291 195.389 91.5016 196.443 90.7278C197.487 89.9656 199.26 89.215 201.324 89.215C203.387 89.215 205.126 89.9772 206.122 90.7509C207.143 91.5247 207.49 92.2523 207.305 92.4255H207.316Z" fill="#020101"/>
<path d="M171.737 96.6989C171.795 98.3157 170.474 99.7131 168.77 99.8055C167.078 99.8979 165.652 98.6622 165.594 97.0454C165.536 95.4286 166.857 94.0312 168.55 93.9388C170.242 93.8464 171.668 95.0821 171.737 96.6989Z" fill="#020101"/>
<path d="M174.729 93.1187C174.346 93.5229 172.004 91.8022 168.689 91.8253C165.374 91.7906 162.951 93.4998 162.592 93.0956C162.418 92.9224 162.801 92.1948 163.855 91.4211C164.899 90.6473 166.672 89.9082 168.736 89.9082C170.799 89.9082 172.538 90.6704 173.535 91.4442C174.555 92.2179 174.902 92.9455 174.717 93.1187H174.729Z" fill="#020101"/>
<path d="M186.821 117.59C186.81 117.405 188.862 117.047 192.2 116.608C193.046 116.516 193.846 116.354 193.985 115.776C194.182 115.164 193.823 114.264 193.417 113.282C192.617 111.238 191.783 109.101 190.902 106.861C187.401 97.7259 184.874 90.2078 185.245 90.0692C185.616 89.9306 188.757 97.2293 192.246 106.364C193.093 108.616 193.892 110.764 194.657 112.82C194.982 113.779 195.538 114.864 195.11 116.134C194.878 116.77 194.263 117.22 193.719 117.37C193.174 117.532 192.698 117.543 192.281 117.566C188.92 117.751 186.833 117.774 186.821 117.59Z" fill="#020101"/>
<path opacity="0.2" d="M189.198 156.67C189.198 156.67 173.039 157.744 157.008 148.193C157.008 148.193 165.134 164.742 189.175 162.456L189.198 156.681V156.67Z" fill="#F64C5D"/>
<path opacity="0.2" d="M185.432 125.547C184.238 123.976 182.14 123.121 180.076 123.352C178.639 123.514 177.19 124.207 176.309 125.373C175.44 126.54 175.254 128.203 176.054 129.311C176.947 130.559 178.825 130.847 180.401 130.397C181.977 129.947 183.345 128.907 184.632 127.868C184.991 127.579 185.351 127.279 185.571 126.886C185.791 126.494 185.838 125.985 185.571 125.662" fill="#F64C5D"/>
<path d="M177.074 119.9C177.607 119.865 177.631 123.457 180.714 125.986C183.797 128.538 187.634 128.123 187.657 128.619C187.704 128.839 186.8 129.312 185.188 129.37C183.6 129.428 181.282 128.92 179.393 127.372C177.515 125.813 176.692 123.734 176.576 122.268C176.437 120.766 176.831 119.877 177.086 119.9H177.074Z" fill="#020101"/>
<path d="M176.215 87.3322C175.891 88.233 172.576 87.8172 168.692 88.2907C164.798 88.6834 161.656 89.8267 161.146 89.0298C160.914 88.6487 161.459 87.7941 162.723 86.928C163.975 86.0619 165.98 85.2303 168.321 84.9647C170.651 84.7107 172.796 85.0687 174.21 85.6461C175.636 86.212 176.355 86.9164 176.215 87.3437V87.3322Z" fill="#020101"/>
<path d="M206.087 82.8749C205.508 83.6255 203.224 82.8518 200.477 82.8171C197.73 82.6901 195.411 83.3368 194.866 82.5515C194.635 82.1704 194.994 81.4197 196.014 80.7037C197.011 79.9993 198.692 79.4103 200.57 79.468C202.459 79.5258 204.093 80.1956 205.056 80.9694C206.029 81.7431 206.354 82.5053 206.087 82.8749Z" fill="#020101"/>
<path d="M125.072 141.992C131.679 143.32 138.878 141.299 143.816 136.726C148.754 132.152 151.304 125.154 150.458 118.49C149.716 112.612 146.528 106.63 148.58 101.063C151.281 93.7069 161.632 91.4434 164.38 84.0985C165.979 79.837 164.542 74.8365 166.35 70.6559C168.054 66.7294 172.204 64.4543 176.25 62.9992C180.295 61.544 184.619 60.5393 188.015 57.9062C191.412 55.2731 193.521 50.3188 191.331 46.6348C173.41 48.7713 155.744 53.0558 138.831 59.3382C134.913 60.7934 130.787 62.5488 128.48 66.0249C126.023 69.6974 126.15 74.4438 126.347 78.8554C127.356 100.347 128.364 121.839 129.361 143.331" fill="#020101"/>
<path d="M126.58 150.226C126.58 150.226 126.441 150.157 126.197 149.983C125.908 149.764 125.56 149.498 125.131 149.175C124.204 148.447 122.836 147.373 121.155 145.895C119.486 144.405 117.457 142.511 115.51 139.971C113.574 137.442 111.673 134.162 111.012 130.12C110.293 126.193 110.827 121.239 114.107 117.52C115.73 115.696 117.805 114.333 119.706 112.762C121.642 111.226 123.241 109.263 124.076 106.826C125.85 101.941 125.061 96.2938 125.745 90.5195C126.51 84.7799 128.562 78.8439 132.561 74.0281C134.555 71.6491 136.943 69.5819 139.69 68.2307C142.414 66.7987 145.37 66.2097 148.094 65.4013C150.853 64.6391 153.38 63.5073 155.467 61.775C157.576 60.0774 159.303 58.0217 160.822 55.8968C163.836 51.6238 166.073 47.0736 168.948 43.2857C170.374 41.3917 171.938 39.671 173.677 38.2736C175.428 36.8877 177.34 35.8599 179.288 35.2247C183.159 33.9082 187.263 34.347 189.952 36.2872C192.618 38.3082 193.592 41.2185 193.743 43.4474C193.858 45.7455 193.07 47.4778 192.294 48.3786C191.911 48.8406 191.575 49.1524 191.32 49.3141C191.076 49.4988 190.949 49.5797 190.937 49.5681C190.937 49.5566 191.03 49.4411 191.25 49.2332C191.482 49.0484 191.795 48.7251 192.131 48.2516C192.827 47.3392 193.499 45.6762 193.337 43.482C193.14 41.3455 192.12 38.5969 189.616 36.7723C187.077 35.0169 183.217 34.6358 179.531 35.9408C177.676 36.5644 175.845 37.5691 174.187 38.9088C172.53 40.2484 171.023 41.946 169.643 43.8054C166.861 47.5356 164.67 52.0742 161.61 56.4627C160.068 58.6338 158.306 60.7818 156.092 62.5719C153.913 64.3966 151.166 65.6323 148.372 66.406C145.59 67.226 142.716 67.815 140.154 69.1777C137.557 70.4711 135.274 72.4344 133.361 74.721C129.536 79.3405 127.507 85.0917 126.765 90.6697C126.07 96.2476 126.881 101.987 124.98 107.173C124.099 109.76 122.291 111.931 120.297 113.49C118.326 115.095 116.286 116.412 114.756 118.109C111.673 121.528 111.093 126.193 111.742 130.004C112.322 133.908 114.107 137.107 115.973 139.624C117.851 142.153 119.799 144.07 121.421 145.595C123.056 147.119 124.377 148.24 125.258 149.013C126.139 149.787 126.603 150.203 126.58 150.237V150.226Z" fill="#737373"/>
<path d="M122.188 153.193C117.25 148.435 108.811 152.569 104.673 158.031C100.535 163.494 97.5902 170.527 91.2959 173.264C85.0016 176.013 76.8178 173.645 71.5435 178.022C64.2639 184.05 68.3558 198.013 60.4734 203.256C57.3436 205.335 53.2285 205.265 49.8901 206.974C42.0193 211.016 42.1121 222.08 43.3292 230.822C45.0332 243.087 46.911 255.802 53.7038 266.173C60.4966 276.543 73.7228 283.842 85.4884 279.835C96.7904 275.989 102.598 263.84 107.188 252.857C113.552 237.659 119.916 222.473 126.268 207.275C129.943 198.486 133.664 189.559 134.858 180.112C136.052 170.666 134.44 160.457 128.413 153.066" fill="#020101"/>
<path d="M119.023 142.718C115.43 142.291 112.694 146.668 113.645 150.144C114.583 153.62 117.945 155.942 121.353 157.131C123.266 157.801 125.329 158.205 127.311 157.812C129.293 157.42 131.183 156.115 131.82 154.198C132.493 152.188 131.971 150.825 130.174 149.705C127.81 148.239 126.43 147.084 124.564 146.056C121.712 144.485 121.886 144.277 119.035 142.718" fill="#F64C5D"/>
<path d="M201.593 181.233L187.66 170.712L135.137 167.363L133.028 174.373L150.114 280.586L136.633 407.298H209.904L201.593 181.233Z" fill="#F64C5D"/>
<g opacity="0.3">
<path d="M145.363 362.339C147.032 360.56 149.791 358.1 152.237 358.054C169.775 357.673 187.696 355.918 205.246 355.536L206.648 407.32C202.452 399.952 198.476 392.284 197.375 383.877C196.888 380.204 196.274 375.816 192.912 374.245C191.011 373.356 188.786 373.702 186.722 374.107C180.382 375.354 174.087 376.982 167.642 377.386C161.197 377.791 154.451 376.844 149.037 373.344C147.183 372.143 145.456 370.584 144.586 368.552C143.717 366.519 143.856 363.955 145.374 362.339H145.363Z" fill="#020101"/>
</g>
<path d="M190.233 183.37L191.856 168.183C192.146 165.504 190.176 163.125 187.486 162.883L139.137 158.529C137.827 158.413 136.691 159.418 136.645 160.723L136.1 178.785L150.103 202.448L164.488 207.01H182.084L192.204 196.246L190.222 183.358L190.233 183.37Z" fill="#F64C5D"/>
<path d="M143.252 172.999C143.252 172.999 143.947 172.93 145.188 172.803C146.428 172.688 148.236 172.584 150.462 172.711C152.687 172.838 155.319 173.207 158.205 173.819C161.091 174.42 164.233 175.274 167.56 176.071C170.887 176.88 174.097 177.526 177.077 177.757C180.056 178 182.768 177.78 184.971 177.226C187.173 176.695 188.831 175.852 189.897 175.182C190.43 174.836 190.824 174.547 191.079 174.339C191.334 174.12 191.462 174.004 191.439 173.992C191.404 173.946 190.859 174.374 189.781 174.986C188.691 175.586 187.045 176.337 184.878 176.81C182.722 177.307 180.056 177.469 177.134 177.203C174.202 176.949 171.026 176.279 167.71 175.482C164.395 174.674 161.242 173.842 158.333 173.265C155.423 172.676 152.757 172.341 150.497 172.272C148.248 172.191 146.416 172.364 145.176 172.549C144.55 172.653 144.075 172.745 143.75 172.826C143.426 172.907 143.263 172.953 143.263 172.976L143.252 172.999Z" fill="#020101"/>
<g opacity="0.3">
<path d="M189.086 175.378C190.384 178.923 190.419 183.312 187.788 186.037C185.643 188.255 182.212 188.809 179.187 188.208C176.161 187.608 173.437 186.026 170.783 184.444C164.129 180.494 157.359 176.417 149.801 174.743C149.315 174.639 148.805 174.523 148.445 174.177C148.086 173.83 148.005 173.161 148.399 172.872C148.573 172.745 148.805 172.71 149.025 172.687C155.713 172.017 162.355 173.9 168.905 175.366C175.466 176.833 182.467 177.872 188.785 175.597" fill="#020101"/>
</g>
<path d="M179.846 162.397C179.8 162.478 180.785 162.72 181.504 163.968C182.269 165.192 182.223 167.259 182.165 169.499C182.037 173.992 181.295 177.584 181.469 177.618C181.55 177.63 181.828 176.752 182.118 175.297C182.408 173.842 182.686 171.786 182.756 169.511C182.779 168.368 182.791 167.294 182.686 166.289C182.582 165.296 182.292 164.383 181.852 163.737C181.411 163.09 180.89 162.697 180.484 162.524C180.09 162.351 179.835 162.351 179.835 162.386L179.846 162.397Z" fill="#020101"/>
<path d="M167.074 175.598C167.259 175.575 166.83 172.272 167.421 168.241C167.978 164.211 169.322 161.15 169.137 161.081C169.067 161.046 168.65 161.774 168.152 163.033C167.653 164.292 167.12 166.105 166.819 168.149C166.529 170.205 166.54 172.087 166.668 173.427C166.795 174.778 166.992 175.586 167.074 175.575V175.598Z" fill="#020101"/>
<path d="M151.505 159.811C151.447 159.776 151.007 160.423 150.578 161.601C150.16 162.767 149.824 164.5 149.94 166.417C150.068 168.334 150.636 169.997 151.204 171.105C151.772 172.214 152.305 172.792 152.351 172.757C152.525 172.676 150.752 170.089 150.531 166.371C150.253 162.663 151.667 159.869 151.482 159.811H151.505Z" fill="#020101"/>
<path d="M219.292 188.06C219.292 188.06 235.776 199.054 240.1 218.917C243.508 234.531 252.827 317.011 252.827 317.011L269.16 348.689L258.496 373.958C249.361 374.604 240.297 372.018 232.878 366.659L225.703 361.474L212.546 342.026L219.281 188.06H219.292Z" fill="#16034F"/>
<path d="M191.356 173.496L219.293 188.059L225.888 209.655L231.765 272.237L220.707 345.594L240.111 407.067L206.646 407.321L205.846 371.278L202.508 254.648L199.227 180.344L191.356 173.496Z" fill="#16034F"/>
<path d="M204.882 270.724C204.882 270.724 205.079 270.435 205.404 269.858C205.751 269.223 206.215 268.38 206.795 267.306C207.374 266.185 207.931 264.742 208.661 263.102C209.009 262.27 209.287 261.358 209.635 260.399C209.971 259.441 210.342 258.425 210.62 257.339C213.251 248.701 214.99 236.217 214.619 222.451C214.584 221.388 214.538 220.326 214.468 219.275V219.09L214.283 219.021C212.625 218.328 210.991 217.646 209.391 216.977L209.461 217.485C211.142 216.145 212.776 214.829 214.341 213.57L214.445 213.489V213.373C214.677 208.188 213.414 203.523 212.22 199.457C210.991 195.381 209.646 191.87 208.464 188.994C207.282 186.107 206.25 183.855 205.52 182.319C205.149 181.557 204.859 180.968 204.662 180.575C204.453 180.183 204.337 179.986 204.326 179.986C204.314 179.986 204.395 180.206 204.569 180.61C204.766 181.06 205.021 181.649 205.346 182.389C206.03 183.948 207.003 186.223 208.128 189.11C209.252 192.009 210.562 195.519 211.744 199.584C212.892 203.626 214.109 208.292 213.866 213.316L213.97 213.119C212.394 214.378 210.759 215.672 209.078 217.011L208.684 217.323L209.148 217.519C210.748 218.189 212.37 218.871 214.04 219.575L213.854 219.321C213.924 220.349 213.97 221.411 214.005 222.462C214.364 236.17 212.707 248.597 210.191 257.224C209.924 258.321 209.565 259.325 209.252 260.284C208.928 261.243 208.661 262.155 208.325 262.986C207.629 264.626 207.108 266.081 206.563 267.213C206.03 268.299 205.601 269.165 205.276 269.812C204.986 270.412 204.847 270.724 204.859 270.735L204.882 270.724Z" fill="#020101"/>
<path d="M226.814 314.551C226.814 314.551 226.93 314.24 227.081 313.651C227.243 312.992 227.463 312.126 227.742 311.029C228.031 309.886 228.368 308.488 228.681 306.848C229.005 305.208 229.434 303.361 229.759 301.282C230.13 299.215 230.512 296.94 230.825 294.491C231.196 292.043 231.451 289.41 231.752 286.65C232.251 281.107 232.587 274.997 232.599 268.588C232.564 262.167 232.205 256.058 231.683 250.514C231.37 247.754 231.115 245.121 230.732 242.673C230.408 240.224 230.014 237.949 229.643 235.882C229.307 233.803 228.878 231.956 228.542 230.316C228.217 228.676 227.881 227.278 227.579 226.147C227.301 225.05 227.081 224.172 226.907 223.525C226.745 222.925 226.652 222.613 226.629 222.624C226.606 222.624 226.664 222.948 226.78 223.56C226.919 224.218 227.104 225.096 227.336 226.204C227.591 227.348 227.892 228.757 228.194 230.397C228.495 232.036 228.901 233.896 229.202 235.963C229.55 238.03 229.921 240.305 230.222 242.754C230.582 245.19 230.825 247.823 231.115 250.572C231.602 256.092 231.949 262.19 231.973 268.588C231.973 274.986 231.648 281.083 231.173 286.604C230.895 289.364 230.651 291.985 230.303 294.434C230.014 296.882 229.654 299.157 229.307 301.224C229.005 303.303 228.611 305.162 228.31 306.802C228.02 308.442 227.719 309.851 227.463 310.994C227.232 312.103 227.046 312.981 226.919 313.639C226.803 314.251 226.745 314.563 226.768 314.574L226.814 314.551Z" fill="#020101"/>
<path d="M219.258 370.885C219.188 370.92 219.664 372.017 220.614 373.692C221.565 375.366 223.025 377.595 224.892 379.87C226.758 382.145 228.67 384.016 230.131 385.264C231.592 386.522 232.577 387.204 232.623 387.146C232.681 387.077 231.8 386.28 230.421 384.952C229.053 383.624 227.21 381.73 225.355 379.489C223.512 377.237 222.005 375.078 220.974 373.472C219.942 371.867 219.328 370.851 219.246 370.897L219.258 370.885Z" fill="#020101"/>
<path d="M90.8443 186.281C78.9048 190.889 70.0487 201.098 67.2203 213.536C58.086 253.69 42.4371 307.091 42.1937 324.322C41.8807 346.264 51.5134 361.289 64.0789 364.061C74.0246 366.255 164.139 361.335 164.139 361.335L168.358 327.879L95.3767 317.173L105.369 261.543L95.481 184.491L90.8443 186.281Z" fill="#16034F"/>
<path d="M95.4812 184.491L115.662 176.28L136.933 163.865L137.072 167.492C134.464 171.938 133.572 177.169 134.545 182.228L152.246 274.236L148.235 341.46L139.994 407.333H75.9955L105.381 338.446L95.006 245.618L95.4928 184.514L95.4812 184.491Z" fill="#16034F"/>
<path d="M76.7831 364.603C76.7831 364.603 76.9338 364.638 77.2236 364.661C77.5366 364.696 77.9655 364.73 78.5103 364.788C79.6463 364.915 81.3271 364.903 83.4947 364.961C87.8417 364.984 94.136 364.869 101.984 364.615C117.667 364.095 139.506 363.044 164.15 361.624H164.394L164.428 361.358C164.927 357.374 165.46 353.17 166.005 348.897C166.909 341.679 167.802 334.635 168.648 327.902L168.683 327.613L168.393 327.567C146.102 324.333 126.616 321.515 112.671 319.494C105.728 318.513 100.164 317.727 96.3036 317.185C94.4142 316.93 92.942 316.734 91.9104 316.584C91.4351 316.526 91.0526 316.48 90.7744 316.445C90.5194 316.422 90.3918 316.411 90.3802 316.411C90.3687 316.411 90.5078 316.445 90.7628 316.492C91.041 316.538 91.4119 316.607 91.8988 316.688C92.9304 316.85 94.391 317.081 96.2805 317.381C100.129 317.97 105.681 318.813 112.613 319.864C126.558 321.931 146.032 324.83 168.312 328.144L168.057 327.821C167.21 334.565 166.318 341.598 165.402 348.816C164.869 353.078 164.336 357.281 163.837 361.277L164.115 361.012C139.471 362.455 117.644 363.575 101.972 364.199C94.136 364.511 87.8417 364.684 83.4947 364.73C81.3271 364.707 79.6463 364.753 78.5103 364.672C77.9655 364.649 77.5366 364.626 77.2236 364.603C76.9338 364.592 76.7831 364.592 76.7831 364.603Z" fill="#020101"/>
<path d="M105.96 255.919C105.96 255.919 105.891 256.139 105.798 256.543C105.705 257.016 105.589 257.605 105.45 258.321C105.149 259.961 104.743 262.179 104.245 264.892C103.259 270.528 101.926 278.162 100.454 286.604C99.0398 295.057 97.7647 302.703 96.8142 308.35C96.3853 311.075 96.0375 313.304 95.7825 314.956C95.6782 315.683 95.5971 316.272 95.5275 316.757C95.4811 317.173 95.458 317.393 95.4811 317.393C95.5043 317.393 95.5623 317.185 95.6434 316.78C95.7362 316.307 95.8637 315.718 96.0028 315.002C96.3042 313.362 96.7215 311.145 97.2315 308.431C98.24 302.876 99.5962 295.208 101.045 286.719C102.494 278.231 103.781 270.551 104.662 264.973C105.079 262.248 105.427 260.019 105.682 258.367C105.775 257.64 105.856 257.039 105.925 256.566C105.972 256.15 105.983 255.931 105.96 255.931V255.919Z" fill="#020101"/>
<path d="M127.647 170.332C127.647 170.332 127.612 170.401 127.566 170.551C127.52 170.736 127.45 170.956 127.381 171.221C127.23 171.822 126.975 172.688 126.732 173.843C126.21 176.129 125.607 179.502 125.19 183.74C124.773 187.978 124.587 193.106 124.807 198.846C125.004 204.585 125.619 210.937 126.488 217.67L126.511 217.878L126.72 217.912C128.818 218.305 131.055 218.709 133.316 219.136L133.095 218.732C132.724 219.737 132.33 220.823 132.029 221.954C129.884 229.761 130.823 237.649 132.782 244.255C134.776 250.918 137.813 256.439 140.537 260.885C143.285 265.331 145.777 268.761 147.492 271.128C148.339 272.272 149.011 273.172 149.498 273.831C149.718 274.108 149.892 274.339 150.031 274.524C150.158 274.674 150.216 274.755 150.228 274.743C150.24 274.732 150.182 274.651 150.077 274.477C149.95 274.281 149.788 274.05 149.59 273.75C149.127 273.08 148.489 272.156 147.678 270.978C146.032 268.576 143.598 265.112 140.897 260.654C138.231 256.196 135.251 250.687 133.316 244.081C131.403 237.533 130.499 229.75 132.609 222.093C132.898 220.996 133.292 219.922 133.652 218.94L133.779 218.594L133.432 218.524C131.171 218.109 128.934 217.704 126.836 217.312L127.079 217.566C126.198 210.845 125.561 204.516 125.329 198.799C125.074 193.083 125.213 187.978 125.584 183.751C125.943 179.525 126.488 176.152 126.94 173.854C127.149 172.699 127.369 171.822 127.485 171.221C127.543 170.944 127.578 170.725 127.624 170.54C127.647 170.39 127.659 170.309 127.647 170.297V170.332Z" fill="#020101"/>
<path d="M127.646 264.708V250.03C127.646 250.03 127.449 246.403 130.521 247.166C133.581 247.928 133.013 253.644 133.013 253.644C133.013 253.644 133.593 275.945 132.248 275.76C130.904 275.575 130.394 273.854 130.394 273.854V265.274L127.658 264.696L127.646 264.708Z" fill="#4008E2"/>
<path d="M114.919 265.62C114.919 265.781 118.455 265.92 122.813 265.92C127.172 265.92 130.707 265.781 130.707 265.62C130.707 265.458 127.172 265.319 122.813 265.319C118.455 265.319 114.919 265.458 114.919 265.62Z" fill="#020101"/>
<path d="M85.7664 194.988C85.7664 194.988 86.3459 195.231 87.4124 195.6C88.4672 195.993 89.9973 196.57 91.7941 197.483C95.3643 199.296 100.024 202.575 103.641 207.541C104.557 208.766 105.333 210.047 105.971 211.318C106.562 212.623 107.037 213.928 107.373 215.21C108.069 217.762 108.37 220.141 108.544 222.15C108.718 224.148 108.753 225.788 108.764 226.908C108.764 228.04 108.764 228.664 108.811 228.664C108.857 228.664 108.938 228.04 109.008 226.92C109.066 225.788 109.101 224.148 108.985 222.127C108.857 220.106 108.602 217.693 107.918 215.083C107.594 213.778 107.118 212.438 106.516 211.087C105.855 209.759 105.078 208.454 104.139 207.206C100.453 202.148 95.6657 198.857 92.0027 197.125C90.1596 196.247 88.5947 195.716 87.5051 195.392C86.4039 195.092 85.7895 194.965 85.7779 195.011L85.7664 194.988Z" fill="#020101"/>
<path d="M345.538 317.011L240.111 355.918L151.237 369.453L256.907 318.131L345.538 317.011Z" fill="#020101"/>
<path d="M300.423 358.967C301.258 353.377 303.182 347.938 306.033 343.053C306.59 342.094 307.204 341.136 307.471 340.062C307.749 338.988 307.622 337.74 306.88 336.932C305.523 335.465 303.054 336.112 301.385 337.221C297.942 339.519 295.636 343.214 294.291 347.118C292.946 351.021 292.448 355.156 291.973 359.255" fill="#FCC8CD"/>
<path d="M259.331 348.966H264.571C265.614 347.869 267.202 346.899 269.172 346.333C270.378 345.987 271.572 346.633 272.638 347.673C270.297 343.827 267.77 339.589 267.283 338.434C266.344 336.182 268.419 334.484 271.815 334.484C275.212 334.484 290.119 355.537 290.119 355.537C290.119 355.537 280.857 338.607 279.953 336.02C277.704 329.553 284.81 329.068 287.383 332.186C290.582 336.055 303.507 355.537 303.507 355.537C303.507 355.537 305.965 359.487 304.261 363.24C302.557 367.005 297.653 365.492 297.653 365.492C297.653 365.492 297.688 368.784 294.188 370.724C290.397 372.826 285.424 370.389 285.424 370.389L266.135 374.708C266.135 374.708 263.075 374.396 259.157 374.015C249.385 373.045 241.526 365.585 240.1 355.907L259.319 348.955L259.331 348.966Z" fill="#FCC8CD"/>
<path d="M272.326 347.384C272.106 347.511 274.679 351.542 278.006 356.357C279.675 358.771 281.217 360.931 282.353 362.478C283.489 364.026 284.242 364.961 284.3 364.915C284.37 364.869 283.756 363.852 282.701 362.236C281.646 360.63 280.162 358.425 278.493 356.011C276.824 353.597 275.294 351.426 274.181 349.867C273.682 349.186 273.242 348.585 272.848 348.031C272.523 347.592 272.372 347.384 272.326 347.373V347.384Z" fill="#F64C5D"/>
<path d="M273.484 368.818C273.566 368.772 272.916 367.559 271.769 365.677C270.633 363.783 269.01 361.196 267.225 358.343C266.344 356.911 265.486 355.549 264.779 354.29C264.049 353.077 264.095 351.749 264.35 350.721C264.918 348.631 266.1 347.73 265.996 347.661C265.973 347.638 265.672 347.823 265.243 348.285C264.825 348.747 264.269 349.509 263.933 350.606C263.597 351.668 263.492 353.193 264.281 354.544C264.976 355.849 265.811 357.223 266.703 358.655C268.488 361.519 270.169 364.06 271.409 365.896C272.65 367.721 273.415 368.853 273.484 368.818Z" fill="#F64C5D"/>
<path d="M263.341 370.735C263.422 370.712 263.098 369.534 262.321 367.732C261.904 366.785 261.44 365.734 260.942 364.603C260.443 363.425 259.864 362.131 259.527 360.722C259.18 359.36 259.411 357.904 260.142 356.969C260.49 356.507 261.011 356.23 261.521 355.987C262.02 355.756 262.518 355.606 262.959 355.583C263.828 355.629 264.558 356.103 265.033 356.311C265.52 356.553 265.81 356.669 265.822 356.634C265.845 356.599 265.601 356.415 265.149 356.114C264.918 355.964 264.639 355.779 264.28 355.595C263.921 355.421 263.527 355.19 262.959 355.167C262.414 355.156 261.869 355.306 261.313 355.537C260.779 355.768 260.165 356.057 259.701 356.623C258.809 357.731 258.565 359.348 258.936 360.861C259.296 362.351 259.898 363.656 260.432 364.834C260.976 366.012 261.498 367.039 261.927 367.917C262.808 369.661 263.26 370.758 263.341 370.735Z" fill="#F64C5D"/>
<path d="M259.783 352.546C259.783 352.546 259.47 352.58 258.96 352.788C258.45 352.996 257.743 353.377 256.943 353.966C255.366 355.121 253.477 357.35 252.793 360.353C252.121 363.355 252.886 366.173 253.825 367.894C254.288 368.772 254.775 369.407 255.146 369.811C255.517 370.215 255.76 370.412 255.784 370.377C255.865 370.308 255.007 369.43 254.207 367.698C253.396 365.988 252.758 363.309 253.384 360.48C254.022 357.65 255.749 355.491 257.209 354.29C258.682 353.054 259.829 352.627 259.783 352.534V352.546Z" fill="#F64C5D"/>
<path d="M293.747 341.506C293.607 341.598 295.566 344.716 298.117 348.47C300.667 352.223 302.846 355.191 302.985 355.098C303.124 355.006 301.165 351.888 298.615 348.135C296.065 344.381 293.886 341.413 293.747 341.506Z" fill="#F64C5D"/>
<path d="M168.671 329.125L180.726 326.4L192.306 315.532C193.709 314.216 195.541 313.431 197.465 313.315L218.527 312.102C220.625 311.987 222.7 312.668 224.3 314.02L239.357 326.7L173.667 358.609L164.649 359.406L168.659 329.114L168.671 329.125Z" fill="#FCC8CD"/>
<path d="M204.384 323.512C204.407 323.605 205.949 323.328 208.441 323.004C210.899 322.739 214.516 322.392 217.981 323.986C219.709 324.76 221.192 325.834 222.525 326.815C223.858 327.808 225.052 328.732 226.107 329.448C227.162 330.164 228.066 330.661 228.715 330.961C229.365 331.25 229.747 331.377 229.759 331.342C229.805 331.25 228.368 330.615 226.362 329.102C225.354 328.363 224.195 327.404 222.873 326.376C221.54 325.36 220.045 324.24 218.236 323.443C216.451 322.6 214.55 322.3 212.858 322.242C211.154 322.196 209.647 322.381 208.395 322.577C207.143 322.785 206.135 323.004 205.451 323.177C204.767 323.351 204.384 323.466 204.396 323.501L204.384 323.512Z" fill="#F64C5D"/>
<path d="M200.062 335.2C200.097 335.292 200.92 334.922 202.334 334.772C203.737 334.611 205.719 334.772 207.747 335.523C209.776 336.274 211.48 337.313 212.709 338.064C213.937 338.814 214.714 339.276 214.76 339.207C214.807 339.138 214.123 338.56 212.952 337.717C211.77 336.886 210.077 335.754 207.968 334.969C205.846 334.195 203.737 334.079 202.288 334.356C200.816 334.622 200.039 335.153 200.074 335.211L200.062 335.2Z" fill="#F64C5D"/>
<path d="M172.948 337.14C173.099 337.232 174.791 334.726 177.028 331.747C179.254 328.755 181.19 326.423 181.051 326.307C180.935 326.203 178.79 328.374 176.541 331.389C174.281 334.391 172.809 337.059 172.936 337.151L172.948 337.14Z" fill="#F64C5D"/>
<path d="M206.124 313.362L179.417 288.578C178.258 287.504 178.35 285.657 179.602 284.698C180.576 283.959 181.944 284.005 182.86 284.825L214.169 312.807" fill="#4008E2"/>
<g opacity="0.3">
<path d="M206.123 313.362L179.416 288.579C178.257 287.505 178.349 285.657 179.601 284.698C180.575 283.959 181.943 284.006 182.859 284.825L214.168 312.808" fill="#4008E2"/>
</g>
</svg>
