<svg width="43" height="48" viewBox="0 0 43 48" fill="none" xmlns="http://www.w3.org/2000/svg">
<path d="M18.8896 30.7397L16.2696 27.9323L18.8896 25.105L21.4911 27.9323L24.0927 25.105L21.4911 22.2977L24.0927 19.4903L26.7127 22.2977L29.3142 19.4903L24.0927 13.8556L11.0481 27.9323L16.2696 33.5669L18.8896 30.7397ZM4 38.3454L9.75658 32.1533L5.84506 27.9323L24.0927 8.22101L28.0226 12.4619L30.6057 9.63464L28.0226 6.80737L30.6057 4L38.4472 12.4619L35.8457 15.2494L33.2257 12.4619L30.6057 15.2494L34.5357 19.4903L16.2696 39.1817L12.3581 34.9607L4 44V38.3454Z" fill="url(#paint0_linear_695_418)"/>
<defs>
<linearGradient id="paint0_linear_695_418" x1="21.2236" y1="4" x2="21.2236" y2="44" gradientUnits="userSpaceOnUse">
<stop stop-color="#60C4F0"/>
<stop offset="1" stop-color="#4008E2"/>
</linearGradient>
</defs>
</svg>
