<svg width="60" height="61" viewBox="0 0 60 61" fill="none" xmlns="http://www.w3.org/2000/svg">
<path d="M30 60C46.5665 60 60 46.5665 60 30C60 13.4335 46.5665 0 30 0C13.4335 0 0 13.4335 0 30C0 46.5665 13.4293 60 30 60Z" fill="#CEEDFA"/>
<path d="M42.5459 14.5962V45.2105C42.5459 46.0553 41.8669 46.7378 41.0266 46.7378H19.5954C18.7551 46.7323 18.0762 46.0497 18.0762 45.2105V14.5962C18.0762 13.7514 18.7551 13.0688 19.5954 13.0688H41.0322C41.8669 13.0688 42.5459 13.7514 42.5459 14.5962Z" fill="url(#paint0_linear_784_658)"/>
<path d="M40.9873 15.8839V43.9154C40.9873 44.689 40.3907 45.3139 39.6524 45.3139H20.8213C20.0829 45.3088 19.4863 44.6838 19.4863 43.9154V15.8839C19.4863 15.1103 20.0829 14.4854 20.8213 14.4854H39.6572C40.3907 14.4854 40.9873 15.1103 40.9873 15.8839Z" fill="white"/>
<path opacity="0.5" d="M38.7228 27.1282H21.8996C21.7883 27.1282 21.6992 27.0387 21.6992 26.9268V26.2834C21.6992 26.1715 21.7883 26.082 21.8996 26.082H38.7228C38.8341 26.082 38.9232 26.1715 38.9232 26.2834V26.9268C38.9176 27.0387 38.8341 27.1282 38.7228 27.1282Z" fill="#60C4F0"/>
<path d="M38.4773 19.0928H21.9971C21.7774 19.0928 21.6016 19.0014 21.6016 18.8871V18.2355C21.6016 18.1212 21.7774 18.0298 21.9971 18.0298H38.4773C38.6971 18.0298 38.8728 18.1212 38.8728 18.2355V18.8928C38.8619 19.0014 38.6971 19.0928 38.4773 19.0928Z" fill="url(#paint1_linear_784_658)"/>
<path opacity="0.5" d="M38.3216 21.9278H22.1528C21.8465 21.9278 21.6016 21.8368 21.6016 21.7231V21.0694C21.6016 20.9557 21.8465 20.8647 22.1528 20.8647H38.3216C38.6279 20.8647 38.8728 20.9557 38.8728 21.0694V21.7231C38.8575 21.8368 38.6279 21.9278 38.3216 21.9278Z" fill="url(#paint2_linear_784_658)"/>
<path opacity="0.5" d="M38.7228 30.1834H21.8996C21.7883 30.1834 21.6992 30.0939 21.6992 29.982V29.3386C21.6992 29.2267 21.7883 29.1372 21.8996 29.1372H38.7228C38.8341 29.1372 38.9232 29.2267 38.9232 29.3386V29.982C38.9176 30.0939 38.8341 30.1834 38.7228 30.1834Z" fill="url(#paint3_linear_784_658)"/>
<path opacity="0.5" d="M38.7228 33.2381H21.8996C21.7883 33.2381 21.6992 33.1486 21.6992 33.0367V32.3933C21.6992 32.2814 21.7883 32.1919 21.8996 32.1919H38.7228C38.8341 32.1919 38.9232 32.2814 38.9232 32.3933V33.0423C38.9176 33.1486 38.8341 33.2381 38.7228 33.2381Z" fill="url(#paint4_linear_784_658)"/>
<path opacity="0.5" d="M38.7228 36.2987H21.8996C21.7883 36.2987 21.6992 36.2091 21.6992 36.0972V35.4539C21.6992 35.342 21.7883 35.2524 21.8996 35.2524H38.7228C38.8341 35.2524 38.9232 35.342 38.9232 35.4539V36.0972C38.9176 36.2091 38.8341 36.2987 38.7228 36.2987Z" fill="url(#paint5_linear_784_658)"/>
<path opacity="0.5" d="M38.7228 39.3529H21.8996C21.7883 39.3529 21.6992 39.2633 21.6992 39.1515V38.5081C21.6992 38.3962 21.7883 38.3066 21.8996 38.3066H38.7228C38.8341 38.3066 38.9232 38.3962 38.9232 38.5081V39.1515C38.9176 39.2633 38.8341 39.3529 38.7228 39.3529Z" fill="url(#paint6_linear_784_658)"/>
<path opacity="0.5" d="M38.7228 42.4075H21.8996C21.7883 42.4075 21.6992 42.318 21.6992 42.2061V41.5627C21.6992 41.4508 21.7883 41.3613 21.8996 41.3613H38.7228C38.8341 41.3613 38.9232 41.4508 38.9232 41.5627V42.2061C38.9176 42.318 38.8341 42.4075 38.7228 42.4075Z" fill="url(#paint7_linear_784_658)"/>
<path opacity="0.1" d="M42.5459 14.5962V45.2105C42.5459 46.0553 41.8669 46.7378 41.0266 46.7378H19.5954C18.7551 46.7323 18.0762 46.0497 18.0762 45.2105V44.679C31.1486 39.2521 37.2368 18.4398 38.6113 13.0688H41.0266C41.8669 13.0688 42.5459 13.7514 42.5459 14.5962Z" fill="#CEEDFA"/>
<path d="M1.35384 44.6V41.504H7.13784V59H3.68184V44.6H1.35384Z" fill="#4008E2"/>
<defs>
<linearGradient id="paint0_linear_784_658" x1="18.9574" y1="20.3358" x2="42.4532" y2="32.988" gradientUnits="userSpaceOnUse">
<stop stop-color="#60C4F0"/>
<stop offset="1" stop-color="#4008E2"/>
</linearGradient>
<linearGradient id="paint1_linear_784_658" x1="21.6019" y1="18.5617" x2="38.8669" y2="18.5617" gradientUnits="userSpaceOnUse">
<stop stop-color="#60C4F0"/>
<stop offset="1" stop-color="#4008E2"/>
</linearGradient>
<linearGradient id="paint2_linear_784_658" x1="21.602" y1="21.4009" x2="38.8647" y2="21.4009" gradientUnits="userSpaceOnUse">
<stop stop-color="#60C4F0"/>
<stop offset="1" stop-color="#4008E2"/>
</linearGradient>
<linearGradient id="paint3_linear_784_658" x1="21.7035" y1="29.6641" x2="38.9201" y2="29.6641" gradientUnits="userSpaceOnUse">
<stop stop-color="#60C4F0"/>
<stop offset="1" stop-color="#4008E2"/>
</linearGradient>
<linearGradient id="paint4_linear_784_658" x1="21.7035" y1="32.7201" x2="38.9201" y2="32.7201" gradientUnits="userSpaceOnUse">
<stop stop-color="#60C4F0"/>
<stop offset="1" stop-color="#4008E2"/>
</linearGradient>
<linearGradient id="paint5_linear_784_658" x1="21.7035" y1="35.7765" x2="38.9201" y2="35.7765" gradientUnits="userSpaceOnUse">
<stop stop-color="#60C4F0"/>
<stop offset="1" stop-color="#4008E2"/>
</linearGradient>
<linearGradient id="paint6_linear_784_658" x1="21.7035" y1="38.8321" x2="38.9201" y2="38.8321" gradientUnits="userSpaceOnUse">
<stop stop-color="#60C4F0"/>
<stop offset="1" stop-color="#4008E2"/>
</linearGradient>
<linearGradient id="paint7_linear_784_658" x1="21.7035" y1="41.8881" x2="38.9201" y2="41.8881" gradientUnits="userSpaceOnUse">
<stop stop-color="#60C4F0"/>
<stop offset="1" stop-color="#4008E2"/>
</linearGradient>
</defs>
</svg>
