<svg width="61" height="61" viewBox="0 0 61 61" fill="none" xmlns="http://www.w3.org/2000/svg">
<path d="M30.6191 60C47.1857 60 60.6191 46.5665 60.6191 30C60.6191 13.4335 47.1857 0 30.6191 0C14.0526 0 0.619141 13.4335 0.619141 30C0.619141 46.5665 14.0485 60 30.6191 60Z" fill="#CEEDFA"/>
<path d="M24.9915 22.2555L24.9911 22.2555C24.9902 22.2611 24.9904 22.2735 24.9923 22.3039L24.9925 22.3076C24.994 22.3299 24.9962 22.3644 24.9919 22.396L24.9338 23.035L24.9337 23.0354C24.9289 23.0871 24.9289 23.1392 24.9337 23.191L24.9346 23.2004H24.9342C24.9342 26.2219 27.4283 28.6959 30.4779 28.6959C33.5276 28.6959 36.0217 26.2219 36.0217 23.2004V23.0549V23.0533H36.0217C36.0218 23.0458 36.0218 23.0382 36.0217 23.0306L24.9915 22.2555ZM24.9915 22.2555L24.9922 22.2467M24.9915 22.2555L24.9922 22.2467M24.9922 22.2467L25.4925 15.866L24.9922 22.2467ZM33.5794 16.1164L33.5793 16.1164C33.1835 15.9207 32.2741 15.6397 30.4779 15.6397C28.6818 15.6397 27.7723 15.9207 27.3766 16.1164L27.3765 16.1164C27.3107 16.149 27.2697 16.1736 27.2393 16.1958C27.218 16.2113 27.1994 16.2282 27.1877 16.2388C27.1841 16.2421 27.1811 16.2448 27.179 16.2467L27.1477 16.2735L27.1444 16.3146L26.7625 21.0941L26.7544 21.1957L26.8562 21.2019C27.1205 21.2178 27.4174 21.2462 27.7481 21.2779C28.4858 21.3485 29.3916 21.4352 30.4779 21.4352C31.5648 21.4352 32.4713 21.3484 33.2092 21.2778C33.5395 21.2462 33.836 21.2178 34.0997 21.2019L34.2015 21.1957L34.1934 21.0941L33.8115 16.3146L33.8081 16.2727L33.7759 16.2458C33.7741 16.2443 33.7712 16.2417 33.7675 16.2384C33.7558 16.228 33.736 16.2103 33.7164 16.1959C33.6861 16.1737 33.6453 16.1491 33.5794 16.1164ZM29.7132 17.8802H29.8132V17.7802V16.7723H31.1417V17.7802V17.8802H31.2417H32.2592V19.1947H31.2417H31.1417V19.2947V20.3026H29.8141V19.2956V19.1956H29.7141H28.6967V17.8802H29.7132ZM25.8214 15.1932C25.9901 15.0054 26.2453 14.817 26.6131 14.6346L25.5442 15.66C25.6118 15.4912 25.7053 15.3338 25.8214 15.1932Z" fill="#4008E2" stroke="#4008E2" stroke-width="0.2"/>
<path d="M2.19891 46.112C2.27891 44.512 2.83891 43.28 3.87891 42.416C4.93491 41.536 6.31891 41.096 8.03091 41.096C9.19891 41.096 10.1989 41.304 11.0309 41.72C11.8629 42.12 12.4869 42.672 12.9029 43.376C13.3349 44.064 13.5509 44.848 13.5509 45.728C13.5509 46.736 13.2869 47.592 12.7589 48.296C12.2469 48.984 11.6309 49.448 10.9109 49.688V49.784C11.8389 50.072 12.5589 50.584 13.0709 51.32C13.5989 52.056 13.8629 53 13.8629 54.152C13.8629 55.112 13.6389 55.968 13.1909 56.72C12.7589 57.472 12.1109 58.064 11.2469 58.496C10.3989 58.912 9.37491 59.12 8.17491 59.12C6.36691 59.12 4.89491 58.664 3.75891 57.752C2.62291 56.84 2.02291 55.496 1.95891 53.72H5.22291C5.25491 54.504 5.51891 55.136 6.01491 55.616C6.52691 56.08 7.22291 56.312 8.10291 56.312C8.91891 56.312 9.54291 56.088 9.97491 55.64C10.4229 55.176 10.6469 54.584 10.6469 53.864C10.6469 52.904 10.3429 52.216 9.73491 51.8C9.12691 51.384 8.18291 51.176 6.90291 51.176H6.20691V48.416H6.90291C9.17491 48.416 10.3109 47.656 10.3109 46.136C10.3109 45.448 10.1029 44.912 9.68691 44.528C9.28691 44.144 8.70291 43.952 7.93491 43.952C7.18291 43.952 6.59891 44.16 6.18291 44.576C5.78291 44.976 5.55091 45.488 5.48691 46.112H2.19891Z" fill="#4008E2"/>
<path d="M18.3809 41.0044C18.3809 34.2198 26.4307 30.8062 30.462 30.8062C34.4932 30.8062 42.5431 34.2411 42.5684 41.0044V43.5647C42.5684 44.9728 41.886 46.1249 41.0519 46.1249H19.8973C19.0633 46.1249 18.3809 44.9728 18.3809 43.5647V41.0044Z" fill="url(#paint0_linear_784_665)"/>
<defs>
<linearGradient id="paint0_linear_784_665" x1="16.4732" y1="46.1053" x2="42.6837" y2="33.7895" gradientUnits="userSpaceOnUse">
<stop stop-color="#60C4F0"/>
<stop offset="1" stop-color="#4008E2"/>
</linearGradient>
</defs>
</svg>
