<svg width="35" height="65" viewBox="0 0 35 65" fill="none" xmlns="http://www.w3.org/2000/svg">
<path d="M6.31073 32.5L33.7941 4.5897C34.0204 4.36477 34.1993 4.09774 34.3204 3.80405C34.4416 3.51036 34.5026 3.19584 34.4999 2.87869C34.4972 2.56155 34.431 2.24807 34.3049 1.95641C34.1788 1.66475 33.9955 1.40069 33.7654 1.17951C33.5354 0.958333 33.2633 0.784432 32.9648 0.667869C32.6663 0.551307 32.3474 0.494397 32.0265 0.500435C31.7056 0.506472 31.3891 0.575336 31.0953 0.703041C30.8016 0.830746 30.5363 1.01476 30.315 1.24443L1.18754 30.8274C0.74667 31.2752 0.5 31.8752 0.5 32.5C0.5 33.1247 0.74667 33.7248 1.18754 34.1726L30.315 63.7556C30.5363 63.9852 30.8016 64.1693 31.0953 64.297C31.3891 64.4247 31.7056 64.4935 32.0265 64.4996C32.3474 64.5056 32.6663 64.4487 32.9648 64.3321C33.2633 64.2156 33.5354 64.0417 33.7654 63.8205C33.9955 63.5993 34.1788 63.3353 34.3049 63.0436C34.431 62.7519 34.4972 62.4385 34.4999 62.1213C34.5026 61.8042 34.4416 61.4896 34.3204 61.196C34.1993 60.9023 34.0204 60.6352 33.7941 60.4103L6.31073 32.5Z" fill="#4008E2"/>
</svg>
