<svg width="103" height="96" viewBox="0 0 103 96" fill="none" xmlns="http://www.w3.org/2000/svg">
<path d="M55.3672 95.5C81.5975 95.5 102.867 74.2303 102.867 48C102.867 21.7697 81.5975 0.5 55.3672 0.5C29.1369 0.5 7.86719 21.7697 7.86719 48C7.86719 74.2303 29.1303 95.5 55.3672 95.5Z" fill="#CEEDFA"/>
<path d="M54.7776 46.3487C54.9802 46.3487 55.1574 46.3743 55.36 46.3743C61.8916 46.3743 67.1827 41.0049 67.1827 34.4336C67.1827 27.8368 61.8916 22.4673 55.36 22.4673C48.8283 22.4673 43.5371 27.8368 43.5371 34.4081C43.5371 40.8003 48.4739 46.0419 54.7776 46.3487Z" fill="#4008E2"/>
<path d="M36.2441 65.4236C36.2441 54.6813 48.9898 49.2764 55.3726 49.2764C61.7554 49.2764 74.501 54.7151 74.541 65.4236V69.4773C74.541 71.7069 73.4605 73.5311 72.14 73.5311H38.6452C37.3246 73.5311 36.2441 71.7069 36.2441 69.4773V65.4236Z" fill="url(#paint0_linear_531_13474)"/>
<path d="M6.54384 83.986C8.59184 82.2793 10.2238 80.8607 11.4398 79.73C12.6558 78.578 13.6692 77.3833 14.4798 76.146C15.2905 74.9087 15.6958 73.6927 15.6958 72.498C15.6958 71.41 15.4398 70.5567 14.9278 69.938C14.4158 69.3193 13.6265 69.01 12.5598 69.01C11.4932 69.01 10.6718 69.3727 10.0958 70.098C9.51984 70.802 9.22118 71.7727 9.19984 73.01H4.84784C4.93318 70.45 5.69051 68.5087 7.11984 67.186C8.57051 65.8633 10.4052 65.202 12.6238 65.202C15.0558 65.202 16.9225 65.8527 18.2238 67.154C19.5252 68.434 20.1758 70.13 20.1758 72.242C20.1758 73.906 19.7278 75.4953 18.8318 77.01C17.9358 78.5247 16.9118 79.8473 15.7598 80.978C14.6078 82.0873 13.1038 83.4313 11.2478 85.01H20.6878V88.722H4.87984V85.394L6.54384 83.986Z" fill="#4008E2"/>
<defs>
<linearGradient id="paint0_linear_531_13474" x1="36" y1="69.5" x2="75" y2="61" gradientUnits="userSpaceOnUse">
<stop stop-color="#60C4F0"/>
<stop offset="1" stop-color="#4008E2"/>
</linearGradient>
</defs>
</svg>
