<svg width="35" height="65" viewBox="0 0 35 65" fill="none" xmlns="http://www.w3.org/2000/svg">
<path d="M28.6893 32.5L1.20589 4.5897C0.979618 4.36477 0.800732 4.09774 0.679581 3.80405C0.55843 3.51036 0.497417 3.19584 0.500084 2.87869C0.50275 2.56155 0.569038 2.24807 0.69511 1.95641C0.821182 1.66475 1.00454 1.40069 1.23456 1.17951C1.46459 0.958333 1.73671 0.784432 2.0352 0.667869C2.33369 0.551307 2.65261 0.494397 2.9735 0.500435C3.29438 0.506472 3.61088 0.575336 3.90466 0.703041C4.19843 0.830746 4.46367 1.01476 4.685 1.24443L33.8125 30.8274C34.2533 31.2752 34.5 31.8752 34.5 32.5C34.5 33.1247 34.2533 33.7248 33.8125 34.1726L4.685 63.7556C4.46367 63.9852 4.19843 64.1693 3.90466 64.297C3.61088 64.4247 3.29438 64.4935 2.9735 64.4996C2.65261 64.5056 2.33369 64.4487 2.0352 64.3321C1.73671 64.2156 1.46459 64.0417 1.23456 63.8205C1.00454 63.5993 0.821182 63.3353 0.69511 63.0436C0.569038 62.7519 0.50275 62.4385 0.500084 62.1213C0.497417 61.8042 0.55843 61.4896 0.679581 61.196C0.800732 60.9023 0.979618 60.6352 1.20589 60.4103L28.6893 32.5Z" fill="#4008E2"/>
</svg>
