<svg width="44" height="60" viewBox="0 0 44 60" fill="none" xmlns="http://www.w3.org/2000/svg">
<path d="M43.8385 2.72183V57.2782C43.8385 58.7836 42.6221 60 41.1166 60H2.72183C1.21635 59.99 0 58.7737 0 57.2782V2.72183C0 1.21635 1.21635 0 2.72183 0H41.1266C42.6221 0 43.8385 1.21635 43.8385 2.72183Z" fill="url(#paint0_linear_754_626)"/>
<path d="M41.0453 5.01809V54.9719C41.0453 56.3504 39.9765 57.4641 38.6537 57.4641H4.91701C3.59417 57.455 2.52539 56.3413 2.52539 54.9719V5.01809C2.52539 3.63962 3.59417 2.52588 4.91701 2.52588H38.6625C39.9765 2.52588 41.0453 3.63962 41.0453 5.01809Z" fill="white"/>
<path d="M16.9725 11.5258V14.0084C16.9725 14.1879 16.8329 14.3274 16.6535 14.3274H13.6126C13.4331 14.3274 13.2935 14.467 13.2935 14.6465V17.6874C13.2935 17.8668 13.154 18.0064 12.9745 18.0064H10.4919C10.3125 18.0064 10.1729 17.8668 10.1729 17.6874V14.6465C10.1729 14.467 10.0333 14.3274 9.85386 14.3274H6.82295C6.64349 14.3274 6.50391 14.1879 6.50391 14.0084V11.5258C6.50391 11.3464 6.64349 11.2068 6.82295 11.2068H9.86383C10.0433 11.2068 10.1829 11.0672 10.1829 10.8878V7.84687C10.1829 7.66741 10.3225 7.52783 10.5019 7.52783H12.9845C13.1639 7.52783 13.3035 7.66741 13.3035 7.84687V10.8878C13.3035 11.0672 13.4431 11.2068 13.6226 11.2068H16.6535C16.8329 11.2068 16.9725 11.3464 16.9725 11.5258Z" fill="#60C4F0"/>
<path opacity="0.5" d="M36.9907 25.0548H6.85111C6.65171 25.0548 6.49219 24.8953 6.49219 24.6959V23.5494C6.49219 23.35 6.65171 23.1904 6.85111 23.1904H36.9907C37.1901 23.1904 37.3496 23.35 37.3496 23.5494V24.6959C37.3396 24.8953 37.1901 25.0548 36.9907 25.0548Z" fill="#60C4F0"/>
<path d="M36.9918 10.768H22.0367C21.8373 10.768 21.6777 10.6085 21.6777 10.4091V9.2725C21.6777 9.0731 21.8373 8.91357 22.0367 8.91357H36.9918C37.1912 8.91357 37.3507 9.0731 37.3507 9.2725V10.4191C37.3407 10.6085 37.1912 10.768 36.9918 10.768Z" fill="url(#paint1_linear_754_626)"/>
<path opacity="0.5" d="M32.5651 15.6134H22.0367C21.8373 15.6134 21.6777 15.4539 21.6777 15.2545V14.1079C21.6777 13.9085 21.8373 13.749 22.0367 13.749H32.5651C32.7645 13.749 32.924 13.9085 32.924 14.1079V15.2545C32.914 15.4539 32.7645 15.6134 32.5651 15.6134Z" fill="url(#paint2_linear_754_626)"/>
<path opacity="0.5" d="M36.9907 30.4987H6.85111C6.65171 30.4987 6.49219 30.3392 6.49219 30.1398V28.9932C6.49219 28.7938 6.65171 28.6343 6.85111 28.6343H36.9907C37.1901 28.6343 37.3496 28.7938 37.3496 28.9932V30.1398C37.3396 30.3392 37.1901 30.4987 36.9907 30.4987Z" fill="url(#paint3_linear_754_626)"/>
<path opacity="0.5" d="M36.9907 35.9425H6.85111C6.65171 35.9425 6.49219 35.783 6.49219 35.5836V34.437C6.49219 34.2376 6.65171 34.0781 6.85111 34.0781H36.9907C37.1901 34.0781 37.3496 34.2376 37.3496 34.437V35.5936C37.3396 35.783 37.1901 35.9425 36.9907 35.9425Z" fill="url(#paint4_linear_754_626)"/>
<path opacity="0.5" d="M36.9907 41.3961H6.85111C6.65171 41.3961 6.49219 41.2366 6.49219 41.0372V39.8907C6.49219 39.6913 6.65171 39.5317 6.85111 39.5317H36.9907C37.1901 39.5317 37.3496 39.6913 37.3496 39.8907V41.0372C37.3396 41.2366 37.1901 41.3961 36.9907 41.3961Z" fill="url(#paint5_linear_754_626)"/>
<path opacity="0.5" d="M36.9907 46.8395H6.85111C6.65171 46.8395 6.49219 46.68 6.49219 46.4806V45.334C6.49219 45.1346 6.65171 44.9751 6.85111 44.9751H36.9907C37.1901 44.9751 37.3496 45.1346 37.3496 45.334V46.4806C37.3396 46.68 37.1901 46.8395 36.9907 46.8395Z" fill="url(#paint6_linear_754_626)"/>
<path opacity="0.5" d="M36.9907 52.2834H6.85111C6.65171 52.2834 6.49219 52.1238 6.49219 51.9244V50.7779C6.49219 50.5785 6.65171 50.4189 6.85111 50.4189H36.9907C37.1901 50.4189 37.3496 50.5785 37.3496 50.7779V51.9244C37.3396 52.1238 37.1901 52.2834 36.9907 52.2834Z" fill="url(#paint7_linear_754_626)"/>
<path opacity="0.1" d="M43.8385 2.72183V57.2782C43.8385 58.7836 42.6221 60 41.1166 60H2.72183C1.21635 59.99 0 58.7737 0 57.2782V56.331C23.4197 46.66 34.327 9.57129 36.7896 0H41.1166C42.6221 0 43.8385 1.21635 43.8385 2.72183Z" fill="#CEEDFA"/>
<defs>
<linearGradient id="paint0_linear_754_626" x1="1.57869" y1="12.9502" x2="43.5717" y2="35.6832" gradientUnits="userSpaceOnUse">
<stop stop-color="#60C4F0"/>
<stop offset="1" stop-color="#4008E2"/>
</linearGradient>
<linearGradient id="paint1_linear_754_626" x1="21.678" y1="9.84147" x2="37.3453" y2="9.84147" gradientUnits="userSpaceOnUse">
<stop stop-color="#60C4F0"/>
<stop offset="1" stop-color="#4008E2"/>
</linearGradient>
<linearGradient id="paint2_linear_754_626" x1="21.678" y1="14.6893" x2="32.9187" y2="14.6893" gradientUnits="userSpaceOnUse">
<stop stop-color="#60C4F0"/>
<stop offset="1" stop-color="#4008E2"/>
</linearGradient>
<linearGradient id="paint3_linear_754_626" x1="6.49988" y1="29.5732" x2="37.3442" y2="29.5732" gradientUnits="userSpaceOnUse">
<stop stop-color="#60C4F0"/>
<stop offset="1" stop-color="#4008E2"/>
</linearGradient>
<linearGradient id="paint4_linear_754_626" x1="6.49988" y1="35.0195" x2="37.3442" y2="35.0195" gradientUnits="userSpaceOnUse">
<stop stop-color="#60C4F0"/>
<stop offset="1" stop-color="#4008E2"/>
</linearGradient>
<linearGradient id="paint5_linear_754_626" x1="6.49988" y1="40.4656" x2="37.3442" y2="40.4656" gradientUnits="userSpaceOnUse">
<stop stop-color="#60C4F0"/>
<stop offset="1" stop-color="#4008E2"/>
</linearGradient>
<linearGradient id="paint6_linear_754_626" x1="6.49988" y1="45.9114" x2="37.3442" y2="45.9114" gradientUnits="userSpaceOnUse">
<stop stop-color="#60C4F0"/>
<stop offset="1" stop-color="#4008E2"/>
</linearGradient>
<linearGradient id="paint7_linear_754_626" x1="6.49988" y1="51.3577" x2="37.3442" y2="51.3577" gradientUnits="userSpaceOnUse">
<stop stop-color="#60C4F0"/>
<stop offset="1" stop-color="#4008E2"/>
</linearGradient>
</defs>
</svg>
