<svg width="43" height="60" viewBox="0 0 43 60" fill="none" xmlns="http://www.w3.org/2000/svg">
<g clip-path="url(#clip0_754_610)">
<path d="M41.0335 0H1.4714C0.657744 0 0 0.649403 0 1.45274V58.5521C0 59.3554 0.657744 60.0048 1.4714 60.0048H41.0335C41.8471 60.0048 42.5049 59.3554 42.5049 58.5521V1.45274C42.5 0.649403 41.8423 0 41.0335 0Z" fill="url(#paint0_linear_754_610)"/>
<path d="M38.4365 2.58789H4.06328C3.27399 2.58789 2.63086 3.22286 2.63086 4.00696V51.2161C2.63086 52.0002 3.27399 52.6304 4.06328 52.6304H38.4365C39.2307 52.6304 39.8689 51.9954 39.8689 51.2161V4.00696C39.8689 3.22286 39.2307 2.58789 38.4365 2.58789Z" fill="white"/>
<path d="M28.2783 25.0328H14.2269C13.5838 25.0328 13.0625 24.5181 13.0625 23.8831V10.0052C13.0625 9.37018 13.5838 8.85547 14.2269 8.85547H28.2783C28.9214 8.85547 29.4428 9.37018 29.4428 10.0052V23.8783C29.4428 24.5133 28.9214 25.0328 28.2783 25.0328Z" fill="#60C4F0"/>
<path d="M21.2531 58.4508C22.4478 58.4508 23.4163 57.4946 23.4163 56.315C23.4163 55.1354 22.4478 54.1792 21.2531 54.1792C20.0584 54.1792 19.0898 55.1354 19.0898 56.315C19.0898 57.4946 20.0584 58.4508 21.2531 58.4508Z" fill="white"/>
<path d="M33.4949 32.22H9.00243C8.38366 32.22 7.87695 31.7197 7.87695 31.1088C7.87695 30.4978 8.38366 29.9976 9.00243 29.9976H33.49C34.1088 29.9976 34.6155 30.4978 34.6155 31.1088C34.6155 31.7197 34.1136 32.22 33.4949 32.22Z" fill="url(#paint1_linear_754_610)"/>
<path opacity="0.6" d="M29.3496 38.3771H8.59415C8.1995 38.3771 7.88281 38.0596 7.88281 37.6748V37.5978C7.88281 37.2082 8.20438 36.8955 8.59415 36.8955H29.3496C29.7443 36.8955 30.061 37.213 30.061 37.5978V37.6748C30.0658 38.0596 29.7443 38.3771 29.3496 38.3771Z" fill="url(#paint2_linear_754_610)"/>
<path opacity="0.3" d="M25.3973 42.2881H8.52495C8.16928 42.2881 7.87695 41.9995 7.87695 41.6483V41.4367C7.87695 41.0855 8.16928 40.7969 8.52495 40.7969H25.3924C25.7481 40.7969 26.0404 41.0855 26.0404 41.4367V41.6483C26.0404 41.9995 25.7481 42.2881 25.3973 42.2881Z" fill="url(#paint3_linear_754_610)"/>
<path opacity="0.6" d="M27.5226 45.9103H8.56492C8.18976 45.9103 7.88281 45.6073 7.88281 45.2369V45.1022C7.88281 44.7318 8.18976 44.4287 8.56492 44.4287H27.5226C27.8977 44.4287 28.2047 44.7318 28.2047 45.1022V45.2369C28.2047 45.6024 27.8977 45.9103 27.5226 45.9103Z" fill="url(#paint4_linear_754_610)"/>
<path d="M21.2958 16.4972C22.7027 16.4972 23.8432 15.3562 23.8432 13.9486C23.8432 12.5409 22.7027 11.3999 21.2958 11.3999C19.8889 11.3999 18.7485 12.5409 18.7485 13.9486C18.7485 15.3562 19.8836 16.4972 21.2958 16.4972ZM21.2958 17.7716C19.5958 17.7716 16.2012 18.6247 16.2012 20.3202V20.9601C16.2012 21.312 16.4889 21.5999 16.8407 21.5999H25.7617C26.1134 21.5999 26.4012 21.312 26.4012 20.9601V20.3202C26.3905 18.63 22.9958 17.7716 21.2958 17.7716Z" fill="white"/>
</g>
<defs>
<linearGradient id="paint0_linear_754_610" x1="2.57494" y1="28.4401" x2="42.5333" y2="31.8656" gradientUnits="userSpaceOnUse">
<stop stop-color="#60C4F0"/>
<stop offset="1" stop-color="#4008E2"/>
</linearGradient>
<linearGradient id="paint1_linear_754_610" x1="34.6178" y1="31.1097" x2="7.88155" y2="31.1097" gradientUnits="userSpaceOnUse">
<stop stop-color="#60C4F0"/>
<stop offset="1" stop-color="#4008E2"/>
</linearGradient>
<linearGradient id="paint2_linear_754_610" x1="30.0644" y1="37.6342" x2="7.88253" y2="37.6342" gradientUnits="userSpaceOnUse">
<stop stop-color="#60C4F0"/>
<stop offset="1" stop-color="#4008E2"/>
</linearGradient>
<linearGradient id="paint3_linear_754_610" x1="26.0409" y1="41.5452" x2="7.88155" y2="41.5452" gradientUnits="userSpaceOnUse">
<stop stop-color="#60C4F0"/>
<stop offset="1" stop-color="#4008E2"/>
</linearGradient>
<linearGradient id="paint4_linear_754_610" x1="28.2043" y1="45.1657" x2="7.88254" y2="45.1657" gradientUnits="userSpaceOnUse">
<stop stop-color="#60C4F0"/>
<stop offset="1" stop-color="#4008E2"/>
</linearGradient>
<clipPath id="clip0_754_610">
<rect width="42.5" height="60" fill="white"/>
</clipPath>
</defs>
</svg>
