<svg width="215" height="53" viewBox="0 0 215 53" fill="none" xmlns="http://www.w3.org/2000/svg">
<rect x="0.5" width="44" height="53" fill="white"/>
<rect x="44.5" width="170" height="53" fill="url(#paint0_linear_531_13858)"/>
<path d="M60.86 22.55C62.12 22.55 63.14 22.82 63.92 23.36C64.7 23.9 65.27 24.63 65.63 25.55C66.01 26.47 66.2 27.49 66.2 28.61V37.1C66.2 37.34 66.11 37.55 65.93 37.73C65.75 37.91 65.54 38 65.3 38C65.02 38 64.8 37.91 64.64 37.73C64.48 37.55 64.4 37.34 64.4 37.1V28.61C64.4 27.79 64.27 27.05 64.01 26.39C63.77 25.73 63.37 25.21 62.81 24.83C62.25 24.43 61.5 24.23 60.56 24.23C59.72 24.23 58.92 24.43 58.16 24.83C57.42 25.21 56.82 25.73 56.36 26.39C55.9 27.05 55.67 27.79 55.67 28.61V37.1C55.67 37.34 55.58 37.55 55.4 37.73C55.22 37.91 55.01 38 54.77 38C54.49 38 54.27 37.91 54.11 37.73C53.95 37.55 53.87 37.34 53.87 37.1V16.7C53.87 16.46 53.95 16.25 54.11 16.07C54.29 15.89 54.51 15.8 54.77 15.8C55.03 15.8 55.24 15.89 55.4 16.07C55.58 16.25 55.67 16.46 55.67 16.7V26.42L54.98 27.47C55.02 26.85 55.21 26.25 55.55 25.67C55.91 25.07 56.37 24.54 56.93 24.08C57.49 23.6 58.11 23.23 58.79 22.97C59.47 22.69 60.16 22.55 60.86 22.55ZM77.8508 38.3C76.3108 38.3 74.9508 37.97 73.7708 37.31C72.5908 36.65 71.6708 35.73 71.0108 34.55C70.3508 33.37 70.0208 31.99 70.0208 30.41C70.0208 28.71 70.3508 27.26 71.0108 26.06C71.6908 24.86 72.5608 23.94 73.6208 23.3C74.7008 22.64 75.8408 22.31 77.0408 22.31C77.9208 22.31 78.7708 22.47 79.5908 22.79C80.4308 23.09 81.1708 23.55 81.8108 24.17C82.4708 24.77 82.9908 25.51 83.3708 26.39C83.7708 27.27 83.9908 28.29 84.0308 29.45C84.0108 29.69 83.9108 29.9 83.7308 30.08C83.5508 30.24 83.3408 30.32 83.1008 30.32H71.0708L70.7108 28.7H82.5308L82.1408 29.06V28.46C82.0608 27.52 81.7608 26.72 81.2408 26.06C80.7208 25.4 80.0908 24.9 79.3508 24.56C78.6108 24.22 77.8408 24.05 77.0408 24.05C76.4408 24.05 75.8208 24.17 75.1808 24.41C74.5608 24.65 73.9908 25.03 73.4708 25.55C72.9708 26.05 72.5608 26.7 72.2408 27.5C71.9208 28.28 71.7608 29.21 71.7608 30.29C71.7608 31.47 72.0008 32.54 72.4808 33.5C72.9608 34.46 73.6508 35.22 74.5508 35.78C75.4708 36.34 76.5608 36.62 77.8208 36.62C78.5208 36.62 79.1508 36.52 79.7108 36.32C80.2708 36.12 80.7608 35.86 81.1808 35.54C81.6008 35.2 81.9508 34.85 82.2308 34.49C82.4508 34.31 82.6708 34.22 82.8908 34.22C83.0908 34.22 83.2608 34.3 83.4008 34.46C83.5608 34.62 83.6408 34.8 83.6408 35C83.6408 35.24 83.5408 35.45 83.3408 35.63C82.7408 36.35 81.9608 36.98 81.0008 37.52C80.0408 38.04 78.9908 38.3 77.8508 38.3ZM100.571 22.67C100.831 22.67 101.041 22.76 101.201 22.94C101.381 23.12 101.471 23.34 101.471 23.6V37.1C101.471 37.34 101.381 37.55 101.201 37.73C101.021 37.91 100.811 38 100.571 38C100.311 38 100.091 37.91 99.9109 37.73C99.7509 37.55 99.6709 37.34 99.6709 37.1V33.53L100.181 33.29C100.181 33.85 100.021 34.42 99.7009 35C99.4009 35.58 98.9809 36.12 98.4409 36.62C97.9009 37.12 97.2609 37.53 96.5209 37.85C95.8009 38.15 95.0209 38.3 94.1809 38.3C92.8209 38.3 91.6009 37.95 90.5209 37.25C89.4609 36.55 88.6209 35.59 88.0009 34.37C87.4009 33.15 87.1009 31.78 87.1009 30.26C87.1009 28.7 87.4109 27.33 88.0309 26.15C88.6509 24.95 89.4909 24.01 90.5509 23.33C91.6109 22.65 92.8109 22.31 94.1509 22.31C95.0109 22.31 95.8109 22.46 96.5509 22.76C97.3109 23.06 97.9709 23.47 98.5309 23.99C99.0909 24.51 99.5209 25.11 99.8209 25.79C100.141 26.45 100.301 27.14 100.301 27.86L99.6709 27.41V23.6C99.6709 23.34 99.7509 23.12 99.9109 22.94C100.091 22.76 100.311 22.67 100.571 22.67ZM94.3309 36.62C95.3909 36.62 96.3309 36.35 97.1509 35.81C97.9709 35.25 98.6109 34.49 99.0709 33.53C99.5509 32.55 99.7909 31.46 99.7909 30.26C99.7909 29.08 99.5509 28.02 99.0709 27.08C98.6109 26.14 97.9709 25.39 97.1509 24.83C96.3309 24.27 95.3909 23.99 94.3309 23.99C93.2909 23.99 92.3509 24.26 91.5109 24.8C90.6909 25.34 90.0409 26.08 89.5609 27.02C89.1009 27.96 88.8709 29.04 88.8709 30.26C88.8709 31.46 89.1009 32.55 89.5609 33.53C90.0409 34.49 90.6909 35.25 91.5109 35.81C92.3309 36.35 93.2709 36.62 94.3309 36.62ZM108.174 37.1C108.174 37.34 108.084 37.55 107.904 37.73C107.724 37.91 107.514 38 107.274 38C107.014 38 106.794 37.91 106.614 37.73C106.454 37.55 106.374 37.34 106.374 37.1V16.7C106.374 16.46 106.464 16.25 106.644 16.07C106.824 15.89 107.034 15.8 107.274 15.8C107.534 15.8 107.744 15.89 107.904 16.07C108.084 16.25 108.174 16.46 108.174 16.7V37.1ZM112.03 22.73H119.02C119.26 22.73 119.46 22.82 119.62 23C119.78 23.16 119.86 23.36 119.86 23.6C119.86 23.82 119.78 24.01 119.62 24.17C119.46 24.33 119.26 24.41 119.02 24.41H112.03C111.79 24.41 111.58 24.33 111.4 24.17C111.24 23.99 111.16 23.79 111.16 23.57C111.16 23.33 111.24 23.13 111.4 22.97C111.58 22.81 111.79 22.73 112.03 22.73ZM115.12 18.5C115.38 18.5 115.59 18.59 115.75 18.77C115.93 18.95 116.02 19.16 116.02 19.4V34.46C116.02 35.02 116.09 35.44 116.23 35.72C116.39 36 116.59 36.19 116.83 36.29C117.07 36.37 117.31 36.41 117.55 36.41C117.71 36.41 117.85 36.39 117.97 36.35C118.11 36.29 118.26 36.26 118.42 36.26C118.6 36.26 118.75 36.33 118.87 36.47C119.01 36.61 119.08 36.79 119.08 37.01C119.08 37.29 118.92 37.53 118.6 37.73C118.28 37.91 117.9 38 117.46 38C117.28 38 117.01 37.99 116.65 37.97C116.29 37.93 115.92 37.82 115.54 37.64C115.16 37.44 114.84 37.1 114.58 36.62C114.34 36.14 114.22 35.45 114.22 34.55V19.4C114.22 19.16 114.3 18.95 114.46 18.77C114.64 18.59 114.86 18.5 115.12 18.5ZM130.176 22.55C131.436 22.55 132.456 22.82 133.236 23.36C134.016 23.9 134.586 24.63 134.946 25.55C135.326 26.47 135.516 27.49 135.516 28.61V37.1C135.516 37.34 135.426 37.55 135.246 37.73C135.066 37.91 134.856 38 134.616 38C134.336 38 134.116 37.91 133.956 37.73C133.796 37.55 133.716 37.34 133.716 37.1V28.61C133.716 27.79 133.586 27.05 133.326 26.39C133.086 25.73 132.686 25.21 132.126 24.83C131.566 24.43 130.816 24.23 129.876 24.23C129.036 24.23 128.236 24.43 127.476 24.83C126.736 25.21 126.136 25.73 125.676 26.39C125.216 27.05 124.986 27.79 124.986 28.61V37.1C124.986 37.34 124.896 37.55 124.716 37.73C124.536 37.91 124.326 38 124.086 38C123.806 38 123.586 37.91 123.426 37.73C123.266 37.55 123.186 37.34 123.186 37.1V16.7C123.186 16.46 123.266 16.25 123.426 16.07C123.606 15.89 123.826 15.8 124.086 15.8C124.346 15.8 124.556 15.89 124.716 16.07C124.896 16.25 124.986 16.46 124.986 16.7V26.42L124.296 27.47C124.336 26.85 124.526 26.25 124.866 25.67C125.226 25.07 125.686 24.54 126.246 24.08C126.806 23.6 127.426 23.23 128.106 22.97C128.786 22.69 129.476 22.55 130.176 22.55ZM151.697 22.76C151.957 22.76 152.167 22.85 152.327 23.03C152.507 23.21 152.597 23.42 152.597 23.66V32.12C152.597 34.1 152.037 35.61 150.917 36.65C149.797 37.69 148.287 38.21 146.387 38.21C144.507 38.21 143.007 37.69 141.887 36.65C140.787 35.61 140.237 34.1 140.237 32.12V23.66C140.237 23.42 140.317 23.21 140.477 23.03C140.657 22.85 140.877 22.76 141.137 22.76C141.397 22.76 141.607 22.85 141.767 23.03C141.947 23.21 142.037 23.42 142.037 23.66V32.12C142.037 33.56 142.417 34.66 143.177 35.42C143.957 36.16 145.027 36.53 146.387 36.53C147.767 36.53 148.847 36.16 149.627 35.42C150.407 34.66 150.797 33.56 150.797 32.12V23.66C150.797 23.42 150.877 23.21 151.037 23.03C151.197 22.85 151.417 22.76 151.697 22.76ZM164.547 22.31C165.867 22.31 166.917 22.58 167.697 23.12C168.497 23.64 169.067 24.36 169.407 25.28C169.767 26.18 169.947 27.18 169.947 28.28V37.1C169.947 37.34 169.857 37.55 169.677 37.73C169.497 37.91 169.287 38 169.047 38C168.767 38 168.547 37.91 168.387 37.73C168.227 37.55 168.147 37.34 168.147 37.1V28.37C168.147 27.57 168.017 26.84 167.757 26.18C167.497 25.52 167.067 24.99 166.467 24.59C165.887 24.19 165.117 23.99 164.157 23.99C163.297 23.99 162.477 24.19 161.697 24.59C160.937 24.99 160.317 25.52 159.837 26.18C159.357 26.84 159.117 27.57 159.117 28.37V37.1C159.117 37.34 159.027 37.55 158.847 37.73C158.667 37.91 158.457 38 158.217 38C157.937 38 157.717 37.91 157.557 37.73C157.397 37.55 157.317 37.34 157.317 37.1V23.66C157.317 23.42 157.397 23.21 157.557 23.03C157.737 22.85 157.957 22.76 158.217 22.76C158.477 22.76 158.687 22.85 158.847 23.03C159.027 23.21 159.117 23.42 159.117 23.66V26.18L158.427 27.26C158.467 26.62 158.667 26.01 159.027 25.43C159.407 24.83 159.887 24.3 160.467 23.84C161.047 23.36 161.687 22.99 162.387 22.73C163.107 22.45 163.827 22.31 164.547 22.31ZM176.401 37.1C176.401 37.34 176.311 37.55 176.131 37.73C175.951 37.91 175.741 38 175.501 38C175.241 38 175.021 37.91 174.841 37.73C174.681 37.55 174.601 37.34 174.601 37.1V23.3C174.601 23.06 174.681 22.85 174.841 22.67C175.021 22.49 175.241 22.4 175.501 22.4C175.761 22.4 175.971 22.49 176.131 22.67C176.311 22.85 176.401 23.06 176.401 23.3V37.1ZM175.501 20.39C175.081 20.39 174.761 20.3 174.541 20.12C174.341 19.92 174.241 19.64 174.241 19.28V18.98C174.241 18.62 174.351 18.35 174.571 18.17C174.811 17.97 175.131 17.87 175.531 17.87C175.911 17.87 176.201 17.97 176.401 18.17C176.621 18.35 176.731 18.62 176.731 18.98V19.28C176.731 19.64 176.621 19.92 176.401 20.12C176.201 20.3 175.901 20.39 175.501 20.39ZM186.627 15.92C186.927 15.92 187.247 15.95 187.587 16.01C187.947 16.07 188.257 16.18 188.517 16.34C188.777 16.48 188.907 16.7 188.907 17C188.907 17.22 188.827 17.42 188.667 17.6C188.507 17.76 188.327 17.84 188.127 17.84C187.927 17.84 187.677 17.79 187.377 17.69C187.077 17.57 186.757 17.51 186.417 17.51C185.997 17.51 185.637 17.61 185.337 17.81C185.037 17.99 184.807 18.26 184.647 18.62C184.487 18.96 184.407 19.38 184.407 19.88V37.1C184.407 37.34 184.317 37.55 184.137 37.73C183.977 37.91 183.767 38 183.507 38C183.247 38 183.027 37.91 182.847 37.73C182.687 37.55 182.607 37.34 182.607 37.1V19.88C182.607 18.6 182.977 17.62 183.717 16.94C184.477 16.26 185.447 15.92 186.627 15.92ZM187.767 22.97C188.007 22.97 188.207 23.05 188.367 23.21C188.527 23.37 188.607 23.57 188.607 23.81C188.607 24.05 188.527 24.25 188.367 24.41C188.207 24.57 188.007 24.65 187.767 24.65H180.417C180.197 24.65 179.997 24.57 179.817 24.41C179.657 24.23 179.577 24.03 179.577 23.81C179.577 23.55 179.657 23.35 179.817 23.21C179.997 23.05 180.197 22.97 180.417 22.97H187.767ZM203.318 22.4C203.578 22.4 203.788 22.49 203.948 22.67C204.128 22.85 204.218 23.06 204.218 23.3V36.53C204.218 38.15 203.898 39.51 203.258 40.61C202.618 41.73 201.758 42.57 200.678 43.13C199.598 43.71 198.368 44 196.988 44C196.128 44 195.328 43.9 194.588 43.7C193.868 43.52 193.278 43.28 192.818 42.98C192.578 42.84 192.398 42.67 192.278 42.47C192.158 42.27 192.148 42.06 192.248 41.84C192.348 41.56 192.498 41.37 192.698 41.27C192.918 41.19 193.138 41.2 193.358 41.3C193.698 41.48 194.188 41.7 194.828 41.96C195.468 42.22 196.198 42.35 197.018 42.35C198.118 42.35 199.068 42.12 199.868 41.66C200.688 41.2 201.318 40.53 201.758 39.65C202.198 38.79 202.418 37.76 202.418 36.56V34.4L202.628 35.12C202.328 35.74 201.898 36.29 201.338 36.77C200.798 37.25 200.168 37.63 199.448 37.91C198.748 38.17 197.998 38.3 197.198 38.3C195.998 38.3 194.998 38.06 194.198 37.58C193.418 37.08 192.838 36.4 192.458 35.54C192.078 34.68 191.888 33.67 191.888 32.51V23.3C191.888 23.06 191.968 22.85 192.128 22.67C192.288 22.49 192.508 22.4 192.788 22.4C193.048 22.4 193.258 22.49 193.418 22.67C193.598 22.85 193.688 23.06 193.688 23.3V32.24C193.688 33.64 193.988 34.72 194.588 35.48C195.208 36.24 196.208 36.62 197.588 36.62C198.448 36.62 199.238 36.42 199.958 36.02C200.678 35.6 201.268 35.06 201.728 34.4C202.188 33.72 202.418 33 202.418 32.24V23.3C202.418 23.06 202.498 22.85 202.658 22.67C202.838 22.49 203.058 22.4 203.318 22.4Z" fill="white"/>
<path d="M23.22 22.25C24.54 22.25 25.58 22.54 26.34 23.12C27.12 23.68 27.67 24.44 27.99 25.4C28.33 26.34 28.5 27.39 28.5 28.55V36.77C28.5 37.11 28.38 37.4 28.14 37.64C27.92 37.88 27.64 38 27.3 38C26.96 38 26.67 37.88 26.43 37.64C26.21 37.4 26.1 37.11 26.1 36.77V28.55C26.1 27.79 25.99 27.11 25.77 26.51C25.55 25.89 25.18 25.4 24.66 25.04C24.16 24.66 23.47 24.47 22.59 24.47C21.77 24.47 21.02 24.66 20.34 25.04C19.66 25.4 19.12 25.89 18.72 26.51C18.32 27.11 18.12 27.79 18.12 28.55V36.77C18.12 37.11 18 37.4 17.76 37.64C17.54 37.88 17.26 38 16.92 38C16.58 38 16.29 37.88 16.05 37.64C15.83 37.4 15.72 37.11 15.72 36.77V17C15.72 16.66 15.83 16.38 16.05 16.16C16.29 15.92 16.58 15.8 16.92 15.8C17.28 15.8 17.57 15.92 17.79 16.16C18.01 16.38 18.12 16.66 18.12 17V25.97L17.52 26.63C17.62 26.11 17.84 25.59 18.18 25.07C18.52 24.53 18.95 24.05 19.47 23.63C19.99 23.21 20.57 22.88 21.21 22.64C21.85 22.38 22.52 22.25 23.22 22.25Z" fill="url(#paint1_linear_531_13858)"/>
<defs>
<linearGradient id="paint0_linear_531_13858" x1="129.5" y1="0" x2="129.5" y2="53" gradientUnits="userSpaceOnUse">
<stop stop-color="#5DB2EF"/>
<stop offset="1" stop-color="#4421E4"/>
</linearGradient>
<linearGradient id="paint1_linear_531_13858" x1="22.5" y1="4" x2="22.5" y2="49" gradientUnits="userSpaceOnUse">
<stop stop-color="#5EB5EF"/>
<stop offset="1" stop-color="#441EE4"/>
</linearGradient>
</defs>
</svg>
