<svg width="48" height="48" viewBox="0 0 48 48" fill="none" xmlns="http://www.w3.org/2000/svg">
<path d="M20 44C18.9 44 17.958 43.608 17.174 42.824C16.39 42.04 15.9987 41.0987 16 40H24C24 41.1 23.608 42.042 22.824 42.826C22.04 43.61 21.0987 44.0013 20 44ZM4 38V34H8V20C8 17.2333 8.83333 14.7747 10.5 12.624C12.1667 10.4733 14.3333 9.06534 17 8.4V7C17 6.16667 17.292 5.458 17.876 4.874C18.46 4.29 19.168 3.99867 20 4C20.8333 4 21.542 4.292 22.126 4.876C22.71 5.46 23.0013 6.168 23 7V8.4C23.6 8.56667 24.1833 8.75867 24.75 8.976C25.3167 9.19334 25.85 9.468 26.35 9.8C25.9167 10.3333 25.5413 10.8913 25.224 11.474C24.9067 12.0567 24.6153 12.6653 24.35 13.3C23.7167 12.9 23.0333 12.5833 22.3 12.35C21.5667 12.1167 20.8 12 20 12C17.8 12 15.9167 12.7833 14.35 14.35C12.7833 15.9167 12 17.8 12 20V34H28V27.85C28.5667 28.35 29.1833 28.8087 29.85 29.226C30.5167 29.6433 31.2333 29.9847 32 30.25V34H36V38H4ZM34 26V20H28V16H34V10H38V16H44V20H38V26H34Z" fill="url(#paint0_linear_708_159)"/>
<defs>
<linearGradient id="paint0_linear_708_159" x1="24" y1="4" x2="24" y2="44" gradientUnits="userSpaceOnUse">
<stop stop-color="#60C4F0"/>
<stop offset="1" stop-color="#4008E2"/>
</linearGradient>
</defs>
</svg>
