<svg width="2153" height="1569" viewBox="0 0 2153 1569" fill="none" xmlns="http://www.w3.org/2000/svg">
<path d="M439.016 1534.18L246.492 1521.69L91.3487 1555.73C80.1475 1558.17 69.2465 1550.66 67.5728 1539.33C66.6286 1532.98 68.7744 1526.63 73.4094 1522.21C102.85 1493.97 211.687 1390.63 225.72 1392.34C241.986 1394.32 429.703 1392 429.703 1392L439.059 1534.18H439.016Z" fill="#60C4F0"/>
<path d="M67.5831 1539.38L238.734 1392.9L230.58 1392.56C223.499 1392.26 216.589 1394.45 211.01 1398.78C196.118 1410.41 155.691 1443.46 73.4196 1521.61C68.6559 1526.16 66.4243 1532.81 67.5831 1539.33V1539.38Z" fill="white"/>
<g opacity="0.6">
<path d="M299.224 1435.05C295.705 1439.73 288.323 1441.01 283.474 1437.67C278.624 1434.32 277.294 1426.85 280.727 1422.09C284.203 1417.33 293.001 1415.52 297.422 1419.39C301.842 1423.25 302.958 1432.13 298.452 1435.91" fill="white"/>
</g>
<path d="M153.623 1498.82C153.066 1499.89 162.979 1504.66 167.915 1516.37C173.194 1527.92 170.061 1538.43 171.219 1538.73C171.692 1538.91 173.279 1536.54 174.095 1532.08C174.953 1527.62 174.567 1521.09 171.777 1514.66C168.945 1508.26 164.353 1503.58 160.49 1501.18C156.628 1498.78 153.795 1498.35 153.623 1498.82Z" fill="white"/>
<path d="M127.219 1511.48C126.361 1512.39 132.369 1518.82 134.773 1528.91C137.433 1538.95 135.245 1547.49 136.404 1547.84C137.348 1548.44 141.854 1539.34 138.892 1527.88C136.06 1516.38 127.777 1510.5 127.219 1511.48Z" fill="white"/>
<path d="M187.773 1474.66C186.829 1475.51 196.099 1485.39 201.292 1500.75C206.7 1516.03 205.498 1529.55 206.742 1529.63C207.772 1529.98 211.034 1515.77 205.283 1499.38C199.704 1482.94 188.374 1473.76 187.773 1474.66Z" fill="white"/>
<path d="M246.617 1473.54C245.458 1474.02 249.449 1484.83 249.363 1498.74C249.492 1512.6 245.501 1523.46 246.66 1523.93C247.561 1524.49 253.655 1513.67 253.569 1498.74C253.612 1483.8 247.518 1472.99 246.574 1473.54H246.617Z" fill="white"/>
<path d="M337.367 1219.86L212.823 1362.91C212.823 1362.91 25.6206 1284.32 -0.000601276 1308.53L268.657 1560.02L471.867 1345.14L337.367 1219.91V1219.86Z" fill="#60C4F0"/>
<path d="M268.657 1559.98L288.312 1537.53L23.3886 1304.84C23.3886 1304.84 6.56529 1298.83 0.0419746 1308.53L268.7 1560.02L268.657 1559.98Z" fill="white"/>
<path d="M209.736 1357.45C208.534 1358.83 214.543 1365.52 217.075 1375.82C219.864 1386.04 217.847 1394.84 219.564 1395.44C221.023 1396.29 226.388 1386.64 223.126 1374.28C219.993 1361.88 210.594 1356.04 209.736 1357.5V1357.45Z" fill="white"/>
<path d="M170.633 1342.73C169.131 1343.72 172.736 1351.27 172.006 1360.97C171.534 1370.72 167.071 1377.75 168.444 1378.91C169.474 1380.29 177.585 1373.42 178.272 1361.32C179.087 1349.21 171.877 1341.45 170.676 1342.69L170.633 1342.73Z" fill="white"/>
<path d="M123.073 1361.45C124.017 1362.87 131.957 1358.02 135.304 1347.67C138.738 1337.37 135.219 1328.75 133.631 1329.3C131.871 1329.69 132.257 1337.29 129.382 1345.7C126.678 1354.2 121.914 1360.08 123.073 1361.45Z" fill="white"/>
<path d="M241.746 1328.01C241.188 1329.73 248.87 1333.55 255.822 1340.98C262.903 1348.27 266.38 1356.17 268.096 1355.7C269.727 1355.44 268.654 1345.31 260.371 1336.68C252.131 1327.97 242.089 1326.38 241.746 1328.01Z" fill="white"/>
<path d="M1224.44 838.337C1223.62 855.074 1219.76 944.985 1219.76 944.985L999.209 845.933L969.511 933.311C969.511 933.311 1328.59 1288.19 1349.45 1099.31C1350.18 1092.83 1367.35 880.781 1367.35 880.781L1224.44 838.337Z" fill="#FCC8CD"/>
<path d="M763.73 833.142C766.176 828.465 773.644 826.619 783.729 829.323C793.857 832.027 810.166 840.224 815.874 841.897C821.582 843.571 854.37 854.429 854.37 854.429L781.927 814.13C781.927 814.13 757.722 804.474 763.43 794.131C769.138 783.788 785.746 794.861 793.428 796.921C801.11 798.981 850.55 825.675 865.485 827.306C880.377 828.937 873.554 824.988 873.554 824.988C873.554 824.988 850.593 813.658 832.525 804.732C814.414 795.805 804.844 785.934 805.144 776.922C805.445 767.909 847.332 788.595 847.332 788.595L906.213 815.933L926.556 816.233L911.664 798.08C911.664 798.08 888.574 792.93 881.879 775.677C875.056 758.124 886.772 756.665 886.772 756.665L970.931 803.401C984.278 813.143 1004.45 862.626 1004.45 862.626L975.051 943.653L966.382 939.919L911.32 930.477L842.353 912.452L786.605 888.977C786.605 888.977 781.498 884.728 787.291 877.861C793.085 870.995 823.427 884.127 823.427 884.127L846.988 890.178C846.988 890.178 866.215 889.363 864.97 887.604C863.683 885.844 832.525 874.471 832.525 874.471L766.262 846.404C766.262 846.404 759.481 841.554 763.859 833.099L763.73 833.142Z" fill="#FCC8CD"/>
<path d="M940.446 899.275C941.004 898.889 937.442 893.396 932.635 884.211C928.043 875.199 921.949 861.208 925.554 845.844C927.099 839.063 930.49 833.184 934.953 829.493L936.584 828.119L935.082 826.36C928.516 818.549 923.022 810.481 918.902 805.545C914.825 800.395 911.95 797.649 911.606 798.035C911.349 798.335 913.452 801.468 917.014 807.047C920.748 812.627 925.254 820.394 932.464 829.364L932.593 826.231C927.228 830.394 923.237 837.218 921.52 844.814C919.546 853.183 920.276 861.594 922.336 868.547C924.353 875.542 927.357 881.25 930.103 885.756C935.725 894.769 940.06 899.533 940.446 899.232V899.275Z" fill="#595959"/>
<path d="M1359.78 1055.15C1359.78 1055.15 967.82 801.474 903.273 763.192C851.601 732.55 783.278 740.747 738.087 781.131C600.282 904.259 242.014 1315.79 242.014 1315.79L414.797 1461.14L834.006 1046.06L1182.92 1319.43L1384.88 1161.97L1359.73 1055.15H1359.78Z" fill="#1D0466"/>
<path d="M396.563 1371.71C396.563 1371.71 344.977 1531.44 347.123 1535.05C357.594 1552.64 947.354 1542.82 947.354 1542.82C947.354 1542.82 1443.38 1564.1 1476.6 1547.88C1509.82 1531.61 1620.67 1418.4 1620.67 1418.4L1333.39 1140.86L1214.12 1269.22L1052.71 1318.32L396.605 1371.71H396.563Z" fill="#1D0466"/>
<path d="M930.18 1537.37C930.18 1537.37 928.206 1535.91 925.03 1532.86C923.399 1531.36 921.511 1529.47 919.451 1527.07C917.391 1524.7 914.901 1522.13 912.541 1518.95C907.563 1512.82 902.284 1504.96 897.091 1495.86C892.07 1486.68 887.22 1476.21 883.358 1464.75C879.581 1453.25 877.178 1441.96 875.676 1431.58C874.345 1421.19 873.873 1411.75 874.174 1403.85C874.174 1399.9 874.56 1396.34 874.817 1393.21C875.032 1390.08 875.418 1387.41 875.804 1385.23C876.534 1380.89 877.006 1378.49 877.221 1378.53C877.822 1378.62 876.234 1388.23 876.319 1403.89C876.319 1411.71 877.006 1420.98 878.422 1431.19C880.053 1441.36 882.499 1452.48 886.233 1463.76C890.053 1475.05 894.731 1485.39 899.537 1494.49C904.516 1503.55 909.537 1511.36 914.215 1517.62C923.528 1530.16 930.566 1536.94 930.137 1537.37H930.18Z" fill="#4008E2"/>
<path d="M1288.07 1263.13C1288.07 1263.13 1285.02 1263.9 1279.53 1264.72C1273.99 1265.49 1266.01 1266.73 1256.18 1268.36C1236.48 1271.63 1209.4 1276.95 1180.05 1284.89C1150.65 1292.87 1124.6 1301.92 1105.98 1309.09C1096.66 1312.65 1089.15 1315.61 1083.96 1317.72C1078.77 1319.82 1075.85 1320.85 1075.76 1320.68C1075.68 1320.51 1078.42 1319.05 1083.49 1316.64C1088.51 1314.2 1095.93 1310.89 1105.16 1307.07C1123.66 1299.39 1149.71 1289.95 1179.23 1281.93C1208.76 1273.94 1236.01 1268.92 1255.84 1266.22C1265.75 1264.84 1273.82 1263.94 1279.4 1263.51C1284.98 1263.04 1288.07 1262.91 1288.11 1263.13H1288.07Z" fill="#4008E2"/>
<path d="M1943.28 764.135L2001.81 802.373L1987.56 1135.96L1968.55 1503.2L2150.26 1540.07C2150.26 1540.07 2159.1 1552.08 2141.21 1553.41L1890.96 1551.87C1877.53 1551.78 1866.67 1540.97 1866.54 1527.53L1838.73 1152.01L1860.15 797.695L1943.28 764.221V764.135Z" fill="#FCC8CD"/>
<path d="M1348.19 541.437C1348.19 541.437 1262.95 553.453 1236.09 712.33C1227.85 761.126 1217.42 885.713 1217.42 885.713L1370.55 909.575L1348.19 541.437Z" fill="#60C4F0"/>
<path d="M1545.59 471.869L1349.54 541.437L1340.75 824.944L1325.77 1002.7L1279.16 1005.79C1279.16 1005.79 1308.34 1229.18 1361.43 1308.23C1414.52 1387.28 1586.74 1415.99 1630.05 1430.84C1630.05 1430.84 1764.16 1225.23 1808.28 1144.93C1852.4 1064.68 1878.45 682.332 1878.45 682.332L1890.34 518.004L1825.36 505.945L1708.54 480.281L1545.59 471.869Z" fill="#60C4F0"/>
<path d="M2008.88 676.111C2008.88 676.111 1983.52 534.529 1890.3 518.006C1849.92 510.839 1851.63 837.048 1851.63 837.048L2041.54 829.795L2008.84 676.111H2008.88Z" fill="#60C4F0"/>
<path d="M1685.93 1022.92C1685.93 1022.92 1685.08 1023.69 1683.27 1024.93C1681.17 1026.31 1678.55 1028.02 1675.33 1030.17C1671.9 1032.44 1667.61 1035.15 1662.46 1038.02C1657.35 1040.94 1651.64 1044.42 1644.99 1047.72C1638.42 1051.16 1631.21 1054.89 1623.28 1058.41C1615.42 1062.23 1606.8 1065.66 1597.74 1069.39C1579.5 1076.48 1559.03 1083.3 1537.14 1088.88C1515.21 1094.33 1493.92 1097.98 1474.53 1100.38C1464.78 1101.37 1455.56 1102.44 1446.85 1102.78C1438.18 1103.43 1430.07 1103.56 1422.64 1103.64C1415.26 1103.9 1408.56 1103.51 1402.68 1103.38C1396.8 1103.3 1391.74 1102.91 1387.62 1102.57C1383.8 1102.23 1380.63 1101.97 1378.14 1101.71C1375.99 1101.5 1374.83 1101.32 1374.83 1101.2C1374.83 1101.11 1375.99 1101.07 1378.18 1101.07C1380.67 1101.15 1383.84 1101.24 1387.66 1101.32C1391.78 1101.5 1396.8 1101.71 1402.68 1101.62C1408.52 1101.62 1415.22 1101.84 1422.55 1101.45C1429.94 1101.24 1438 1100.98 1446.63 1100.25C1455.3 1099.78 1464.48 1098.62 1474.14 1097.59C1493.45 1095.06 1514.57 1091.33 1536.37 1085.92C1558.13 1080.34 1578.47 1073.64 1596.71 1066.78C1605.72 1063.13 1614.39 1059.78 1622.2 1056.13C1630.14 1052.7 1637.39 1049.14 1643.96 1045.83C1650.61 1042.7 1656.41 1039.35 1661.56 1036.56C1666.75 1033.86 1671.13 1031.28 1674.65 1029.18C1677.99 1027.25 1680.7 1025.71 1682.89 1024.46C1684.77 1023.39 1685.8 1022.92 1685.89 1023L1685.93 1022.92Z" fill="#020101"/>
<path d="M1655.9 1116.69C1655.9 1116.69 1653.84 1117.85 1649.98 1119.48C1646.07 1121.07 1640.41 1123.3 1633.33 1125.87C1619.21 1131.11 1599.55 1137.89 1577.62 1144.67C1555.69 1151.45 1535.61 1156.99 1521.02 1160.64C1513.72 1162.48 1507.8 1163.86 1503.68 1164.76C1499.56 1165.66 1497.24 1166.04 1497.2 1165.83C1497.15 1165.62 1499.34 1164.84 1503.38 1163.6C1508.05 1162.23 1513.76 1160.55 1520.46 1158.53C1534.88 1154.33 1554.83 1148.49 1576.72 1141.71C1598.61 1134.93 1618.35 1128.49 1632.64 1123.77C1639.29 1121.63 1644.96 1119.78 1649.59 1118.28C1653.63 1117.03 1655.86 1116.43 1655.95 1116.6L1655.9 1116.69Z" fill="#020101"/>
<path d="M1310.14 656.623C1310.96 656.537 1321.05 732.199 1332.59 825.629C1344.13 919.101 1352.85 994.892 1351.99 995.02C1351.17 995.106 1341.13 919.487 1329.54 826.015C1318 732.585 1309.29 656.752 1310.14 656.666V656.623Z" fill="#020101"/>
<path d="M1873.9 632.551C1873.9 632.551 1874.12 633.795 1874.25 636.156C1874.33 638.859 1874.46 642.293 1874.59 646.541C1874.85 655.597 1874.93 668.643 1874.72 684.823C1874.37 717.139 1872.4 761.815 1868.11 810.955C1863.77 860.094 1858.15 904.427 1853.47 936.4C1851.16 952.408 1849.14 965.326 1847.59 974.209C1846.87 978.415 1846.22 981.806 1845.75 984.466C1845.28 986.784 1845.02 988.029 1844.89 987.986C1844.81 987.986 1844.89 986.698 1845.11 984.338C1845.45 981.634 1845.84 978.244 1846.35 973.995C1847.55 964.639 1849.23 951.764 1851.29 936.057C1855.41 904.041 1860.68 859.708 1865.02 810.612C1869.31 761.515 1871.63 716.967 1872.53 684.694C1873 668.558 1873.3 655.511 1873.39 646.456C1873.47 642.207 1873.56 638.773 1873.6 636.07C1873.69 633.709 1873.77 632.422 1873.9 632.422V632.551Z" fill="#020101"/>
<path d="M1864.9 206.992C1882.46 212.184 1903.14 202.314 1910.09 185.362C1917.05 168.452 1909.28 146.865 1893.14 138.239C1906.28 128.798 1912.41 110.601 1907.56 95.151C1902.76 79.701 1887.39 68.1565 1871.21 67.8561C1873.36 52.0198 1866.62 35.2824 1854.13 25.3257C1841.64 15.3691 1823.83 12.5366 1808.85 18.1587C1794.13 0.176618 1766.2 -5.35962 1745.72 5.66994C1730.96 0.133703 1712.85 5.32661 1703.24 17.8582C1693.62 30.3899 1693.28 49.1874 1702.42 62.0623" fill="#020101"/>
<path d="M1731.36 40.5609L1739.43 42.0201C1820.71 56.483 1877.23 130.943 1869.33 213.128C1862 289.563 1852.9 373.894 1845.22 414.236C1829.25 497.751 1743.25 495.863 1743.25 495.863L1740.24 512C1729.64 569.079 1674.58 606.674 1617.59 595.687C1562.48 585.086 1531.62 536.204 1539.95 480.713L1587.76 196.348C1595.74 108.112 1643.38 30.1751 1731.36 40.6039V40.5609Z" fill="#FCC8CD"/>
<path opacity="0.2" d="M1743.93 495.818C1743.93 495.818 1689.9 489.509 1639.99 444.189C1639.99 444.189 1655.05 509.036 1739.9 516.375L1743.93 495.818Z" fill="#F64C5D"/>
<path d="M1836.08 288.061C1835.18 294.412 1829.04 298.876 1822.39 298.06C1815.73 297.245 1811.1 291.451 1812 285.1C1812.9 278.748 1819.04 274.285 1825.65 275.1C1832.3 275.915 1836.98 281.752 1836.08 288.061Z" fill="#020101"/>
<path d="M1844.06 250.854C1842.3 252.141 1834.45 243.815 1821.57 241.584C1808.74 239.137 1798.14 244.073 1797.02 242.27C1796.46 241.455 1798.48 238.923 1803.12 236.648C1807.71 234.374 1815.09 232.7 1823.12 234.202C1831.1 235.661 1837.32 239.824 1840.67 243.515C1844.1 247.249 1844.92 250.296 1844.06 250.896V250.854Z" fill="#020101"/>
<path d="M1724.87 275.485C1723.96 281.836 1717.83 286.3 1711.17 285.484C1704.52 284.669 1699.89 278.875 1700.79 272.523C1701.69 266.172 1707.83 261.708 1714.44 262.524C1721.09 263.339 1725.77 269.176 1724.87 275.485Z" fill="#020101"/>
<path d="M1717.19 230.724C1715.43 232.012 1707.58 223.686 1694.71 221.454C1681.87 219.008 1671.27 223.943 1670.16 222.141C1669.6 221.326 1671.57 218.793 1676.25 216.519C1680.84 214.244 1688.23 212.571 1696.25 214.03C1704.23 215.489 1710.46 219.652 1713.8 223.343C1717.19 227.076 1718.05 230.123 1717.19 230.724Z" fill="#020101"/>
<path d="M1746.9 334.413C1746.99 333.683 1755.23 333.726 1768.45 334.37C1771.79 334.628 1775.01 334.499 1775.96 332.396C1777.16 330.164 1776.43 326.388 1775.48 322.268C1773.81 313.77 1772.05 304.886 1770.25 295.531C1763.08 257.507 1758.58 226.521 1760.08 226.22C1761.62 225.963 1768.66 256.519 1775.78 294.544C1777.46 303.899 1779.09 312.826 1780.59 321.366C1781.15 325.315 1782.57 329.95 1779.99 334.542C1778.66 336.859 1775.96 338.19 1773.72 338.404C1771.49 338.662 1769.65 338.404 1768.02 338.19C1754.84 336.559 1746.77 335.186 1746.82 334.456L1746.9 334.413Z" fill="#020101"/>
<path d="M1737.15 183.215C1734.87 186.176 1724.48 180.683 1710.97 177.807C1697.53 174.632 1685.65 175.147 1685 171.542C1684.74 169.825 1687.71 167.336 1693.03 165.576C1698.35 163.817 1706.07 163.13 1714.14 164.932C1722.21 166.735 1728.78 170.64 1732.72 174.46C1736.67 178.279 1738.13 181.756 1737.1 183.172L1737.15 183.215Z" fill="#020101"/>
<path d="M1854.09 197.934C1850.88 200.381 1840.79 195.445 1828.04 193.042C1815.38 190.252 1804.14 190.81 1802.17 187.291C1801.35 185.617 1803.58 182.999 1808.77 181.068C1813.92 179.137 1822.12 178.279 1830.83 180.081C1839.55 181.884 1846.71 185.875 1850.62 189.652C1854.61 193.471 1855.55 196.733 1854.09 197.934Z" fill="#020101"/>
<path d="M1868.13 173.3C1868.13 173.3 1855.39 116.951 1832.3 100.213C1804.36 79.9568 1785.18 111.2 1757.49 97.853C1729.77 84.5059 1703.12 65.1077 1669.3 82.3172C1632.31 101.158 1644.49 121.2 1635.87 157.979C1600.89 307.071 1565.79 344.752 1570.59 272.438C1571.11 264.498 1550.64 254.498 1553.3 221.109C1556.73 177.807 1564.33 125.835 1579.18 97.2951C1591.71 73.2618 1609.39 58.241 1638.87 43.4777C1685.44 20.174 1742 29.5727 1779.64 40.2589C1817.28 50.9452 1883.33 108.239 1868.13 173.214V173.3Z" fill="#020101"/>
<path d="M1576.31 271.152C1578.07 258.149 1568.75 245.96 1555.66 244.888C1539.78 243.6 1520.86 249.351 1516.14 281.796C1507.77 339.347 1567.29 335.871 1567.59 334.24C1567.81 333.124 1573 295.272 1576.31 271.152Z" fill="#FCC8CD"/>
<path d="M1558.23 310.763C1558.01 310.548 1557.11 311.321 1555.31 311.836C1553.55 312.351 1550.63 312.479 1547.8 310.891C1542.05 307.758 1538.31 297.373 1539.56 286.987C1540.16 281.751 1542 276.901 1544.45 273.039C1546.81 269.091 1549.99 266.559 1553.12 266.43C1556.25 266.172 1558.18 268.318 1558.66 270.035C1559.21 271.751 1558.66 272.867 1558.96 272.996C1559.09 273.168 1560.33 272.224 1560.2 269.777C1560.12 268.619 1559.64 267.159 1558.44 265.829C1557.24 264.499 1555.27 263.64 1553.12 263.554C1548.66 263.211 1544.06 266.73 1541.36 270.936C1538.4 275.142 1536.25 280.549 1535.57 286.472C1534.24 298.102 1538.61 309.819 1546.6 313.466C1550.5 315.097 1554.06 314.368 1556 313.295C1557.97 312.136 1558.48 310.891 1558.27 310.763H1558.23Z" fill="#020101"/>
<path d="M1597.16 160.47C1603.68 166.864 1610.59 173.516 1619.39 175.962C1628.18 178.452 1639.34 175.104 1642.43 166.521C1643.81 162.658 1643.68 157.852 1646.85 155.234C1650.63 152.101 1656.21 154.29 1660.89 155.663C1677.2 160.384 1699.94 145.492 1707.02 130.042C1710.11 137.166 1719.08 140.728 1726.25 137.724C1733.42 134.72 1736.16 132.788 1742.21 127.939C1748.27 123.089 1756.25 119.184 1763.59 121.63C1767.71 123.003 1771.23 126.222 1775.56 126.608C1783.2 127.295 1788.44 119.141 1790.88 111.888C1793.33 104.635 1795.77 96.0947 1802.86 93.1764C1809.42 90.4726 1816.67 93.9918 1823.41 96.2664C1830.15 98.498 1839.38 98.498 1842.34 92.0176C1843.88 88.6272 1843.03 84.636 1841.61 81.2026C1835.21 65.581 1816.89 55.8819 1800.37 59.401C1798.13 39.4877 1783.07 21.6344 1763.84 16.0553C1744.62 10.4761 1722.34 17.5574 1709.81 33.2219C1699.68 20.0894 1682.9 12.3645 1666.34 13.1369C1649.77 13.9524 1633.85 23.2223 1625.01 37.2561C1611.75 31.119 1594.92 33.6511 1584.07 43.479C1573.21 53.2639 1569 69.7868 1573.77 83.606C1562.44 87.6401 1551.79 96.3093 1549.48 108.111C1547.16 119.913 1556.6 133.775 1568.57 132.703C1562.31 141.114 1563.85 154.29 1571.84 161.027C1579.86 167.765 1593.12 167.036 1600.29 159.397" fill="#020101"/>
<path d="M1801.69 76.9125C1801.69 76.9125 1801.69 77.2987 1801.47 77.9425C1801.26 78.6291 1801.04 79.6591 1800.57 80.9466C1799.58 83.4787 1797.82 87.2124 1794.43 91.2466C1791.09 95.1949 1786.15 99.5724 1779.33 102.534C1772.63 105.538 1763.88 107.212 1754.69 105.023L1755.9 103.907C1756.8 109.1 1755.25 114.894 1751.95 119.486C1748.73 124.207 1744.27 128.069 1739.63 131.803C1737.27 133.562 1735.12 135.751 1732.08 137.21C1729.12 138.627 1725.73 139.141 1722.42 138.97C1715.81 138.626 1708.9 135.365 1705.17 129.099L1707.4 128.884C1703.92 140 1695.43 150.214 1683.92 155.321C1677.79 158.282 1670.62 159.484 1664.05 158.111C1657.44 156.866 1651.65 153.819 1646.24 150.729L1647.87 150.343C1643.54 156.909 1637.75 162.145 1631.18 165.578C1624.74 169.054 1616.76 170.342 1610.28 167.466C1597.28 162.188 1590.32 149.356 1590.41 138.455L1591.61 139.27C1584.27 141.716 1577.02 140.815 1571.44 138.669C1565.78 136.567 1561.66 133.176 1558.82 130.129C1555.99 126.996 1554.53 124.035 1553.67 122.018C1552.94 119.958 1552.69 118.799 1552.73 118.799C1553.07 118.627 1553.84 123.477 1559.51 129.485C1562.34 132.361 1566.42 135.494 1571.91 137.382C1577.28 139.313 1584.19 140.043 1591.01 137.639L1592.17 137.21V138.455C1592.25 148.626 1598.99 160.643 1611.09 165.406C1616.97 167.939 1624.01 166.78 1630.11 163.475C1636.2 160.214 1641.78 155.149 1645.81 148.969L1646.46 147.982L1647.49 148.54C1652.77 151.544 1658.39 154.42 1664.53 155.579C1670.62 156.78 1677.06 155.75 1682.89 152.918C1693.8 148.068 1701.73 138.498 1705.08 127.983L1705.94 125.322L1707.36 127.726C1710.49 133.09 1716.67 136.137 1722.59 136.438C1725.55 136.609 1728.56 136.137 1731.13 134.936C1733.66 133.777 1735.9 131.631 1738.26 129.872C1742.89 126.224 1747.18 122.49 1750.23 118.112C1753.41 113.821 1754.74 108.757 1754.01 104.036L1753.79 102.577L1755.21 102.92C1763.84 105.066 1772.25 103.65 1778.73 100.86C1785.38 98.1562 1790.23 94.0362 1793.62 90.3025C1800.36 82.5775 1801.3 76.4833 1801.69 76.6979V76.9125Z" fill="#020101"/>
<path d="M1742.07 375.823C1742.11 373.634 1727.52 374.064 1716.79 361.918C1706.02 349.773 1707.14 334.151 1705.12 334.108C1704.22 333.937 1702.37 337.67 1702.42 344.237C1702.42 350.674 1704.78 360.03 1711.34 367.497C1717.95 374.922 1726.54 377.926 1732.54 378.227C1738.68 378.57 1742.24 376.853 1742.11 375.866L1742.07 375.823Z" fill="#020101"/>
<path d="M618.575 1136.47C619.39 1138.49 644.582 1210.59 644.582 1210.59L537.419 1245.74L511.927 1159.48L618.575 1136.52V1136.47Z" fill="#FCC8CD"/>
<path d="M517.678 1189.86L516.434 1180.93C516.434 1180.93 387.77 1158.58 381.933 1126.47L616.429 1074.33L632.309 1165.74C593.212 1154.88 554.243 1162.01 517.678 1189.86Z" fill="#4008E2"/>
<path d="M616.438 1074.37L620.258 1096.34L391.212 1139.39C391.212 1139.39 382.671 1133 381.899 1126.51L616.395 1074.37H616.438Z" fill="white"/>
<path d="M512.613 1147.8C512.914 1147.72 513.858 1149.56 514.416 1152.91C514.974 1156.21 514.974 1160.98 513.6 1165.83C512.227 1170.68 509.781 1174.45 507.635 1176.64C505.489 1178.83 503.815 1179.6 503.644 1179.3C503.129 1178.62 508.665 1173.77 511.111 1164.8C513.772 1155.91 511.884 1147.97 512.613 1147.8Z" fill="white"/>
<path d="M525.705 1148.11C526.348 1147.85 528.452 1156.39 525.576 1166.09C522.829 1175.83 516.821 1180.94 516.435 1180.25C515.877 1179.61 520.598 1173.99 523.087 1165.06C525.705 1156.17 524.889 1148.19 525.705 1148.15V1148.11Z" fill="white"/>
<path d="M493.014 1145.4C493.572 1144.97 497.134 1151.28 496.963 1159.99C496.834 1168.7 493.1 1174.45 492.542 1173.94C491.856 1173.51 494.259 1167.63 494.345 1159.77C494.517 1151.92 492.328 1145.74 493.014 1145.4Z" fill="white"/>
<path d="M502.627 1176.82C502.798 1176.56 505.76 1179.13 508.378 1185.06C509.708 1187.97 510.867 1191.66 511.811 1195.74C512.283 1197.8 512.755 1199.95 513.184 1202.18C513.399 1203.29 513.699 1204.45 513.699 1205.91C513.699 1207.33 513.313 1209.09 512.025 1210.16C510.695 1211.36 508.592 1210.85 507.605 1209.82C506.532 1208.87 505.845 1207.72 505.33 1206.6C504.343 1204.5 503.571 1202.35 503.013 1200.25C501.897 1196.04 501.597 1192.14 501.726 1188.92C502.026 1182.44 503.7 1178.88 503.957 1179.05C504.386 1179.22 503.356 1182.91 503.571 1189C503.7 1192.05 504.172 1195.66 505.287 1199.48C505.845 1201.36 506.618 1203.34 507.562 1205.27C508.378 1207.11 509.88 1208.44 510.438 1207.72C511.382 1207.03 511.167 1204.97 510.695 1202.69C510.309 1200.55 509.88 1198.4 509.493 1196.34C508.678 1192.31 507.734 1188.79 506.704 1185.91C504.644 1180.16 502.283 1177.2 502.584 1176.86L502.627 1176.82Z" fill="white"/>
<path d="M501.156 1177.97C501.156 1177.97 501.413 1177.42 502.186 1176.73L502.787 1176.17V1177.2C502.787 1179.26 502.443 1183.42 500.726 1188.53C499.868 1191.06 498.709 1193.81 497.079 1196.51C496.263 1197.89 495.362 1199.22 494.375 1200.55C493.86 1201.19 493.259 1201.96 492.315 1202.52C491.371 1203.08 490.169 1203.29 488.924 1202.69C487.208 1201.92 486.693 1199.56 486.95 1198.27C487.079 1196.86 487.551 1195.87 487.851 1194.88C488.581 1192.87 489.439 1191.06 490.384 1189.39C492.229 1186.08 494.418 1183.51 496.435 1181.62C500.469 1177.89 503.645 1176.86 503.774 1177.16C503.988 1177.59 501.199 1179.26 497.722 1183.21C496.006 1185.18 494.117 1187.72 492.486 1190.89C491.671 1192.48 490.899 1194.2 490.298 1196.04C489.525 1197.93 489.353 1199.95 489.954 1199.95C491.285 1200.81 493.559 1196.99 495.061 1194.8C496.649 1192.31 497.851 1189.78 498.795 1187.46C500.727 1182.78 501.499 1178.92 502.014 1176.99L502.615 1177.46C501.713 1177.89 501.199 1178.06 501.156 1177.89V1177.97Z" fill="white"/>
<path d="M603.135 1506.16C600.903 1500.23 526.572 1218.14 526.572 1218.14L617.211 1206.56L656.137 1454.23L603.135 1506.2V1506.16Z" fill="#4008E2"/>
<path d="M728.953 1129.05C728.953 1131.24 724.104 1207.46 724.104 1207.46L611.705 1198.19L621.748 1108.79L728.91 1129.09L728.953 1129.05Z" fill="#FCC8CD"/>
<path d="M615.29 1139.05L617.608 1130.34C617.608 1130.34 507.784 1059.74 514.822 1027.9L751.164 1070.98L730.264 1161.37C698.463 1136.17 659.795 1127.59 615.29 1139.01V1139.05Z" fill="#4008E2"/>
<path d="M751.164 1070.98L746.143 1092.74L518.385 1043.39C518.385 1043.39 513.02 1034.16 514.822 1027.9L751.164 1070.98Z" fill="white"/>
<path d="M626.95 1098.28C627.25 1098.28 627.422 1100.38 626.649 1103.64C625.877 1106.91 624.031 1111.33 620.855 1115.23C617.679 1119.14 613.989 1121.67 611.156 1122.87C608.324 1124.07 606.478 1124.11 606.435 1123.77C606.221 1122.96 613.216 1120.64 618.967 1113.34C624.847 1106.18 626.22 1098.15 626.95 1098.28Z" fill="white"/>
<path d="M638.879 1103.64C639.566 1103.64 638.193 1112.31 631.798 1120.17C625.489 1128.06 617.936 1130.42 617.893 1129.65C617.636 1128.84 624.159 1125.49 629.953 1118.24C635.832 1111.07 638.192 1103.43 638.922 1103.64H638.879Z" fill="white"/>
<path d="M609.796 1088.45C610.482 1088.28 611.298 1095.45 607.779 1103.43C604.302 1111.41 598.595 1115.28 598.294 1114.59C597.822 1113.9 602.328 1109.44 605.461 1102.23C608.68 1095.06 609.066 1088.5 609.839 1088.45H609.796Z" fill="white"/>
<path d="M606.486 1121.15C606.743 1120.98 608.46 1124.5 608.589 1130.98C608.674 1134.2 608.331 1138.02 607.602 1142.18C607.258 1144.24 606.829 1146.43 606.357 1148.66C606.1 1149.74 605.928 1150.94 605.37 1152.27C604.855 1153.6 603.782 1155.06 602.194 1155.53C600.477 1156.13 598.761 1154.8 598.246 1153.47C597.645 1152.18 597.473 1150.85 597.43 1149.61C597.345 1147.29 597.431 1145.02 597.774 1142.87C598.375 1138.58 599.619 1134.84 600.993 1131.93C603.782 1126.05 606.7 1123.47 606.872 1123.69C607.215 1123.99 604.812 1127.03 602.623 1132.74C601.55 1135.57 600.563 1139.09 600.134 1143.08C599.92 1145.06 599.834 1147.16 599.962 1149.26C599.962 1151.32 600.864 1153.08 601.679 1152.66C602.795 1152.35 603.439 1150.38 603.868 1148.11C604.34 1145.96 604.812 1143.86 605.241 1141.8C606.057 1137.76 606.572 1134.16 606.743 1131.11C607.087 1125.02 606.057 1121.37 606.486 1121.2V1121.15Z" fill="white"/>
<path d="M604.683 1121.63C604.683 1121.63 605.112 1121.24 606.142 1120.9L606.915 1120.64L606.529 1121.58C605.713 1123.47 603.782 1127.2 600.22 1131.2C598.46 1133.21 596.271 1135.27 593.782 1137.16C592.495 1138.11 591.164 1139.01 589.748 1139.82C589.019 1140.25 588.16 1140.68 587.087 1140.85C586.014 1140.98 584.813 1140.72 583.911 1139.69C582.624 1138.32 583.096 1135.92 583.783 1134.89C584.47 1133.64 585.242 1132.87 585.929 1132.1C587.388 1130.55 588.89 1129.18 590.392 1128.02C593.396 1125.7 596.4 1124.16 598.975 1123.21C604.168 1121.33 607.473 1121.63 607.473 1121.97C607.473 1122.44 604.297 1122.91 599.533 1125.19C597.173 1126.3 594.426 1127.93 591.722 1130.21C590.349 1131.37 588.976 1132.66 587.688 1134.11C586.229 1135.53 585.328 1137.33 585.843 1137.55C586.744 1138.84 590.349 1136.22 592.538 1134.8C594.941 1133.13 597.044 1131.28 598.847 1129.48C602.409 1125.92 604.64 1122.66 605.885 1121.07L606.271 1121.75C605.241 1121.8 604.769 1121.75 604.726 1121.58L604.683 1121.63Z" fill="white"/>
<path d="M1112.98 1320.97C1112.98 1320.97 1031.96 1297.11 976.467 1296.64C921.018 1296.17 839.777 1348.74 839.777 1348.74L731.628 1373.5L729.696 1178.84L602.578 1174.29C602.578 1174.29 588.029 1407.75 593.651 1464.4C602.663 1555.47 656.652 1555.94 732.014 1556.59C807.375 1557.23 1110.92 1558.82 1110.92 1558.82L1112.98 1321.06V1320.97Z" fill="#4008E2"/>
<path d="M717.203 1415.04C718.019 1415.22 720.422 1406.03 724.886 1395.26C729.263 1384.49 734.07 1376.25 733.34 1375.82C732.739 1375.39 726.731 1383.11 722.225 1394.19C717.633 1405.26 716.474 1414.96 717.246 1415.09L717.203 1415.04Z" fill="#020101"/>
<path d="M592.545 1442.17C593.189 1442.17 595.935 1382.22 598.725 1308.23C601.515 1234.24 603.231 1174.24 602.588 1174.2C601.944 1174.2 599.197 1234.11 596.408 1308.14C593.618 1382.13 591.901 1442.13 592.545 1442.17Z" fill="#020101"/>
<path d="M1591.6 1253.77C1589.88 1239.82 1570.18 1189.61 1559.02 1170.38C1547.91 1151.15 1477.35 1151.45 1467.44 1170.08C1457.53 1188.71 1464.39 1196.69 1464.39 1196.69L1471.3 1199.26C1471.3 1199.26 1470.1 1219.48 1483.4 1215.01C1483.4 1215.01 1496.37 1232.65 1504.26 1229.35L1525.93 1252.87L1525.46 1363.85C1525.46 1363.85 1596.36 1295.87 1596.58 1294.11C1596.79 1292.35 1591.6 1253.73 1591.6 1253.73V1253.77Z" fill="#FCC8CD"/>
<path d="M1391.74 1199.53C1394.36 1200.04 1428.13 1215.7 1451.31 1250.68C1474.48 1285.66 1525.47 1363.9 1525.47 1363.9L1540.27 1279.61L1589.5 1244.72L1592.16 1253.34C1598.64 1283.13 1606.24 1325.96 1610.79 1361.58C1615.29 1396.9 1618.47 1433.29 1620.36 1454.24C1621.86 1471.27 1578.51 1501.62 1548.73 1505.86C1518.94 1510.11 1473.97 1463.25 1473.97 1463.25L1379.47 1347.29L1391.7 1199.53H1391.74Z" fill="#FCC8CD"/>
<path d="M1520.23 1351.4L1439.25 1427.02L1424.23 1398.57L1415.9 1210.81C1415.9 1210.81 1439.85 1229.22 1451.61 1246.82C1463.37 1264.45 1520.28 1351.36 1520.28 1351.36L1520.23 1351.4Z" fill="white"/>
<path d="M1522.98 1428.4C1523.67 1428.4 1523.32 1414.06 1524.05 1396.47C1524.74 1378.87 1526.28 1364.67 1525.6 1364.54C1525.3 1364.54 1524.52 1368.01 1523.71 1373.76C1522.89 1379.51 1522.12 1387.5 1521.74 1396.34C1521.39 1405.18 1521.52 1413.2 1521.82 1419C1522.16 1424.79 1522.64 1428.35 1522.94 1428.35L1522.98 1428.4Z" fill="#020101"/>
<path d="M1158.26 917.13C1164.53 895.028 1188.17 878.72 1212.04 880.05C1209.93 862.154 1218.99 843.485 1234.65 833.572C1250.32 823.615 1271.82 822.885 1288.21 831.683C1295.08 795.075 1327.74 764.304 1366.06 758.296C1404.39 752.288 1445.67 771.514 1464.39 804.131C1489.49 802.285 1515.2 814.517 1528.85 834.816C1542.49 855.116 1543.44 882.582 1531.25 903.654C1526.87 911.208 1520.99 917.989 1517.9 926.1C1512.88 939.232 1507.99 948.674 1509.41 962.622C1510.82 976.57 1511.12 1030 1500.35 1039.44L1260.75 1087.47C1250.88 1070.73 1240.96 1053.95 1231.09 1037.21C1214.14 1045.06 1191.65 1039.53 1180.71 1024.81C1169.81 1010.09 1171.74 987.942 1185.08 975.239C1163.8 964.81 1152 939.275 1158.26 917.173V917.13Z" fill="#020101"/>
<path d="M1261.05 886.273L1357.92 848.807C1407.44 834.344 1470.87 876.617 1482.98 928.159C1496.41 985.41 1509.84 1034.98 1510.57 1079.35C1512.03 1168.58 1431 1187.72 1431 1187.72L1439.03 1255.1L1275.99 1209.78L1239.42 1032.58L1212.9 976.097C1205.35 938.03 1225.73 899.963 1261.05 886.316V886.273Z" fill="#FCC8CD"/>
<path d="M1475.76 1011.07C1476.96 1016.91 1473.14 1022.79 1467.26 1024.16C1461.38 1025.54 1455.59 1021.97 1454.39 1016.09C1453.19 1010.26 1457 1004.38 1462.88 1003C1468.81 1001.63 1474.56 1005.24 1475.76 1011.07Z" fill="#020101"/>
<path d="M1476.53 978.968C1475.5 980.47 1467.43 975.878 1457.04 977.509C1446.61 978.968 1439.75 985.749 1438.42 984.59C1437.77 984.075 1438.67 981.5 1441.68 978.453C1444.64 975.406 1449.88 972.102 1456.36 971.115C1462.84 970.171 1468.63 971.844 1472.11 973.947C1475.63 976.05 1477.04 978.282 1476.53 978.968Z" fill="#020101"/>
<path d="M1381.7 1028.54C1382.9 1034.38 1379.08 1040.26 1373.2 1041.63C1367.32 1043 1361.53 1039.44 1360.32 1033.56C1359.12 1027.73 1362.94 1021.85 1368.82 1020.47C1374.74 1019.1 1380.5 1022.71 1381.7 1028.54Z" fill="#020101"/>
<path d="M1369.41 994.977C1368.38 996.479 1360.31 991.887 1349.93 993.518C1339.5 994.977 1332.63 1001.76 1331.3 1000.6C1330.66 1000.08 1331.56 997.509 1334.56 994.462C1337.53 991.415 1342.76 988.111 1349.24 987.123C1355.72 986.179 1361.52 987.853 1364.99 989.956C1368.51 992.059 1369.93 994.29 1369.41 994.977Z" fill="#020101"/>
<path d="M1417.4 1071.11C1417.27 1070.6 1424.31 1068.24 1435.86 1064.85C1438.78 1064.03 1441.52 1063.04 1441.78 1061.33C1442.21 1059.48 1440.58 1057.17 1438.69 1054.72C1435 1049.53 1431.14 1044.08 1427.06 1038.37C1422.72 1032.45 1400.67 998.541 1399.94 995.022C1401.18 994.378 1415.34 1012.79 1431.57 1036.09C1435.51 1041.84 1439.25 1047.34 1442.81 1052.62C1444.35 1055.11 1446.76 1057.77 1445.81 1061.59C1445.3 1063.52 1443.32 1065.19 1441.48 1065.96C1439.63 1066.78 1438 1067.12 1436.54 1067.47C1424.83 1070.21 1417.53 1071.63 1417.4 1071.11Z" fill="#020101"/>
<path opacity="0.2" d="M1431.6 1187.76C1431.6 1187.76 1375.47 1201.62 1313.28 1176.86C1313.28 1176.86 1350.83 1235.57 1433.92 1212.39L1431.64 1187.76H1431.6Z" fill="#F64C5D"/>
<path d="M1367.35 964.726C1366.62 968.674 1356.15 967.687 1344.18 970.734C1332.12 973.438 1322.72 979.103 1320.83 975.798C1319.97 974.211 1321.39 970.434 1325.04 966.357C1328.64 962.323 1334.65 958.246 1341.86 956.529C1349.07 954.812 1355.9 955.842 1360.53 957.945C1365.21 960.048 1367.7 962.881 1367.4 964.726H1367.35Z" fill="#020101"/>
<path d="M1473.53 941.075C1472.2 944.809 1463.1 943.65 1453.06 946.053C1442.97 948.071 1435.16 952.92 1432.41 950.088C1431.17 948.671 1431.73 945.152 1434.69 941.204C1437.61 937.256 1443.06 933.264 1450.01 931.762C1456.92 930.26 1463.57 931.591 1467.82 933.951C1472.15 936.311 1474.09 939.273 1473.57 941.075H1473.53Z" fill="#020101"/>
<path d="M1242.83 1036.44C1242.83 1036.44 1184.85 1026.44 1195.92 1079.06C1206.99 1131.71 1256.09 1109.57 1255.83 1108.02C1255.62 1106.48 1242.78 1036.44 1242.78 1036.44H1242.83Z" fill="#FCC8CD"/>
<path d="M1236.04 1091.5C1235.78 1091.37 1235.27 1092.36 1233.94 1093.39C1232.61 1094.42 1230.2 1095.45 1227.28 1094.98C1221.45 1094.12 1215.05 1086.31 1212.78 1076.86C1211.62 1072.1 1211.66 1067.34 1212.52 1063.17C1213.25 1058.97 1215.14 1055.75 1217.76 1054.68C1220.33 1053.43 1222.61 1054.68 1223.55 1056.05C1224.54 1057.38 1224.45 1058.5 1224.71 1058.54C1224.88 1058.63 1225.61 1057.42 1224.75 1055.32C1224.32 1054.33 1223.46 1053.22 1222.05 1052.45C1220.59 1051.67 1218.7 1051.54 1216.86 1052.19C1212.95 1053.35 1210.2 1057.85 1209.26 1062.4C1208.1 1066.99 1207.97 1072.4 1209.26 1077.77C1211.83 1088.28 1219.17 1097.08 1227.03 1097.64C1230.85 1097.81 1233.59 1096.05 1234.88 1094.46C1236.21 1092.83 1236.21 1091.58 1236 1091.5H1236.04Z" fill="#020101"/>
<path d="M1415.3 1097.77C1415.47 1098.2 1413.24 1099.83 1408.9 1100.6C1404.66 1101.41 1398.22 1101.07 1392.21 1097.72C1386.2 1094.38 1382.55 1089.05 1381.05 1085.02C1379.46 1080.9 1379.68 1078.15 1380.15 1078.11C1380.71 1077.98 1381.48 1080.43 1383.54 1083.82C1385.52 1087.21 1389.03 1091.5 1394.14 1094.38C1399.25 1097.25 1404.74 1097.98 1408.65 1097.89C1412.6 1097.89 1415.08 1097.25 1415.3 1097.77Z" fill="#020101"/>
<path d="M1480.66 862.495C1484.65 883.224 1472.46 905.927 1452.98 914.038C1433.49 922.15 1408.77 914.768 1396.93 897.344C1389.33 915.669 1372.29 929.789 1352.9 933.823C1333.5 937.9 1312.21 931.806 1297.92 918.072C1302.47 933.951 1303.46 951.805 1295.47 966.268C1287.49 980.731 1268.35 989.657 1253.59 982.276C1268.26 996.524 1275.35 1018.15 1272.04 1038.37C1270.37 1048.58 1263.71 1060.04 1253.37 1059.78C1243.67 1059.53 1237.66 1049.35 1233.63 1040.51C1217.24 1004.72 1200.54 965.109 1211.23 927.257C1220.5 894.425 1249.34 870.006 1281.01 857.388C1312.68 844.728 1347.32 842.067 1381.31 839.492" fill="#020101"/>
<path d="M1613.57 1462.9C1613.57 1462.9 1681.55 1435.69 1696.66 1428.87C1711.76 1422.04 1741.72 1438.52 1742.75 1446.64C1743.74 1454.75 1737.26 1459.34 1737.26 1459.34C1737.26 1459.34 1741.42 1476.76 1733.31 1483.07C1733.31 1483.07 1739.57 1502.81 1728.76 1509.68C1728.76 1509.68 1735.07 1523.63 1722.62 1536.29C1710.13 1548.91 1646.74 1547.23 1632.24 1545.95C1617.73 1544.66 1585.46 1545.73 1585.46 1546.2C1585.46 1546.67 1572.2 1466.03 1572.2 1466.03L1613.61 1462.9H1613.57Z" fill="#FCC8CD"/>
<path d="M1450.53 1406.68C1376.5 1494.19 1303.58 1539.94 1213.28 1555.09C1162.34 1563.67 1017.71 1565.47 1017.71 1565.47C987.801 1465.18 987.801 1380.63 1024.58 1301.15L1172.17 1296.04C1172.17 1296.04 1242.04 1201.28 1273.11 1195.75C1273.11 1195.75 1440.61 1242.31 1444.05 1260.98C1455.25 1321.84 1450.57 1406.64 1450.57 1406.64L1450.53 1406.68Z" fill="white"/>
<path d="M1295.87 1252.35C1336.08 1202.23 1417.45 1223.77 1426.93 1287.37C1427.06 1288.1 1427.15 1288.87 1427.23 1289.6C1437.28 1365.01 1442.04 1457.67 1442.04 1457.67L1611.95 1463.8L1619.59 1545.39C1619.59 1545.39 1397.62 1586.89 1355.13 1559.85C1312.65 1532.81 1315.65 1465.43 1304.15 1404.71C1294.02 1351.23 1285.09 1315.1 1283.85 1280.55C1283.51 1271.28 1288.44 1261.62 1295.87 1252.4V1252.35Z" fill="#FCC8CD"/>
<path d="M1148.27 1429.98C1148.7 1429.98 1149.39 1423.33 1150.63 1412.51C1151.83 1401.74 1153.64 1386.85 1156.21 1370.5C1158.79 1354.15 1161.62 1339.43 1163.77 1328.78C1165.91 1318.14 1167.28 1311.53 1166.86 1311.45C1166.51 1311.36 1164.41 1317.75 1161.75 1328.31C1159.09 1338.87 1155.91 1353.59 1153.34 1370.03C1150.76 1386.46 1149.26 1401.44 1148.57 1412.34C1147.89 1423.2 1147.89 1429.98 1148.27 1429.98Z" fill="#020101"/>
<path d="M1292.25 1251.75C1332.47 1201.62 1417.96 1222.78 1427.44 1286.34C1427.57 1287.07 1429.41 1297.67 1429.5 1298.44C1439.54 1373.84 1442.68 1406.72 1442.68 1406.72L1295.34 1430.49C1285.21 1377.02 1278.99 1334.15 1277.75 1299.6C1277.4 1290.33 1284.79 1260.97 1292.17 1251.75H1292.25Z" fill="white"/>
<path d="M1341.82 1224.54C1341.82 1224.54 1342.25 1224.63 1343.02 1224.63C1343.97 1224.63 1345.12 1224.63 1346.58 1224.63C1349.72 1224.76 1354.31 1224.2 1360.23 1225.1C1363.15 1225.53 1366.5 1225.49 1369.97 1226.56C1373.45 1227.46 1377.35 1228.06 1381.22 1229.82C1389.2 1232.48 1397.61 1237.55 1405.21 1244.97C1409.07 1248.62 1412.46 1253.08 1415.64 1257.89C1418.6 1262.87 1421.39 1268.27 1423.45 1274.2C1424.39 1277.16 1425.38 1280.25 1425.98 1283.38C1426.54 1286.6 1427.09 1289.86 1427.65 1293.21C1428.94 1299.86 1429.46 1306.81 1430.4 1313.89C1433.83 1342.35 1437.61 1373.72 1441.6 1406.9L1442.54 1405.65C1435.81 1406.72 1428.64 1407.88 1421.39 1409.04C1375.29 1416.55 1332.03 1423.55 1295.21 1429.55L1296.37 1430.37C1288.86 1391.49 1283.75 1358.87 1281.14 1335.87C1279.81 1324.37 1279.03 1315.31 1278.6 1309.13C1278.39 1306.17 1278.22 1303.81 1278.09 1302.05C1277.96 1300.46 1277.87 1299.65 1277.83 1299.65C1277.79 1299.65 1277.75 1300.46 1277.79 1302.09C1277.79 1303.68 1277.83 1306.08 1278 1309.17C1278.26 1315.4 1278.82 1324.45 1279.98 1336C1282.25 1359.04 1287.1 1391.79 1294.44 1430.71L1294.61 1431.66L1295.56 1431.49C1332.38 1425.61 1375.64 1418.65 1421.77 1411.27C1429.03 1410.11 1436.19 1408.96 1442.93 1407.84L1444 1407.67L1443.88 1406.59C1439.8 1373.42 1435.94 1342.01 1432.42 1313.55C1431.43 1306.47 1430.91 1299.52 1429.58 1292.82C1428.98 1289.48 1428.43 1286.17 1427.87 1282.95C1427.22 1279.65 1426.24 1276.56 1425.21 1273.51C1423.06 1267.46 1420.19 1261.97 1417.1 1256.9C1413.79 1251.97 1410.27 1247.46 1406.28 1243.77C1398.43 1236.26 1389.76 1231.24 1381.6 1228.62C1377.65 1226.9 1373.66 1226.34 1370.14 1225.49C1366.63 1224.5 1363.24 1224.59 1360.27 1224.24C1354.31 1223.47 1349.67 1224.16 1346.54 1224.16C1345.08 1224.24 1343.92 1224.29 1342.98 1224.37C1342.16 1224.41 1341.78 1224.46 1341.78 1224.5L1341.82 1224.54Z" fill="#020101"/>
<path d="M1475.43 1293.12C1475.04 1293.12 1474.83 1299.99 1473.76 1311.02C1472.68 1322.05 1470.54 1337.24 1466.46 1353.63C1462.34 1370.03 1457.15 1384.45 1452.9 1394.71C1448.65 1404.96 1445.65 1411.14 1445.95 1411.31C1446.08 1411.4 1446.98 1409.9 1448.52 1407.19C1450.07 1404.49 1452.08 1400.46 1454.4 1395.39C1459.04 1385.26 1464.57 1370.8 1468.69 1354.24C1472.81 1337.67 1474.74 1322.35 1475.39 1311.19C1475.73 1305.61 1475.82 1301.1 1475.73 1298.01C1475.69 1294.88 1475.56 1293.17 1475.39 1293.17L1475.43 1293.12Z" fill="#020101"/>
<path d="M1695.07 1431.4C1695.07 1431.4 1694.51 1431.49 1693.44 1431.83C1692.19 1432.26 1690.69 1432.77 1688.89 1433.42C1684.64 1434.96 1678.93 1437.06 1671.89 1439.64C1657.13 1445.22 1636.79 1452.94 1613.18 1461.87L1613.61 1461.78C1600.56 1461.36 1586.36 1460.93 1571.55 1460.45C1535.93 1459.51 1503.7 1458.61 1480.01 1458.01C1468.51 1457.79 1459.11 1457.66 1452.24 1457.54C1449.15 1457.54 1446.67 1457.54 1444.69 1457.54C1442.97 1457.54 1442.07 1457.62 1442.07 1457.71C1442.07 1457.79 1442.97 1457.88 1444.69 1458.01C1446.67 1458.14 1449.15 1458.27 1452.24 1458.44C1459.11 1458.74 1468.51 1459.17 1479.97 1459.64C1503.66 1460.45 1535.89 1461.57 1571.47 1462.77C1586.27 1463.2 1600.48 1463.63 1613.52 1464.02H1613.74L1613.95 1463.93C1637.47 1454.66 1657.69 1446.72 1672.41 1440.93C1679.36 1438.09 1684.98 1435.82 1689.19 1434.1C1690.95 1433.33 1692.41 1432.73 1693.61 1432.21C1694.59 1431.74 1695.11 1431.49 1695.11 1431.44L1695.07 1431.4Z" fill="#020101"/>
<path d="M1400.83 1513.2C1401.52 1513.5 1406.8 1498.43 1418.34 1482.81C1429.76 1467.1 1442.5 1457.53 1442.03 1456.97C1441.86 1456.76 1438.47 1458.86 1433.53 1463.03C1428.6 1467.19 1422.29 1473.54 1416.45 1481.48C1410.66 1489.42 1406.5 1497.4 1404.01 1503.32C1401.52 1509.29 1400.53 1513.15 1400.83 1513.24V1513.2Z" fill="#020101"/>
<path d="M1168.94 896.227C1168.94 896.227 1168.43 896.614 1167.57 897.515C1166.71 898.416 1165.59 899.789 1164.26 901.721C1161.65 905.54 1158.34 911.634 1156.62 919.874C1154.91 928.029 1154.91 938.5 1159.16 948.886C1163.28 959.186 1171.43 969.314 1182.85 975.409C1183.28 975.623 1183.7 975.881 1184.09 976.095L1183.7 974.336C1175.94 984.121 1170.66 996.051 1171.95 1007.3C1172.5 1012.79 1174.43 1017.94 1177.22 1021.97C1179.93 1026.05 1183.06 1029.35 1186.19 1032.06C1192.42 1037.51 1198.94 1040.13 1203.57 1040.47C1208.25 1040.86 1210.61 1039.57 1210.61 1039.57C1210.57 1039.27 1208.08 1040.21 1203.7 1039.57C1199.33 1038.97 1193.19 1036.26 1187.31 1030.81C1181.56 1025.45 1174.91 1017.68 1174.09 1007.08C1173.02 996.566 1178 985.279 1185.59 975.752L1186.45 974.679L1185.21 973.992C1184.82 973.778 1184.43 973.563 1184 973.348C1173.1 967.555 1165.25 957.899 1161.17 948.071C1157.01 938.157 1156.8 928.114 1158.3 920.175C1159.76 912.15 1162.72 906.098 1165.08 902.193C1167.44 898.287 1169.16 896.356 1168.98 896.185L1168.94 896.227Z" fill="#4008E2"/>
</svg>
