<svg width="299" height="217" viewBox="0 0 299 217" fill="none" xmlns="http://www.w3.org/2000/svg">
<path d="M81.5601 216.783C62.9996 215.585 45.364 209.49 31.1712 199.366C16.9785 189.243 6.95454 175.61 2.53052 160.413C-1.89349 145.217 -0.491284 129.234 6.53692 114.748C13.5651 100.261 25.8599 88.0106 41.6658 79.7463C45.029 57.7072 57.8328 37.4534 77.681 22.7751C97.5292 8.09678 123.062 0 149.5 0C175.938 0 201.471 8.09678 221.319 22.7751C241.167 37.4534 253.971 57.7072 257.334 79.7463C273.14 88.0106 285.435 100.261 292.463 114.748C299.491 129.234 300.893 145.217 296.469 160.413C292.045 175.61 282.021 189.243 267.829 199.366C253.636 209.49 236 215.585 217.44 216.783V217H81.5601V216.783ZM163.088 125.642H203.852L149.5 68.5436L95.1481 125.642H135.912V171.321H163.088V125.642Z" fill="url(#paint0_linear_531_15092)"/>
<defs>
<linearGradient id="paint0_linear_531_15092" x1="228.922" y1="-4.09094e-07" x2="234.506" y2="238.724" gradientUnits="userSpaceOnUse">
<stop stop-color="#5FBEF0"/>
<stop offset="1" stop-color="#4211E3"/>
</linearGradient>
</defs>
</svg>
