<svg width="48" height="64" viewBox="0 0 48 64" fill="none" xmlns="http://www.w3.org/2000/svg">
<path d="M23.2252 29.9322C23.4791 29.9322 23.7012 29.9642 23.9551 29.9642C32.1416 29.9642 38.7733 23.2344 38.7733 14.9982C38.7733 6.72997 32.1416 0 23.9551 0C15.7685 0 9.13672 6.72997 9.13672 14.9662C9.13672 22.9779 15.3243 29.5476 23.2252 29.9322Z" fill="#4008E2"/>
<path d="M0 53.84C0 40.3759 15.9749 33.6016 23.9749 33.6016C31.9749 33.6016 47.9498 40.4183 48 53.84V58.9208C48 61.7152 46.6458 64.0016 44.9906 64.0016H3.00941C1.35423 64.0016 0 61.7152 0 58.9208V53.84Z" fill="url(#paint0_linear_695_575)"/>
<defs>
<linearGradient id="paint0_linear_695_575" x1="-0.305998" y1="58.9492" x2="48.5753" y2="48.2956" gradientUnits="userSpaceOnUse">
<stop stop-color="#60C4F0"/>
<stop offset="1" stop-color="#4008E2"/>
</linearGradient>
</defs>
</svg>
