<svg width="505" height="408" viewBox="0 0 505 408" fill="none" xmlns="http://www.w3.org/2000/svg">
<path d="M62.045 270.737C75.6292 270.737 88.1598 265.951 98.3896 257.937V257.996C116.299 249.383 123.867 253.899 126.445 256.531L126.445 389.465C126.445 399.574 134.041 407.798 143.439 407.798L487.257 407.798C496.627 407.798 504.251 399.604 504.251 389.465L504.251 256.74C504.251 248.672 504.152 254.672 504.252 221.172L504.251 198.672L504.001 176.172L504.076 172.672L504.076 169.172V167.172L504.001 157.672C504.001 157.672 504.001 157.672 504.001 142.172L504.251 18.5944C504.251 8.48602 496.655 0.26181 487.257 0.26181L339.001 0.8573H333.001C332.501 0.8573 335.001 0.856812 311.001 0.8573H289.501H272.501H254.501C254.501 0.8573 234.501 0.8573 226.001 0.749115L143.467 0.26181C134.096 0.26181 126.473 8.45612 126.473 18.5944L126.473 150.333C116.493 162.834 96.8093 148.837 96.8093 148.837C86.9123 141.57 74.9638 137.323 62.0727 137.323C27.9182 137.323 0.250916 167.2 0.250916 204.015C0.250916 240.83 27.9459 270.707 62.0727 270.707L62.045 270.737Z" fill="#1D0466"/>
<path opacity="0.05" d="M193.276 407.172C193.276 407.172 194.527 319 267.701 287.828C340.847 256.656 329.508 202.463 310.582 157.735C291.657 113.007 173.1 0.171875 178.158 0.171875H251.36C251.36 0.171875 243.745 36.4499 299.216 109.275C354.714 182.099 372.75 241.726 342.292 275.616C311.833 309.505 223.541 323.061 253.805 407.082H185.69" fill="#E6E6E6"/>
<path d="M231.009 280.873C231.009 280.873 197.138 272.796 196.027 271.372L223.88 199.639C227.769 189.618 234.33 180.73 243.182 174.62C247.221 171.832 251.641 169.587 256.363 167.978C274.461 161.822 289.261 162.898 289.261 162.898L336.277 160.399C350.881 161.255 363.367 165.537 373.365 170.663C389.219 178.786 401.438 192.568 408.196 209.047L429.269 261.721L376.085 272.842L374.059 329.428L382.079 407.503H235.221L236.251 283.743L231.009 280.861V280.873Z" fill="#60C4F0"/>
<g opacity="0.3">
<path d="M201.826 262.012C201.779 262.174 210.562 265.032 221.451 268.411C232.341 271.79 241.205 274.394 241.251 274.232C241.297 274.07 232.514 271.212 221.625 267.833C210.736 264.454 201.872 261.85 201.826 262.012Z" fill="white"/>
</g>
<path d="M355.465 211.581C355.465 211.581 355.824 211.164 356.368 210.342C356.9 209.521 357.733 208.364 358.786 206.975C359.839 205.575 361.193 203.99 362.767 202.312C364.375 200.645 366.215 198.909 368.287 197.22C370.37 195.554 372.464 194.119 374.431 192.904C376.41 191.712 378.25 190.728 379.835 189.988C381.421 189.247 382.717 188.68 383.631 188.333C384.545 187.974 385.043 187.743 385.031 187.708C385.019 187.673 384.499 187.812 383.55 188.113C382.613 188.402 381.27 188.9 379.65 189.606C378.03 190.3 376.155 191.249 374.142 192.429C372.14 193.633 370.011 195.068 367.905 196.757C365.81 198.458 363.959 200.24 362.362 201.941C360.788 203.665 359.457 205.297 358.439 206.732C357.409 208.167 356.634 209.359 356.159 210.227C355.673 211.083 355.419 211.569 355.454 211.581H355.465Z" fill="#020101"/>
<path d="M362.396 228.696C362.234 228.707 363.866 245.996 366.053 267.276C368.24 288.58 370.149 305.822 370.311 305.799C370.473 305.787 368.842 288.51 366.643 267.207C364.456 245.915 362.547 228.661 362.385 228.684L362.396 228.696Z" fill="#020101"/>
<path d="M246.781 196.676C246.874 196.676 247.082 195.333 247.533 193.169C247.985 191.005 248.737 188.055 249.871 184.884C251.005 181.713 252.313 178.959 253.331 177.004C254.349 175.048 255.055 173.868 254.974 173.821C254.939 173.798 254.72 174.064 254.361 174.573C254.002 175.083 253.516 175.835 252.949 176.795C251.827 178.716 250.438 181.482 249.292 184.676C248.147 187.881 247.452 190.89 247.105 193.088C246.932 194.188 246.816 195.079 246.781 195.704C246.735 196.329 246.723 196.664 246.781 196.676Z" fill="#020101"/>
<path d="M243.842 257.092C243.842 257.092 243.981 256.49 244.131 255.391C244.281 254.292 244.455 252.706 244.64 250.728C245.022 246.793 245.427 241.331 245.635 235.302C245.844 229.262 245.832 223.8 245.728 219.842C245.67 217.864 245.612 216.267 245.543 215.156C245.473 214.057 245.415 213.443 245.381 213.443C245.334 213.443 245.311 214.057 245.311 215.167C245.311 216.382 245.311 217.956 245.311 219.854C245.311 223.812 245.253 229.262 245.045 235.291C244.837 241.32 244.501 246.759 244.224 250.704C244.096 252.591 243.981 254.164 243.9 255.379C243.83 256.479 243.807 257.092 243.853 257.104L243.842 257.092Z" fill="#020101"/>
<path d="M314.94 246.99C327.276 247.707 339.669 247.476 351.981 246.296V251.109H314.94V246.99Z" fill="white"/>
<g opacity="0.3">
<path d="M278.093 166.971C278.093 166.971 278.024 167.214 277.954 167.7C277.873 168.221 277.769 168.938 277.63 169.829C277.399 171.704 277.075 174.446 276.809 177.918C276.253 184.873 275.767 194.755 275.605 206.431V206.882L275.999 206.686C283.381 203.098 291.667 199.187 300.276 194.871C316.697 186.655 331.555 179.214 342.363 173.81C347.709 171.102 352.037 168.904 355.08 167.365C356.55 166.612 357.696 166.011 358.529 165.582C358.899 165.386 359.188 165.235 359.42 165.108C359.617 164.992 359.721 164.934 359.709 164.923C359.709 164.923 359.593 164.958 359.385 165.05C359.154 165.154 358.841 165.305 358.471 165.478C357.638 165.883 356.457 166.439 354.976 167.156C351.91 168.661 347.547 170.79 342.166 173.428C331.347 178.797 316.454 186.18 300.01 194.327C291.401 198.632 283.138 202.554 275.767 206.176L276.161 206.431C276.288 194.778 276.693 184.896 277.144 177.941C277.364 174.458 277.63 171.727 277.815 169.841C277.92 168.938 277.989 168.221 278.047 167.7C278.093 167.214 278.116 166.959 278.105 166.959L278.093 166.971Z" fill="white"/>
</g>
<g opacity="0.3">
<path d="M366.513 266.94C366.513 266.94 366.733 266.928 367.127 266.836C367.589 266.72 368.156 266.593 368.851 266.419C370.436 266.014 372.577 265.47 375.181 264.81C380.527 263.445 387.91 261.57 396.079 259.592C404.261 257.613 411.678 255.912 417.059 254.685C419.686 254.083 421.838 253.586 423.423 253.227C424.118 253.054 424.685 252.915 425.148 252.81C425.541 252.706 425.749 252.649 425.738 252.625C425.738 252.602 425.518 252.625 425.125 252.695C424.662 252.776 424.083 252.88 423.377 253.007C421.861 253.285 419.674 253.725 416.966 254.28C411.562 255.403 404.122 257.046 395.94 259.025C387.759 261.003 380.388 262.947 375.076 264.417C372.415 265.158 370.274 265.771 368.793 266.211C368.11 266.419 367.543 266.593 367.092 266.731C366.71 266.859 366.502 266.928 366.513 266.951V266.94Z" fill="white"/>
</g>
<path d="M284.562 158.212C284.504 158.038 281.38 159.716 278.313 164.252C275.293 168.777 272.47 175.812 270.873 183.889C270.086 187.94 269.692 191.851 269.519 195.403C269.496 197.185 269.438 198.875 269.496 200.46C269.577 202.046 269.6 203.515 269.739 204.858C269.878 206.177 270.016 207.392 270.132 208.468C270.283 209.521 270.456 210.424 270.595 211.164C270.873 212.645 271.058 213.444 271.139 213.432C271.22 213.421 271.185 212.588 271.058 211.095C270.989 210.319 270.908 209.417 270.803 208.387C270.746 207.311 270.676 206.119 270.595 204.8C270.514 203.469 270.537 202.011 270.503 200.449C270.503 198.886 270.584 197.209 270.63 195.461C270.861 191.955 271.278 188.102 272.053 184.121C273.615 176.171 276.288 169.216 279.031 164.715C280.408 162.47 281.854 160.85 282.884 159.808C283.926 158.767 284.609 158.293 284.562 158.212Z" fill="#020101"/>
<path d="M337.181 158.548C337.065 158.652 338.037 159.832 339.623 162.066C341.208 164.299 343.268 167.713 345.073 172.237C346.913 176.762 348.255 182.455 349.123 188.866C349.968 195.288 350.327 202.463 350.801 209.962C351.194 217.448 351.206 224.623 351.218 231.15C351.218 237.664 351.218 243.543 351.218 248.496C351.252 253.437 351.345 257.441 351.495 260.195C351.634 262.96 351.796 264.476 351.923 264.476C352.051 264.476 352.12 262.949 352.201 260.183C352.271 257.371 352.375 253.391 352.502 248.496C352.629 243.566 352.791 237.688 352.884 231.15C352.965 224.611 353 217.425 352.606 209.857C352.132 202.324 351.727 195.15 350.778 188.635C349.817 182.131 348.301 176.322 346.265 171.751C344.251 167.169 341.983 163.778 340.201 161.638C338.408 159.508 337.262 158.479 337.192 158.536L337.181 158.548Z" fill="#020101"/>
<path d="M259.372 255.288C259.453 255.288 259.534 253.922 259.604 251.469C259.673 249.004 259.731 245.452 259.777 241.043C259.801 238.833 259.812 236.426 259.835 233.845C259.882 231.265 259.789 228.476 259.986 225.629C260.206 222.806 260.935 219.82 262.937 217.552C264.892 215.272 267.901 213.733 271.095 213.699C274.289 213.641 277.355 215.006 279.623 217.008C281.926 219.01 283.21 221.776 283.928 224.518C284.645 227.272 284.946 230.038 285.374 232.584C285.779 235.13 286.161 237.513 286.497 239.689C287.191 244.028 287.781 247.546 288.209 249.965C288.638 252.383 288.915 253.725 288.996 253.714C289.077 253.702 288.962 252.348 288.672 249.895C288.383 247.454 287.932 243.924 287.342 239.562C287.041 237.375 286.717 234.991 286.358 232.433C285.976 229.876 285.71 227.122 284.992 224.229C284.275 221.371 282.91 218.316 280.398 216.117C277.957 213.93 274.624 212.426 271.072 212.484C267.519 212.53 264.186 214.254 262.046 216.777C259.812 219.322 259.072 222.62 258.875 225.548C258.701 228.511 258.829 231.253 258.829 233.845C258.863 236.426 258.886 238.833 258.91 241.043C258.967 245.44 259.037 249.004 259.118 251.469C259.199 253.934 259.28 255.288 259.361 255.288H259.372Z" fill="#020101"/>
<path d="M270.539 202.369C270.91 206.42 272.217 210.967 275.029 213.906C272.576 213.374 269.996 213.42 267.565 214.045C269.324 210.527 269.602 206.292 269.556 202.358" fill="#020101"/>
<path d="M259.338 228.695C259.558 228.73 259.685 226.751 261.178 224.101C261.918 222.782 263.006 221.336 264.545 220.074C266.049 218.801 268.028 217.772 270.238 217.366C272.46 216.985 274.659 217.297 276.51 217.991C278.362 218.674 279.878 219.681 280.989 220.699C283.245 222.736 283.974 224.587 284.171 224.483C284.275 224.472 283.824 222.435 281.579 220.086C280.468 218.929 278.894 217.76 276.904 216.961C274.925 216.151 272.506 215.758 270.03 216.186C267.565 216.637 265.413 217.818 263.828 219.241C262.207 220.653 261.108 222.273 260.425 223.719C259.048 226.647 259.234 228.718 259.349 228.707L259.338 228.695Z" fill="#020101"/>
<path d="M228.371 359.794C221.474 359.77 215.318 354.829 212.078 348.754C208.826 342.679 208.016 335.608 207.692 328.723C206.847 310.509 209.092 292.145 214.311 274.683L244.514 279.96L236.286 361.298L228.371 359.805V359.794Z" fill="#FCC8CD"/>
<path d="M350.522 369.919L252.185 366.331L228.336 251.111L331.915 256.862L350.522 369.919Z" fill="#020101"/>
<path d="M299.906 254.883L298.425 251.944L290.58 251.365C290.58 251.365 288.589 246.216 277.376 245.695C267.32 245.221 266.915 250.278 266.915 250.278H261.5V252.742L299.918 254.872L299.906 254.883Z" fill="#595959"/>
<path d="M245.083 332.786L237.63 330.611C236.23 330.206 234.749 330.136 233.314 330.426C231.567 330.773 229.958 331.618 228.697 332.867C226.232 335.298 222.251 339.313 221.684 340.505C220.851 342.252 220.851 345.284 221.684 346.406C222.518 347.529 219.856 353.257 220.192 355.166C220.527 357.076 221.025 358.997 221.684 359.783C222.356 360.582 221.684 363.301 223.351 365.373C225.017 367.432 226.51 368.705 226.51 368.705C226.51 368.705 246.98 369.666 248.982 368.705C250.984 367.745 254.479 364.088 254.479 364.088C254.479 364.088 256.307 360.744 253.484 360.42L265.137 355.953C266.537 355.421 267.37 353.859 266.826 352.459C266.641 351.973 266.317 351.556 265.796 351.336C265.796 351.336 271.027 349.681 272.242 349.149C274.66 348.084 275.574 342.449 270.575 343.178C267.925 343.56 264.361 344.335 264.361 344.335C264.361 344.335 266.271 341.222 263.597 339.382C261.977 338.26 254.687 339.625 254.687 339.625L245.106 332.786H245.083Z" fill="#FCC8CD"/>
<path d="M242.49 363.521C242.49 363.683 245.279 363.556 248.542 362.619C251.828 361.716 254.212 360.247 254.119 360.096C254.038 359.957 251.608 361.149 248.38 362.04C245.163 362.966 242.467 363.348 242.49 363.521Z" fill="#595959"/>
<path d="M246.933 356.242C246.98 356.404 251.226 355.455 256.434 354.124C261.641 352.793 265.83 351.59 265.784 351.428C265.738 351.266 261.491 352.215 256.283 353.545C251.076 354.876 246.887 356.08 246.933 356.242Z" fill="#595959"/>
<path d="M244.515 348.999C244.549 349.161 249.132 348.224 254.744 346.916C260.356 345.608 264.881 344.405 264.835 344.243C264.8 344.081 260.217 345.018 254.605 346.326C248.993 347.633 244.48 348.837 244.515 348.999Z" fill="#595959"/>
<path d="M236.935 339.672C236.912 339.753 237.918 340.065 239.562 340.505C240.453 340.736 241.425 340.979 242.455 341.246C243.01 341.385 243.577 341.523 244.167 341.674C244.792 341.836 245.463 341.905 246.134 341.859C246.806 341.824 247.454 341.685 248.055 341.547C248.645 341.408 249.212 341.28 249.779 341.153C250.809 340.91 251.781 340.667 252.684 340.459C254.339 340.042 255.345 339.753 255.334 339.66C255.322 339.568 254.269 339.73 252.603 340.042C251.7 340.216 250.717 340.412 249.664 340.609C248.553 340.806 247.349 341.165 246.111 341.257C244.873 341.361 243.727 340.922 242.605 340.713C241.563 340.493 240.58 340.285 239.677 340.088C238.011 339.753 236.969 339.579 236.946 339.66L236.935 339.672Z" fill="#595959"/>
<path d="M235.63 343.594C235.572 343.548 235.294 343.803 235.063 344.358C234.843 344.902 234.704 345.758 234.982 346.649C235.26 347.54 235.861 348.165 236.347 348.478C236.845 348.802 237.215 348.848 237.238 348.778C237.331 348.64 236.023 347.992 235.549 346.464C235.075 344.937 235.769 343.664 235.618 343.594H235.63Z" fill="#595959"/>
<path d="M236.044 351.497C235.893 351.428 235.43 352.249 235.5 353.372C235.558 354.494 236.113 355.258 236.252 355.177C236.402 355.096 236.148 354.321 236.101 353.337C236.044 352.353 236.206 351.555 236.044 351.486V351.497Z" fill="#595959"/>
<path d="M235.927 360.096C235.777 360.038 235.464 360.594 235.615 361.323C235.754 362.052 236.263 362.445 236.378 362.329C236.506 362.225 236.309 361.762 236.205 361.195C236.089 360.628 236.089 360.131 235.927 360.084V360.096Z" fill="#595959"/>
<path d="M233.695 339.198C233.706 339.279 234.458 339.232 235.662 339.094C236.345 339.001 237.051 338.92 237.768 338.816C238.566 338.688 239.388 338.561 240.279 338.688C241.078 338.804 241.864 339.29 242.501 339.695C243.137 340.123 243.704 340.609 244.237 340.922C245.313 341.57 246.111 341.628 246.123 341.57C246.158 341.466 245.417 341.269 244.468 340.575C243.531 339.915 242.362 338.526 240.349 338.098C239.863 338.04 239.4 338.029 238.948 338.064C238.474 338.11 238.092 338.202 237.687 338.272C236.969 338.411 236.275 338.538 235.592 338.677C234.401 338.92 233.683 339.117 233.695 339.198Z" fill="#595959"/>
<path d="M221.867 360.175C221.867 360.175 221.693 359.642 221.346 358.705C221.022 357.768 220.502 356.391 220.525 354.62C220.525 353.741 220.698 352.792 220.964 351.774C221.207 350.755 221.67 349.749 221.925 348.522C222.226 347.272 221.844 345.953 221.67 344.738C221.497 343.511 221.774 342.215 222.341 341.012C222.908 339.808 223.684 338.732 224.471 337.714C225.269 336.707 226.044 335.723 226.82 334.844C228.359 333.074 230.025 331.72 231.657 331.06C233.277 330.377 234.758 330.308 235.73 330.447C236.714 330.574 237.211 330.84 237.234 330.782C237.234 330.759 237.119 330.69 236.887 330.574C236.644 330.458 236.274 330.319 235.765 330.215C234.77 329.995 233.219 329.995 231.495 330.667C229.759 331.315 227.988 332.692 226.403 334.485C225.593 335.376 224.806 336.348 223.996 337.355C223.198 338.373 222.388 339.484 221.786 340.757C221.184 342.03 220.883 343.465 221.08 344.807C221.277 346.127 221.624 347.295 221.369 348.406C221.15 349.517 220.687 350.593 220.467 351.635C220.212 352.676 220.062 353.671 220.085 354.597C220.12 356.449 220.721 357.849 221.115 358.763C221.531 359.689 221.821 360.163 221.855 360.152L221.867 360.175Z" fill="#595959"/>
<path d="M290.709 303.173L371.446 315.994L367.859 273.85L412.757 265.171L418.219 327.554L419.168 341.857C419.805 351.543 415.373 360.87 407.446 366.482C400.248 371.585 391.06 372.974 382.659 370.243L365.313 364.584L280.7 334.486" fill="#FCC8CD"/>
<path d="M241.853 294.481C241.529 293.081 242.721 291.785 244.155 291.785C248.703 291.762 260.992 291.831 265.332 293.07C270.701 294.597 290.697 303.172 290.697 303.172L282.215 334.485L251.515 334.809C251.515 334.809 240.302 329.66 240.163 327.426C240.094 326.281 240.441 323.249 240.441 323.249L237.062 321.432C232.017 318.227 235.245 312.094 235.245 312.094C235.245 312.094 231.774 310.15 231.588 306.632C231.392 302.917 234.296 301.459 234.296 301.459C234.296 301.459 232.908 296.506 235.488 295.176C238.069 293.845 242.454 295.557 242.454 295.557C242.154 295.314 241.945 294.944 241.841 294.493L241.853 294.481Z" fill="#FCC8CD"/>
<path d="M240.083 295.002C240.083 295.002 240.407 295.152 241.02 295.337C241.634 295.511 242.548 295.719 243.67 295.904C245.927 296.309 249.063 296.645 252.523 297.015C255.983 297.386 259.095 297.814 261.294 298.346C263.504 298.867 264.743 299.55 264.789 299.457C264.812 299.422 264.511 299.226 263.944 298.913C263.365 298.624 262.509 298.265 261.398 297.93C259.188 297.27 256.052 296.784 252.581 296.402C249.121 296.032 245.985 295.754 243.728 295.465C241.472 295.187 240.094 294.898 240.071 294.99L240.083 295.002Z" fill="#595959"/>
<path d="M234.306 301.262C234.271 301.332 235.07 301.806 236.458 302.362C237.847 302.929 239.826 303.519 242.059 303.993C244.281 304.456 246.318 304.757 247.787 304.954C249.257 305.139 250.171 305.22 250.194 305.139C250.229 304.942 246.607 304.306 242.186 303.403C239.976 302.94 238.009 302.419 236.609 301.968C235.209 301.517 234.352 301.181 234.306 301.262Z" fill="#595959"/>
<path d="M235.187 312.14C235.129 312.279 237.999 313.529 241.759 314.373C245.52 315.23 248.645 315.345 248.656 315.195C248.668 315.021 245.601 314.64 241.887 313.795C238.172 312.962 235.244 311.978 235.175 312.152L235.187 312.14Z" fill="#595959"/>
<path d="M237.062 321.432C237.004 321.582 239.203 322.589 242.108 323.295C245.012 324.001 247.431 324.105 247.442 323.943C247.465 323.77 245.105 323.399 242.246 322.705C239.388 322.022 237.12 321.27 237.062 321.432Z" fill="#595959"/>
<path d="M253.079 315.877C253.056 315.946 253.392 316.155 254.017 316.213C254.63 316.27 255.533 316.132 256.343 315.565C257.141 314.998 257.569 314.188 257.72 313.586C257.87 312.984 257.789 312.591 257.72 312.591C257.558 312.544 257.384 314.095 256.007 315.079C254.618 316.062 253.114 315.715 253.102 315.877H253.079Z" fill="#595959"/>
<path d="M253.715 325.574C253.691 325.736 254.918 325.817 255.959 324.868C257.013 323.931 257.082 322.704 256.92 322.716C256.746 322.681 256.457 323.641 255.554 324.417C254.687 325.215 253.691 325.4 253.703 325.574H253.715Z" fill="#595959"/>
<path d="M257.281 305.879C257.212 306.041 258.068 306.307 258.855 305.705C259.642 305.115 259.619 304.224 259.445 304.247C259.271 304.224 259.075 304.814 258.496 305.231C257.941 305.671 257.316 305.717 257.293 305.879H257.281Z" fill="#595959"/>
<path d="M290.709 303.172C290.709 303.172 290.628 303.114 290.466 303.044C290.281 302.952 290.038 302.848 289.737 302.709C289.055 302.408 288.106 301.991 286.891 301.447C284.403 300.36 280.769 298.809 276.187 296.923C273.895 295.986 271.361 294.967 268.596 293.937C267.207 293.451 265.784 292.861 264.187 292.572C262.613 292.271 260.981 292.109 259.303 291.97C255.948 291.704 252.395 291.588 248.68 291.542C247.755 291.542 246.817 291.53 245.868 291.519C245.394 291.519 244.92 291.519 244.434 291.519C243.971 291.496 243.369 291.565 242.906 291.831C241.957 292.317 241.274 293.451 241.598 294.62C241.714 294.875 241.841 294.921 241.957 295.025C242.073 295.106 242.189 295.175 242.304 295.233C242.536 295.361 242.767 295.465 242.999 295.557C243.473 295.754 243.936 295.928 244.457 296.067C244.607 296.113 244.769 296.009 244.815 295.858C244.85 295.708 244.758 295.546 244.607 295.5C243.357 295.141 242.096 294.852 240.777 294.643C239.469 294.446 238.115 294.308 236.727 294.504C236.044 294.62 235.303 294.828 234.748 295.361C234.193 295.881 233.903 296.61 233.764 297.305C233.51 298.728 233.683 300.14 234.019 301.528L234.169 301.181C233.51 301.552 232.943 302.061 232.468 302.674C231.265 304.236 230.999 306.342 231.589 308.147C232.202 309.964 233.544 311.376 235.107 312.336L234.991 311.943C234.193 313.633 233.776 315.461 234.019 317.289C234.227 319.129 235.431 320.738 236.912 321.663H236.935C238.081 322.288 239.203 322.89 240.326 323.48L240.175 323.202C240.083 324.012 240.013 324.811 239.955 325.609C239.932 326.014 239.909 326.408 239.897 326.813C239.897 327.01 239.897 327.218 239.897 327.426C239.932 327.692 240.025 327.912 240.152 328.097C240.638 328.815 241.274 329.289 241.899 329.764C242.524 330.227 243.172 330.632 243.809 331.037C246.389 332.599 248.958 333.872 251.435 335.029C251.469 335.04 251.504 335.052 251.539 335.052C260.831 334.913 268.503 334.797 273.884 334.705C276.522 334.647 278.605 334.601 280.063 334.578C280.746 334.554 281.278 334.543 281.683 334.52C282.054 334.508 282.239 334.485 282.239 334.473C282.239 334.462 282.054 334.45 281.683 334.439C281.278 334.439 280.746 334.439 280.063 334.416C278.605 334.416 276.522 334.416 273.884 334.416C268.503 334.45 260.831 334.497 251.539 334.543L251.643 334.566C249.201 333.409 246.644 332.113 244.098 330.562C243.462 330.169 242.837 329.764 242.235 329.312C241.645 328.861 241.02 328.375 240.638 327.796C240.534 327.658 240.499 327.507 240.476 327.38C240.476 327.195 240.476 327.01 240.476 326.813C240.476 326.431 240.511 326.038 240.534 325.644C240.592 324.857 240.673 324.059 240.765 323.26C240.777 323.145 240.719 323.029 240.615 322.983C239.504 322.381 238.382 321.779 237.236 321.166H237.259C235.894 320.298 234.829 318.886 234.632 317.208C234.412 315.553 234.817 313.771 235.546 312.221C235.616 312.07 235.558 311.908 235.431 311.827C234.007 310.948 232.723 309.594 232.191 307.962C231.658 306.342 231.913 304.41 232.978 303.033C233.394 302.489 233.938 302.003 234.47 301.702C234.598 301.633 234.655 301.482 234.621 301.355C234.308 300.07 234.135 298.682 234.366 297.409C234.493 296.784 234.736 296.182 235.176 295.777C235.604 295.372 236.218 295.176 236.842 295.071C238.115 294.886 239.435 295.013 240.707 295.21C241.98 295.407 243.253 295.696 244.457 296.043L244.607 295.476C244.156 295.361 243.681 295.187 243.242 295.002C243.022 294.909 242.802 294.805 242.594 294.701C242.397 294.62 242.2 294.4 242.119 294.423C242.119 294.041 242.096 293.579 242.316 293.208C242.501 292.826 242.825 292.514 243.207 292.317C243.6 292.109 243.982 292.051 244.468 292.063C244.943 292.063 245.417 292.063 245.892 292.063C246.841 292.063 247.778 292.063 248.704 292.074C252.407 292.121 255.959 292.213 259.292 292.456C260.958 292.583 262.578 292.745 264.117 293.023C265.645 293.289 267.08 293.868 268.457 294.342C271.222 295.349 273.757 296.344 276.059 297.258C280.619 299.11 284.275 300.591 286.833 301.621C288.059 302.119 289.031 302.512 289.714 302.79C290.027 302.905 290.27 303.01 290.466 303.079C290.64 303.137 290.721 303.172 290.732 303.16L290.709 303.172Z" fill="#595959"/>
<path d="M371.124 315.924C371.02 316.086 374.306 317.683 377.095 321.073C379.93 324.429 380.891 327.959 381.076 327.878C381.145 327.866 380.995 326.963 380.474 325.598C379.953 324.232 378.993 322.416 377.558 320.691C376.123 318.967 374.515 317.694 373.265 316.942C372.015 316.178 371.159 315.878 371.124 315.935V315.924Z" fill="#595959"/>
<path d="M265.693 66.2767C267.36 45.0887 285.018 28.7377 306.276 28.6914H308.393C331.167 29.9759 342.808 50.0298 340.887 72.7569L336.952 163.885C336.883 165.412 335.98 166.778 334.592 167.426L283.479 191.414L285.053 143.588C285.053 143.588 263.159 140.232 262.835 118.338C262.685 107.762 264.143 85.9719 265.693 66.2651V66.2767Z" fill="#FCC8CD"/>
<path opacity="0.2" d="M284.867 143.564C284.867 143.564 298.846 144.375 313.53 135.117C313.53 135.117 306.819 150.878 284.971 148.957L284.867 143.564Z" fill="#F64C5D"/>
<path d="M273.448 79.8727C273.391 81.5275 274.745 82.9277 276.469 83.0202C278.193 83.1128 279.628 81.8515 279.686 80.1967C279.744 78.5419 278.39 77.1418 276.665 77.0492C274.941 76.9566 273.506 78.2295 273.448 79.8727Z" fill="#020101"/>
<path d="M270.416 76.9791C270.809 77.3841 273.17 75.6252 276.537 75.6252C279.893 75.5789 282.369 77.3031 282.728 76.8865C282.902 76.7014 282.508 75.9724 281.432 75.1855C280.367 74.4102 278.562 73.658 276.468 73.6696C274.373 73.6811 272.614 74.4565 271.596 75.2549C270.566 76.0534 270.219 76.794 270.404 76.9675L270.416 76.9791Z" fill="#020101"/>
<path d="M306.516 80.891C306.458 82.5458 307.812 83.946 309.536 84.0386C311.26 84.1311 312.695 82.8698 312.753 81.215C312.811 79.5603 311.457 78.1601 309.733 78.0675C308.009 77.9749 306.574 79.2478 306.516 80.891Z" fill="#020101"/>
<path d="M303.487 77.5344C303.881 77.9394 306.241 76.1805 309.609 76.1921C312.965 76.1458 315.441 77.87 315.8 77.4534C315.973 77.2683 315.591 76.5392 314.504 75.7524C313.439 74.9771 311.634 74.2249 309.539 74.2365C307.445 74.248 305.686 75.0233 304.668 75.8218C303.638 76.6202 303.291 77.3608 303.476 77.5344H303.487Z" fill="#020101"/>
<path d="M291.323 102.506C291.334 102.309 289.251 101.962 285.861 101.534C285.005 101.453 284.183 101.28 284.044 100.689C283.836 100.064 284.195 99.1387 284.611 98.1436C285.41 96.0606 286.254 93.8851 287.134 91.5939C290.64 82.2786 293.174 74.6181 292.804 74.4792C292.422 74.3403 289.275 81.781 285.768 91.1079C284.924 93.4107 284.114 95.5978 283.35 97.6923C283.026 98.6643 282.47 99.7752 282.91 101.06C283.141 101.696 283.778 102.171 284.322 102.309C284.877 102.471 285.352 102.483 285.78 102.506C289.194 102.68 291.3 102.691 291.323 102.506Z" fill="#020101"/>
<path d="M301.23 104.809C300.686 104.775 300.686 108.431 297.562 111.023C294.449 113.627 290.549 113.234 290.526 113.743C290.48 113.974 291.394 114.449 293.037 114.495C294.645 114.541 296.994 114.021 298.904 112.435C300.802 110.838 301.623 108.721 301.739 107.216C301.878 105.689 301.461 104.786 301.218 104.809H301.23Z" fill="#020101"/>
<path d="M302.584 64.3553C302.92 65.2695 306.276 64.8297 310.222 65.2926C314.179 65.6861 317.362 66.8317 317.882 66.0101C318.114 65.6166 317.558 64.7603 316.274 63.8693C315.001 62.9898 312.964 62.1567 310.592 61.8905C308.22 61.6359 306.056 62.0178 304.621 62.608C303.175 63.1981 302.446 63.9156 302.584 64.3437V64.3553Z" fill="#020101"/>
<path d="M271.63 67.2358C272.22 67.9996 274.534 67.2011 277.323 67.1548C280.112 67.016 282.473 67.6524 283.017 66.854C283.248 66.4605 282.878 65.6968 281.848 64.9793C280.83 64.2619 279.129 63.6717 277.219 63.7412C275.31 63.8106 273.643 64.5049 272.683 65.2918C271.699 66.0787 271.375 66.8655 271.642 67.2358H271.63Z" fill="#020101"/>
<path d="M337.601 88.9671C337.971 88.8051 352.632 84.4888 352.181 99.4512C351.73 114.414 336.802 110.884 336.791 110.456C336.779 110.028 337.601 88.9671 337.601 88.9671Z" fill="#FCC8CD"/>
<path d="M340.216 104.925C340.286 104.879 340.471 105.111 340.911 105.33C341.339 105.539 342.068 105.701 342.855 105.423C344.452 104.891 345.863 102.414 346.014 99.7297C346.095 98.3642 345.84 97.0682 345.4 95.9804C344.972 94.8695 344.289 94.0827 343.503 93.9206C342.716 93.7124 342.137 94.1752 341.94 94.5918C341.732 95.0084 341.813 95.3093 341.732 95.3324C341.686 95.3671 341.42 95.0662 341.559 94.4529C341.628 94.1521 341.813 93.8049 342.172 93.5272C342.542 93.2495 343.074 93.1106 343.63 93.1916C344.787 93.3073 345.794 94.3951 346.28 95.5986C346.835 96.802 347.148 98.2717 347.055 99.7991C346.87 102.808 345.238 105.585 343.063 106.152C341.998 106.395 341.13 106.048 340.691 105.689C340.239 105.307 340.17 104.972 340.228 104.949L340.216 104.925Z" fill="#F64C5D"/>
<path d="M327.788 44.4855L265.381 45.8626C267.325 41.5578 270.785 38.1095 274.546 35.2628C282.658 29.1182 292.621 25.2763 302.804 25.0912C312.976 24.9176 333.701 37.311 341.072 44.3235C346.974 49.9358 346.939 54.796 346.939 54.796C347.876 62.8847 343.352 72.0843 341.547 80.0341C340.621 84.1306 338.827 96.524 338.827 96.524C335.39 96.5124 334.117 93.7699 334.638 90.3793L335.286 77.037C335.286 77.037 323.587 68.7285 329.13 53.5115C330.021 52.2965 331.919 46.742 327.799 44.4855H327.788Z" fill="#020101"/>
<path d="M314.686 91.8138C314.882 91.8485 315.079 91.7096 315.125 91.4898C315.172 91.2699 315.044 91.0616 314.836 91.0153C314.639 90.9806 314.443 91.1195 314.396 91.3393C314.35 91.5592 314.477 91.7675 314.686 91.8138Z" fill="#F64C5D"/>
<path d="M308.252 90.3682C308.449 90.4029 308.657 90.2409 308.704 89.9863C308.75 89.7317 308.634 89.5003 308.426 89.454C308.229 89.4193 308.021 89.5813 307.975 89.8359C307.928 90.0905 308.044 90.3219 308.252 90.3682Z" fill="#F64C5D"/>
<path d="M303.924 90.2631C304.133 90.2862 304.329 90.0432 304.364 89.7076C304.41 89.3721 304.272 89.0828 304.075 89.0596C303.867 89.0365 303.67 89.2795 303.635 89.6151C303.589 89.9507 303.728 90.2399 303.924 90.2631Z" fill="#F64C5D"/>
<path d="M311.54 95.8523C311.748 95.8523 311.91 95.7481 311.91 95.6092C311.91 95.482 311.748 95.3778 311.54 95.3778C311.332 95.3778 311.17 95.482 311.17 95.6208C311.17 95.7481 311.332 95.8523 311.54 95.8523Z" fill="#F64C5D"/>
<path d="M305.637 94.4991C305.845 94.5223 306.018 94.3371 306.042 94.1057C306.065 93.8742 305.914 93.6775 305.706 93.6544C305.498 93.6428 305.324 93.8164 305.301 94.0478C305.278 94.2792 305.428 94.476 305.637 94.4991Z" fill="#F64C5D"/>
<path d="M274.959 90.8998C275.156 90.9345 275.364 90.7841 275.399 90.5642C275.445 90.3328 275.318 90.1245 275.121 90.0782C274.924 90.0435 274.716 90.194 274.681 90.4138C274.635 90.6453 274.762 90.8535 274.959 90.8998Z" fill="#F64C5D"/>
<path d="M270.575 90.5063C270.783 90.5295 270.968 90.3327 270.992 90.0782C271.015 89.8236 270.876 89.5922 270.668 89.5806C270.459 89.5574 270.274 89.7542 270.251 90.0087C270.228 90.2633 270.367 90.4948 270.575 90.5063Z" fill="#F64C5D"/>
<path d="M278.824 90.9923C279.021 91.0271 279.218 90.9229 279.252 90.7493C279.287 90.5758 279.148 90.4022 278.952 90.3559C278.755 90.3212 278.558 90.4253 278.523 90.5989C278.489 90.7725 278.628 90.9461 278.824 90.9923Z" fill="#F64C5D"/>
<path d="M275.584 95.39C275.769 95.471 276 95.3669 276.093 95.147C276.186 94.9272 276.116 94.6842 275.931 94.6032C275.746 94.5222 275.514 94.6263 275.422 94.8462C275.329 95.066 275.399 95.309 275.584 95.39Z" fill="#F64C5D"/>
<path d="M271.848 94.6495C272.044 94.5917 272.172 94.4181 272.125 94.2445C272.079 94.0825 271.882 93.9899 271.686 94.0362C271.489 94.0941 271.362 94.2677 271.408 94.4297C271.454 94.5917 271.651 94.6842 271.848 94.6379V94.6495Z" fill="#F64C5D"/>
<path d="M341.484 45.1675C343.081 39.7056 341.484 33.6188 337.978 29.129C334.471 24.6507 328.732 22.0007 323.05 22.2322C320.134 22.3479 317.241 23.181 314.336 22.857C308.932 22.2669 304.778 17.939 299.768 15.8329C291.968 12.5581 282.039 15.5321 277.33 22.5677C275.432 25.4028 274.182 28.9091 271.278 30.6911C268.767 32.2302 265.596 32.1029 262.772 32.9592C257.056 34.6834 253.145 40.7471 253.446 46.7065C253.746 52.666 257.912 58.1164 263.409 60.4539C268.905 62.7914 275.444 62.1318 280.651 59.2388C285.361 56.6236 289.573 52.1453 294.965 52.3073C300.543 52.4693 305.415 57.7345 310.888 56.6352C313.758 56.0681 315.968 53.8579 318.074 51.8213C320.18 49.7846 322.599 47.7133 325.515 47.5397C328.431 47.3661 329.958 51.3816 328.917 54.1125L341.495 45.1675" fill="#020101"/>
<path d="M266.594 37.9354C266.594 37.9354 266.617 38.0164 266.698 38.1552C266.779 38.2941 266.883 38.5024 267.056 38.757C267.392 39.2777 267.959 40.0067 268.85 40.7936C269.73 41.5689 270.968 42.3905 272.565 42.946C274.15 43.5014 276.14 43.7329 278.223 43.2816C280.295 42.8418 282.493 41.7541 284.194 39.8794C285.895 38.0048 286.914 35.5053 288.499 33.3067C289.286 32.2073 290.281 31.2122 291.519 30.5757C292.769 29.9508 294.204 29.6384 295.662 29.6615C297.12 29.6962 298.59 30.0897 299.909 30.8071C301.228 31.5477 302.304 32.6471 303.045 34.0241C303.797 35.3896 304.341 36.9055 305.243 38.2362C306.111 39.5901 307.627 40.6085 309.236 40.6663C310.844 40.7589 312.325 40.1572 313.587 39.405C314.871 38.6528 315.936 37.6461 316.896 36.6625C318.817 34.7184 320.727 32.7859 323.087 32.2536C325.425 31.6982 327.716 32.5545 329.359 33.7232C331.037 34.9267 332.113 36.512 332.808 37.9817C333.502 39.4744 333.861 40.8515 334.092 41.9971C334.323 43.1427 334.428 44.0337 334.509 44.647C334.578 45.2603 334.613 45.5843 334.636 45.5728C334.636 45.5728 334.647 45.4918 334.647 45.3298C334.647 45.1678 334.647 44.9363 334.624 44.6239C334.59 44.0106 334.52 43.0964 334.323 41.9392C334.127 40.782 333.791 39.3703 333.108 37.8312C332.426 36.3038 331.338 34.6374 329.614 33.3645C327.924 32.1263 325.517 31.1774 322.983 31.7445C320.426 32.2999 318.435 34.325 316.514 36.2459C315.542 37.2179 314.524 38.1784 313.297 38.8843C312.094 39.5901 310.694 40.134 309.27 40.0414C307.847 39.972 306.54 39.1157 305.73 37.8544C304.885 36.6162 304.341 35.1234 303.566 33.6885C302.802 32.242 301.598 31.0154 300.198 30.2401C298.786 29.4764 297.224 29.0598 295.674 29.0251C294.123 29.0019 292.595 29.326 291.253 30.0203C289.911 30.7146 288.858 31.8023 288.048 32.9364C286.416 35.2276 285.444 37.7039 283.824 39.5091C282.227 41.3028 280.133 42.379 278.131 42.8187C276.129 43.2816 274.208 43.0848 272.669 42.5757C271.107 42.0665 269.892 41.3028 269 40.5737C267.218 39.0694 266.663 37.8428 266.594 37.9007V37.9354Z" fill="#595959"/>
<path d="M255.288 38.1548C255.288 38.1548 255.115 38.5714 255.034 39.3583C254.953 40.1451 254.987 41.3139 255.346 42.7025C255.716 44.0796 256.457 45.6533 257.684 47.1114C258.91 48.5694 260.623 49.8307 262.613 50.6986C266.652 52.4691 270.748 52.3071 273.502 51.9252C274.902 51.7285 276.013 51.4739 276.777 51.2772C277.541 51.0805 277.946 50.9301 277.934 50.8953C277.911 50.7912 276.222 51.2194 273.456 51.5087C270.714 51.7748 266.744 51.8558 262.868 50.1548C260.947 49.31 259.292 48.1181 258.112 46.7526C256.92 45.3872 256.168 43.8944 255.763 42.5868C254.941 39.9253 255.427 38.1548 255.288 38.1548Z" fill="#595959"/>
<path d="M361.781 279.265C361.573 281.765 360.497 284.01 359.154 285.745C357.812 287.481 355.093 289.182 352.906 289.067C352.906 289.067 347.444 289.529 344.493 284.843C341.831 280.596 341.172 271.767 343.313 266.548C344.782 262.961 348.08 259.616 351.968 259.535C357.06 259.42 360.254 263.099 361.342 266.814" fill="#D9D9D9"/>
<path d="M361.341 266.813C361.341 266.813 361.225 265.841 360.404 264.314C359.987 263.562 359.385 262.671 358.494 261.814C357.615 260.958 356.4 260.16 354.896 259.697C354.143 259.477 353.333 259.326 352.477 259.315C351.632 259.269 350.707 259.373 349.827 259.662C348.057 260.229 346.413 261.456 345.106 263.053C343.787 264.638 342.803 266.651 342.328 268.838C341.831 271.026 341.68 273.34 341.808 275.701C342.039 279.323 342.757 282.933 344.759 285.687C345.777 287.041 347.166 288.013 348.6 288.58C350.047 289.159 351.528 289.378 352.951 289.309H352.917C354.085 289.355 355.127 288.973 356.03 288.534C356.932 288.071 357.719 287.515 358.379 286.902C359.686 285.641 360.415 284.252 360.936 283.095C361.434 281.926 361.642 280.954 361.746 280.283C361.792 279.947 361.815 279.693 361.815 279.519C361.815 279.346 361.815 279.253 361.815 279.253C361.723 279.23 361.734 280.711 360.681 282.979C360.138 284.079 359.385 285.444 358.112 286.601C357.476 287.18 356.712 287.701 355.844 288.129C354.976 288.534 353.981 288.869 352.951 288.811H352.928C350.325 288.904 347.154 287.897 345.233 285.328C343.37 282.748 342.653 279.207 342.421 275.654C342.178 271.072 342.942 266.466 345.545 263.4C346.784 261.861 348.346 260.692 350.001 260.136C350.822 259.859 351.667 259.755 352.477 259.778C353.299 259.778 354.074 259.917 354.791 260.113C356.226 260.518 357.407 261.259 358.286 262.069C359.177 262.867 359.79 263.724 360.219 264.441C361.086 265.899 361.295 266.848 361.364 266.825L361.341 266.813Z" fill="#020101"/>
<path d="M364.486 279.485C364.278 281.985 363.202 284.23 361.86 285.965C360.517 287.701 357.798 289.402 355.611 289.286C355.611 289.286 350.149 289.749 347.198 285.063C344.537 280.816 343.877 271.987 346.018 266.768C347.487 263.18 350.785 259.836 354.673 259.755C359.765 259.639 362.959 263.319 364.047 267.034" fill="#D9D9D9"/>
<path d="M364.047 267.045C364.047 267.045 363.931 266.073 363.11 264.545C362.693 263.793 362.091 262.902 361.2 262.046C360.321 261.19 359.106 260.391 357.602 259.928C356.849 259.708 356.039 259.558 355.183 259.546C354.338 259.5 353.413 259.604 352.533 259.894C350.763 260.461 349.119 261.687 347.812 263.284C346.493 264.869 345.509 266.883 345.035 269.07C344.537 271.257 344.387 273.571 344.514 275.932C344.745 279.554 345.463 283.165 347.465 285.919C348.483 287.273 349.872 288.245 351.306 288.812C352.753 289.39 354.234 289.61 355.657 289.541H355.623C356.792 289.587 357.833 289.205 358.736 288.765C359.638 288.302 360.425 287.747 361.085 287.134C362.392 285.884 363.121 284.484 363.642 283.327C364.14 282.158 364.348 281.186 364.452 280.515C364.498 280.179 364.521 279.924 364.521 279.751C364.521 279.577 364.521 279.485 364.521 279.485C364.429 279.462 364.441 280.943 363.387 283.211C362.844 284.31 362.091 285.676 360.819 286.833C360.182 287.411 359.418 287.932 358.55 288.36C357.683 288.765 356.687 289.101 355.657 289.043H355.634C353.031 289.136 349.86 288.129 347.939 285.56C346.076 282.979 345.359 279.438 345.127 275.886C344.884 271.303 345.648 266.698 348.252 263.631C349.49 262.092 351.052 260.923 352.707 260.368C353.528 260.09 354.373 259.986 355.183 260.009C356.005 260.009 356.78 260.148 357.497 260.345C358.932 260.75 360.113 261.491 360.992 262.301C361.883 263.099 362.496 263.955 362.925 264.673C363.792 266.131 364.001 267.08 364.07 267.057L364.047 267.045Z" fill="#020101"/>
<path d="M359.581 265.736C362.115 265.227 364.719 266.974 365.795 269.312C366.871 271.661 366.628 274.427 365.783 276.868C365.355 278.107 364.754 279.31 363.851 280.27C362.948 281.231 361.71 281.914 360.403 281.948C358.482 282.006 356.746 280.687 355.623 279.125C353.818 276.602 353.205 273.258 353.992 270.249C354.524 268.247 355.994 266.188 358.065 266.13" fill="#D9D9D9"/>
<path d="M358.066 266.143C358.066 266.143 357.904 266.108 357.603 266.131C357.302 266.166 356.851 266.27 356.353 266.56C355.335 267.127 354.178 268.515 353.703 270.54C353.217 272.531 353.263 275.123 354.421 277.622C354.999 278.86 355.821 280.087 357.013 281.024C358.17 281.962 359.859 282.563 361.479 282.089C363.076 281.638 364.291 280.457 365.043 279.173C365.807 277.877 366.247 276.511 366.525 275.181C367.08 272.519 366.629 269.881 365.367 268.191C364.129 266.49 362.463 265.773 361.329 265.622C360.762 265.53 360.311 265.576 360.01 265.622C359.709 265.68 359.558 265.726 359.57 265.75C359.57 265.819 360.206 265.634 361.294 265.854C362.359 266.062 363.909 266.803 365.02 268.434C366.154 270.031 366.536 272.519 365.981 275.065C365.703 276.338 365.252 277.669 364.534 278.872C363.817 280.064 362.718 281.117 361.306 281.51C359.906 281.915 358.447 281.418 357.36 280.562C356.26 279.705 355.462 278.548 354.907 277.391C353.784 275.03 353.68 272.554 354.108 270.633C354.502 268.7 355.543 267.335 356.457 266.756C357.383 266.155 358.066 266.212 358.054 266.143H358.066Z" fill="#020101"/>
<path d="M353.75 284.761C353.843 284.784 353.97 284.402 354.363 283.928C354.745 283.465 355.451 282.944 356.342 282.667C357.245 282.389 358.124 282.343 358.772 282.285C359.42 282.238 359.825 282.181 359.825 282.1C359.825 282.019 359.432 281.926 358.772 281.857C358.113 281.799 357.175 281.776 356.157 282.088C355.139 282.4 354.363 283.072 354.016 283.685C353.657 284.298 353.681 284.75 353.75 284.761Z" fill="#020101"/>
<path d="M352.837 264.163C352.837 264.163 353.01 264.58 353.554 265.008C354.086 265.436 354.954 265.888 355.996 266.073C357.037 266.258 358.009 266.142 358.657 265.922C359.305 265.714 359.652 265.448 359.618 265.39C359.56 265.216 358.021 265.841 356.1 265.483C354.179 265.159 352.952 264.036 352.837 264.175V264.163Z" fill="#020101"/>
</svg>
