<svg width="140" height="216" viewBox="0 0 140 216" fill="none" xmlns="http://www.w3.org/2000/svg">
<path d="M54.3783 32.165C54.1483 32.0757 45.2388 29.7397 45.7816 38.739C46.3181 47.7447 55.2532 45.3449 55.2532 45.0832C55.2532 44.8215 54.3783 32.1586 54.3783 32.1586V32.165Z" fill="#FCC8CD"/>
<path d="M52.2963 41.8407C52.258 41.8152 52.143 41.962 51.8875 42.096C51.6384 42.2301 51.1978 42.3386 50.7187 42.1918C49.748 41.8982 48.8538 40.4366 48.7133 38.8154C48.643 37.9985 48.7644 37.207 49.0199 36.5432C49.2562 35.8667 49.6521 35.3816 50.1312 35.2667C50.6038 35.1263 50.955 35.3944 51.0828 35.6433C51.2169 35.8858 51.1722 36.0709 51.2233 36.0837C51.2488 36.1028 51.4085 35.9241 51.3127 35.5539C51.2616 35.3752 51.1466 35.171 50.9231 35.0114C50.6996 34.8519 50.3738 34.7753 50.0417 34.8327C49.352 34.9221 48.7644 35.5986 48.4834 36.3262C48.1704 37.0602 48.0107 37.9474 48.0874 38.8665C48.2534 40.6791 49.2817 42.3194 50.6102 42.6194C51.2552 42.747 51.7726 42.5237 52.0344 42.2939C52.3027 42.0577 52.3346 41.8535 52.3027 41.8343L52.2963 41.8407Z" fill="#F64C5D"/>
<path d="M76.875 0.00292969C81.4543 0.00292969 86.1103 0.00293121 91.8456 2.99633C95.4605 4.87917 97.7151 7.87257 99.5992 11.4851C101.043 14.2487 101.892 17.874 101.726 20.9886C101.56 24.1033 101.547 26.2797 100.302 29.1391" fill="#020101"/>
<path d="M75.0387 0.705242C88.585 -0.23937 100.286 10.0875 100.995 23.644C101.582 34.9219 102.106 47.1253 101.978 53.2652C101.71 66.4515 88.4956 68.3918 88.4956 68.3918C88.4956 68.3918 88.7894 72.3043 89.1151 77.1486C89.773 86.9139 82.2238 95.3005 72.4329 95.6707C62.8335 96.0345 54.7606 88.5478 54.4093 78.9549L52.4486 25.8141C51.9632 12.7235 61.9585 1.60518 75.0387 0.692479V0.705242Z" fill="#FCC8CD"/>
<path opacity="0.2" d="M88.5012 68.3922C88.5012 68.3922 80.3899 68.8135 71.5762 63.1777C71.5762 63.1777 75.5679 72.7707 88.7439 71.6856L88.5075 68.3859L88.5012 68.3922Z" fill="#F64C5D"/>
<path d="M95.9382 30.9773C95.9637 31.973 95.1462 32.8155 94.1052 32.8601C93.0705 32.9048 92.2019 32.1389 92.1764 31.1496C92.1508 30.154 92.9683 29.3115 94.003 29.2604C95.044 29.2157 95.9063 29.9816 95.9318 30.9773H95.9382Z" fill="#020101"/>
<path d="M97.7706 28.3153C97.5343 28.5578 96.1164 27.4919 94.0854 27.4792C92.0608 27.4409 90.5663 28.4685 90.3492 28.2195C90.2406 28.111 90.4833 27.6707 91.1347 27.1983C91.7798 26.7324 92.8656 26.2856 94.1301 26.3048C95.3947 26.3239 96.4549 26.7962 97.0553 27.2749C97.6748 27.76 97.8856 28.2004 97.7642 28.3153H97.7706Z" fill="#020101"/>
<path d="M76.0554 30.9768C76.0809 31.9725 75.2634 32.815 74.2224 32.8597C73.1877 32.9043 72.3191 32.1384 72.2936 31.1491C72.268 30.1535 73.0855 29.311 74.1266 29.2599C75.1676 29.2152 76.0298 29.9811 76.0554 30.9768Z" fill="#020101"/>
<path d="M77.8395 28.5325C77.6032 28.775 76.1853 27.7091 74.1543 27.6964C72.1297 27.6581 70.6352 28.6857 70.4117 28.4367C70.3031 28.3282 70.5458 27.8879 71.1972 27.4219C71.8359 26.956 72.9281 26.5092 74.1926 26.522C75.4572 26.5411 76.511 27.0134 77.1242 27.4921C77.7437 27.9772 77.9481 28.424 77.8331 28.5325H77.8395Z" fill="#020101"/>
<path d="M85.0743 43.6202C85.0679 43.5053 86.3261 43.2947 88.3699 43.0522C88.8872 43.0011 89.379 42.9054 89.4684 42.5543C89.5962 42.1842 89.379 41.6225 89.1363 41.0162C88.6573 39.7588 88.1591 38.444 87.6354 37.0654C85.5533 31.436 84.0524 26.8151 84.276 26.7321C84.5059 26.6491 86.3772 31.1424 88.4593 36.7718C88.9575 38.1568 89.4365 39.4844 89.8963 40.7481C90.0879 41.3353 90.4201 42.0054 90.1518 42.7777C90.0113 43.1607 89.6281 43.4415 89.296 43.5245C88.9639 43.6202 88.6701 43.6266 88.4146 43.6394C86.3581 43.7351 85.0807 43.7351 85.0743 43.6202Z" fill="#020101"/>
<path d="M79.0954 44.9739C79.4275 44.9547 79.4147 47.1567 81.286 48.7332C83.151 50.316 85.5013 50.0863 85.5141 50.3926C85.546 50.5331 84.9904 50.8139 84.0004 50.833C83.0296 50.8586 81.6118 50.5331 80.4685 49.5693C79.3253 48.6055 78.8399 47.3226 78.776 46.4163C78.6994 45.4972 78.9485 44.9547 79.1018 44.9675L79.0954 44.9739Z" fill="#020101"/>
<path d="M78.4279 20.6C78.2235 21.1489 76.1989 20.8745 73.823 21.1425C71.4344 21.3596 69.512 22.0425 69.199 21.5446C69.0585 21.3085 69.397 20.7915 70.1762 20.2618C70.949 19.7384 72.1816 19.2406 73.6123 19.0938C75.0429 18.947 76.3458 19.1831 77.208 19.5469C78.0766 19.9043 78.5173 20.3447 78.4279 20.6Z" fill="#020101"/>
<path d="M97.4857 21.1033C97.1281 21.5629 95.7358 21.0714 94.056 21.0331C92.3763 20.9374 90.9521 21.3203 90.6263 20.8353C90.4858 20.5991 90.7094 20.1396 91.3353 19.7119C91.9484 19.2843 92.9767 18.9333 94.1327 18.978C95.2887 19.0226 96.285 19.4503 96.8662 19.9226C97.4538 20.4013 97.6454 20.8736 97.4857 21.097V21.1033Z" fill="#020101"/>
<path d="M52.6109 29.9371C52.6109 29.9371 53.1857 32.988 53.339 34.3602C53.3965 34.8644 53.3326 40.4491 54.6866 40.73C55.8554 40.9725 58.1738 39.9066 59.2084 37.5961C60.2431 35.2857 62.2102 29.7393 61.9931 27.2182C61.7057 23.778 61.5396 20.2868 62.2294 16.904C62.9192 13.5213 64.535 10.2215 67.2558 8.09617C69.9766 5.97079 73.8981 5.22404 76.9829 6.77499C78.8861 7.73237 80.3104 9.42373 82.0859 10.5981C83.6826 11.6576 85.6306 12.2959 87.5275 12.015C89.4243 11.7342 91.2126 10.413 91.7364 8.56847C92.2984 6.55798 91.2637 4.34964 89.6543 3.02207C88.0448 1.68813 85.9627 1.07541 83.9062 0.673308C78.2155 -0.456397 72.1864 -0.233012 66.7768 1.86683C61.3672 3.96668 56.5707 8.00043 54.2587 13.3171C51.589 19.4634 51.8956 23.2355 52.6045 29.9371" fill="#020101"/>
<path d="M82.7676 31.0664C82.7165 31.0664 82.7676 30.2686 82.4227 28.8964C82.0778 27.5497 81.1773 25.5711 79.1527 24.0393C78.15 23.2925 76.8854 22.6543 75.4292 22.4054C73.9794 22.1628 72.3507 22.2075 70.7988 22.8011C70.0196 23.0755 69.2659 23.484 68.5698 24.001C67.8672 24.5116 67.2349 25.1371 66.7112 25.8711C65.6255 27.3135 65.0187 29.1644 64.9996 31.0664C65.0187 32.9748 65.6255 34.8257 66.7112 36.2682C67.2349 37.0022 67.8736 37.6277 68.5698 38.1383C69.2595 38.6552 70.0132 39.0701 70.7988 39.3382C72.3507 39.9317 73.9858 39.9764 75.4292 39.7339C76.8854 39.4786 78.15 38.8467 79.1527 38.0936C81.1773 36.5618 82.0778 34.5832 82.4227 33.2365C82.774 31.8642 82.7165 31.06 82.7676 31.0664C82.7676 31.0664 82.774 31.1175 82.7804 31.2132C82.7804 31.3281 82.7804 31.4685 82.7804 31.6409C82.7804 31.8323 82.774 32.0621 82.7229 32.3366C82.6846 32.611 82.6526 32.9301 82.5568 33.2748C82.2439 34.647 81.3625 36.6894 79.306 38.2851C78.2841 39.0637 76.9876 39.7339 75.493 40.0083C74.0049 40.2764 72.3188 40.2381 70.703 39.6318C69.8918 39.3509 69.1126 38.9297 68.3909 38.3999C67.6628 37.8766 67.005 37.2256 66.4557 36.466C65.3317 34.9725 64.693 33.0514 64.6738 31.0728C64.693 29.0942 65.3253 27.1731 66.4557 25.6796C66.9986 24.9201 67.6628 24.2691 68.3909 23.7457C69.1126 23.2096 69.8918 22.7883 70.703 22.5139C72.3124 21.9075 73.9986 21.8692 75.4867 22.1373C76.9876 22.4117 78.2841 23.0755 79.2996 23.8606C81.3625 25.4562 82.2375 27.4986 82.5505 28.8708C82.6463 29.2155 82.6846 29.5346 82.7165 29.8091C82.7612 30.0835 82.774 30.3133 82.774 30.5048C82.774 30.6771 82.774 30.8175 82.774 30.9324C82.774 31.0281 82.774 31.0792 82.7612 31.0792L82.7676 31.0664Z" fill="#020101"/>
<path d="M105.996 31.0664C105.944 31.0664 105.996 30.2686 105.651 28.8964C105.306 27.5497 104.405 25.5711 102.381 24.0393C101.378 23.2925 100.113 22.6543 98.6572 22.4054C97.2074 22.1628 95.5787 22.2075 94.0268 22.8011C93.2476 23.0755 92.4939 23.484 91.7978 24.001C91.0952 24.5116 90.4629 25.1371 89.9392 25.8711C88.8534 27.3135 88.2467 29.1644 88.2275 31.0664C88.2467 32.9748 88.8534 34.8257 89.9392 36.2682C90.4629 37.0022 91.1016 37.6277 91.7978 38.1383C92.4875 38.6552 93.2412 39.0701 94.0268 39.3382C95.5787 39.9317 97.2138 39.9764 98.6572 39.7339C100.113 39.4786 101.378 38.8467 102.381 38.0936C104.405 36.5618 105.306 34.5832 105.651 33.2365C106.002 31.8642 105.944 31.06 105.996 31.0664C105.996 31.0664 106.002 31.1175 106.008 31.2132C106.008 31.3281 106.008 31.4685 106.008 31.6409C106.008 31.8323 106.002 32.0621 105.951 32.3366C105.913 32.611 105.881 32.9301 105.785 33.2748C105.472 34.647 104.59 36.6894 102.534 38.2851C101.512 39.0637 100.216 39.7339 98.721 40.0083C97.2329 40.2764 95.5468 40.2381 93.9373 39.6318C93.1262 39.3509 92.347 38.9297 91.6253 38.3999C90.8972 37.8766 90.2394 37.2256 89.6901 36.466C88.566 34.9725 87.9274 33.0514 87.9082 31.0728C87.9274 29.0942 88.5597 27.1731 89.6901 25.6796C90.233 24.9201 90.8972 24.2691 91.6253 23.7457C92.347 23.2096 93.1262 22.7883 93.9373 22.5139C95.5468 21.9075 97.2329 21.8692 98.721 22.1373C100.222 22.4117 101.518 23.0755 102.534 23.8606C104.597 25.4562 105.472 27.4986 105.785 28.8708C105.881 29.2155 105.919 29.5346 105.951 29.8091C105.996 30.0835 106.008 30.3133 106.008 30.5048C106.008 30.6771 106.008 30.8175 106.008 30.9324C106.008 31.0281 106.008 31.0792 105.996 31.0792V31.0664Z" fill="#020101"/>
<path d="M88.2733 30.1091C88.2413 30.1538 87.9475 29.9878 87.443 29.8219C86.9384 29.6559 86.2167 29.5091 85.412 29.5602C84.6072 29.6176 83.9047 29.8538 83.4321 30.0836C82.9531 30.3133 82.6848 30.5176 82.6465 30.4793C82.6209 30.4537 82.8445 30.1793 83.3171 29.8793C83.7897 29.5793 84.5306 29.2857 85.3864 29.2283C86.2486 29.1709 87.0214 29.3623 87.526 29.5985C88.0369 29.8346 88.2924 30.0708 88.2669 30.1027L88.2733 30.1091Z" fill="#020101"/>
<path d="M91.8705 7.86619C91.9983 7.18326 91.7747 6.8003 92.1579 6.51947C92.5986 6.20035 93.4289 7.03646 93.7355 7.37473C93.8313 7.48324 94.1442 7.06199 94.2656 6.9854C94.3614 6.92157 94.5083 6.22588 94.4955 6.11099C94.438 5.63231 93.6908 5.50466 93.3395 5.17915C92.9882 4.85364 92.5475 4.63025 92.0941 4.47707C91.6981 4.33666 91.2127 4.26007 90.8997 4.54728C90.6634 4.76429 90.6251 5.1217 90.6315 5.44083C90.6379 5.75995 90.6826 6.07908 90.8103 6.37268C90.9381 6.66627 91.1552 6.92158 91.4426 7.05561" fill="#020101"/>
<path d="M52.1178 22.9354C52.1178 22.9354 58.5877 25.3033 61.9535 26.733L61.7619 23.4268L52.3478 19.7058C52.3478 19.7058 52.1051 22.1631 52.1115 22.9354H52.1178Z" fill="#E6E6E6"/>
<path d="M52.7289 17.7978C52.7672 17.7148 54.8174 18.4998 57.3082 19.553C59.7991 20.6061 61.7918 21.5315 61.7598 21.6145C61.7215 21.6975 59.6713 20.9124 57.1805 19.8593C54.6896 18.8062 52.697 17.8807 52.7289 17.7978Z" fill="#E6E6E6"/>
<path d="M54.6714 87.4434L54.1732 71.7935C54.1732 71.7935 57.2836 86.1158 73.5763 85.9243C89.1473 85.7456 88.8599 73.3061 88.8599 73.3061L89.4155 79.612V105.085L79.2605 146.641L66.289 148.288L51.957 91.4771L54.6714 87.4306V87.4434Z" fill="#4D9DC0"/>
<path d="M87.4112 82.4327C87.4112 82.4327 87.3538 82.5539 87.226 82.7646C87.0855 82.9688 86.9131 83.3071 86.6065 83.6709C86.0445 84.4432 85.0928 85.4644 83.7069 86.4728C82.3274 87.4876 80.4752 88.4131 78.2909 89.013C76.1066 89.6066 73.5838 89.8428 70.9844 89.5173C68.3914 89.1662 66.0027 88.3748 63.9654 87.4046C61.9216 86.4409 60.2035 85.3303 58.8368 84.3155C57.47 83.3007 56.4226 82.3944 55.7328 81.7434C55.3815 81.4242 55.126 81.1562 54.9472 80.9838C54.7684 80.8051 54.6854 80.7094 54.6917 80.703C54.6981 80.6966 54.8067 80.7732 54.9919 80.9392C55.2091 81.1243 55.4837 81.3604 55.8222 81.654C56.5439 82.2731 57.6041 83.1475 58.9773 84.1304C60.3568 85.1133 62.0685 86.192 64.0995 87.1302C66.1241 88.0748 68.4808 88.8471 71.0355 89.1917C73.5902 89.5109 76.0683 89.2875 78.2207 88.7194C80.373 88.145 82.206 87.2578 83.5792 86.2813C84.9587 85.3112 85.9295 84.3283 86.5107 83.5879C87.1047 82.8539 87.3857 82.4071 87.4176 82.4263L87.4112 82.4327Z" fill="#020101"/>
<path d="M76.1078 216L75.8715 142.148L54.8845 88.2473L54.182 72.0293L41.3956 81.6924C41.3956 81.6924 22.7781 145.728 22.4907 143.507C22.2033 141.286 22.4843 216 22.4843 216H76.1078Z" fill="#E6E6E6"/>
<path d="M75.6055 215.796C75.5161 215.796 75.4395 199.157 75.4395 178.63C75.4395 158.104 75.5161 141.465 75.6055 141.465C75.6949 141.465 75.7716 158.104 75.7716 178.63C75.7716 199.157 75.6949 215.796 75.6055 215.796Z" fill="#020101"/>
<path d="M41.5801 92.2432L44.1731 94.209L42.3529 106.157L72.9839 138.216L45.1631 101.708L47.5326 92.2432H41.5801Z" fill="#E6E6E6"/>
<path d="M77.2558 178.164L30.2426 164.391L28.6843 128.706L41.5792 81.6926C41.5792 81.6926 10.846 97.017 8.75111 106.77C6.66263 116.522 1.61707 140.227 1.08058 157.357C0.601571 172.675 0.531323 182.919 4.03128 187.808C14.0585 201.812 80.1235 204.313 106.514 187.789" fill="#E6E6E6"/>
<path d="M73.5793 138.995C73.5793 138.995 73.5219 138.937 73.4261 138.823C73.3175 138.689 73.1834 138.516 73.0045 138.299C72.6277 137.814 72.0912 137.131 71.4078 136.257C70.0219 134.457 68.0356 131.878 65.5831 128.7C60.678 122.285 53.9272 113.458 46.4675 103.7C45.9821 103.068 45.503 102.436 45.0304 101.81L44.9793 101.747L44.9985 101.67C45.8224 98.4021 46.6143 95.23 47.3744 92.2047L47.5277 92.4026C45.4711 92.4026 43.4848 92.4026 41.5752 92.3962H41.4219V92.243C41.4283 88.3816 41.441 84.8329 41.4474 81.6927V81.6289L41.4985 81.5906C45.3753 78.6482 48.5304 76.2484 50.7402 74.5762C51.826 73.7592 52.6818 73.121 53.2758 72.6742C53.5568 72.47 53.7803 72.304 53.94 72.1828C54.0933 72.0743 54.1699 72.0232 54.1763 72.0232C54.1763 72.0232 54.106 72.0934 53.9655 72.2083C53.8059 72.3359 53.5951 72.5083 53.3205 72.7253C52.7329 73.1848 51.8962 73.8422 50.8232 74.6783C48.6326 76.3761 45.503 78.8014 41.6518 81.7821L41.7029 81.6799C41.7093 84.8201 41.7157 88.3624 41.7284 92.2302L41.5752 92.077C43.4848 92.077 45.4711 92.0771 47.5277 92.0707H47.732L47.6809 92.2685C46.9273 95.2938 46.1353 98.4659 45.3178 101.734L45.2859 101.593C45.7585 102.219 46.2439 102.844 46.7229 103.483C54.1507 113.261 60.876 122.113 65.7555 128.54C68.1697 131.744 70.1305 134.342 71.4973 136.161C72.1615 137.055 72.6788 137.75 73.0429 138.242C73.2089 138.472 73.3366 138.65 73.4388 138.791C73.5282 138.912 73.5666 138.982 73.5666 138.982L73.5793 138.995Z" fill="#020101"/>
<path d="M94.5333 78.9162C90.7842 72.3613 88.8363 73.0442 88.8363 73.0442L89.0343 75.3802V80.2884L87.2587 101.344L75.8711 147.101L76.1074 215.993H119.161L124.519 131.891L124.034 95.6639L94.5333 78.9098V78.9162Z" fill="#E6E6E6"/>
<path d="M124.033 95.6702C124.033 95.6702 135.178 103.891 136.142 117.115C136.928 127.857 138.722 157.274 139.048 163.676C139.553 173.652 131.786 196.999 111.553 190.387C99.4182 186.417 54.5957 171.194 54.5957 171.194L57.5783 152.168L110.787 155.334L111.84 110.988L124.033 95.6638V95.6702Z" fill="#E6E6E6"/>
<path d="M56.9739 154.364C56.9739 154.364 41.9139 152.736 38.4267 153.579C35.0737 154.389 30.3027 158.487 30.3027 158.487L30.373 164.435L54.5981 171.201L56.9739 154.37V154.364Z" fill="#FCC8CD"/>
<path d="M75.8711 140.226C75.8711 140.226 75.8903 140.156 75.935 140.022C75.9924 139.875 76.0691 139.678 76.1585 139.435C76.3693 138.899 76.6758 138.146 77.059 137.188C77.8638 135.223 79.0134 132.408 80.4313 128.942C81.8683 125.457 83.5736 121.321 85.4704 116.726C85.9494 115.584 86.4221 114.39 87.0096 113.222C87.5781 112.041 88.2487 110.892 88.9385 109.724C90.3563 107.408 91.9594 105.104 93.7222 102.831C94.5908 101.714 95.4658 100.623 96.3727 99.5763L96.3408 99.7486C95.7021 98.1274 95.0762 96.5318 94.463 94.9809L94.3992 94.8213L94.5588 94.7638C97.3052 93.832 99.9365 92.9384 102.408 92.096L102.325 92.313C98.6847 86.2368 95.6063 81.1053 93.4284 77.4672C92.349 75.6674 91.4293 74.2249 90.4585 73.6377C89.9795 73.3441 89.5516 73.2229 89.2706 73.159C88.9832 73.0888 88.8363 73.0633 88.8363 73.0505C88.8363 73.0505 88.9896 73.0505 89.2833 73.108C89.5707 73.1654 90.0115 73.2612 90.516 73.5548C91.0206 73.842 91.5315 74.359 92.0233 75.0164C92.5214 75.6801 93.0516 76.4652 93.5881 77.3715C95.7915 80.9968 98.9082 86.1092 102.593 92.1598L102.689 92.3193L102.51 92.3832C100.039 93.232 97.4137 94.132 94.6674 95.0702L94.7632 94.8596C95.3763 96.4105 96.0022 97.9998 96.6473 99.6273L96.6856 99.7231L96.6218 99.7996C95.7276 100.834 94.8526 101.925 93.984 103.042C92.234 105.308 90.631 107.605 89.2195 109.903C88.5297 111.065 87.8655 112.207 87.2971 113.375C86.7095 114.53 86.2368 115.705 85.7515 116.854C83.8354 121.436 82.1046 125.566 80.6484 129.044C79.1922 132.497 78.0107 135.293 77.1804 137.252C76.7716 138.203 76.4523 138.95 76.2224 139.48C76.1138 139.722 76.0308 139.907 75.9669 140.054C75.9094 140.182 75.8711 140.246 75.8711 140.246V140.226Z" fill="#020101"/>
<path d="M130.145 186.691C130.145 186.691 130.087 186.762 129.959 186.889C129.819 187.023 129.627 187.208 129.385 187.445C128.874 187.923 128.069 188.581 126.939 189.295C125.795 189.985 124.307 190.7 122.461 191.172C120.622 191.651 118.431 191.829 116.049 191.58C114.861 191.446 113.628 191.185 112.377 190.802C111.125 190.406 109.879 189.915 108.557 189.449C105.926 188.498 103.109 187.502 100.14 186.462C94.1998 184.381 87.6534 182.16 80.7557 179.9C66.9602 175.369 54.3782 171.552 45.2579 168.833C40.7105 167.486 37.019 166.395 34.4515 165.635C33.1869 165.259 32.2033 164.965 31.5135 164.761C31.1878 164.659 30.9387 164.582 30.7535 164.525C30.5811 164.467 30.498 164.442 30.498 164.436C30.498 164.436 30.5875 164.448 30.7663 164.493C30.9579 164.544 31.207 164.608 31.5391 164.697C32.2289 164.889 33.2252 165.163 34.4962 165.508C37.0573 166.223 40.7616 167.276 45.3345 168.603C54.4676 171.265 67.0688 175.05 80.8706 179.581C87.7684 181.841 94.3148 184.075 100.248 186.174C103.212 187.221 106.028 188.223 108.66 189.193C109.975 189.659 111.24 190.163 112.466 190.559C113.699 190.942 114.912 191.21 116.087 191.344C118.438 191.606 120.603 191.446 122.429 190.993C124.256 190.54 125.744 189.857 126.887 189.187C128.018 188.491 128.829 187.853 129.353 187.393C129.602 187.17 129.8 186.991 129.947 186.864C130.081 186.742 130.151 186.685 130.157 186.691H130.145Z" fill="#020101"/>
<path d="M30.3734 164.538C30.3606 164.608 29.5303 164.423 28.1763 164.48C27.5057 164.512 26.7074 164.621 25.8515 164.863C25.0021 165.119 24.1015 165.508 23.2329 166.057C21.4957 167.167 20.3078 168.661 19.5925 169.797C18.8772 170.946 18.5706 171.737 18.5131 171.712C18.4939 171.705 18.5578 171.501 18.6919 171.144C18.8197 170.78 19.056 170.276 19.3945 169.676C20.0715 168.489 21.2658 166.925 23.0605 165.776C23.9546 165.208 24.8935 164.819 25.7749 164.57C26.6626 164.334 27.4865 164.244 28.1763 164.244C28.8661 164.244 29.4217 164.302 29.7986 164.391C30.1754 164.468 30.3798 164.519 30.3734 164.538Z" fill="#020101"/>
<path d="M15.5611 159.872C15.5611 159.872 15.5739 159.809 15.6186 159.706C15.6697 159.604 15.7591 159.451 15.9124 159.292C16.2062 158.953 16.8001 158.609 17.5857 158.462C18.3649 158.296 19.3229 158.334 20.3448 158.462C21.373 158.596 22.4907 158.851 23.6212 159.26C25.8885 160.058 27.7024 161.334 28.8137 162.438C29.3693 162.993 29.7653 163.491 30.0208 163.849C30.2635 164.213 30.3912 164.417 30.372 164.43C30.3209 164.468 29.7908 163.651 28.654 162.611C27.5235 161.57 25.7288 160.357 23.5062 159.579C22.4013 159.183 21.3092 158.921 20.3001 158.775C19.291 158.628 18.3777 158.564 17.624 158.698C16.8704 158.813 16.3083 159.1 16.0018 159.387C15.6888 159.675 15.5866 159.898 15.5547 159.879L15.5611 159.872Z" fill="#020101"/>
<path d="M33.1129 118.89C33.1129 118.89 33.0107 118.545 32.8957 117.92C32.7999 117.62 32.6594 117.25 32.5189 116.828C32.3145 116.426 32.1165 115.954 31.8227 115.463C31.2479 114.48 30.4368 113.388 29.4277 112.278C28.3866 111.193 27.1731 110.057 25.7553 109.048C22.9323 107.018 19.9561 105.825 17.7271 105.365C16.6094 105.168 15.6961 105.021 15.051 105.027C14.4123 104.995 14.0611 104.97 14.0547 104.944C14.0547 104.919 14.406 104.906 15.051 104.893C15.6961 104.848 16.6286 104.957 17.7654 105.129C20.0327 105.538 23.0792 106.712 25.9405 108.774C27.3775 109.795 28.6038 110.95 29.6448 112.067C30.6603 113.21 31.4651 114.333 32.0207 115.341C32.3017 115.846 32.4933 116.337 32.6849 116.752C32.8191 117.192 32.9404 117.569 33.0171 117.882C33.1001 118.526 33.1256 118.877 33.1065 118.877L33.1129 118.89Z" fill="#020101"/>
<path d="M122.365 173.454C122.365 173.454 122.352 173.378 122.352 173.225C122.352 173.059 122.346 172.835 122.339 172.554C122.32 171.967 122.301 171.106 122.212 169.995C122.027 167.787 121.65 164.551 120.321 160.798C119.989 159.866 119.619 158.883 119.031 157.99C118.456 157.083 117.601 156.33 116.54 155.877C114.401 154.958 111.827 155.079 109.208 154.932C103.939 154.709 98.1464 154.466 92.0661 154.211C77.9002 153.598 65.2991 153.062 57.3795 152.641L57.4881 152.558C57.0091 155.462 56.6322 157.773 56.3704 159.368C56.2363 160.14 56.1341 160.747 56.0574 161.174C56.0191 161.366 55.9936 161.519 55.968 161.64C55.9489 161.742 55.9361 161.8 55.9297 161.794C55.9297 161.794 55.9297 161.736 55.9425 161.634C55.9552 161.513 55.9744 161.36 56 161.168C56.0638 160.74 56.1468 160.134 56.2554 159.355C56.4981 157.753 56.843 155.443 57.2837 152.526L57.2965 152.437H57.3923C65.3438 152.769 77.9258 153.292 92.0789 153.879C98.1591 154.141 103.952 154.396 109.221 154.626C110.537 154.69 111.82 154.722 113.079 154.824C114.33 154.932 115.557 155.137 116.655 155.628C117.754 156.1 118.667 156.911 119.248 157.849C119.849 158.781 120.219 159.777 120.545 160.721C121.854 164.512 122.199 167.768 122.339 169.989C122.403 171.106 122.41 171.974 122.403 172.561C122.397 172.842 122.391 173.059 122.384 173.231C122.384 173.384 122.371 173.461 122.365 173.461V173.454Z" fill="#020101"/>
<path d="M112.217 131.827C112.306 131.827 112.383 136.978 112.383 143.328C112.383 149.679 112.306 154.829 112.217 154.829C112.127 154.829 112.051 149.679 112.051 143.328C112.051 136.978 112.127 131.827 112.217 131.827Z" fill="#020101"/>
<path d="M9.12222 105.621C9.12222 105.621 9.08388 105.767 8.98808 106.042C8.90505 106.323 8.73901 106.725 8.60489 107.286C8.29194 108.391 7.90234 110.044 7.46165 112.195C6.57389 116.496 5.47536 122.79 4.2491 130.666C3.64235 134.604 2.9909 138.944 2.35222 143.629C2.0265 145.971 1.82851 148.409 1.65606 150.936C1.49001 153.464 1.35588 156.068 1.26008 158.755C1.06847 164.123 0.953518 169.79 1.1068 175.694C1.15151 177.169 1.20898 178.662 1.33033 180.162C1.36865 180.915 1.49001 181.656 1.58581 182.402C1.74548 183.136 1.8796 183.889 2.12868 184.604C2.58853 186.053 3.28469 187.444 4.2427 188.644C5.20072 189.838 6.45253 190.872 7.87679 191.44H7.89595V191.453C10.8403 192.972 14.072 194.076 17.3676 195.065C20.6695 196.054 24.0801 196.852 27.5417 197.561C35.2953 199.144 42.9786 200.075 50.4064 200.344C54.1235 200.458 57.764 200.318 61.3214 200.056C64.8788 199.807 68.3469 199.437 71.6999 198.939C78.4124 197.969 84.6715 196.482 90.3238 194.612C95.9825 192.748 101.015 190.489 105.384 188.153L105.403 188.357C96.6339 185.255 89.5957 182.766 84.7417 181.049C82.3275 180.188 80.4562 179.517 79.1789 179.064C78.553 178.834 78.074 178.662 77.7418 178.541C77.4161 178.42 77.2564 178.356 77.2564 178.356C77.2564 178.356 77.4289 178.407 77.7546 178.515C78.0867 178.63 78.5721 178.79 79.2044 179.007C80.4881 179.447 82.3659 180.098 84.7865 180.934C89.6468 182.632 96.6978 185.083 105.48 188.147L105.722 188.23L105.492 188.351C101.117 190.7 96.0783 192.984 90.4132 194.867C84.7481 196.75 78.4763 198.256 71.7446 199.239C68.3852 199.744 64.9108 200.12 61.347 200.369C57.7895 200.631 54.1235 200.771 50.4 200.663C42.953 200.395 35.2505 199.469 27.4778 197.88C24.0034 197.165 20.5865 196.367 17.2717 195.372C13.9634 194.376 10.7253 193.272 7.74267 191.727L7.76822 191.74C6.23539 191.127 4.98358 190.068 3.98724 188.836C2.99729 187.598 2.28836 186.168 1.81573 184.687C1.56026 183.953 1.41975 183.194 1.26008 182.441C1.16428 181.681 1.04293 180.922 1.00461 180.168C0.883261 178.662 0.832169 177.169 0.787462 175.688C0.640566 169.771 0.761914 164.097 0.966291 158.73C1.06848 156.043 1.20898 153.432 1.38143 150.905C1.55387 148.377 1.76463 145.926 2.09674 143.584C2.7482 138.899 3.41243 134.565 4.03833 130.627C5.29653 122.751 6.42699 116.465 7.34668 112.169C7.80653 110.018 8.2153 108.372 8.54741 107.267C8.69431 106.712 8.86675 106.304 8.96255 106.029C9.06474 105.755 9.12222 105.614 9.12222 105.614V105.621Z" fill="#020101"/>
<path d="M30.3027 160.127C38.1649 151.428 37.82 135.963 33.3045 124.985C32.8894 136.875 31.4843 147.419 30.4113 158.972" fill="#E6E6E6"/>
<path d="M33.3214 127.213C33.3214 127.213 33.3342 127.347 33.3214 127.596C33.3023 127.883 33.2767 128.24 33.2512 128.681C33.1745 129.67 33.0659 131.017 32.9382 132.67C32.6572 136.078 32.274 140.705 31.8525 145.824C31.4501 150.943 31.086 155.577 30.8178 158.985C30.6965 160.638 30.5943 161.985 30.5176 162.974C30.4793 163.414 30.4474 163.772 30.4218 164.059C30.3963 164.308 30.3771 164.435 30.3643 164.435C30.3516 164.435 30.3516 164.301 30.3516 164.053C30.3579 163.765 30.3707 163.408 30.3835 162.967C30.4154 162.023 30.4857 160.657 30.5815 158.972C30.7731 155.596 31.0988 150.943 31.514 145.805C31.9355 140.667 32.3634 136.021 32.6955 132.657C32.868 131.01 33.0085 129.664 33.117 128.681C33.1681 128.24 33.2128 127.883 33.2512 127.602C33.2831 127.353 33.3086 127.225 33.3214 127.225V127.213Z" fill="#020101"/>
<path d="M52.6973 111.499C52.7867 111.499 52.8634 114.518 52.8634 118.246C52.8634 121.973 52.7867 124.992 52.6973 124.992C52.6079 124.992 52.5312 121.973 52.5312 118.246C52.5312 114.518 52.6079 111.499 52.6973 111.499Z" fill="#020101"/>
<path d="M47.5723 133.908C47.6872 135.287 48.2812 136.525 49.0221 137.483C49.7629 138.44 51.2638 139.378 52.4709 139.314C52.4709 139.314 55.4855 139.57 57.1141 136.985C58.5831 134.642 58.9471 129.772 57.7656 126.894C56.9544 124.915 55.1342 123.071 52.9883 123.026C50.1781 122.962 48.4153 124.992 47.815 127.041" fill="#E6E6E6"/>
<path d="M47.8224 127.041C47.8224 127.041 47.8863 126.504 48.3397 125.662C48.5697 125.247 48.9018 124.756 49.3936 124.283C49.8789 123.811 50.5496 123.371 51.3798 123.115C51.795 122.994 52.242 122.911 52.7147 122.905C53.1809 122.879 53.6919 122.937 54.1772 123.096C55.1544 123.409 56.0614 124.086 56.7831 124.966C57.5112 125.841 58.054 126.951 58.3159 128.158C58.5905 129.364 58.6735 130.64 58.6033 131.942C58.4756 133.94 58.0796 135.931 56.9747 137.451C56.4126 138.197 55.6462 138.733 54.8542 139.046C54.0559 139.365 53.2384 139.487 52.4528 139.448H52.472C51.8269 139.474 51.2521 139.263 50.7539 139.021C50.2558 138.765 49.8215 138.459 49.4574 138.121C48.7357 137.431 48.3333 136.659 48.0459 136.021C47.7713 135.376 47.6563 134.84 47.5989 134.47C47.5733 134.285 47.5605 134.144 47.5605 134.049C47.5605 133.953 47.5605 133.902 47.5605 133.902C47.6116 133.889 47.6052 134.706 48.1864 135.957C48.4866 136.563 48.9018 137.316 49.6043 137.955C49.9556 138.274 50.3771 138.561 50.8561 138.797C51.3351 139.021 51.8844 139.206 52.4528 139.174H52.4656C53.9026 139.225 55.6526 138.67 56.7128 137.253C57.7411 135.829 58.1371 133.876 58.2648 131.917C58.3989 129.389 57.9774 126.849 56.5404 125.158C55.857 124.309 54.9948 123.664 54.0815 123.358C53.628 123.205 53.1617 123.147 52.7147 123.16C52.2612 123.16 51.8333 123.237 51.4373 123.345C50.6454 123.569 49.9939 123.977 49.5085 124.424C49.0167 124.864 48.6782 125.336 48.4419 125.732C47.9629 126.536 47.8479 127.06 47.8096 127.047L47.8224 127.041Z" fill="#020101"/>
<path d="M46.0781 134.03C46.1931 135.408 46.7871 136.646 47.5279 137.604C48.2688 138.561 49.7697 139.499 50.9768 139.436C50.9768 139.436 53.9914 139.691 55.62 137.106C57.0889 134.764 57.453 129.894 56.2714 127.015C55.4603 125.037 53.6401 123.192 51.4941 123.147C48.6839 123.084 46.9212 125.113 46.3208 127.162" fill="#E6E6E6"/>
<path d="M46.3282 127.168C46.3282 127.168 46.3921 126.632 46.8456 125.79C47.0755 125.375 47.4076 124.883 47.8994 124.411C48.3848 123.939 49.0554 123.498 49.8857 123.243C50.3008 123.122 50.7479 123.039 51.2205 123.032C51.6868 123.007 52.1977 123.064 52.6831 123.224C53.6603 123.537 54.5672 124.213 55.2889 125.094C56.017 125.968 56.5599 127.079 56.8218 128.285C57.0964 129.492 57.1794 130.768 57.1091 132.07C56.9814 134.068 56.5854 136.059 55.4805 137.578C54.9185 138.325 54.1521 138.861 53.3601 139.174C52.5618 139.493 51.7442 139.614 50.9587 139.576H50.9778C50.3328 139.601 49.758 139.391 49.2598 139.148C48.7616 138.893 48.3273 138.587 47.9633 138.248C47.2416 137.559 46.8392 136.787 46.5518 136.149C46.2772 135.504 46.1622 134.968 46.1047 134.598C46.0792 134.412 46.0664 134.272 46.0664 134.176C46.0664 134.081 46.0664 134.03 46.0664 134.03C46.1175 134.017 46.1111 134.834 46.6923 136.085C46.9925 136.691 47.4076 137.444 48.1102 138.082C48.4614 138.402 48.883 138.689 49.362 138.925C49.841 139.148 50.3902 139.333 50.9587 139.301H50.9715C52.4085 139.353 54.1585 138.797 55.2187 137.38C56.2469 135.957 56.6429 134.004 56.7706 132.045C56.9048 129.517 56.4833 126.977 55.0462 125.285C54.3628 124.437 53.5006 123.792 52.5873 123.486C52.1338 123.332 51.6676 123.275 51.2205 123.288C50.7671 123.288 50.3392 123.364 49.9432 123.473C49.1512 123.696 48.4998 124.105 48.0144 124.551C47.5226 124.992 47.1841 125.464 46.9478 125.86C46.4688 126.664 46.3538 127.187 46.3155 127.175L46.3282 127.168Z" fill="#020101"/>
<path d="M48.7907 126.447C47.392 126.166 45.9549 127.13 45.361 128.419C44.767 129.715 44.9011 131.24 45.3673 132.587C45.6037 133.27 45.9358 133.934 46.4339 134.463C46.9321 134.993 47.6155 135.37 48.3372 135.389C49.3974 135.421 50.3554 134.693 50.9749 133.831C51.9713 132.44 52.3098 130.596 51.8755 128.936C51.5817 127.832 50.7706 126.696 49.6273 126.664" fill="#E6E6E6"/>
<path d="M49.6222 126.67C49.6222 126.67 49.7116 126.651 49.8777 126.664C50.0437 126.683 50.2928 126.741 50.5674 126.9C51.1295 127.213 51.7682 127.979 52.03 129.096C52.2983 130.194 52.2727 131.623 51.634 133.002C51.3147 133.685 50.8612 134.361 50.2034 134.878C49.5647 135.395 48.6322 135.727 47.7381 135.466C46.8567 135.217 46.1861 134.566 45.771 133.857C45.3494 133.142 45.1067 132.389 44.9535 131.655C44.6469 130.187 44.896 128.732 45.5921 127.8C46.2755 126.862 47.1952 126.466 47.8211 126.383C48.1341 126.332 48.3832 126.358 48.5492 126.383C48.7153 126.415 48.7983 126.441 48.7919 126.453C48.7919 126.492 48.4406 126.39 47.8403 126.511C47.2527 126.626 46.3969 127.034 45.7837 127.934C45.1578 128.815 44.9471 130.187 45.2536 131.591C45.4069 132.293 45.656 133.027 46.052 133.691C46.448 134.349 47.0547 134.929 47.8339 135.146C48.6067 135.37 49.4114 135.095 50.0118 134.623C50.6185 134.151 51.0592 133.513 51.3658 132.874C51.9853 131.572 52.0428 130.206 51.8065 129.147C51.5893 128.081 51.0145 127.328 50.51 127.009C49.999 126.677 49.6222 126.709 49.6286 126.67H49.6222Z" fill="#020101"/>
<path d="M52.0113 136.94C51.9602 136.953 51.8899 136.742 51.6728 136.48C51.462 136.225 51.0724 135.938 50.5806 135.785C50.0824 135.632 49.597 135.606 49.2394 135.574C48.8817 135.549 48.6582 135.517 48.6582 135.472C48.6582 135.427 48.8753 135.376 49.2394 135.338C49.6034 135.306 50.1208 135.293 50.6828 135.466C51.2448 135.638 51.6728 136.008 51.8644 136.346C52.0624 136.685 52.0496 136.934 52.0113 136.94Z" fill="#020101"/>
<path d="M52.5174 125.579C52.5174 125.579 52.4216 125.809 52.1215 126.045C51.8277 126.281 51.3487 126.53 50.7739 126.632C50.199 126.734 49.6625 126.67 49.3049 126.549C48.9408 126.434 48.7556 126.287 48.7748 126.256C48.8067 126.16 49.6562 126.504 50.7164 126.307C51.7766 126.128 52.4536 125.509 52.5174 125.585V125.579Z" fill="#020101"/>
<path d="M96.4033 79.8604C96.4033 79.8604 96.4799 79.8796 96.614 79.937C96.7482 80.0008 96.9398 80.0902 97.1825 80.2306C97.6679 80.5051 98.3449 80.9391 99.0985 81.5965C100.606 82.8794 102.369 85.1515 103.212 88.0939C104.093 90.9851 104.572 93.6977 104.776 95.6635C104.885 96.6464 104.949 97.4443 104.981 97.9931C105.013 98.542 105.019 98.8484 105 98.8548C104.981 98.8612 104.93 98.5548 104.853 98.0059C104.77 97.3932 104.668 96.6209 104.54 95.6891C104.272 93.736 103.767 91.0617 102.886 88.1832C102.062 85.3047 100.382 83.0708 98.9388 81.7624C97.4954 80.4348 96.365 79.9115 96.4033 79.8477V79.8604Z" fill="#020101"/>
<path d="M88.4439 150.119C90.296 150.048 91.7714 148.204 93.6236 148.299C94.9967 148.37 96.1655 149.716 96.0505 151.082C95.9356 152.448 94.556 153.578 93.1893 153.418C91.2477 153.195 90.1108 150.916 88.2012 150.482" fill="#020101"/>
<path d="M104.144 151.695C103.589 151.695 103.014 151.644 102.414 151.555L102.516 150.923C104.802 151.293 106.725 150.916 108.225 149.806C110.116 148.421 111.336 145.932 111.847 142.421L111.866 142.287C112.077 140.896 112.364 113.598 112.364 108.415C112.364 100.322 105.256 99.2117 104.949 99.1734C104.662 99.1223 98.1983 98.0437 94.7685 106.883C91.1792 116.144 85.4374 133.984 85.0606 136.077C85.0159 136.332 84.9457 136.651 84.8626 137.015C84.2687 139.696 83.0232 145.261 86.7404 148.472C90.8854 152.046 94.1554 150.667 94.2895 150.604L94.5514 151.184C94.3981 151.255 90.7896 152.812 86.3188 148.951C82.3143 145.491 83.6108 139.67 84.2303 136.868C84.307 136.511 84.3772 136.205 84.4219 135.949C84.8052 133.843 90.566 115.921 94.1682 106.641C97.7959 97.2841 104.975 98.516 105.045 98.5287C105.109 98.5351 112.996 99.7414 112.996 108.402C112.996 112.672 112.715 140.896 112.492 142.37L112.473 142.504C111.936 146.187 110.633 148.817 108.596 150.31C107.351 151.223 105.856 151.682 104.138 151.682L104.144 151.695Z" fill="#020101"/>
<path d="M112.686 113.637C112.603 113.669 112.501 112.277 111.357 110.452C110.789 109.552 109.946 108.576 108.835 107.72C107.717 106.872 106.312 106.15 104.734 105.786C101.541 105.052 98.5135 105.85 96.6486 106.84C94.7453 107.829 93.8895 108.914 93.8384 108.85C93.832 108.844 93.8831 108.773 93.9853 108.652C94.0939 108.537 94.2344 108.346 94.4643 108.142C94.8923 107.714 95.5884 107.159 96.54 106.629C97.4917 106.093 98.7179 105.614 100.142 105.359C101.56 105.097 103.182 105.078 104.817 105.455C106.452 105.831 107.889 106.584 109.033 107.471C110.169 108.365 111.012 109.386 111.568 110.324C112.124 111.263 112.424 112.105 112.552 112.699C112.635 112.992 112.654 113.228 112.679 113.388C112.699 113.548 112.705 113.631 112.692 113.631L112.686 113.637Z" fill="#020101"/>
<path d="M128.95 164.665C128.88 164.678 128.772 163.567 128.075 161.94C127.386 160.338 126 158.206 123.745 156.744C122.627 156.017 121.369 155.679 120.232 155.474C119.083 155.283 118.023 155.213 117.141 155.155C116.305 155.098 115.602 155.047 115.04 155.008C114.542 154.964 114.267 154.925 114.274 154.906C114.274 154.881 114.548 154.874 115.046 154.881C115.615 154.893 116.317 154.906 117.154 154.919C118.042 154.951 119.108 154.996 120.284 155.174C121.452 155.366 122.755 155.704 123.93 156.464C126.268 157.976 127.654 160.191 128.299 161.85C128.625 162.687 128.803 163.395 128.88 163.893C128.963 164.384 128.976 164.665 128.957 164.665H128.95Z" fill="#020101"/>
<path d="M96.7246 154.013C96.7246 154.013 103.003 144.51 104.612 143.259C106.215 142.014 119.928 135.83 121.531 136.825C123.134 137.821 122.15 139.978 122.15 139.978C122.15 139.978 127.956 137.949 128.569 138.746C129.189 139.544 129.31 140.904 128.569 142.014C128.569 142.014 131.782 141.523 131.782 142.506C131.782 143.489 131.411 144.727 129.93 145.837C128.448 146.948 118.81 153.356 118.037 155.13L114.914 154.939L96.7246 154.007V154.013Z" fill="#FCC8CD"/>
<path d="M114.799 151.294C114.799 151.294 114.876 151.065 115.087 150.695C115.298 150.324 115.636 149.801 116.121 149.207C117.073 148.007 118.67 146.571 120.675 145.378C122.681 144.184 124.648 143.393 126.066 142.85C126.775 142.582 127.356 142.378 127.758 142.238C128.161 142.104 128.39 142.04 128.397 142.059C128.403 142.078 128.192 142.187 127.803 142.359C127.343 142.557 126.794 142.793 126.149 143.067C124.756 143.667 122.821 144.484 120.841 145.665C118.861 146.846 117.277 148.224 116.294 149.367C115.298 150.503 114.85 151.333 114.793 151.301L114.799 151.294Z" fill="#595959"/>
<path d="M106.836 151.141C106.836 151.141 106.925 150.879 107.142 150.439C107.36 149.999 107.679 149.367 108.107 148.601C108.541 147.841 109.09 146.941 109.838 146.041C110.221 145.595 110.611 145.135 111.153 144.739C111.683 144.382 112.239 144.05 112.82 143.705C115.132 142.359 117.31 141.286 118.952 140.648C119.769 140.323 120.453 140.118 120.925 139.991C121.404 139.882 121.672 139.831 121.679 139.857C121.692 139.914 120.638 140.157 119.041 140.865C117.438 141.548 115.286 142.646 112.986 143.993C112.418 144.331 111.856 144.663 111.339 145.008C110.866 145.352 110.444 145.818 110.074 146.239C109.327 147.107 108.771 147.982 108.311 148.722C107.896 149.424 107.538 150.024 107.257 150.503C107.008 150.924 106.861 151.154 106.842 151.141H106.836Z" fill="#595959"/>
</svg>
