<svg width="168" height="216" viewBox="0 0 168 216" fill="none" xmlns="http://www.w3.org/2000/svg">
<path d="M136.862 202.138C136.987 202.347 157.744 207.577 158.992 208.966C160.418 210.566 158.582 211.979 158.582 211.979L121.443 211.949L122.073 203.539L136.862 202.138Z" fill="#FCC8CD"/>
<path d="M105.937 88.9307C105.937 88.9307 116.149 94.3637 119.329 104.427C121.701 111.933 124.001 144.729 124.459 150.737C124.917 156.739 137.958 207.044 137.958 207.044L122.884 210.015L108.992 159.41L104.172 129.52L105.937 88.9307Z" fill="#FCC8CD"/>
<path d="M103.44 131.275L123.596 124.285C123.596 124.285 121.986 102.697 116.404 94.6039C112.6 89.087 102.971 86.2178 102.971 86.2178L103.44 131.275Z" fill="#4893B4"/>
<path d="M70.9195 75.813C70.3786 75.813 43.993 84.9 43.993 84.9L44.3378 126.717L38.4473 173.973L54.1335 186.75C54.1335 186.75 111.351 170.385 111.892 169.953C112.433 169.528 104.699 153.145 104.693 152.6C104.693 152.055 104.794 143.531 104.794 143.531C104.794 143.531 107.82 139.542 109.205 133.534C110.596 127.52 109.068 117.923 109.068 117.923L102.964 86.2238L99.0644 85.1036L70.9076 75.819L70.9195 75.813Z" fill="#4893B4"/>
<path d="M108.104 111.891C108.104 111.891 108.152 111.981 108.211 112.155C108.282 112.364 108.366 112.616 108.473 112.928C108.586 113.263 108.716 113.676 108.841 114.161C108.966 114.647 109.132 115.198 109.257 115.815C109.394 116.432 109.543 117.109 109.655 117.845C109.792 118.576 109.881 119.367 109.988 120.2C110.155 121.865 110.25 123.71 110.202 125.645C110.137 127.579 109.935 129.412 109.667 131.066C109.513 131.886 109.382 132.671 109.198 133.396C109.043 134.127 108.853 134.791 108.675 135.402C108.514 136.013 108.318 136.553 108.163 137.032C108.009 137.511 107.854 137.912 107.724 138.242C107.599 138.547 107.498 138.793 107.415 138.996C107.343 139.17 107.302 139.254 107.29 139.254C107.278 139.254 107.308 139.158 107.361 138.979C107.432 138.769 107.516 138.517 107.617 138.206C107.736 137.876 107.872 137.463 108.009 136.984C108.152 136.505 108.336 135.965 108.479 135.348C108.639 134.738 108.817 134.073 108.96 133.348C109.132 132.629 109.257 131.844 109.4 131.024C109.649 129.376 109.846 127.555 109.911 125.633C109.959 123.71 109.875 121.883 109.721 120.223C109.626 119.397 109.548 118.612 109.418 117.881C109.317 117.151 109.18 116.474 109.055 115.857C108.942 115.234 108.794 114.689 108.681 114.197C108.574 113.706 108.455 113.293 108.36 112.951C108.276 112.634 108.205 112.376 108.152 112.167C108.104 111.987 108.086 111.891 108.098 111.885L108.104 111.891Z" fill="#020101"/>
<path d="M42.8765 85.5891C42.8765 85.5891 34.3409 87.0986 31.0955 95.7423C27.8441 104.386 19.5819 140.98 18.6606 144.819C17.7452 148.653 16.8477 156.284 21.1214 159.585C25.8469 163.233 40.1899 168.163 40.1899 168.163L45.4681 158.782L36.8255 148.126C36.8255 148.126 44.6479 125.771 45.0877 122.177C45.5335 118.583 42.8765 85.5891 42.8765 85.5891Z" fill="#FCC8CD"/>
<path d="M63.0276 158.764C63.0276 158.764 62.9206 158.752 62.7185 158.716C62.4927 158.668 62.1955 158.602 61.8269 158.524C61.0245 158.345 59.9011 158.087 58.4983 157.77H58.528C55.3539 158.051 50.7473 158.458 45.4868 158.92H45.4155L45.3679 158.872C44.6309 157.973 43.87 157.033 43.0854 156.074C40.8089 153.271 38.6631 150.629 36.8145 148.347L36.8323 148.365C35.5306 147.293 34.0505 146.688 32.7012 146.442C31.346 146.197 30.1215 146.305 29.1586 146.52C28.1897 146.736 27.4645 147.059 26.9831 147.299C26.5075 147.544 26.2638 147.7 26.252 147.682C26.252 147.682 26.3054 147.634 26.4184 147.55C26.5313 147.467 26.7096 147.359 26.9415 147.227C27.411 146.963 28.1362 146.616 29.117 146.37C30.0918 146.131 31.34 145.999 32.7309 146.233C34.1159 146.46 35.6376 147.065 36.9809 148.161H36.9928L36.9988 148.179C38.8592 150.456 41.011 153.091 43.2994 155.883C44.0781 156.841 44.8449 157.782 45.576 158.686L45.4571 158.638C50.7235 158.219 55.3301 157.847 58.5042 157.59H58.5161H58.528C59.9249 157.943 61.0364 158.225 61.8388 158.423C62.2014 158.518 62.4927 158.596 62.7185 158.656C62.9147 158.71 63.0217 158.746 63.0158 158.752L63.0276 158.764Z" fill="#595959"/>
<path d="M21.2402 118.846L44.0593 126.717L48.8621 119.906L44.838 84.8821C44.838 84.8821 35.5297 85.9603 31.464 94.8436C27.1962 104.158 21.2402 118.846 21.2402 118.846Z" fill="#4893B4"/>
<path d="M21.2402 118.846C21.2402 118.846 21.3948 118.876 21.6801 118.966C21.9892 119.061 22.3993 119.193 22.9164 119.355C24.0101 119.714 25.5497 120.223 27.4458 120.84C31.2856 122.128 36.5402 123.895 42.3534 125.848C43.2212 126.142 44.0831 126.435 44.8915 126.711L44.7132 126.813C45.9971 121.422 47.1324 116.647 47.9586 113.185C48.7789 109.747 49.2425 107.656 49.2425 107.656C49.2425 107.656 49.2425 107.692 49.2425 107.752C49.2366 107.818 49.2306 107.92 49.2128 108.046C49.1712 108.297 49.1058 108.675 49.0107 109.154C48.8205 110.112 48.5233 111.502 48.1429 113.227C47.3761 116.677 46.2705 121.475 44.9866 126.879L44.9509 127.028L44.8083 126.98C43.994 126.705 43.138 126.417 42.2702 126.118C36.4688 124.135 31.2203 122.338 27.3923 121.032C25.514 120.373 23.9804 119.84 22.8927 119.457C22.3815 119.271 21.9773 119.127 21.6742 119.013C21.3948 118.912 21.2521 118.852 21.2581 118.84L21.2402 118.846Z" fill="#020101"/>
<path d="M75.5076 9.95774C74.9964 7.38798 72.0303 5.62689 69.5457 6.41758C67.7863 3.73402 63.7146 2.97328 61.1171 4.84219C59.8807 5.72872 59.0248 7.05853 57.8241 7.99897C56.671 8.89749 55.2622 9.39467 54.0259 10.1734C52.7895 10.9521 51.6661 12.1861 51.6602 13.6536C51.6602 15.2889 53.0986 16.6307 54.6619 17.062C56.2252 17.4933 57.8836 17.2237 59.4825 16.9482C58.8287 17.4334 58.787 18.4817 59.2328 19.1705C59.6786 19.8594 60.4633 20.2487 61.2538 20.4644C63.8632 21.1832 66.8471 20.2727 68.6185 18.2061L71.3646 15.5405C73.9562 15.3069 76.0188 12.5275 75.5076 9.95774Z" fill="#020101"/>
<path d="M69.1298 20.9488C68.6364 21.5657 67.6378 21.6197 67.0018 21.1524C66.3658 20.6852 66.1043 19.8106 66.2469 19.0319C66.3836 18.2532 66.877 17.5703 67.4833 17.0612C68.0896 16.558 68.8088 16.2106 69.534 15.8991C70.6514 15.4199 71.8046 15.0126 73.0053 14.8149C73.4273 14.743 73.8731 14.7011 74.2832 14.8269C74.6934 14.9467 75.0738 15.2701 75.157 15.6954C75.2759 16.2944 74.8004 16.8336 74.3605 17.2469C72.7081 18.7923 70.913 20.194 69.0109 21.416" fill="#60C4F0"/>
<path d="M67.3342 20.8418C64.1244 17.9606 57.0748 19.2006 55.6126 21.4768C53.0091 20.4465 49.7161 21.962 48.771 24.6096C46.3102 25.4363 43.8553 26.2569 41.3945 27.0835C40.1343 27.5028 38.8207 27.9641 37.9231 28.9465C37.0256 29.9288 36.7343 31.6121 37.6616 32.5705C35.076 33.5528 34.4518 37.6561 36.6273 39.3692C35.6644 40.6391 36.0983 42.7297 37.4892 43.4964C35.6704 46.2399 34.3211 49.2949 33.5127 52.4936C33.1739 53.8294 32.948 55.3089 33.5543 56.5429C34.1606 57.7768 35.9378 58.4897 36.9543 57.5672C36.3123 58.6873 36.4015 60.1968 37.1801 61.2271C35.9081 61.3949 35.7357 63.4255 36.7106 64.2701C37.6854 65.1147 39.1238 65.0608 40.3959 64.8931C41.6679 64.7254 43.0469 64.5097 44.1763 65.1327C44.1703 65.522 44.0455 65.7916 43.8434 65.9953C41.8403 68.0259 41.5431 71.1887 43.4273 73.3331C43.5997 73.5308 43.7661 73.7165 43.9088 73.8783C44.7588 74.8606 46.6965 75.6334 47.8972 76.1066C50.9465 77.3166 52.6346 76.8434 55.9098 76.9691C55.25 79.1615 60.9741 83.2408 66.4901 78.0414C78.7943 80.0001 87.5439 80.3116 99.9312 79.0178C101.697 78.8321 103.795 78.3648 104.413 76.6876C105.887 76.9152 107.361 76.0826 108.312 74.9205C109.263 73.7644 109.78 72.3148 110.286 70.9012C113.258 69.7451 115.302 66.5224 115.094 63.3177C116.997 61.4667 118.066 58.7772 117.965 56.1116C119.844 54.9256 121.841 50.8223 120.367 48.1747C119.338 44.5687 117.716 41.1363 115.588 38.0574C117.567 37.3985 118.043 34.5652 117.008 32.7382C115.974 30.9172 114.001 29.8809 112.134 28.9465C113.692 29.1921 114.809 27.1315 114.286 25.6339C113.763 24.1364 112.283 23.2199 110.85 22.555C108.758 21.5726 106.541 20.8478 104.276 20.4046C103.272 17.7929 99.5448 15.0973 96.9176 14.1749C86.3432 10.449 79.1568 9.98777 67.3163 20.8359" fill="#020101"/>
<path d="M66.1465 32.2226L83.1702 24.3097C89.9464 22.4707 95.8845 30.2878 97.424 37.1884C99.1299 44.8558 100.919 54.2842 100.919 60.2144C100.919 72.1287 90.9925 76.4656 90.9925 76.4656C90.9925 76.4536 92.0625 83.5698 92.0625 83.5698C91.789 89.1646 86.0233 89.9194 86.0233 89.9194C70.23 92.0818 68.1675 83.1985 68.1675 83.1985L63.2755 39.0394C62.9011 36.9249 64.0899 32.7857 66.1524 32.2226H66.1465Z" fill="#FCC8CD"/>
<path d="M88.2172 56.2187C88.1935 56.1288 89.1564 55.7994 90.7256 55.3321C91.1239 55.2243 91.4983 55.0806 91.5221 54.793C91.5697 54.4816 91.3319 54.0682 91.0585 53.625C90.5176 52.6965 89.9588 51.7201 89.3644 50.7018C86.9928 46.5327 85.2096 43.0704 85.376 42.9805C85.5424 42.8847 87.5991 46.1912 89.9707 50.3604C90.5473 51.3907 91.0942 52.373 91.6172 53.3135C91.8431 53.7568 92.1938 54.242 92.0809 54.8889C92.0214 55.2123 91.7539 55.4819 91.5043 55.5957C91.2546 55.7155 91.0288 55.7574 90.8267 55.8054C89.2277 56.1528 88.2291 56.3205 88.2054 56.2307L88.2172 56.2187Z" fill="#020101"/>
<path opacity="0.2" d="M90.9857 76.4595C90.9857 76.4595 84.6375 76.7709 76.2148 73.3506C76.2148 73.3506 79.7337 80.4189 91.485 79.9876L90.9857 76.4595Z" fill="#F64C5D"/>
<path d="M79.3644 39.0333C79.2752 39.4946 77.6525 39.5425 75.8218 40.0696C73.9791 40.5608 72.5585 41.3515 72.2494 40.9981C72.1067 40.8304 72.3088 40.3751 72.8497 39.854C73.3847 39.3328 74.2882 38.7818 75.3878 38.4763C76.4875 38.1708 77.5455 38.1887 78.2648 38.3565C78.9959 38.5242 79.3941 38.8117 79.3585 39.0273L79.3644 39.0333Z" fill="#020101"/>
<path d="M94.7242 37.0145C94.5043 37.4218 93.3452 37.2242 92.0256 37.4159C90.7001 37.5656 89.6302 38.0508 89.3151 37.7094C89.1725 37.5416 89.2914 37.1523 89.7253 36.727C90.1532 36.3077 90.9141 35.8944 91.8235 35.7805C92.7329 35.6667 93.5711 35.8704 94.0882 36.1699C94.6113 36.4694 94.8252 36.8228 94.7301 37.0205L94.7242 37.0145Z" fill="#020101"/>
<path d="M103.259 42.2023C102.944 40.3873 102.16 38.5902 100.769 37.3922C100.002 36.7393 99.0805 36.2781 98.3851 35.5473C96.8872 33.9719 96.798 31.5519 96.0075 29.5152C94.9851 26.8916 92.6313 24.843 89.9148 24.202C87.6502 23.6689 85.2012 24.0582 83.0317 23.2017C81.4327 22.5667 80.125 21.2968 78.4904 20.7637C75.3104 19.7154 71.9758 21.6862 69.3129 23.7288C69.0038 26.0829 70.6622 27.8919 72.2611 29.635C73.86 31.3782 76.2436 32.3545 78.5974 32.2287C80.4222 32.1329 82.4908 31.474 83.9114 32.6301C85.4033 33.8461 85.1596 36.32 86.4376 37.7636C88.2624 39.8302 91.7456 38.5663 94.2599 39.6804C96.1977 40.543 97.2082 42.6455 98.3435 44.4546C99.4728 46.2636 101.28 48.0726 103.372 47.7311C103.473 45.8862 103.58 44.0233 103.265 42.2083L103.259 42.2023Z" fill="#020101"/>
<path d="M74.3079 27.3647C69.0058 27.8919 63.8107 29.4613 59.0971 31.9711C57.6943 32.7199 56.2559 33.6244 55.5723 35.068C54.972 36.3379 55.0492 37.8175 55.2216 39.2132C55.7684 43.586 58.1223 48.7434 60.2324 52.5951L66.0278 55.2427C70.0935 53.7691 67.3534 46.7188 66.7411 43.1008C69.511 41.4774 71.1932 38.1469 70.8663 34.9362C73.0774 33.1212 74.3911 30.24 74.3079 27.3647Z" fill="#020101"/>
<path d="M65.7735 53.685C65.3277 51.1991 62.219 51.0673 60.2336 52.6008C59.1399 53.4454 58.4207 54.9429 58.8665 57.5846C60.0732 64.6229 66.8375 61.9513 66.8137 61.7477C66.8018 61.6219 66.2966 56.5902 65.7735 53.685Z" fill="#FCC8CD"/>
<path d="M64.2275 59.4539C64.1918 59.4359 64.1205 59.5617 63.9303 59.6935C63.746 59.8192 63.4132 59.945 63.0209 59.8732C62.2363 59.7294 61.41 58.6572 61.1604 57.3933C61.0356 56.7583 61.0593 56.1234 61.202 55.5783C61.3268 55.0272 61.5943 54.6079 61.9569 54.4761C62.3135 54.3263 62.6107 54.506 62.7356 54.6857C62.8604 54.8654 62.8426 55.0152 62.8842 55.0212C62.9079 55.0332 63.0149 54.8774 62.9079 54.5959C62.8544 54.4641 62.7475 54.3084 62.5572 54.2005C62.367 54.0927 62.1055 54.0628 61.8558 54.1406C61.3209 54.2724 60.9226 54.8534 60.774 55.4525C60.5898 56.0575 60.5422 56.7703 60.6849 57.4891C60.9702 58.9028 61.9212 60.1008 62.9793 60.2206C63.4905 60.2625 63.8768 60.0469 64.0611 59.8432C64.2453 59.6336 64.2572 59.4658 64.2335 59.4598L64.2275 59.4539Z" fill="#595959"/>
<path d="M63.7807 62.5204C63.7807 62.5204 63.7807 62.5503 63.7688 62.6162C63.751 62.6761 63.7688 62.7839 63.7035 62.8978C63.6321 63.1433 63.3884 63.4668 62.9723 63.7244C62.5563 63.988 61.9737 64.1916 61.2724 64.2875C60.9217 64.3414 60.5412 64.3593 60.137 64.3414C59.7328 64.3234 59.2989 64.2695 58.865 64.1078L58.9423 64.0538C58.9007 65.0362 58.3836 66.1504 57.3731 66.8392C56.3745 67.5281 54.8647 67.6599 53.6283 66.9291L53.7472 66.8932C53.5748 67.2346 53.2598 67.4982 52.8972 67.618C52.5346 67.7497 52.1304 67.7497 51.75 67.6539C51.3696 67.5581 51.0011 67.3364 50.7514 67.007C50.4958 66.6835 50.3353 66.2941 50.264 65.8808C50.1214 65.0542 50.3235 64.1736 50.7633 63.4309C51.1913 62.6761 51.7976 62.0352 52.4098 61.4002L52.4395 61.562C51.8095 61.2804 51.3458 60.6814 51.1318 60.0105C50.9179 59.3396 50.9 58.5969 51.0962 57.896C51.2983 57.2012 51.6728 56.5602 52.1245 55.9852C52.5762 55.4101 53.0993 54.889 53.6283 54.3738V54.5356C53.0518 54.0743 52.7427 53.3136 52.707 52.5588C52.6654 51.8041 52.8616 51.0254 53.2658 50.3605C54.0385 49.0965 55.2808 48.2999 56.422 47.5511L56.3804 47.6769C55.8276 46.1674 56.0951 44.4422 56.9986 43.2143C57.9021 41.9803 59.3703 41.2795 60.7968 41.2854L60.7017 41.4172C60.2797 40.1773 60.6007 38.8415 61.2605 37.8591C61.9202 36.8647 62.9605 36.1699 64.066 36.0441L63.9888 36.1459C63.8402 34.8461 64.4346 33.6481 65.237 32.8753C66.0395 32.0846 67.1034 31.6713 68.0842 31.7192L68.0129 31.7971C67.9594 31.1023 68.1377 30.4673 68.3755 29.9162C68.6192 29.3651 68.9342 28.8799 69.2968 28.4906C69.9982 27.6939 70.872 27.2985 71.5852 27.1668C71.6744 27.1488 71.7636 27.1308 71.8468 27.1188C71.93 27.1129 72.0192 27.1129 72.0964 27.1069C72.2569 27.1069 72.4115 27.0889 72.5482 27.1069C72.8216 27.1548 73.0594 27.1548 73.2436 27.2207C73.416 27.2746 73.5527 27.3165 73.6538 27.3465C73.7429 27.3764 73.7905 27.3944 73.7905 27.3944C73.7905 27.3944 73.7429 27.3884 73.6478 27.3644C73.5468 27.3405 73.4101 27.3045 73.2317 27.2566C73.0534 27.1967 72.8157 27.2027 72.5422 27.1608C72.4055 27.1428 72.2569 27.1668 72.0964 27.1668C72.0192 27.1668 71.9359 27.1668 71.8527 27.1787C71.7695 27.1967 71.6863 27.2147 71.5971 27.2327C70.9017 27.3704 70.0576 27.7658 69.38 28.5565C69.0293 28.9338 68.7262 29.4131 68.4943 29.9582C68.2685 30.4973 68.0961 31.1262 68.1555 31.7732V31.857H68.0842C67.1451 31.8151 66.1286 32.2164 65.3559 32.9891C64.5891 33.7439 64.0304 34.9 64.173 36.128L64.1849 36.2178L64.0958 36.2298C63.0496 36.3496 62.057 37.0145 61.4269 37.9729C60.7968 38.9134 60.4996 40.1952 60.8979 41.3573L60.9454 41.4891H60.8028C59.4416 41.4891 58.0329 42.166 57.1769 43.34C56.321 44.5081 56.0594 46.1674 56.5944 47.605L56.6241 47.6889L56.5528 47.7368C55.4115 48.4796 54.199 49.2643 53.4619 50.4743C53.0815 51.0972 52.8972 51.834 52.9388 52.5468C52.9686 53.2537 53.2598 53.9485 53.7829 54.3678L53.878 54.4457L53.7888 54.5296C52.7427 55.5479 51.6965 56.6141 51.3042 57.9499C51.12 58.6088 51.1318 59.3157 51.3339 59.9386C51.5301 60.5676 51.9581 61.1127 52.5287 61.3703L52.6595 61.4302L52.5584 61.532C51.9462 62.167 51.3518 62.7959 50.9357 63.5207C50.5137 64.2335 50.3235 65.0662 50.4542 65.8449C50.5731 66.6116 51.0843 67.3125 51.8035 67.4742C52.493 67.6659 53.3133 67.4323 53.6105 66.8093L53.6521 66.7254L53.7294 66.7734C54.9004 67.4742 56.3507 67.3544 57.3136 66.7015C58.2884 66.0485 58.7996 64.9763 58.8472 64.0299V63.946L58.9245 63.976C59.3405 64.1377 59.7626 64.1916 60.1608 64.2156C60.5591 64.2395 60.9335 64.2216 61.2783 64.1736C61.9678 64.0838 62.5444 63.8981 62.9545 63.6465C63.3646 63.3949 63.6143 63.0954 63.6916 62.8618C63.7807 62.6282 63.7807 62.4964 63.7926 62.4964L63.7807 62.5204Z" fill="#B1B0B0"/>
<path d="M36.1338 57.9982C36.1338 57.9982 36.003 57.8784 35.8188 57.6029C35.6405 57.3273 35.4027 56.8781 35.2898 56.2431C35.1768 55.6201 35.1947 54.7815 35.6167 53.9549C36.0268 53.1402 36.8412 52.3376 37.9824 52.0321L37.9349 52.1219C37.5842 51.0617 37.6198 49.7498 38.1786 48.5518C38.452 47.9528 38.8562 47.3837 39.3911 46.9225C39.9202 46.4493 40.5918 46.1558 41.21 45.7904C41.5191 45.6047 41.8222 45.395 42.0719 45.1315C42.3215 44.8679 42.4999 44.5444 42.6128 44.185C42.8506 43.4722 42.8565 42.6575 43.1715 41.8788C43.7957 40.3514 45.4303 39.1833 47.2135 39.2492L47.1065 39.381C46.6963 37.7876 47.0114 35.9366 48.0516 34.529C49.1393 33.0614 50.9107 32.2228 52.6225 32.2348L52.5215 32.3665C52.0816 30.3119 53.0089 28.1735 54.59 27.1132C56.1771 26.047 58.2159 26.041 59.69 26.8257L59.577 26.8497C60.219 26.041 61.0452 25.4719 61.8655 25.0586C62.6917 24.6513 63.5179 24.3518 64.3204 24.1841C65.9193 23.8127 67.3697 23.8426 68.5228 23.9924C69.6819 24.1541 70.5616 24.4596 71.1144 24.7471C71.4057 24.8669 71.5899 25.0227 71.7326 25.1005C71.8693 25.1844 71.9347 25.2383 71.9347 25.2383C71.9228 25.2563 71.6494 25.0646 71.0906 24.801C70.5319 24.5315 69.6581 24.2499 68.505 24.1002C67.3578 23.9684 65.9253 23.9504 64.3501 24.3338C63.5595 24.5015 62.7452 24.801 61.9368 25.2084C61.1344 25.6217 60.3319 26.1788 59.7138 26.9635L59.6662 27.0234L59.6008 26.9874C58.1802 26.2447 56.2127 26.2566 54.697 27.2809C53.1872 28.2933 52.2956 30.3599 52.7236 32.3186L52.7533 32.4504H52.6225C50.976 32.4384 49.2642 33.2531 48.224 34.6608C47.2194 36.0145 46.9163 37.8056 47.3145 39.333L47.3502 39.4708H47.2075C45.5254 39.3929 43.9561 40.5131 43.3617 41.9567C43.0645 42.6815 43.0527 43.4902 42.803 44.2449C42.6841 44.6223 42.482 44.9817 42.2145 45.2632C41.9471 45.5448 41.632 45.7604 41.3111 45.9521C40.675 46.3235 40.0212 46.605 39.51 47.0603C38.9988 47.5035 38.6006 48.0486 38.3331 48.6297C37.7863 49.7858 37.7446 51.0557 38.0775 52.086L38.1013 52.1578L38.03 52.1758C36.9363 52.4574 36.1338 53.2301 35.7296 54.0148C35.3076 54.8115 35.2838 55.6261 35.3789 56.2371C35.48 56.8601 35.6999 57.3093 35.8663 57.5909C36.0387 57.8724 36.1516 58.0042 36.1457 58.0102L36.1338 57.9982Z" fill="#B1B0B0"/>
<path d="M103.611 52.2418C103.611 52.2418 103.445 52.0681 103.516 51.6608C103.558 51.4691 103.665 51.2415 103.861 51.0258C104.051 50.8042 104.348 50.6365 104.681 50.4867C105.008 50.331 105.401 50.1872 105.728 49.8997C106.054 49.6122 106.292 49.1749 106.393 48.6717C106.5 48.1686 106.488 47.6115 106.393 47.0304C106.304 46.4494 106.144 45.8384 106.066 45.1735C105.9 43.8317 106.316 42.4001 106.488 40.8786C106.572 40.1178 106.554 39.3152 106.322 38.5365C106.096 37.7697 105.597 37.0329 104.824 36.6915C104.057 36.3321 103.16 36.2962 102.262 36.1284C101.816 36.0446 101.353 35.9188 100.937 35.6792C100.515 35.4456 100.176 35.0682 99.9202 34.6609C99.409 33.8282 99.195 32.8638 98.8681 31.9533C98.7076 31.4981 98.5174 31.0488 98.2321 30.6655C97.9527 30.2761 97.5485 30.0006 97.0908 29.8688C96.4608 29.707 95.7891 29.8209 95.1174 29.8209C94.7786 29.8209 94.4339 29.7969 94.1069 29.6831C93.78 29.5753 93.4769 29.3716 93.2569 29.108C92.7992 28.5869 92.5853 27.9519 92.3178 27.3829C92.0622 26.8018 91.7055 26.2927 91.2538 25.8854C90.3622 25.0587 89.1556 24.6514 88.0262 24.7592C86.8968 24.861 85.8566 25.4061 85.1612 26.1909L85.078 26.2867L85.0126 26.1789C83.9248 24.3519 82.0941 23.3096 80.4297 23.0221C79.5857 22.8783 78.7773 22.9262 78.0581 23.088C77.3388 23.2437 76.7028 23.5133 76.1857 23.8487C75.1455 24.5256 74.6165 25.3882 74.3431 25.9872C74.2004 26.2867 74.1231 26.5323 74.0696 26.694C74.0458 26.7719 74.0221 26.8318 74.0042 26.8797C73.9864 26.9216 73.9805 26.9396 73.9805 26.9396C73.9805 26.9396 73.9805 26.9157 73.9924 26.8737C74.0042 26.8198 74.0221 26.7599 74.0399 26.682C74.0815 26.5143 74.1528 26.2687 74.2896 25.9632C74.5452 25.3522 75.0682 24.4597 76.1203 23.7589C76.6434 23.4114 77.2853 23.1299 78.0224 22.9622C78.7535 22.7945 79.5857 22.7346 80.4476 22.8783C82.1595 23.1599 84.0378 24.2141 85.1671 26.089L85.0185 26.077C85.7377 25.2504 86.8196 24.6813 88.0024 24.5735C89.1853 24.4537 90.4514 24.885 91.3905 25.7416C91.8601 26.1669 92.2465 26.712 92.5021 27.305C92.7755 27.8861 92.9954 28.509 93.4115 28.9762C93.8157 29.4674 94.4695 29.6352 95.1174 29.6112C95.7653 29.6112 96.4548 29.4914 97.1503 29.6651C97.6555 29.8089 98.1073 30.1263 98.4045 30.5397C98.7136 30.953 98.9097 31.4202 99.0702 31.8874C99.3971 32.8099 99.6111 33.7683 100.099 34.553C100.342 34.9424 100.645 35.2898 101.038 35.5055C101.424 35.7271 101.858 35.8469 102.298 35.9308C103.172 36.0985 104.087 36.1284 104.907 36.5118C105.311 36.7035 105.674 36.985 105.936 37.3384C106.203 37.6859 106.381 38.0812 106.506 38.4885C106.744 39.2972 106.756 40.1298 106.673 40.9026C106.482 42.448 106.072 43.8557 106.221 45.1555C106.286 45.8025 106.441 46.4135 106.53 47.0065C106.625 47.5935 106.637 48.1745 106.518 48.6957C106.405 49.2168 106.155 49.6781 105.805 49.9776C105.454 50.2771 105.056 50.4148 104.723 50.5646C104.39 50.7084 104.105 50.8641 103.915 51.0738C103.724 51.2774 103.611 51.4871 103.564 51.6728C103.475 52.0501 103.635 52.2418 103.611 52.2418Z" fill="#B1B0B0"/>
<path d="M116.028 39.704C116.028 39.704 115.998 39.6621 115.938 39.5782C115.879 39.4824 115.802 39.3625 115.701 39.2008C115.487 38.8594 115.19 38.3682 114.803 37.7452C114.411 37.1163 113.959 36.3256 113.347 35.475C112.735 34.6364 111.92 33.6959 110.708 33.1987C110.101 32.9531 109.424 32.8214 108.728 32.5997C108.384 32.4859 108.033 32.3481 107.706 32.1445C107.379 31.9408 107.088 31.6473 106.886 31.2999C106.47 30.605 106.369 29.7724 106.012 29.0416C105.834 28.6822 105.584 28.3527 105.227 28.1491C104.877 27.9394 104.461 27.8376 104.039 27.7537C103.617 27.6639 103.171 27.592 102.743 27.4183C102.309 27.2565 101.928 26.9211 101.667 26.5258C101.15 25.7111 101.031 24.7407 100.757 23.8422C100.621 23.3929 100.442 22.9497 100.145 22.5962C99.854 22.2368 99.4082 22.0272 98.9445 21.9853C97.9994 21.8954 97.0424 22.3327 95.9904 22.2907C95.4673 22.2608 94.9501 22.0511 94.5578 21.7217C94.1596 21.3922 93.8446 20.9969 93.5474 20.6015C93.2502 20.2062 92.9648 19.8108 92.6379 19.4694C92.3169 19.122 91.9365 18.8345 91.5026 18.6967C90.6229 18.4032 89.6956 18.7206 88.8516 19.0201C88.0016 19.3256 87.1159 19.6491 86.2065 19.5593C85.3089 19.4814 84.5065 19.11 83.7635 18.7566C83.0145 18.4032 82.3072 18.0138 81.5642 17.8341C80.0663 17.4807 78.5922 17.7203 77.3737 18.1755C76.1433 18.6368 75.1803 19.3796 74.4611 20.1343C73.7419 20.8951 73.308 21.7037 72.981 22.3626C72.6957 23.0455 72.5055 23.5906 72.4223 23.968C72.3747 24.1477 72.3331 24.2914 72.3034 24.3993C72.2737 24.4951 72.2618 24.543 72.2559 24.543C72.2559 24.543 72.2559 24.4891 72.2796 24.3933C72.3034 24.2855 72.3331 24.1417 72.3747 23.956C72.4461 23.5666 72.6244 23.0155 72.8978 22.3267C73.2188 21.6558 73.6408 20.8352 74.366 20.0504C75.0852 19.2777 76.06 18.511 77.3083 18.0318C78.5446 17.5586 80.0485 17.301 81.5939 17.6604C82.3666 17.8461 83.0859 18.2354 83.8289 18.5829C84.5719 18.9363 85.3565 19.2897 86.2065 19.3556C87.0624 19.4395 87.9124 19.128 88.7684 18.8225C89.2023 18.6727 89.6421 18.511 90.1117 18.4271C90.5813 18.3373 91.0865 18.3373 91.5561 18.493C92.0316 18.6428 92.4418 18.9602 92.7806 19.3197C93.1194 19.6791 93.4106 20.0804 93.7079 20.4698C94.0051 20.8591 94.3141 21.2425 94.6827 21.554C95.0571 21.8595 95.5089 22.0452 95.9963 22.0751C96.9711 22.123 97.9281 21.6857 98.9564 21.7696C99.4676 21.8175 99.9669 22.0571 100.294 22.4585C100.627 22.8478 100.805 23.327 100.948 23.7823C101.227 24.7048 101.346 25.6572 101.827 26.4119C102.071 26.7833 102.404 27.0768 102.808 27.2326C103.206 27.4003 103.64 27.4722 104.068 27.562C104.496 27.6519 104.93 27.7537 105.317 27.9873C105.709 28.209 105.988 28.5804 106.172 28.9637C106.535 29.7365 106.636 30.5631 107.028 31.216C107.403 31.8869 108.104 32.2343 108.77 32.45C109.448 32.6716 110.131 32.8034 110.755 33.061C112.009 33.5881 112.83 34.5585 113.436 35.4091C114.042 36.2776 114.482 37.0743 114.869 37.7093C115.237 38.3442 115.528 38.8354 115.73 39.1828C115.82 39.3446 115.897 39.4704 115.95 39.5722C115.998 39.6621 116.022 39.704 116.022 39.71L116.028 39.704Z" fill="#B1B0B0"/>
<path d="M107.711 33.1453C107.711 33.1453 107.753 33.1273 107.836 33.1093C107.919 33.1034 108.056 33.0854 108.222 33.1513C108.543 33.2651 108.941 33.6784 109.066 34.3253C109.126 34.6548 109.084 35.0142 109.036 35.4036C108.989 35.7869 108.923 36.2122 108.995 36.6495C109.066 37.0868 109.316 37.5061 109.637 37.9014C109.958 38.2968 110.35 38.6742 110.689 39.1534C111.034 39.6146 111.248 40.2795 111.063 40.9204C110.909 41.5494 110.528 42.1065 110.386 42.7414C110.237 43.3824 110.445 44.0652 110.796 44.6702C111.141 45.2872 111.604 45.8683 111.955 46.5571C112.133 46.8986 112.264 47.2819 112.312 47.6833C112.353 48.0846 112.3 48.4979 112.175 48.8873C111.919 49.666 111.45 50.3429 111.063 51.0617C110.677 51.7685 110.38 52.5832 110.576 53.3919C110.76 54.2005 111.301 54.8954 111.693 55.6861C111.89 56.0814 112.056 56.5067 112.104 56.956C112.145 57.4052 112.068 57.8605 111.919 58.2678C111.61 59.0944 111.081 59.7653 110.629 60.4482C110.172 61.1251 109.768 61.8199 109.625 62.5927C109.458 63.3594 109.411 64.1501 109.143 64.8809C109.007 65.2463 108.811 65.5937 108.531 65.8573C108.252 66.1268 107.913 66.3005 107.592 66.4563C107.265 66.606 106.944 66.7378 106.659 66.9175C106.379 67.1032 106.124 67.3189 105.91 67.5704C105.482 68.0736 105.191 68.6546 104.929 69.2177C104.668 69.7808 104.424 70.3379 104.139 70.841C103.58 71.8593 102.73 72.5662 101.892 72.9376C101.06 73.3209 100.257 73.4407 99.6211 73.4228C98.9791 73.4048 98.4917 73.285 98.1707 73.1712C97.8557 73.0514 97.7012 72.9675 97.7012 72.9675C97.7071 72.9196 98.3431 73.3269 99.6211 73.3389C100.251 73.3389 101.03 73.2131 101.844 72.8297C102.658 72.4584 103.467 71.7695 104.008 70.7692C104.281 70.272 104.519 69.7209 104.78 69.1518C105.042 68.5828 105.333 67.9897 105.779 67.4566C106.005 67.1931 106.267 66.9594 106.57 66.7678C106.873 66.5761 107.2 66.4383 107.521 66.2886C107.842 66.1388 108.157 65.9711 108.406 65.7255C108.656 65.4799 108.84 65.1624 108.971 64.821C109.227 64.1261 109.268 63.3414 109.435 62.5567C109.583 61.754 110.005 61.0173 110.463 60.3344C110.921 59.6515 111.438 58.9806 111.729 58.2019C111.872 57.8126 111.943 57.3992 111.901 56.9859C111.86 56.5726 111.705 56.1713 111.515 55.7879C111.135 55.0212 110.576 54.3143 110.38 53.4458C110.279 53.0145 110.302 52.5592 110.409 52.1399C110.516 51.7206 110.701 51.3313 110.897 50.9659C111.289 50.2351 111.753 49.5642 111.997 48.8274C112.115 48.462 112.163 48.0786 112.127 47.7072C112.092 47.3359 111.967 46.9824 111.794 46.647C111.462 45.9821 111.004 45.3951 110.647 44.7601C110.285 44.1371 110.059 43.3944 110.225 42.6995C110.386 42.0166 110.772 41.4655 110.915 40.8785C111.087 40.2915 110.903 39.6985 110.576 39.2432C110.255 38.782 109.863 38.3986 109.542 37.9913C109.221 37.584 108.959 37.1407 108.888 36.6735C108.822 36.2062 108.9 35.7749 108.947 35.3916C109.001 35.0082 109.048 34.6488 108.995 34.3433C108.888 33.7203 108.519 33.313 108.222 33.1932C107.913 33.0734 107.729 33.1692 107.729 33.1513L107.711 33.1453Z" fill="#B1B0B0"/>
<path d="M59.4894 61.837C59.4894 61.837 59.0792 62.0107 58.5086 62.5678C57.9499 63.1129 57.2485 64.1432 57.1177 65.5928C57.0464 66.3116 57.1296 67.1143 57.4327 67.911C57.7478 68.6957 58.2649 69.4744 58.9841 70.0974C59.6915 70.7263 60.5949 71.2235 61.6114 71.4392C62.6219 71.6608 63.7393 71.5709 64.7558 71.1516C65.7722 70.7383 66.646 70.0435 67.2522 69.1989C67.8645 68.3543 68.1855 67.3539 68.233 66.4015C68.3222 64.4727 67.4306 62.8014 66.325 61.8969C65.7603 61.4417 65.1481 61.2021 64.6072 61.0403C64.0663 60.8786 63.5729 60.8307 63.1806 60.8367C62.7823 60.8367 62.4792 60.9026 62.2771 60.9744C62.0809 61.0463 61.9858 61.1002 61.9858 61.1062C61.9918 61.1362 62.396 60.9205 63.1746 60.9445C63.561 60.9565 64.0365 61.0224 64.5596 61.1901C65.0767 61.3578 65.6711 61.6094 66.2002 62.0527C67.2463 62.9392 68.0785 64.5505 67.9834 66.3955C67.9299 67.306 67.6208 68.2464 67.0383 69.0491C66.4617 69.8518 65.6236 70.5107 64.6547 70.906C63.6858 71.3074 62.6278 71.3972 61.6649 71.1876C60.7019 70.9839 59.8282 70.5227 59.1446 69.9177C58.4491 69.3247 57.9498 68.5879 57.6408 67.8391C57.3436 67.0844 57.2485 66.3116 57.3079 65.6228C57.403 64.2211 58.0568 63.2147 58.5799 62.6517C59.1149 62.0826 59.5072 61.873 59.4894 61.843V61.837Z" fill="#4893B4"/>
<path d="M82.1432 50.0009C82.2977 50.8036 81.7509 51.6002 80.9187 51.7739C80.0925 51.9536 79.2901 51.4445 79.1355 50.6418C78.981 49.8391 79.5278 49.0425 80.354 48.8628C81.1862 48.683 81.9827 49.1922 82.1372 49.9949L82.1432 50.0009Z" fill="#020101"/>
<path d="M96.3815 47.6229C96.536 48.4256 95.9892 49.2223 95.157 49.396C94.3308 49.5757 93.5283 49.0666 93.3738 48.2639C93.2192 47.4612 93.7661 46.6645 94.5923 46.4848C95.4245 46.3051 96.221 46.8143 96.3755 47.617L96.3815 47.6229Z" fill="#020101"/>
<path d="M95.1636 42.3937C95.0448 42.6393 93.7846 41.9744 92.3046 42.3159C90.8186 42.6333 89.9448 43.7655 89.7367 43.5918C89.6357 43.5139 89.7189 43.1006 90.0993 42.5854C90.4679 42.0763 91.1693 41.5072 92.0965 41.3035C93.0179 41.0999 93.8916 41.3215 94.4325 41.627C94.9853 41.9325 95.229 42.2799 95.1696 42.3877L95.1636 42.3937Z" fill="#020101"/>
<path d="M80.9795 45.2691C80.8012 45.5327 79.4044 44.6701 77.6033 44.8918C75.8023 45.0835 74.6016 46.2455 74.3757 46.0299C74.2687 45.934 74.4233 45.4848 74.9463 44.9636C75.4575 44.4425 76.367 43.8914 77.4904 43.7596C78.6138 43.6338 79.6124 43.9633 80.2128 44.3527C80.825 44.742 81.0627 45.1493 80.9795 45.2632V45.2691Z" fill="#020101"/>
<path d="M112.009 10.5321C111.979 10.586 111.355 10.011 109.964 9.63362C109.274 9.45991 108.389 9.33411 107.384 9.47188C106.386 9.59768 105.256 9.98104 104.27 10.7717L104.127 10.8855L104.02 10.7358C103.206 9.63362 101.827 8.77104 100.204 8.53144C98.5989 8.27985 96.7087 8.63926 95.3476 9.8852L95.1752 10.0409L95.0206 9.87322C93.493 8.19599 91.1332 7.02193 88.5951 6.88416C86.6396 6.77034 84.7434 7.35139 83.2099 8.33975C81.6704 9.32812 80.4934 10.7058 79.7802 12.1794L79.7326 12.2812L79.6197 12.2992C77.4858 12.6287 75.6015 13.4014 74.1036 14.3658C72.5879 15.3062 71.4526 16.4144 70.6145 17.3968C68.9501 19.3975 68.4568 20.877 68.3795 20.8351C68.3676 20.8351 68.3973 20.7393 68.4627 20.5656C68.5341 20.3978 68.6232 20.1343 68.7778 19.8168C69.0809 19.1759 69.5921 18.2594 70.4124 17.2291C71.2326 16.2048 72.368 15.0427 73.9075 14.0543C75.4232 13.042 77.3491 12.2213 79.5543 11.8619L79.3878 11.9817C80.119 10.4243 81.3434 8.9747 82.9543 7.93243C84.5532 6.89015 86.5563 6.27316 88.613 6.38698C91.2878 6.53074 93.7486 7.77069 95.3535 9.54377L95.0325 9.53178C96.5364 8.17802 98.5692 7.81861 100.263 8.10614C101.987 8.38168 103.449 9.32213 104.299 10.5202L104.05 10.4842C105.114 9.66357 106.308 9.28619 107.349 9.17837C108.401 9.06456 109.31 9.2203 110.011 9.42995C110.719 9.6456 111.224 9.93911 111.545 10.1488C111.86 10.3764 112.015 10.5082 112.003 10.5202L112.009 10.5321Z" fill="#020101"/>
<path d="M64.0702 13.4975C64.0702 13.4975 63.5353 13.9108 62.3643 14.1205C61.2231 14.3241 59.3388 14.2762 57.5496 12.9764C56.6818 12.3294 55.8972 11.3411 55.4871 10.1071C55.0769 8.88512 54.9818 7.42953 55.4217 6.02185C55.8497 4.60819 56.8899 3.30235 58.3045 2.53561C59.7014 1.7569 61.4668 1.45739 63.137 1.94259L62.8695 2.03843C63.4223 1.18784 64.3258 0.528926 65.3482 0.217441C66.1923 -0.0461242 67.0958 -0.070084 67.9339 0.14556C68.772 0.373184 69.5209 0.870363 70.0618 1.51729C71.1436 2.80517 71.5003 4.59621 70.9831 6.07577L70.6324 5.82418C71.7143 4.99156 73.1289 4.93764 74.2464 5.33898C75.3936 5.72235 76.2733 6.62686 76.6716 7.63319C77.4978 9.67582 76.8321 11.7364 75.8454 12.8865C74.8468 14.0845 73.6936 14.5997 72.9209 14.8633C72.5286 14.995 72.2195 15.0549 72.0115 15.0909C71.7975 15.1208 71.6905 15.1268 71.6905 15.1148C71.6845 15.0789 72.1244 15.019 72.8733 14.7195C73.6104 14.42 74.71 13.8749 75.6314 12.7068C76.5468 11.5927 77.1114 9.63988 76.3268 7.77695C75.9464 6.86047 75.1558 6.07577 74.1156 5.73433C73.0992 5.38091 71.8331 5.45878 70.9118 6.1776L70.3115 6.64482L70.5611 5.92601C71.0129 4.60819 70.6919 2.97888 69.7052 1.82279C69.2178 1.24175 68.558 0.810462 67.815 0.606798C67.066 0.415115 66.2517 0.433085 65.4909 0.678679C64.5695 0.960214 63.7612 1.55323 63.2737 2.302L63.1786 2.45175L63.0063 2.40383C61.4786 1.95457 59.8322 2.22413 58.5245 2.94294C57.2049 3.65576 56.242 4.84779 55.8318 6.15364C55.4098 7.46547 55.4752 8.83721 55.8497 9.9933C56.2182 11.1614 56.9315 12.0958 57.7458 12.7248C59.4101 13.9887 61.2231 14.0965 62.3405 13.9528C63.4877 13.803 64.0584 13.4496 64.0762 13.5035L64.0702 13.4975Z" fill="#020101"/>
<path d="M32.6987 35.7329C32.6987 35.7329 32.6274 35.655 32.5323 35.4813C32.4312 35.3076 32.3005 35.044 32.1697 34.6846C31.9082 33.9718 31.6169 32.8576 31.7239 31.438C31.8309 30.0423 32.3659 28.2991 33.7033 26.8735C35.0109 25.4598 37.0795 24.3636 39.4333 24.3756L39.2134 24.5314C39.8969 22.5486 41.3889 20.6498 43.4396 19.4877C44.9612 18.6191 46.691 18.2717 48.3077 18.3496C49.9304 18.4334 51.4462 18.9306 52.6885 19.6973H52.4507C54.0378 18.6131 55.7675 18.068 57.3189 17.9303C58.8762 17.7625 60.2493 17.9842 61.3311 18.2897C62.4129 18.6071 63.2094 19.0205 63.7206 19.3379C64.2258 19.6674 64.4755 19.8771 64.4636 19.895C64.422 19.9729 63.3996 19.0983 61.2598 18.5413C60.1958 18.2777 58.8584 18.104 57.3545 18.2897C55.8566 18.4514 54.1983 19.0025 52.6944 20.0568L52.5755 20.1406L52.4567 20.0687C51.2738 19.3499 49.8235 18.8947 48.278 18.8228C46.7385 18.7569 45.1039 19.0923 43.6654 19.913C41.7218 21.0152 40.2952 22.8122 39.6354 24.6871L39.5819 24.8429H39.4155C37.2162 24.8129 35.2368 25.8192 33.9767 27.149C32.6868 28.4848 32.1459 30.1201 32.0033 31.4679C31.8606 32.8337 32.0924 33.9239 32.3064 34.6427C32.5263 35.3615 32.7225 35.7269 32.6928 35.7389L32.6987 35.7329Z" fill="#020101"/>
<path opacity="0.2" d="M81.5219 60.5322C81.6052 59.4779 82.5324 58.5434 83.5845 58.5015C84.3572 58.4716 85.1121 58.8909 85.5579 59.5258C85.9978 60.1668 86.1286 60.9934 85.974 61.7541L85.9621 61.9219C85.3737 62.7964 84.2027 63.2457 83.1922 62.9402C82.1877 62.6347 81.4387 61.5864 81.5219 60.5322Z" fill="#F64C5D"/>
<path d="M87.2055 61.7779C87.1698 61.5143 85.4579 61.8438 83.9601 60.6038C82.4562 59.3639 82.2957 57.489 82.052 57.5189C81.9391 57.5189 81.7964 57.9921 81.9272 58.7768C82.0461 59.5436 82.5038 60.6098 83.4192 61.3705C84.3405 62.1253 85.4104 62.323 86.1237 62.2451C86.8548 62.1732 87.2412 61.8977 87.2055 61.7779Z" fill="#020101"/>
<path d="M90.9785 175.692C91.674 175.213 127.719 165.712 138.899 163.029C150.074 160.345 156.119 157.704 162.949 165.173C169.778 172.637 167.234 175.015 163.115 184.689C158.996 194.369 142.733 202.27 132.717 204.474C122.702 206.679 98.4204 204.774 98.4204 204.774L98.2837 188.553L90.9785 175.698V175.692Z" fill="#020101"/>
<path d="M95.4142 192.363C95.4142 192.363 95.444 192.315 95.5093 192.237C95.5866 192.147 95.6877 192.027 95.8125 191.884C96.0978 191.56 96.502 191.111 97.0072 190.536C98.0534 189.374 99.575 187.696 101.531 185.702C103.498 183.719 105.888 181.383 108.788 179.095C111.677 176.794 115.113 174.548 119.036 172.865C122.959 171.17 126.918 170.169 130.537 169.498C134.169 168.852 137.474 168.528 140.25 168.312C143.026 168.103 145.279 168.001 146.83 167.935C147.591 167.905 148.191 167.887 148.619 167.869C148.809 167.869 148.964 167.863 149.083 167.857C149.19 167.857 149.243 167.857 149.243 167.863C149.243 167.863 149.19 167.875 149.083 167.887C148.964 167.899 148.809 167.911 148.619 167.923C148.191 167.953 147.591 167.989 146.83 168.037C145.279 168.139 143.032 168.271 140.262 168.504C137.492 168.744 134.199 169.091 130.579 169.75C126.971 170.433 123.036 171.439 119.143 173.116C115.243 174.788 111.832 177.016 108.943 179.292C106.042 181.563 103.647 183.875 101.667 185.833C99.6939 187.81 98.1544 189.463 97.0845 190.602C96.5614 191.159 96.1453 191.596 95.8481 191.913C95.7114 192.051 95.6044 192.165 95.5212 192.249C95.444 192.321 95.4083 192.363 95.4023 192.357L95.4142 192.363Z" fill="#B1B0B0"/>
<path d="M5.85547 186.295C5.85547 186.295 18.3617 202.648 28.6627 206.32C38.9637 209.991 93.1672 205.756 93.1672 205.756L90.2666 179.682L45.6804 177.483L5.85547 186.295Z" fill="#020101"/>
<path d="M96.6335 136.558L104.705 151.941L121.093 157.721L117.105 164.268C116.808 164.61 102.738 165.52 98.6485 164.676C94.565 163.831 83.9668 141.392 83.9668 141.392L96.6276 136.558H96.6335Z" fill="#FCC8CD"/>
<path d="M101.513 137.277C101.513 137.277 97.2574 131.035 95.5574 128.118C93.0193 123.769 86.8613 122.637 86.8613 122.637L91.6819 142.314L101.513 137.277Z" fill="#60C4F0"/>
<path d="M50.2823 83.5037C52.7669 84.4202 54.5204 87.0558 54.4134 89.7214C54.3064 92.387 52.3508 94.8729 49.8008 95.5857C47.6788 96.1787 44.9446 95.2143 44.469 93.0519C44.7365 95.0886 43.9638 97.2929 42.3232 98.5149C40.6827 99.7369 38.204 99.7848 36.6645 98.443C35.125 97.1012 34.8813 94.4177 36.3138 92.9561C34.1978 93.7887 31.6834 93.6449 29.7635 92.423C27.8436 91.201 26.6191 88.8708 26.8628 86.5946C27.1065 84.3183 28.9076 82.2518 31.1485 81.8684C29.4425 79.4484 29.924 75.7345 32.1946 73.8416C34.4652 71.9488 38.1743 72.1584 40.2191 74.2969C41.0334 71.7271 43.7676 69.9301 46.4246 70.2116C49.0875 70.4932 51.3879 72.8233 51.6554 75.5069C53.8249 75.8963 55.5606 77.9988 55.5487 80.2211C55.5309 82.4434 53.7655 84.522 51.59 84.8754" fill="#020101"/>
<path d="M45.664 92.5849C43.9283 89.6737 44.285 88.7632 45.3787 86.5289C46.5377 84.1748 48.9451 83.3002 50.5856 83.4919C50.1458 80.9341 49.6167 79.185 51.4475 77.2802C53.3853 75.2675 54.5206 75.2196 57.2726 74.8542C58.8062 72.9972 61.1006 71.7094 63.5079 71.344C65.9153 70.9786 68.4117 71.5417 70.2901 72.8715C73.2145 71.8711 76.6264 72.6918 78.5166 74.8602C79.4023 75.8725 79.9967 77.1604 81.1557 77.8912C81.9938 78.4243 82.7785 78.9814 83.3075 79.802C84.2942 81.3175 84.3655 82.1621 84.2704 84.1329C84.205 85.4986 83.8068 87.5592 84.8589 88.4278C88.9305 91.8002 86.3449 97.8262 85.0966 98.6109L63.8467 114.634C62.7946 116.545 60.4884 117.815 58.2772 117.695C56.066 117.576 54.0926 116.078 53.516 114.083C49.7356 113.245 47.0489 109.567 47.5007 105.835C43.8154 104.188 42.1629 98.2575 45.658 92.5789L45.664 92.5849Z" fill="#020101"/>
<path d="M80.2873 85.9478C77.9631 80.1434 69.8436 76.3397 64.3573 78.9214L53.7888 85.0493C49.9311 87.2836 48.243 92.0996 49.8063 96.4185L53.8898 102.546L63.2755 130.55L62.4492 131.221C62.4492 131.221 68.2565 143.423 78.3792 139.128C87.4736 135.27 81.4642 124.578 81.4642 124.572L78.9023 117.246C78.9023 117.246 87.961 113.544 86.1956 103.139C85.3159 97.9639 82.8729 92.4051 80.2932 85.9538L80.2873 85.9478Z" fill="#FCC8CD"/>
<path d="M80.8046 96.5438C81.0483 97.2087 80.7095 97.9574 80.0497 98.227C79.3899 98.4965 78.6588 98.1791 78.4091 97.5201C78.1654 96.8612 78.5042 96.1065 79.164 95.8369C79.8238 95.5674 80.5609 95.8848 80.8046 96.5497V96.5438Z" fill="#020101"/>
<path d="M80.4534 92.0036C80.3643 92.2012 79.3419 91.8059 78.165 92.1833C76.9821 92.5427 76.3045 93.4592 76.1321 93.3454C76.0489 93.2974 76.1083 92.98 76.3996 92.5666C76.6849 92.1593 77.2377 91.6741 77.9748 91.4465C78.7118 91.2189 79.4132 91.3087 79.8531 91.4944C80.2989 91.6741 80.501 91.9137 80.4534 92.0036Z" fill="#020101"/>
<path d="M69.7968 99.845C70.0405 100.504 69.7017 101.259 69.0419 101.528C68.3821 101.798 67.651 101.48 67.4013 100.821C67.1576 100.162 67.4964 99.4077 68.1562 99.1382C68.816 98.8686 69.5531 99.1861 69.7968 99.851V99.845Z" fill="#020101"/>
<path d="M68.3089 95.8073C68.2197 96.005 67.1973 95.6096 66.0204 95.987C64.8376 96.3464 64.16 97.2629 63.9876 97.1491C63.9044 97.1012 63.9638 96.7837 64.2551 96.3704C64.5404 95.963 65.0932 95.4778 65.8302 95.2502C66.5673 95.0226 67.2687 95.1124 67.7085 95.2981C68.1543 95.4778 68.3564 95.7174 68.3089 95.8073Z" fill="#020101"/>
<path d="M75.2338 103.846C75.21 103.786 75.9887 103.384 77.2607 102.779C77.5876 102.63 77.8848 102.468 77.8848 102.264C77.9027 102.043 77.6708 101.803 77.4093 101.546C76.8862 101.006 76.3453 100.437 75.7688 99.8443C75.1625 99.2273 71.9943 95.6632 71.8457 95.2679C71.9765 95.172 73.9499 97.0649 76.2502 99.5029C76.809 100.108 77.3439 100.683 77.8551 101.228C78.081 101.492 78.4079 101.761 78.3663 102.222C78.3425 102.456 78.1404 102.69 77.9383 102.815C77.7422 102.947 77.552 103.013 77.3915 103.079C76.0838 103.612 75.2635 103.906 75.2397 103.852L75.2338 103.846Z" fill="#020101"/>
<path opacity="0.2" d="M78.9737 117.228C78.9737 117.228 72.7087 119.864 65.0469 118.091C65.0469 118.091 70.5808 124.039 79.8059 119.834L78.9737 117.234V117.228Z" fill="#F64C5D"/>
<path d="M67.5327 92.3089C67.5209 92.7821 66.2845 92.86 64.9471 93.4291C63.5978 93.9622 62.6052 94.7948 62.3258 94.4414C62.201 94.2677 62.2961 93.8065 62.6468 93.2614C62.9975 92.7223 63.6156 92.1412 64.424 91.8058C65.2324 91.4763 66.0408 91.4763 66.6114 91.638C67.188 91.7998 67.5327 92.0873 67.5327 92.3089Z" fill="#020101"/>
<path d="M79.4261 87.6252C79.337 88.0864 78.2611 88.1104 77.1436 88.5776C76.0083 88.9909 75.188 89.7037 74.8195 89.4222C74.6531 89.2844 74.6531 88.8591 74.9205 88.344C75.188 87.8348 75.7527 87.2658 76.5254 86.9603C77.2982 86.6608 78.0947 86.6967 78.6356 86.8944C79.1824 87.0921 79.4618 87.4035 79.4261 87.6252Z" fill="#020101"/>
<path d="M54.3611 102.936C54.3611 102.936 47.4541 102.81 49.6772 108.764C51.9062 114.718 57.2023 111.244 57.1488 111.07C57.0954 110.897 54.3552 102.93 54.3552 102.93L54.3611 102.936Z" fill="#FCC8CD"/>
<path d="M54.5556 109.501C54.5259 109.489 54.4843 109.615 54.3416 109.759C54.2049 109.902 53.9434 110.064 53.5986 110.064C52.9032 110.064 52.0235 109.267 51.5955 108.207C51.3756 107.668 51.2923 107.111 51.3221 106.614C51.334 106.111 51.4944 105.697 51.7738 105.524C52.0472 105.332 52.3385 105.44 52.4693 105.577C52.606 105.715 52.6179 105.847 52.6476 105.847C52.6714 105.853 52.7308 105.697 52.5941 105.47C52.5287 105.362 52.4039 105.248 52.2315 105.182C52.0472 105.122 51.8273 105.14 51.6193 105.248C51.1913 105.452 50.9476 106.033 50.9179 106.578C50.8644 107.135 50.9476 107.77 51.1913 108.375C51.6787 109.561 52.6892 110.453 53.6105 110.382C54.0563 110.334 54.3416 110.076 54.4665 109.866C54.5913 109.651 54.5675 109.507 54.5437 109.501H54.5556Z" fill="#595959"/>
<path d="M75.4721 107.003C75.5018 107.051 75.27 107.278 74.7826 107.452C74.3071 107.626 73.5522 107.697 72.7973 107.416C72.0424 107.128 71.5253 106.577 71.2756 106.128C71.0201 105.679 70.9903 105.349 71.0438 105.337C71.1092 105.313 71.24 105.589 71.5372 105.948C71.8284 106.308 72.3099 106.745 72.9578 106.991C73.6057 107.23 74.2536 107.218 74.7054 107.14C75.163 107.063 75.4424 106.949 75.4721 107.009V107.003Z" fill="#020101"/>
<g opacity="0.4">
<path opacity="0.2" d="M65.7834 104.068C65.9261 103.649 66.3659 103.367 66.7404 103.146C67.0733 103.044 67.4121 102.936 67.7568 102.918C68.1075 102.9 68.4701 102.972 68.7435 103.187C69.017 103.403 69.1775 103.786 69.0705 104.122C68.9872 104.385 68.7614 104.583 68.5296 104.733C68.1432 104.991 67.7152 105.176 67.2635 105.278C66.8533 105.374 66.3897 105.386 66.0568 105.128C65.7061 104.859 65.6407 104.487 65.7834 104.068Z" fill="#F64C5D"/>
</g>
<g opacity="0.4">
<path opacity="0.2" d="M80.3537 99.5932C80.4964 99.1739 80.9362 98.8923 81.3107 98.6707C81.6436 98.5689 81.9824 98.461 82.3271 98.4431C82.6778 98.4251 83.0404 98.497 83.3138 98.7126C83.5873 98.9283 83.7478 99.3116 83.6408 99.6471C83.5575 99.9106 83.3317 100.108 83.0999 100.258C82.7135 100.516 82.2855 100.701 81.8338 100.803C81.4236 100.899 80.96 100.911 80.6271 100.653C80.2764 100.384 80.2111 100.012 80.3537 99.5932Z" fill="#F64C5D"/>
</g>
<path d="M47.8568 96.3046C47.3516 94.6693 47.5359 92.8722 48.1124 91.2549C48.689 89.6436 48.4215 86.8402 49.4558 85.4804C51.6848 82.5573 55.6198 81.3113 58.8355 79.5562C62.0512 77.8071 66.8064 74.2191 70.4263 74.7761L81.0423 81.3832C81.1493 83.0245 79.0392 84.54 77.9098 84.1566C76.7805 83.7733 75.9245 82.6831 75.8057 81.491C74.2662 82.8987 70.4679 82.8867 69.2613 81.1855C68.1854 84.1686 65.7365 85.7201 62.6991 84.8994C63.2222 86.5107 62.8477 88.3857 61.748 89.6675C60.6484 90.9494 58.8652 91.5964 57.2068 91.3148C58.3421 92.2912 59.2932 93.609 59.418 95.1125C59.5369 96.6161 58.5977 98.2573 57.1295 98.5269C58.1341 99.1319 59.0554 99.9286 59.626 100.959C60.1966 101.989 60.375 103.283 59.9054 104.361C59.4358 105.445 58.253 106.224 57.0939 106.033C56.1607 105.877 55.4236 105.182 54.746 104.511C53.6523 103.433 52.5645 102.355 51.4708 101.276C49.9967 99.8208 48.4691 98.2813 47.8568 96.2926V96.3046Z" fill="#020101"/>
<path d="M44.19 96.4902C44.2256 96.4902 44.1781 96.0769 44.3148 95.3521C44.4515 94.6453 44.8141 93.585 45.7473 92.6686L45.8186 92.6027L45.7652 92.5188C45.04 91.4166 44.5942 89.7394 45.0043 87.9903C45.3728 86.2472 46.8113 84.5819 48.7669 83.947C49.3732 83.7493 49.9973 83.6534 50.5858 83.6654H50.8473L50.7403 83.4258C50.0151 81.7606 50.1816 79.8976 50.8413 78.5139C51.4952 77.1003 52.6602 76.2077 53.7123 75.7525C54.7763 75.2853 55.7273 75.2134 56.3693 75.2373C57.0112 75.2613 57.3619 75.3512 57.3679 75.3212C57.3679 75.3092 57.2847 75.2793 57.1182 75.2373C56.9518 75.1894 56.7022 75.1415 56.3752 75.1115C55.7273 75.0516 54.7406 75.0876 53.6232 75.5428C52.5235 75.9861 51.2812 76.8966 50.5679 78.3821C49.8546 79.8317 49.6585 81.7845 50.4312 83.5636L50.5917 83.324C49.9616 83.312 49.2959 83.4078 48.6599 83.6175C46.5854 84.2884 45.0697 86.0675 44.6952 87.9184C44.2851 89.7693 44.7784 91.5125 45.5631 92.6506L45.5809 92.5008C44.6239 93.4892 44.291 94.6034 44.184 95.3341C44.1305 95.7055 44.1365 95.999 44.1424 96.1967C44.1603 96.3944 44.1781 96.4962 44.184 96.4962L44.19 96.4902Z" fill="#B1B0B0"/>
<path d="M52.9438 121.181L59.7021 119.887C70.6689 127.752 80.1971 126.686 80.1496 120.81L86.8604 122.637C86.8604 122.637 95.6397 145.974 96.3471 150.329C97.0544 154.684 102.6 172.319 102.6 172.319C102.6 172.319 79.4066 182.089 73.2545 181.849C67.1025 181.61 45.6445 179.172 45.6445 179.172L53.1518 134.719L52.9438 121.169V121.181Z" fill="#60C4F0"/>
<path d="M102.603 172.318L115.329 169.054L99.2505 180.309L90.9883 176.895L102.603 172.318Z" fill="#020101"/>
<path d="M122.778 165.352C128.045 164.052 133.056 168.653 131.938 174.002C131.903 174.176 131.861 174.343 131.813 174.523C130.102 180.843 117.28 192.643 114.689 194.338C112.097 196.034 93.7895 202.521 93.7895 202.521L87.7266 183.341C87.7266 183.341 110.653 172.93 115.818 168.737C118.101 166.88 120.651 165.891 122.784 165.364L122.778 165.352Z" fill="#FCC8CD"/>
<path d="M140.645 190.744C138.868 188.666 136.573 188.923 133.91 189.618C131.77 190.175 127.794 190.9 125.624 191.307C121.184 192.134 115.989 190.499 112.131 188.138L103.732 199.034C107.56 198.993 111.394 200.25 114.461 202.563C116.459 204.066 118.153 206.42 120.643 206.33C122.313 206.27 124.477 205.713 125.702 204.563C127.3 203.06 130.177 202.431 132.389 202.329C137.601 202.089 139.165 201.017 140.817 198.807C142.529 196.525 141.744 192.026 140.651 190.75L140.645 190.744Z" fill="#FCC8CD"/>
<path d="M49.832 176.638C50.6226 176.632 70.8858 169.018 78.1196 168.485C83.2434 168.108 90.1147 173.391 98.6028 178.674C108.874 185.066 119.627 191.697 119.472 191.936C119.193 192.368 112.007 203.078 112.007 203.078L83.2315 188.857L73.2277 190.151C65.6313 190.133 49.832 176.644 49.832 176.644V176.638Z" fill="#FCC8CD"/>
<path d="M49.8323 176.637C49.8323 176.637 49.9096 176.601 50.07 176.548C50.2424 176.488 50.4802 176.41 50.7833 176.302C51.4253 176.092 52.3526 175.781 53.5414 175.391C55.9487 174.607 59.42 173.481 63.6938 172.085C65.8395 171.39 68.1934 170.629 70.7136 169.815C73.2636 169.066 76.0752 168.527 79.0769 168.485C79.4514 168.485 79.8258 168.485 80.2122 168.521C80.6045 168.551 80.979 168.653 81.3534 168.742C82.0905 168.964 82.8157 169.246 83.5349 169.557C84.9734 170.186 86.388 170.929 87.8146 171.714C88.5279 172.109 89.2352 172.516 89.9485 172.942C90.6559 173.379 91.3454 173.834 92.0527 174.289C93.4614 175.194 94.8939 176.116 96.3443 177.051C101.474 180.351 106.39 183.52 110.877 186.407L110.883 186.413C112.762 187.869 114.682 189.151 116.619 190.139C118.551 191.163 120.703 191.259 122.647 191.241C123.633 191.229 124.572 191.127 125.512 191.08C126.433 191.098 127.307 190.966 128.145 190.786C129.821 190.421 131.337 189.929 132.728 189.558C134.119 189.187 135.397 188.911 136.532 188.863C137.661 188.797 138.654 189.001 139.343 189.39C140.039 189.78 140.425 190.283 140.645 190.63C140.859 190.984 140.936 191.181 140.936 191.181C140.924 191.187 140.829 190.996 140.609 190.654C140.384 190.325 139.991 189.834 139.308 189.468C138.624 189.103 137.661 188.911 136.544 188.989C135.426 189.049 134.16 189.336 132.775 189.714C131.39 190.091 129.875 190.594 128.186 190.972C127.342 191.157 126.445 191.301 125.512 191.283C124.608 191.331 123.639 191.439 122.653 191.457C121.666 191.481 120.638 191.457 119.597 191.307C118.557 191.169 117.493 190.864 116.506 190.355C114.539 189.354 112.613 188.078 110.711 186.611H110.723C106.235 183.736 101.319 180.579 96.1838 177.278C94.7334 176.344 93.3069 175.427 91.8922 174.517C91.1849 174.068 90.4894 173.606 89.788 173.175C89.0807 172.75 88.3733 172.342 87.666 171.947C86.2513 171.162 84.8366 170.42 83.416 169.797C82.7027 169.485 81.9895 169.21 81.2643 168.988C80.9017 168.898 80.5391 168.802 80.1765 168.772C79.8139 168.736 79.4335 168.736 79.065 168.736C76.0989 168.766 73.2993 169.294 70.7671 170.03C68.2409 170.833 65.893 171.582 63.7413 172.265C59.4497 173.618 55.9725 174.721 53.5592 175.481C52.3644 175.853 51.4312 176.14 50.7893 176.344C50.4802 176.434 50.2424 176.512 50.0641 176.56C49.9036 176.607 49.8145 176.625 49.8145 176.625L49.8323 176.637Z" fill="#595959"/>
<path d="M77.4319 162.824C76.5522 162.89 65.4428 163.405 65.4428 163.405C65.4428 163.405 75.8448 162.543 76.249 161.95C76.3144 161.848 76.362 161.734 76.3917 161.614C76.576 160.83 76.035 160.057 75.2683 159.847C74.2697 159.572 72.4449 159.224 69.4372 159.122C66.5008 159.027 63.939 159.075 63.939 159.075C63.939 159.075 59.6652 157.589 58.518 157.691C56.1047 157.9 43.6817 158.919 43.6817 158.919L37.7793 166.508C37.7793 166.508 49.4177 175.14 57.1212 175.032C57.1212 175.032 59.683 174.972 61.6029 173.876C63.5229 172.78 68.3019 170.51 68.3019 170.51C68.3019 170.51 77.6043 169.12 77.527 166.508C77.527 166.508 79.4588 165.664 79.3934 164.418C79.3221 163.172 78.3235 162.77 77.4378 162.836L77.4319 162.824Z" fill="#FCC8CD"/>
<path d="M43.6759 158.913C43.6759 158.913 43.8007 158.889 44.0384 158.865C44.294 158.841 44.6507 158.805 45.1084 158.757C46.0594 158.673 47.4444 158.548 49.2038 158.386C50.9811 158.23 53.1447 158.044 55.6412 157.829C56.2653 157.775 56.9132 157.721 57.5789 157.661C57.9118 157.637 58.2447 157.595 58.5954 157.583C58.9579 157.583 59.3027 157.643 59.6534 157.715C61.0502 158.015 62.4768 158.464 63.9628 158.961H63.9271C67.452 159.069 71.3988 158.661 75.5418 159.806C76.0589 160.033 76.475 160.53 76.5404 161.123C76.5701 161.417 76.5344 161.716 76.3739 161.992C76.2372 162.172 76.0827 162.184 75.9519 162.238C75.8152 162.28 75.6844 162.315 75.5477 162.345C74.4778 162.579 73.3841 162.711 72.2785 162.855C70.0614 163.124 67.7789 163.346 65.4488 163.543L65.431 163.262C68.0464 163.136 70.7925 163.004 73.5802 162.867C74.4005 162.825 75.2149 162.789 76.0292 162.747C76.4334 162.729 76.8376 162.711 77.2418 162.687C77.646 162.651 78.0977 162.669 78.49 162.843C78.8942 163.004 79.2271 163.346 79.3876 163.753C79.4648 163.957 79.5005 164.172 79.5183 164.382C79.5183 164.604 79.4946 164.831 79.3935 165.029C79.2211 165.43 78.912 165.73 78.6029 165.987C78.282 166.239 77.9432 166.443 77.5746 166.616L77.6578 166.485C77.6578 167.018 77.3369 167.461 76.9862 167.76C76.6295 168.072 76.2313 168.312 75.833 168.521C75.0187 168.929 74.1746 169.228 73.3365 169.486C71.6484 169.995 69.9722 170.348 68.3138 170.612L68.3495 170.6C66.1324 171.666 63.9866 172.69 62.0013 173.763C61.0265 174.362 59.9328 174.715 58.8747 174.913C58.3398 175.014 57.8107 175.08 57.2817 175.11C56.7468 175.11 56.2296 175.062 55.7185 175.038C53.6796 174.805 51.8429 174.188 50.1846 173.559C48.5202 172.924 47.0521 172.181 45.7325 171.504C43.1112 170.109 41.1259 168.827 39.7885 167.928C39.1227 167.479 38.6175 167.12 38.2787 166.868C38.1182 166.748 37.9934 166.652 37.8983 166.58C37.815 166.515 37.7734 166.479 37.7734 166.479C37.7734 166.479 37.821 166.503 37.9102 166.562C38.0053 166.628 38.136 166.718 38.3025 166.832C38.6591 167.072 39.1762 167.413 39.836 167.856C41.1853 168.731 43.1766 169.989 45.8038 171.36C47.1234 172.031 48.5916 172.756 50.2499 173.379C51.9024 174.002 53.7272 174.601 55.7422 174.823C56.2415 174.841 56.7587 174.889 57.2698 174.883C57.787 174.853 58.31 174.781 58.8331 174.679C59.8852 174.481 60.9254 174.134 61.8884 173.541C63.8855 172.457 66.0254 171.426 68.2425 170.354H68.2603L68.2782 170.342C69.9128 170.073 71.589 169.719 73.2593 169.21C74.0914 168.952 74.9236 168.653 75.7082 168.258C76.1005 168.054 76.4809 167.826 76.8078 167.539C77.1348 167.257 77.3844 166.88 77.3844 166.479V166.389L77.4676 166.347C78.1274 166.023 78.8348 165.568 79.1439 164.903C79.2271 164.741 79.239 164.562 79.2449 164.388C79.2271 164.202 79.1973 164.017 79.132 163.843C79.0012 163.501 78.7337 163.226 78.389 163.088C78.0442 162.938 77.6638 162.92 77.2715 162.956C76.8673 162.974 76.4631 162.998 76.0589 163.016C75.2446 163.058 74.4302 163.094 73.61 163.136C70.8163 163.268 68.0701 163.4 65.4548 163.525L65.4369 163.244C67.767 163.046 70.0495 162.825 72.2607 162.561C73.3663 162.423 74.46 162.291 75.5061 162.064C75.6369 162.034 75.7617 162.004 75.8865 161.962C76.0054 161.926 76.1421 161.872 76.1659 161.83C76.2848 161.639 76.3264 161.375 76.2967 161.135C76.2432 160.65 75.8925 160.219 75.4526 160.027C74.5016 159.71 73.4554 159.566 72.4628 159.44C71.4642 159.32 70.4775 159.26 69.5086 159.225C67.5708 159.201 65.7104 159.183 63.945 159.165H63.9212L63.9034 159.159C62.4293 158.655 61.0027 158.2 59.6296 157.901C59.2849 157.829 58.9401 157.763 58.6191 157.769C58.2863 157.781 57.9415 157.817 57.6086 157.841C56.9429 157.895 56.295 157.943 55.6709 157.997C53.1744 158.194 51.0108 158.362 49.2335 158.506C47.4681 158.638 46.0832 158.745 45.1321 158.817C44.6685 158.847 44.3119 158.871 44.0563 158.889C43.8126 158.901 43.6877 158.901 43.6877 158.901L43.6759 158.913Z" fill="#595959"/>
<path d="M77.6883 166.61C77.6883 166.61 77.4862 166.658 77.1177 166.694C76.6897 166.73 76.1666 166.772 75.5544 166.826C74.2348 166.928 72.4159 167.084 70.4009 167.269C68.3918 167.455 66.567 167.611 65.2415 167.701C64.5817 167.743 64.0467 167.772 63.6723 167.784C63.3037 167.796 63.0957 167.79 63.0957 167.772C63.0957 167.755 63.2978 167.719 63.6663 167.671C64.0943 167.623 64.6174 167.569 65.2237 167.497C66.6086 167.359 68.3978 167.179 70.3712 166.988C72.3862 166.802 74.211 166.682 75.5365 166.628C76.1963 166.604 76.7372 166.586 77.1058 166.586C77.4743 166.586 77.6823 166.592 77.6823 166.61H77.6883Z" fill="#595959"/>
<path d="M68.6343 170.348C68.6521 170.437 66.8689 170.749 64.6815 171.108C63.5878 171.294 62.607 171.492 61.8997 171.653C61.1924 171.815 60.7525 171.923 60.7406 171.887C60.7109 171.809 62.4287 171.186 64.634 170.833C65.7336 170.641 66.7322 170.515 67.4514 170.431C68.1766 170.348 68.6224 170.312 68.6283 170.348H68.6343Z" fill="#595959"/>
<path d="M72.5425 154.625L55.8397 157.758L54.96 141.075L50.502 126.328C50.6803 126.16 43.1195 131.533 42.858 140.746C42.6916 146.64 42.7629 153.708 42.9056 156.392C43.0423 159.075 43.3573 164.772 45.402 166.623C47.4468 168.474 51.1202 169.45 54.7104 168.839C58.8534 168.132 64.1554 166.461 64.1554 166.461L75.5799 162.795L72.5425 154.631V154.625Z" fill="#FCC8CD"/>
<path d="M72.5424 154.624C72.5424 154.624 72.6137 154.792 72.7504 155.14C72.8871 155.499 73.0892 156.014 73.3448 156.697C73.8738 158.087 74.6406 160.129 75.6392 162.765L75.663 162.831L75.5917 162.855C72.9584 163.705 69.7071 164.766 65.9386 165.988C64.0603 166.611 62.0274 167.228 59.8578 167.797C58.776 168.084 57.6526 168.36 56.4994 168.605C55.3463 168.845 54.1516 169.103 52.9033 169.132C51.661 169.168 50.383 169.037 49.1289 168.689C47.8747 168.354 46.6383 167.797 45.5743 166.94C45.0334 166.521 44.6055 165.928 44.3142 165.305C44.0229 164.676 43.803 164.011 43.6187 163.334C43.2799 161.974 43.0778 160.573 42.9471 159.141C42.6855 156.284 42.6499 153.337 42.6202 150.336C42.5964 147.328 42.6202 144.262 42.6974 141.141C42.7093 138.122 43.5534 135.175 44.9502 132.641C45.6457 131.371 46.4719 130.185 47.3873 129.107C47.8449 128.567 48.3264 128.052 48.8257 127.567C49.0754 127.322 49.331 127.088 49.5984 126.86L49.9967 126.525L50.1988 126.363L50.3058 126.285L50.3593 126.243L50.389 126.225L50.4068 126.213C50.4068 126.213 50.4306 126.195 50.4484 126.195C50.4603 126.195 50.4603 126.195 50.4841 126.189C50.5733 126.106 50.6743 126.495 50.5792 126.429L50.6149 126.291C52.19 131.515 53.682 136.462 55.061 141.039V141.051V141.063C55.382 147.382 55.6732 153.007 55.911 157.751L55.7981 157.661C61.0347 156.703 65.2193 155.93 68.1022 155.403C69.5288 155.146 70.6284 154.948 71.3892 154.81C71.7518 154.744 72.0371 154.696 72.2333 154.66C72.4235 154.63 72.5186 154.618 72.5186 154.618C72.5186 154.618 72.4175 154.642 72.2214 154.684C72.0193 154.726 71.734 154.78 71.3655 154.858C70.6046 155.008 69.499 155.223 68.0725 155.499C65.2015 156.05 61.0407 156.847 55.8337 157.847L55.7267 157.865V157.757C55.4652 153.019 55.1561 147.388 54.8113 141.075V141.105C53.4264 136.534 51.9285 131.586 50.3414 126.363L50.4247 126.273C50.4247 126.273 50.4722 126.387 50.4722 126.327C50.4722 126.321 50.4782 126.375 50.49 126.393C50.5198 126.471 50.5435 126.429 50.5316 126.441H50.5198L50.496 126.465L50.4484 126.501L50.3474 126.579L50.1453 126.734L49.753 127.064C49.4974 127.292 49.2418 127.519 48.9921 127.765C48.4988 128.244 48.0233 128.753 47.5715 129.286C46.668 130.353 45.8537 131.521 45.1642 132.773C43.7852 135.276 42.959 138.17 42.9471 141.147C42.8698 144.262 42.852 147.328 42.8698 150.33C42.8936 153.331 42.9292 156.272 43.1848 159.111C43.3156 160.531 43.5118 161.926 43.8446 163.262C44.2013 164.568 44.6649 165.928 45.7051 166.73C46.7275 167.557 47.9341 168.102 49.1586 168.438C50.383 168.779 51.6432 168.911 52.8617 168.881C54.0862 168.857 55.2631 168.611 56.4162 168.372C57.5694 168.126 58.6809 167.857 59.7627 167.575C61.9323 167.012 63.9533 166.407 65.8375 165.79C69.612 164.592 72.8752 163.556 75.5084 162.717L75.4668 162.807C74.5039 160.171 73.7609 158.135 73.2557 156.745C73.006 156.056 72.8158 155.529 72.685 155.164C72.5602 154.804 72.4948 154.618 72.4948 154.618L72.5424 154.624Z" fill="#595959"/>
<path d="M40.4337 148.095L57.9507 147.939L54.0277 121.044C54.0277 121.044 48.5651 120.637 45.5515 126.836C41.9078 134.342 40.4277 148.089 40.4277 148.089L40.4337 148.095Z" fill="#60C4F0"/>
<path d="M56.1731 157.757C56.1791 157.805 55.8105 157.871 55.2637 158.081C54.7168 158.291 53.9917 158.686 53.3378 159.297C52.684 159.914 52.2441 160.615 51.9945 161.148C51.7448 161.687 51.6557 162.046 51.6081 162.04C51.5784 162.04 51.6022 161.651 51.8102 161.07C52.0182 160.495 52.4522 159.734 53.1417 159.087C53.8312 158.44 54.6098 158.057 55.1983 157.889C55.7868 157.715 56.1672 157.721 56.1731 157.751V157.757Z" fill="#595959"/>
<path d="M72.3461 154.505C72.3461 154.505 74.9079 151.983 76.287 151.001C77.666 150.025 79.5443 147.06 79.5443 147.06C79.5443 147.06 80.6023 147.778 80.3764 148.887C80.1565 149.995 78.2366 153.128 78.4387 153.649C78.6408 154.17 80.002 154.817 80.3051 154.745C80.6083 154.673 87.9016 153.169 88.3712 153.786C88.8407 154.403 88.8467 155.458 88.1037 155.715C87.3607 155.973 83.2533 156.308 83.3782 156.847C83.503 157.387 88.6743 157.123 88.9121 157.794C89.1498 158.465 88.8764 159.345 88.0977 159.447C87.3191 159.555 83.4198 159.759 83.4554 160.232C83.4852 160.711 87.6519 160.28 87.9135 160.705C88.175 161.13 87.6519 161.987 87.1764 162.017C86.7009 162.047 81.6247 162.37 81.5415 163.041C81.4583 163.712 84.2817 164.413 84.5848 164.706C84.9831 165.09 84.1985 165.952 82.9621 165.539C82.5698 165.407 73.7667 163.287 72.7859 162.873C71.8052 162.46 72.3461 154.499 72.3461 154.499V154.505Z" fill="#FCC8CD"/>
<path d="M40.4336 148.095C40.4336 148.095 40.5465 148.077 40.7546 148.065C40.9923 148.053 41.3014 148.047 41.67 148.029C42.5081 148.011 43.6493 147.987 45.0462 147.957C47.929 147.922 51.8521 147.874 56.1912 147.82C56.7202 147.82 57.2374 147.814 57.7307 147.808L57.594 147.946C57.5762 143.938 57.5643 140.368 57.5524 137.762C57.5583 136.504 57.5643 135.474 57.5702 134.725C57.5762 134.39 57.5821 134.12 57.588 133.905C57.594 133.719 57.6059 133.617 57.6118 133.617C57.6237 133.617 57.6297 133.713 57.6415 133.905C57.6475 134.12 57.6594 134.39 57.6713 134.725C57.6891 135.48 57.7129 136.504 57.7426 137.762C57.7783 140.374 57.8258 143.944 57.8734 147.952V148.089H57.7366C57.2433 148.089 56.7262 148.101 56.1971 148.101C51.864 148.125 47.9409 148.143 45.0521 148.155C43.6553 148.149 42.5081 148.143 41.6759 148.137C41.3014 148.131 40.9983 148.125 40.7546 148.119C40.5465 148.113 40.4336 148.101 40.4336 148.095Z" fill="#020101"/>
<path d="M116.879 164.604C117.057 164.616 117.336 164.694 118.169 166.131C119.001 167.569 120.933 168.761 120.933 168.761C120.933 168.761 125.159 170.935 126.55 171.558C127.941 172.181 129.266 172.559 129.349 171.157C129.432 169.755 128.66 169.114 126.056 168.15L124.85 166.988L126.116 166.568L130.425 167.593C130.425 167.593 132.357 171.696 133.219 171.678C134.081 171.666 134.116 170.995 134.116 170.995L134.705 170.57L132.844 164.58L127.679 161.159L121.075 157.721L116.142 156.337L112.641 164.712L116.867 164.604H116.879Z" fill="#FCC8CD"/>
<path d="M126.347 160.273C126.347 160.273 126.513 160.357 126.811 160.542C127.132 160.746 127.566 161.021 128.118 161.369C129.272 162.118 130.9 163.178 132.915 164.484L132.951 164.508L132.963 164.55C133.51 166.293 134.146 168.311 134.847 170.534L134.877 170.63L134.794 170.689C134.609 170.821 134.407 170.965 134.205 171.115L134.264 171.007C134.235 171.312 134.045 171.576 133.783 171.708C133.652 171.774 133.516 171.804 133.379 171.822C133.266 171.846 133.052 171.828 132.927 171.744C132.446 171.42 132.172 170.977 131.869 170.534C131.287 169.641 130.775 168.677 130.288 167.664L130.395 167.748C129.01 167.419 127.566 167.077 126.086 166.73H126.175C125.836 166.838 125.479 166.958 125.111 167.077C125.039 167.101 124.974 167.125 124.909 167.143L124.968 166.874C125.372 167.269 125.776 167.653 126.169 168.036L126.115 168C126.763 168.24 127.399 168.497 128.011 168.821C128.6 169.144 129.236 169.593 129.432 170.318C129.527 170.666 129.533 171.007 129.491 171.36C129.468 171.534 129.408 171.714 129.301 171.876C129.194 172.037 129.022 172.151 128.844 172.211C128.481 172.313 128.142 172.253 127.827 172.181C127.512 172.103 127.215 171.995 126.93 171.876C124.701 170.821 122.691 169.773 120.884 168.874C119.898 168.228 119.066 167.509 118.447 166.718C118.138 166.311 117.936 165.885 117.693 165.52C117.574 165.334 117.449 165.161 117.318 165.005C117.187 164.855 117.045 164.705 116.89 164.699H116.896C115.571 164.717 114.524 164.729 113.775 164.741C113.437 164.741 113.163 164.741 112.955 164.741C112.771 164.741 112.676 164.735 112.676 164.723C112.676 164.717 112.771 164.705 112.955 164.693C113.163 164.681 113.437 164.669 113.775 164.651C114.524 164.622 115.576 164.58 116.896 164.532C117.146 164.55 117.312 164.735 117.449 164.891C117.591 165.053 117.716 165.233 117.847 165.418C118.103 165.79 118.311 166.215 118.608 166.592C119.214 167.347 120.046 168.048 121.009 168.671H121.003C122.816 169.545 124.837 170.582 127.048 171.618C127.595 171.828 128.225 172.073 128.754 171.935C129.271 171.786 129.271 170.971 129.135 170.42C128.974 169.833 128.433 169.426 127.863 169.114C127.28 168.803 126.65 168.551 126.008 168.317L125.979 168.305L125.955 168.281C125.556 167.898 125.158 167.515 124.748 167.119L124.558 166.934L124.808 166.85C124.873 166.826 124.944 166.802 125.01 166.784C125.372 166.664 125.735 166.544 126.074 166.431L126.115 166.419L126.157 166.431C127.637 166.784 129.081 167.125 130.466 167.455L130.538 167.473L130.573 167.539C131.055 168.539 131.56 169.503 132.125 170.378C132.41 170.797 132.713 171.253 133.076 171.492C133.212 171.594 133.48 171.534 133.658 171.456C133.842 171.372 133.961 171.181 133.985 171.007V170.935L134.045 170.899C134.253 170.755 134.455 170.606 134.639 170.48L134.585 170.636C133.908 168.407 133.29 166.383 132.755 164.634L132.802 164.693C130.811 163.352 129.2 162.261 128.059 161.495C127.524 161.123 127.102 160.83 126.787 160.614C126.496 160.41 126.347 160.297 126.353 160.291L126.347 160.273Z" fill="#595959"/>
<path d="M125.099 200.437C123.548 198.19 120.73 197.136 118.026 196.938C115.315 196.741 112.611 197.268 109.906 197.525C107.202 197.783 104.355 197.741 101.929 196.507C100.414 195.734 99.1297 194.536 97.5843 193.829C95.2126 192.745 90.4336 193.614 86.4392 196.848C86.4392 196.848 82.4329 196.471 77.5529 194.159L75.6211 208.152C86.6413 209.655 100.556 211.53 112.902 214.561C114.584 214.975 118.87 216.041 120.605 215.999C122.335 215.957 125.105 216.173 126.187 214.807C127.358 213.327 127.625 211.063 127.691 209.176C127.786 206.373 126.698 202.743 125.105 200.437H125.099Z" fill="#595959"/>
<path d="M33.6909 166.538C33.6909 166.538 10.6875 150.748 3.31692 161.632C-4.05367 172.516 2.71062 183.293 5.86096 186.3C12.2151 192.356 34.4636 201.802 47.7961 205.684C61.1285 209.565 77.9263 209.182 77.9263 209.182L84.5717 195.249C84.5717 195.249 41.6797 173.283 33.6909 166.532V166.538Z" fill="#020101"/>
<path d="M57.3083 207.745C57.3083 207.745 57.1597 207.733 56.8863 207.679C56.5891 207.619 56.1908 207.541 55.6915 207.439C54.6573 207.23 53.1594 206.906 51.3108 206.487C47.6195 205.648 42.5315 204.42 37.0273 202.671C34.2752 201.785 31.6896 200.838 29.3654 199.904C28.2123 199.412 27.1067 198.963 26.1022 198.49C25.0857 198.035 24.1525 197.574 23.3085 197.148C22.4525 196.735 21.7095 196.31 21.0498 195.95C20.384 195.597 19.8253 195.267 19.3735 194.986C18.9396 194.722 18.5949 194.507 18.3333 194.351C18.0956 194.201 17.9767 194.123 17.9826 194.111C17.9826 194.105 18.1193 194.171 18.3631 194.303C18.6305 194.453 18.9872 194.644 19.427 194.896C19.8847 195.159 20.4494 195.477 21.1211 195.812C21.7868 196.154 22.5358 196.567 23.3976 196.968C24.2476 197.382 25.1808 197.837 26.1973 198.274C27.2078 198.742 28.3074 199.185 29.4605 199.664C31.7847 200.587 34.3703 201.521 37.1164 202.408C42.6147 204.157 47.6849 205.415 51.3643 206.301C53.1831 206.732 54.6632 207.086 55.7212 207.343C56.2146 207.463 56.6069 207.559 56.9041 207.631C57.1716 207.703 57.3142 207.739 57.3142 207.751L57.3083 207.745Z" fill="#B1B0B0"/>
</svg>
